<svg width="290" height="200" viewBox="0 0 290 200" fill="none" xmlns="http://www.w3.org/2000/svg">
<ellipse opacity="0.2" cx="145" cy="186.5" rx="145" ry="13.5" fill="#121212"/>
<rect x="113" y="128.417" width="88.2485" height="52.9808" rx="4" transform="rotate(-1.56941 113 128.417)" fill="#F8F8F8"/>
<g opacity="0.2">
<rect x="113.356" y="141.407" width="88.2485" height="0.999638" transform="rotate(-1.56941 113.356 141.407)" fill="#529FCE"/>
<rect x="113.547" y="148.402" width="88.2485" height="0.999638" transform="rotate(-1.56941 113.547 148.402)" fill="#529FCE"/>
<rect x="113.712" y="154.398" width="88.2485" height="0.999638" transform="rotate(-1.56941 113.712 154.398)" fill="#529FCE"/>
<rect x="113.876" y="160.393" width="88.2485" height="0.999638" transform="rotate(-1.56941 113.876 160.393)" fill="#529FCE"/>
<rect x="114.041" y="166.389" width="88.2485" height="0.999638" transform="rotate(-1.56941 114.041 166.389)" fill="#529FCE"/>
<rect x="114.205" y="172.385" width="88.2485" height="0.999638" transform="rotate(-1.56941 114.205 172.385)" fill="#529FCE"/>
<rect x="123.014" y="129.143" width="0.832533" height="51.9812" transform="rotate(-1.56941 123.014 129.143)" fill="#529FCE"/>
<rect x="137.994" y="128.732" width="0.832533" height="51.9812" transform="rotate(-1.56941 137.994 128.732)" fill="#529FCE"/>
<rect x="152.974" y="128.322" width="0.832533" height="51.9812" transform="rotate(-1.56941 152.974 128.322)" fill="#529FCE"/>
<rect x="167.954" y="127.911" width="0.832533" height="51.9812" transform="rotate(-1.56941 167.954 127.911)" fill="#529FCE"/>
<rect x="182.934" y="127.501" width="0.832533" height="51.9812" transform="rotate(-1.56941 182.934 127.501)" fill="#529FCE"/>
</g>
<g opacity="0.4">
<rect x="125.62" y="133.071" width="11.6555" height="3.99855" rx="1.99928" transform="rotate(-1.56941 125.62 133.071)" fill="#25C2FE"/>
<rect opacity="0.3" x="125.894" y="143.064" width="5.82773" height="3.99855" rx="1.99928" transform="rotate(-1.56941 125.894 143.064)" fill="#25C2FE"/>
<rect opacity="0.3" x="142.538" y="142.608" width="5.82773" height="3.99855" rx="1.99928" transform="rotate(-1.56941 142.538 142.608)" fill="#25C2FE"/>
<rect opacity="0.3" x="157.518" y="142.197" width="5.82773" height="3.99855" rx="1.99928" transform="rotate(-1.56941 157.518 142.197)" fill="#25C2FE"/>
<rect opacity="0.3" x="173.331" y="141.764" width="5.82773" height="3.99855" rx="1.99928" transform="rotate(-1.56941 173.331 141.764)" fill="#25C2FE"/>
<rect opacity="0.3" x="189.975" y="141.308" width="5.82773" height="3.99855" rx="1.99928" transform="rotate(-1.56941 189.975 141.308)" fill="#25C2FE"/>
<rect opacity="0.3" x="126.058" y="149.059" width="5.82773" height="3.99855" rx="1.99928" transform="rotate(-1.56941 126.058 149.059)" fill="#25C2FE"/>
<rect opacity="0.3" x="142.703" y="148.603" width="5.82773" height="3.99855" rx="1.99928" transform="rotate(-1.56941 142.703 148.603)" fill="#25C2FE"/>
<rect opacity="0.3" x="157.683" y="148.193" width="5.82773" height="3.99855" rx="1.99928" transform="rotate(-1.56941 157.683 148.193)" fill="#25C2FE"/>
<rect opacity="0.3" x="173.495" y="147.76" width="5.82773" height="3.99855" rx="1.99928" transform="rotate(-1.56941 173.495 147.76)" fill="#25C2FE"/>
<rect opacity="0.3" x="190.139" y="147.304" width="5.82773" height="3.99855" rx="1.99928" transform="rotate(-1.56941 190.139 147.304)" fill="#25C2FE"/>
<rect x="154.748" y="132.273" width="11.6555" height="3.99855" rx="1.99928" transform="rotate(-1.56941 154.748 132.273)" fill="#25C2FE"/>
<rect x="139.768" y="132.684" width="11.6555" height="3.99855" rx="1.99928" transform="rotate(-1.56941 139.768 132.684)" fill="#25C2FE"/>
<rect x="170.56" y="131.84" width="11.6555" height="3.99855" rx="1.99928" transform="rotate(-1.56941 170.56 131.84)" fill="#25C2FE"/>
<rect x="187.205" y="131.384" width="11.6555" height="3.99855" rx="1.99928" transform="rotate(-1.56941 187.205 131.384)" fill="#25C2FE"/>
</g>
<path d="M162.559 110.897C144.159 88.1969 124.459 27.5969 169.459 26.7969C180.959 -6.50307 271.659 9.29694 215.559 108.397L162.559 110.897Z" fill="#F78B2B"/>
<path d="M222.759 41.6969C219.559 61.0969 204.359 75.8969 185.959 75.8969C171.059 75.8969 158.259 66.1969 152.159 52.1969C151.059 71.7969 159.759 97.7969 168.059 110.997L209.359 108.497C222.359 79.2969 225.259 57.2969 222.759 41.6969Z" fill="#E56C1A"/>
<path d="M184.459 102.397L178.359 96.3969L197.659 94.6969L193.459 101.497L184.459 102.397Z" fill="#77C6E5"/>
<path d="M184.959 99.697V88.397C190.459 88.897 190.459 88.897 190.459 88.897L191.559 100.197L184.959 99.697Z" fill="#FFCB9C"/>
<path d="M225.559 131.897C221.859 126.197 205.059 98.5969 194.659 97.7969L195.059 104.097C195.059 104.097 208.159 109.597 223.959 133.597L225.559 131.897Z" fill="#529FCE"/>
<path d="M224.059 129.497L222.759 130.897C209.459 110.697 198.159 103.197 194.859 101.397L194.959 104.097C194.959 104.097 208.059 109.597 223.859 133.597L225.459 131.797C225.159 131.297 224.659 130.497 224.059 129.497Z" fill="#418BAF"/>
<path d="M220.459 114.897L211.859 121.797C211.859 121.797 218.059 142.097 228.459 137.997C238.959 133.897 232.959 123.597 226.459 125.197L220.459 114.897Z" fill="#8AD8FF"/>
<path d="M157.26 136.897C160.46 130.797 174.56 101.097 185.06 99.2969L185.16 106.097C185.16 106.097 172.46 112.997 159.06 138.497L157.26 136.897Z" fill="#529FCE"/>
<path d="M159.86 136.197L158.26 134.897C157.86 135.697 157.46 136.397 157.26 136.897L159.06 138.497C172.46 112.897 185.16 106.097 185.16 106.097L184.96 103.397C182.06 105.297 171.36 114.397 159.86 136.197Z" fill="#418BAF"/>
<path d="M168.104 134.864L158.314 129.792C158.314 129.792 142.26 143.677 150.218 151.528C158.217 159.471 165.207 149.816 161.114 144.519L168.104 134.864Z" fill="#8AD8FF"/>
<path d="M180.259 138.697C179.459 131.497 176.259 101.497 183.459 99.6969C190.559 97.7969 196.859 96.6969 198.259 99.6969C199.559 102.697 205.859 131.497 203.759 137.597C201.559 143.597 180.259 138.697 180.259 138.697Z" fill="#529FCE"/>
<path d="M199.159 107.497C200.859 116.697 202.859 130.797 202.859 138.797C203.259 138.497 203.559 138.097 203.659 137.597C205.359 133.097 202.159 115.297 199.959 106.197C199.459 103.597 198.559 104.097 199.159 107.497Z" fill="#418BAF"/>
<path d="M191.36 179.397C187.26 170.297 175.06 145.597 180.06 124.797C180.06 124.797 201.46 125.697 202.56 126.397C203.66 127.097 208.06 159.097 199.56 181.197L198.46 180.997C198.46 180.997 205.46 144.097 192.96 143.897C180.76 143.697 193.26 179.097 193.26 179.097L191.36 179.397Z" fill="#529FCE"/>
<path d="M203.86 135.697H179.06V137.297H203.86V135.697Z" fill="#418BAF"/>
<path d="M202.559 126.397C202.459 126.297 202.259 126.297 201.959 126.197C203.359 133.097 205.559 158.297 199.059 177.297C198.759 179.597 198.459 180.997 198.459 180.997L199.559 181.197C207.959 159.097 203.559 127.097 202.559 126.397Z" fill="#418BAF"/>
<path d="M192.96 143.897C194.76 143.897 196.26 144.797 197.26 146.197C196.16 143.597 194.36 141.997 191.76 141.897C179.56 141.697 192.06 177.097 192.06 177.097L190.36 177.297C190.66 177.997 191.06 178.697 191.26 179.297L193.16 179.097C193.26 179.097 180.66 143.697 192.96 143.897Z" fill="#418BAF"/>
<path d="M191.36 178.597C189.56 181.297 189.96 186.697 189.96 186.697C189.96 186.697 193.96 180.097 193.16 178.897C192.26 177.697 191.36 178.597 191.36 178.597Z" fill="#8AD8FF"/>
<path d="M200.659 179.897C202.859 182.597 202.359 187.997 202.359 187.997C202.359 187.997 197.359 181.397 198.459 180.197C199.559 178.897 200.659 179.897 200.659 179.897Z" fill="#8AD8FF"/>
<path d="M190.359 168.997L187.159 169.797L191.059 180.597L193.459 179.197L190.359 168.997Z" fill="#8AD8FF"/>
<path d="M199.959 170.397L202.459 171.197L201.359 181.197L198.459 180.597L199.959 170.397Z" fill="#8AD8FF"/>
<path d="M181.959 99.8969L189.659 105.897L195.959 97.7969C195.959 97.7969 189.859 95.9969 181.959 99.8969Z" fill="#77C6E5"/>
<path d="M182.459 115.497L189.859 122.097L198.159 112.297L189.359 118.197L182.459 115.497Z" fill="#9FE8FF"/>
<path d="M185.659 122.097L190.659 127.497L194.159 121.097L190.359 124.897L185.659 122.097Z" fill="#9FE8FF"/>
<path opacity="0.5" d="M205.96 105.297C202.36 101.597 198.86 98.797 195.76 98.097L195.96 97.897C195.96 97.897 195.86 97.897 195.76 97.897L197.66 94.897L191.06 95.497L190.86 93.397C190.26 93.397 189.66 93.397 189.06 93.397C187.66 93.397 186.26 93.397 184.96 93.497V95.997L178.36 96.597L181.96 100.097L182.16 100.297L182.36 100.497C182.26 100.597 182.16 100.597 182.16 100.697C180.16 101.897 178.06 103.797 176.06 106.197C179.96 106.797 184.36 107.097 189.16 107.097C195.56 106.897 201.46 106.297 205.96 105.297Z" fill="#66493D"/>
<path d="M151.06 56.2969C151.16 67.9969 160.76 94.3969 185.86 94.9969C210.66 95.5969 221.56 67.7969 221.36 56.2969C221.16 49.5969 217.76 27.3969 187.06 28.2969C161.66 29.0969 151.06 44.5969 151.06 56.2969Z" fill="#FFCB9C"/>
<mask id="mask0" mask-type="alpha" maskUnits="userSpaceOnUse" x="151" y="28" width="71" height="68">
<path d="M151.06 56.2969C151.16 67.9969 160.76 94.3969 185.86 94.9969C210.66 95.5969 221.56 67.7969 221.36 56.2969C221.16 49.5969 217.76 27.3969 187.06 28.2969C161.66 29.0969 151.06 44.5969 151.06 56.2969Z" fill="url(#paint0_linear)"/>
</mask>
<g mask="url(#mask0)">
<path opacity="0.3" d="M151.06 56.2969C151.16 67.9969 160.76 94.3969 185.86 94.9969C210.66 95.5969 221.56 67.7969 221.36 56.2969C221.16 49.5969 217.76 27.3969 187.06 28.2969C161.66 29.0969 151.06 44.5969 151.06 56.2969Z" fill="url(#paint1_linear)"/>
<path d="M171.859 30.2969C180.159 33.2969 180.059 39.2969 189.059 38.2969C198.059 37.2969 201.259 36.4969 206.259 37.5969C206.259 37.5969 200.959 34.7969 191.759 36.5969C182.559 38.3969 176.959 27.0969 174.459 27.7969C171.959 28.4969 171.859 30.2969 171.859 30.2969Z" fill="#F78B2B"/>
<path d="M174.959 26.997C183.559 29.097 184.059 34.997 192.859 33.097C201.659 31.097 204.759 29.897 209.859 30.497C209.859 30.497 204.259 28.297 195.359 31.097C186.459 33.897 179.559 23.297 177.159 24.197C174.759 25.197 174.959 26.997 174.959 26.997Z" fill="#F78B2B"/>
<path opacity="0.5" d="M203.66 79.697C203.936 79.697 204.16 79.5179 204.16 79.297C204.16 79.0761 203.936 78.897 203.66 78.897C203.384 78.897 203.16 79.0761 203.16 79.297C203.16 79.5179 203.384 79.697 203.66 79.697Z" fill="#DD7F33"/>
<path opacity="0.5" d="M206.06 76.2969C206.336 76.2969 206.56 76.1179 206.56 75.8969C206.56 75.676 206.336 75.4969 206.06 75.4969C205.783 75.4969 205.56 75.676 205.56 75.8969C205.56 76.1179 205.783 76.2969 206.06 76.2969Z" fill="#DD7F33"/>
<path opacity="0.5" d="M203.96 74.7969C204.236 74.7969 204.46 74.6179 204.46 74.3969C204.46 74.176 204.236 73.9969 203.96 73.9969C203.684 73.9969 203.46 74.176 203.46 74.3969C203.46 74.6179 203.684 74.7969 203.96 74.7969Z" fill="#DD7F33"/>
<path opacity="0.5" d="M182.26 72.9969C182.536 72.9969 182.76 72.8178 182.76 72.5969C182.76 72.376 182.536 72.1969 182.26 72.1969C181.984 72.1969 181.76 72.376 181.76 72.5969C181.76 72.8178 181.984 72.9969 182.26 72.9969Z" fill="#DD7F33"/>
<path opacity="0.5" d="M176.66 80.9969C176.936 80.9969 177.16 80.8178 177.16 80.5969C177.16 80.376 176.936 80.1969 176.66 80.1969C176.384 80.1969 176.16 80.376 176.16 80.5969C176.16 80.8178 176.384 80.9969 176.66 80.9969Z" fill="#DD7F33"/>
<path opacity="0.5" d="M172.66 79.4969C172.936 79.4969 173.16 79.3178 173.16 79.0969C173.16 78.876 172.936 78.6969 172.66 78.6969C172.384 78.6969 172.16 78.876 172.16 79.0969C172.16 79.3178 172.384 79.4969 172.66 79.4969Z" fill="#DD7F33"/>
<path opacity="0.5" d="M175.86 78.4969C176.136 78.4969 176.36 78.3178 176.36 78.0969C176.36 77.876 176.136 77.6969 175.86 77.6969C175.584 77.6969 175.36 77.876 175.36 78.0969C175.36 78.3178 175.584 78.4969 175.86 78.4969Z" fill="#DD7F33"/>
<path opacity="0.5" d="M174.66 75.3969C174.936 75.3969 175.16 75.2178 175.16 74.9969C175.16 74.776 174.936 74.5969 174.66 74.5969C174.384 74.5969 174.16 74.776 174.16 74.9969C174.16 75.2178 174.384 75.3969 174.66 75.3969Z" fill="#DD7F33"/>
<path opacity="0.5" d="M177.86 76.0969C178.136 76.0969 178.36 75.9178 178.36 75.6969C178.36 75.476 178.136 75.2969 177.86 75.2969C177.584 75.2969 177.36 75.476 177.36 75.6969C177.36 75.9178 177.584 76.0969 177.86 76.0969Z" fill="#DD7F33"/>
<path opacity="0.5" d="M168.76 76.7969C169.036 76.7969 169.26 76.6179 169.26 76.3969C169.26 76.176 169.036 75.9969 168.76 75.9969C168.484 75.9969 168.26 76.176 168.26 76.3969C168.26 76.6179 168.484 76.7969 168.76 76.7969Z" fill="#DD7F33"/>
<path opacity="0.5" d="M200.36 75.7969C200.636 75.7969 200.86 75.6179 200.86 75.3969C200.86 75.176 200.636 74.9969 200.36 74.9969C200.084 74.9969 199.86 75.176 199.86 75.3969C199.86 75.6179 200.084 75.7969 200.36 75.7969Z" fill="#DD7F33"/>
<path opacity="0.5" d="M199.26 78.2969C199.536 78.2969 199.76 78.1179 199.76 77.8969C199.76 77.676 199.536 77.4969 199.26 77.4969C198.984 77.4969 198.76 77.676 198.76 77.8969C198.76 78.1179 198.984 78.2969 199.26 78.2969Z" fill="#DD7F33"/>
<path opacity="0.5" d="M196.66 73.697C196.936 73.697 197.16 73.5179 197.16 73.297C197.16 73.0761 196.936 72.897 196.66 72.897C196.384 72.897 196.16 73.0761 196.16 73.297C196.16 73.5179 196.384 73.697 196.66 73.697Z" fill="#DD7F33"/>
<path d="M222.059 44.0969C214.759 36.9969 201.659 35.6969 196.359 41.6969C190.659 47.7969 182.559 48.1969 176.359 41.6969C176.159 41.4969 176.059 41.3969 175.859 41.2969C169.959 35.9969 157.159 39.0969 150.959 47.1969C144.759 55.2969 155.159 74.1969 158.759 74.8969C165.259 76.0969 181.459 74.2969 183.959 68.9969C187.359 61.9969 190.359 65.1969 192.859 69.2969C195.959 74.2969 211.759 74.7969 218.159 72.5969C221.659 71.3969 229.459 51.1969 222.059 44.0969Z" fill="#4290B7"/>
<path d="M156.759 43.897C156.759 43.897 146.259 37.297 144.559 38.797C142.859 40.297 148.159 47.497 148.159 47.497C148.159 47.497 143.459 44.397 141.659 46.497C139.759 48.597 146.559 54.297 146.559 54.297C146.559 54.297 141.559 52.597 140.259 54.997C138.959 57.397 151.859 65.697 151.859 65.697L156.759 43.897Z" fill="#4290B7"/>
<path d="M213.26 40.3969C213.26 40.3969 222.96 30.3969 225.16 31.2969C227.36 32.1969 223.46 41.1969 223.46 41.1969C223.46 41.1969 227.76 36.4969 230.26 38.0969C232.86 39.5969 226.86 47.4969 226.86 47.4969C226.86 47.4969 231.86 44.0969 233.96 46.0969C236.06 48.0969 224.06 60.5969 224.06 60.5969L213.26 40.3969Z" fill="#4290B7"/>
<path d="M207.659 48.0969C198.159 48.0969 190.459 54.9969 190.459 63.3969C190.459 64.4969 190.559 65.5969 190.859 66.5969C191.559 67.3969 192.159 68.2969 192.759 69.2969C195.859 74.2969 211.659 74.7969 218.059 72.5969C219.859 71.9969 222.859 66.1969 224.259 59.7969C222.559 53.0969 215.759 48.0969 207.659 48.0969Z" fill="#5BB4D8"/>
<path d="M165.959 49.6968C175.559 48.4968 184.559 54.3968 185.859 62.6968C186.059 63.7968 186.059 64.8968 185.959 65.8968C185.359 66.6968 184.859 67.6968 184.459 68.7968C182.159 74.0968 166.059 76.5968 159.259 75.1968C157.259 74.7968 153.359 69.4968 150.859 63.2968C151.659 56.3968 157.659 50.6968 165.959 49.6968Z" fill="#5BB4D8"/>
<path d="M155.965 81.7487C157.324 80.9016 157.36 78.505 156.046 76.3957C154.731 74.2864 152.564 73.2633 151.204 74.1104C149.845 74.9575 149.809 77.3541 151.123 79.4633C152.438 81.5726 154.605 82.5957 155.965 81.7487Z" fill="#FFCB9C"/>
<path d="M155.785 80.6278C156.77 80.0144 156.81 78.3012 155.875 76.8012C154.94 75.3013 153.385 74.5827 152.4 75.1961C151.416 75.8095 151.376 77.5227 152.311 79.0226C153.245 80.5225 154.801 81.2412 155.785 80.6278Z" fill="#EFA460"/>
<path d="M155.945 78.6822C156.46 78.3609 156.476 77.4544 155.979 76.6576C155.483 75.8608 154.662 75.4753 154.146 75.7966C153.631 76.1179 153.615 77.0244 154.112 77.8212C154.609 78.618 155.429 79.0035 155.945 78.6822Z" fill="#FFCB9C"/>
<path d="M222.559 78.0969C223.959 76.3969 224.159 74.0969 222.859 72.9969C221.559 71.8969 219.359 72.4969 217.959 74.1969C216.559 75.8969 216.359 78.1969 217.659 79.2969C218.959 80.3969 221.159 79.8969 222.559 78.0969Z" fill="#FFCB9C"/>
<path d="M221.66 77.4969C222.66 76.2969 222.76 74.6969 221.86 73.9969C220.96 73.2969 219.46 73.6969 218.46 74.8969C217.46 76.0969 217.36 77.6969 218.26 78.3969C219.06 79.0969 220.66 78.6969 221.66 77.4969Z" fill="#EFA460"/>
<path d="M217.511 76.8606C217.978 77.2488 218.786 77.0469 219.316 76.4097C219.845 75.7725 219.895 74.9412 219.428 74.553C218.961 74.1648 218.153 74.3667 217.624 75.0039C217.094 75.6411 217.044 76.4724 217.511 76.8606Z" fill="#FFCB9C"/>
<path d="M215.96 42.197C215.96 42.197 216.86 29.797 214.66 28.997C212.56 28.197 208.66 36.297 208.66 36.297C208.66 36.297 209.26 30.697 206.46 29.997C203.66 29.397 201.86 37.997 201.86 37.997C201.86 37.997 201.06 32.797 198.26 32.697C195.46 32.697 194.26 47.997 194.26 47.997L215.96 42.197Z" fill="#4290B7"/>
<path d="M153.859 45.3969C153.859 45.3969 149.559 32.0969 151.459 30.5969C153.359 29.0969 159.459 36.7969 159.459 36.7969C159.459 36.7969 157.359 30.7969 159.859 29.2969C162.459 27.7969 166.559 36.6969 166.559 36.6969C166.559 36.6969 165.959 30.6969 168.659 29.7969C171.359 28.8969 176.759 45.2969 176.759 45.2969L153.859 45.3969Z" fill="#4290B7"/>
<path d="M194.859 69.0969C196.659 71.5969 208.959 73.1969 212.559 70.6969C215.059 65.8969 214.359 55.0969 206.059 53.5969C201.359 52.7969 192.459 59.2969 194.859 69.0969Z" fill="#317793"/>
<path d="M195.16 69.2969C196.86 71.6969 208.56 73.1969 212.06 70.7969C214.36 66.1969 213.76 55.8969 205.96 54.5969C201.26 53.6969 192.86 59.7969 195.16 69.2969Z" fill="#FFECDE"/>
<path d="M164.959 72.397C167.459 74.197 179.659 71.697 182.259 68.097C183.059 62.697 178.859 52.697 170.659 54.097C165.759 54.897 159.459 63.897 164.959 72.397Z" fill="#317793"/>
<path d="M165.06 72.4969C167.46 74.1969 179.16 71.7969 181.66 68.3969C182.46 63.3969 178.46 53.9969 170.46 55.2969C165.96 56.0969 159.76 64.4969 165.06 72.4969Z" fill="#FFECDE"/>
<path d="M194.26 84.5009L181.56 84.7009C181.56 84.7009 188.06 67.5009 194.26 84.5009Z" fill="#4C311B"/>
<path d="M193.26 83.801L191.46 80.501L184.76 80.601L182.76 84.101L193.26 83.801Z" fill="#FFEFE9"/>
<path d="M188.059 74.6969C190.047 74.6969 191.659 73.7568 191.659 72.597C191.659 71.4372 190.047 70.4969 188.059 70.4969C186.071 70.4969 184.459 71.4372 184.459 72.597C184.459 73.7568 186.071 74.6969 188.059 74.6969Z" fill="#EFA460"/>
<path d="M187.96 73.597C189.837 73.597 191.36 72.8806 191.36 71.997C191.36 71.1133 189.837 70.397 187.96 70.397C186.082 70.397 184.56 71.1133 184.56 71.997C184.56 72.8806 186.082 73.597 187.96 73.597Z" fill="#FFCB9C"/>
<path opacity="0.5" d="M188.859 69.397C189.136 69.397 189.359 69.1731 189.359 68.897C189.359 68.6208 189.136 68.397 188.859 68.397C188.583 68.397 188.359 68.6208 188.359 68.897C188.359 69.1731 188.583 69.397 188.859 69.397Z" fill="#DD7F33"/>
<path opacity="0.5" d="M186.56 68.897C186.836 68.897 187.06 68.6731 187.06 68.397C187.06 68.1208 186.836 67.897 186.56 67.897C186.283 67.897 186.06 68.1208 186.06 68.397C186.06 68.6731 186.283 68.897 186.56 68.897Z" fill="#DD7F33"/>
<path opacity="0.5" d="M188.659 66.2969C188.935 66.2969 189.159 66.073 189.159 65.7969C189.159 65.5207 188.935 65.2969 188.659 65.2969C188.383 65.2969 188.159 65.5207 188.159 65.7969C188.159 66.073 188.383 66.2969 188.659 66.2969Z" fill="#DD7F33"/>
<path d="M201.959 71.0969C204.334 71.0969 206.259 69.0822 206.259 66.5969C206.259 64.1116 204.334 62.0969 201.959 62.0969C199.584 62.0969 197.659 64.1116 197.659 66.5969C197.659 69.0822 199.584 71.0969 201.959 71.0969Z" fill="#535E27"/>
<path d="M173.959 71.0969C176.334 71.0969 178.259 69.0822 178.259 66.5969C178.259 64.1116 176.334 62.0969 173.959 62.0969C171.584 62.0969 169.659 64.1116 169.659 66.5969C169.659 69.0822 171.584 71.0969 173.959 71.0969Z" fill="#535E27"/>
<path d="M175.16 67.1969C175.933 67.1969 176.56 66.5253 176.56 65.6969C176.56 64.8685 175.933 64.1969 175.16 64.1969C174.387 64.1969 173.76 64.8685 173.76 65.6969C173.76 66.5253 174.387 67.1969 175.16 67.1969Z" fill="#869B2F"/>
<path d="M203.06 66.7969C203.778 66.7969 204.36 66.2149 204.36 65.4969C204.36 64.7789 203.778 64.1969 203.06 64.1969C202.342 64.1969 201.76 64.7789 201.76 65.4969C201.76 66.2149 202.342 66.7969 203.06 66.7969Z" fill="#869B2F"/>
<path d="M154.344 32.9098C153.963 32.2372 153.186 31.9568 152.61 32.2836C152.033 32.6103 151.875 33.4206 152.256 34.0933C152.637 34.766 153.414 35.0464 153.99 34.7196C154.567 34.3928 154.725 33.5825 154.344 32.9098Z" fill="#5BB4D8"/>
<path d="M162.311 31.6697C161.984 30.7895 161.132 30.294 160.407 30.563C159.682 30.832 159.359 31.7636 159.686 32.6438C160.013 33.524 160.865 34.0195 161.59 33.7505C162.315 33.4815 162.638 32.5499 162.311 31.6697Z" fill="#5BB4D8"/>
<path d="M207.666 33.7087C207.866 32.7912 207.415 31.9144 206.659 31.7502C205.904 31.5861 205.13 32.1968 204.93 33.1143C204.731 34.0318 205.182 34.9086 205.937 35.0727C206.693 35.2369 207.467 34.6262 207.666 33.7087Z" fill="#5BB4D8"/>
<path d="M214.852 32.4349C215.052 31.5175 214.601 30.6406 213.845 30.4763C213.09 30.3121 212.315 30.9227 212.116 31.8402C211.917 32.7577 212.367 33.6346 213.123 33.7988C213.879 33.9631 214.653 33.3524 214.852 32.4349Z" fill="#5BB4D8"/>
<path d="M224.352 34.9347C224.552 34.0172 224.101 33.1403 223.345 32.9761C222.59 32.8119 221.815 33.4225 221.616 34.34C221.417 35.2574 221.867 36.1344 222.623 36.2986C223.379 36.4628 224.153 35.8522 224.352 34.9347Z" fill="#5BB4D8"/>
<path d="M168.86 31.2969C168.26 31.3969 167.86 32.0969 167.96 32.7969C168.06 33.4969 168.66 33.9969 169.26 33.8969C169.86 33.7969 170.26 33.0969 170.16 32.3969C170.06 31.6969 169.46 31.1969 168.86 31.2969Z" fill="#5BB4D8"/>
<path d="M198.659 34.597C198.059 34.697 197.659 35.397 197.759 36.097C197.859 36.797 198.459 37.2969 199.059 37.1969C199.659 37.0969 200.059 36.3969 199.959 35.6969C199.859 34.9969 199.259 34.497 198.659 34.597Z" fill="#5BB4D8"/>
<path d="M214.959 55.1564C212.459 55.1564 207.559 54.3564 205.659 50.7564L204.159 51.6564C207.359 55.5564 209.859 55.9564 214.959 55.1564Z" fill="#418BAF"/>
<path d="M161.822 58.4433C164.062 57.3331 168.098 54.4404 168.201 50.3711L169.945 50.5114C168.72 55.4712 166.658 56.9398 161.822 58.4433Z" fill="#418BAF"/>
<path opacity="0.5" d="M205.308 78.3749C207.8 78.8709 209.986 78.4385 210.191 77.4094C210.395 76.3802 208.541 75.1438 206.05 74.6479C203.558 74.152 201.372 74.5843 201.167 75.6135C200.962 76.6427 202.816 77.879 205.308 78.3749Z" fill="#DD7F33"/>
<path opacity="0.5" d="M169.796 79.7703C172.315 79.4446 174.249 78.337 174.114 77.2963C173.98 76.2557 171.828 75.6761 169.309 76.0018C166.789 76.3275 164.856 77.4351 164.991 78.4758C165.125 79.5164 167.277 80.096 169.796 79.7703Z" fill="#DD7F33"/>
</g>
<path d="M109.2 99.9551C119.3 101.655 131.8 112.855 133 117.755C134.2 122.655 122.5 136.555 122.5 136.555L121.8 132.855C121.8 132.855 131.3 122.455 128.9 117.755C126.4 113.055 112.2 109.555 112.2 109.555L109.2 99.9551Z" fill="#C93C31"/>
<path d="M123.6 132.055C123.6 132.055 133.1 121.655 130.7 116.955C128.2 112.255 114 108.755 114 108.755L111.5 100.655C110.7 100.455 110 100.255 109.2 100.155L112.2 109.755C112.2 109.755 126.4 113.355 128.9 117.955C131.4 122.655 121.8 133.055 121.8 133.055L122.5 136.755C122.5 136.755 123.1 135.955 124.1 134.755L123.6 132.055Z" fill="#AF2D27"/>
<path d="M125 123.855C129.1 125.755 131.5 128.155 133.1 132.655L122.4 136.655C122.4 136.655 124.6 144.555 118.7 141.055C112.9 137.655 125 123.855 125 123.855Z" fill="#FCDE63"/>
<path d="M121.7 141.255C119.5 134.855 125.7 129.455 129.1 126.355C128 125.355 126.6 124.455 125 123.755C125 123.755 112.8 137.555 118.7 140.955C120.4 141.955 121.5 141.955 122.1 141.555C122 141.555 121.8 141.455 121.7 141.255Z" fill="#EAC23F"/>
<path d="M83.7998 96.955L105.2 95.655L105.8 99.455L92.6998 101.955L83.7998 96.955Z" fill="#EFBF48"/>
<path d="M101.1 175.755C107.8 174.755 111.7 102.555 100.1 100.055C88.5004 97.555 62.1004 143.455 56.4004 172.255C56.4004 172.255 68.9004 169.255 74.3004 169.255C79.8004 169.255 87.6004 177.655 101.1 175.755Z" fill="#6D1715"/>
<path d="M101.1 175.755C101.1 175.755 104.7 173.655 101.2 168.955C101.2 168.955 107 152.555 107.2 147.255C106.2 163.055 104.6 175.555 101.1 175.755Z" fill="#821F1A"/>
<path d="M99.1031 91.2854L93.0977 92.3541L94.7971 101.904L100.803 100.835L99.1031 91.2854Z" fill="#FFC673"/>
<path d="M69 184.855H79.5C79.5 184.855 89 152.555 97.6 150.555C119 145.555 114.9 185.755 114.9 185.755H126.4L118.6 181.355C118.6 181.355 125.1 107.155 110.8 100.455C106.4 98.4552 91.4 99.2552 87.4 103.955C83.4 108.655 91.5 133.155 87.9 145.655C84.3 158.255 76.3 181.555 76.3 181.555L69 184.855Z" fill="#C93C31"/>
<path d="M119.2 142.355H88.5996V146.955L120 145.755L119.2 142.355Z" fill="#AF2D27"/>
<path d="M78.0004 181.955C78.0004 181.955 88.1004 157.255 91.7004 144.655C94.4004 135.255 89.3004 119.855 88.3004 110.855C88.0004 107.855 86.2004 107.455 86.3004 110.455C86.7004 119.855 90.7004 136.155 87.9004 145.655C84.3004 158.255 76.3004 181.555 76.3004 181.555L68.9004 184.755H71.4004L78.0004 181.955Z" fill="#AF2D27"/>
<path d="M116.6 185.655C116.9 182.055 119 152.555 104.4 150.455C118 154.755 114.9 185.655 114.9 185.655H116.6Z" fill="#AF2D27"/>
<path d="M121.1 138.555L86.9004 138.855V145.355L121.1 145.055V138.555Z" fill="#FCDE63"/>
<path d="M94.8004 139.755C94.8004 139.455 94.8004 139.055 94.8004 138.755L86.9004 138.855V145.455L95.2004 145.355C94.9004 143.555 94.8004 141.655 94.8004 139.755Z" fill="#EAC23F"/>
<path d="M81.5003 128.055C79.9003 125.555 73.0003 122.555 70.5003 123.855C69.4003 125.455 76.6003 129.555 81.5003 128.055Z" fill="#D3A62A"/>
<path d="M70.0996 128.455C70.0996 128.455 81.0996 101.855 95.1996 100.255C95.1996 100.255 93.3996 105.655 90.6996 107.955C81.7996 115.655 73.8996 130.955 72.4996 130.955C71.1996 131.055 70.0996 128.455 70.0996 128.455Z" fill="#C93C31"/>
<path d="M71.2002 130.155C71.6002 130.655 72.1002 130.955 72.6002 130.955C73.9002 130.855 80.6002 118.055 88.5002 109.955C81.2002 116.455 74.6002 125.955 71.2002 130.155Z" fill="#AF2D27"/>
<path d="M70.5997 123.855C72.2997 126.955 75.2997 128.155 81.4997 128.055L70.3997 136.255C70.3997 136.255 74.5997 139.555 72.4997 142.955C70.7997 145.655 62.7997 145.955 64.1997 139.955C66.3997 131.055 70.5997 123.855 70.5997 123.855Z" fill="#FCDE63"/>
<path d="M66.6998 140.755C68.2998 134.155 71.0998 128.455 72.3998 125.955C71.6998 125.355 71.0998 124.655 70.5998 123.755C70.5998 123.755 66.3998 130.955 64.1998 139.855C63.3998 143.155 65.4998 144.555 67.7998 144.655C66.7998 143.955 66.1998 142.755 66.6998 140.755Z" fill="#EAC23F"/>
<path d="M92.0996 101.155L104.7 101.655L105.5 99.0552C99.0996 99.3552 96.0996 99.5552 92.0996 101.155Z" fill="#FFC673"/>
<path d="M89.5998 102.255L83.7998 96.9551L101.8 101.555L89.5998 102.255Z" fill="#FCDE63"/>
<path d="M114.9 185.655L118.6 181.355L120 169.455L114.2 171.455L114.9 185.655Z" fill="#FCDE63"/>
<path d="M79.4996 184.655L76.0996 181.155L79.9996 167.055L84.8996 171.455L79.4996 184.655Z" fill="#FCDE63"/>
<path d="M105.2 95.655L107.5 99.555L104.7 101.655L105.2 95.655Z" fill="#FCDE63"/>
<path d="M98.7002 123.455L103.6 110.255L110.4 122.155L98.7002 123.455Z" fill="#FCDE63"/>
<path d="M71.4 142.255C71.7 141.955 71.2 141.755 70.6 141.155C70 140.555 69.7 139.855 69.4 140.155C69.1 140.455 69.4 141.155 69.9 141.755C70.5 142.355 71.1 142.555 71.4 142.255Z" fill="#EAC23F"/>
<path opacity="0.5" d="M119.6 104.355C117 102.755 114.2 101.355 111.5 100.555C111.1 100.455 110.8 100.355 110.4 100.255H110.3C110.2 100.255 110.2 100.255 110.1 100.255C109.4 100.055 108.4 99.8551 107.4 99.6551L107.5 99.5551L105.3 95.6551L99.9 95.9551L99.1 91.2551L93.1 92.3551L93.8 96.3551L83.8 96.9551L89.6 102.255C87.2 103.555 85 105.555 83 107.755C86.8 108.355 91.1 108.755 95.7 108.755C105.8 108.655 114.7 106.855 119.6 104.355Z" fill="#66493D"/>
<path d="M117.8 42.3552C123.8 42.7552 131.9 41.7552 135 32.1552C135 32.1552 123.6 35.2552 124.7 23.5552L117.8 42.3552Z" fill="#49241B"/>
<path d="M48.9 58.6551L36.2 50.8551L32 62.7551L47.8 60.9551L48.9 58.6551Z" fill="#AD2D27"/>
<path d="M47.1998 64.4551L33.7998 71.1551L41.7998 81.0551L48.5998 66.6551L47.1998 64.4551Z" fill="#AD2D27"/>
<path d="M84.2004 91.0551C72.9004 91.7551 56.9005 88.3551 56.4005 81.9551C56.4005 81.9551 47.0004 83.3551 45.0004 76.2551C43.0004 69.1551 47.4005 66.2551 47.4005 66.2551L45.4005 55.9551C45.4005 55.9551 41.6004 55.4551 42.7004 58.6551C43.8004 61.8551 28.5005 52.0551 43.3005 46.1551C43.3005 46.1551 40.1004 37.4551 46.0004 35.2551C46.0004 35.2551 29.8005 31.6551 34.3005 22.7551C38.8005 13.8551 48.6005 16.7551 48.6005 16.7551C48.6005 16.7551 45.3004 9.45511 55.7004 7.35511C66.2004 5.25511 66.8004 11.7551 66.8004 11.7551C66.8004 11.7551 68.0004 4.65511 79.0004 5.55511C79.0004 5.55511 77.4004 -0.644892 85.0004 0.0551075C92.6004 0.755107 96.0004 4.85511 96.0004 4.85511C96.0004 4.85511 108 8.45511 105.7 1.85511C105.7 1.85511 142.9 -6.64489 123.2 39.2551L84.2004 91.0551Z" fill="#49241B"/>
<path d="M92.1 61.7551C72.3 61.7551 54.6999 55.5551 43.1999 45.7551C43.2999 46.0551 43.2999 46.1551 43.2999 46.1551C28.4999 52.0551 43.7999 61.8551 42.6999 58.6551C41.5999 55.4551 45.4 55.9551 45.4 55.9551L47.4 66.2551C47.4 66.2551 42.9999 69.0551 44.9999 76.2551C46.9999 83.3551 56.4 81.9551 56.4 81.9551C56.9 88.3551 72.8999 91.7551 84.1999 91.0551L107.2 60.5551C102.4 61.3551 97.3 61.7551 92.1 61.7551Z" fill="#381913"/>
<path d="M75.0997 89.655C92.0997 97.355 123.9 95.555 128.5 68.455C131.9 48.355 112.2 -1.74496 68.4997 39.155C54.5997 52.155 69.5997 87.255 75.0997 89.655Z" fill="#FFC673"/>
<path d="M128.7 64.8551L64.7998 65.5551V68.0551L128.5 68.1551L128.7 64.8551Z" fill="#DD9F4E"/>
<mask id="mask1" mask-type="alpha" maskUnits="userSpaceOnUse" x="62" y="23" width="67" height="71">
<path d="M75.0997 89.655C92.0997 97.355 123.9 95.555 128.5 68.455C131.9 48.355 112.2 -1.74496 68.4997 39.155C54.5997 52.155 69.5997 87.255 75.0997 89.655Z" fill="url(#paint2_linear)"/>
</mask>
<g mask="url(#mask1)">
<path opacity="0.3" d="M75.0997 89.655C92.0997 97.355 123.9 95.555 128.5 68.455C131.9 48.355 112.2 -1.74496 68.4997 39.155C54.5997 52.155 69.5997 87.255 75.0997 89.655Z" fill="url(#paint3_linear)"/>
<path d="M44.9004 58.8551L128 50.4551L130 66.5551L46.9004 67.2551L44.9004 58.8551Z" fill="#C93C31"/>
<path d="M63.8998 56.9551L44.7998 58.8551L46.8998 67.2551L66.2998 67.1551C64.9998 63.8551 64.1998 60.4551 63.8998 56.9551Z" fill="#AD2D27"/>
<path d="M66.8996 67.8551C62.8996 65.8551 58.3996 63.9551 56.6996 69.5551C54.9996 75.1551 62.8996 78.4551 67.3996 76.9551C71.9996 75.3551 66.8996 67.8551 66.8996 67.8551Z" fill="#FFC673"/>
<path d="M78.0996 64.4551C79.2996 61.1551 82.8996 51.5551 98.4996 62.9551L78.0996 64.4551Z" fill="#FFECDE"/>
<path d="M124.6 62.0551C122.7 59.1551 117.1 50.8551 106.7 62.2551L124.6 62.0551Z" fill="#FFECDE"/>
<path d="M116.9 62.0551C118.446 62.0551 119.7 60.8015 119.7 59.2551C119.7 57.7087 118.446 56.4551 116.9 56.4551C115.353 56.4551 114.1 57.7087 114.1 59.2551C114.1 60.8015 115.353 62.0551 116.9 62.0551Z" fill="#3A291E"/>
<path d="M86.7002 63.7551C88.357 63.7551 89.7002 62.412 89.7002 60.7551C89.7002 59.0983 88.357 57.7551 86.7002 57.7551C85.0433 57.7551 83.7002 59.0983 83.7002 60.7551C83.7002 62.412 85.0433 63.7551 86.7002 63.7551Z" fill="#3A291E"/>
<path d="M87.7 61.2551C88.3627 61.2551 88.9 60.7178 88.9 60.0551C88.9 59.3924 88.3627 58.8551 87.7 58.8551C87.0373 58.8551 86.5 59.3924 86.5 60.0551C86.5 60.7178 87.0373 61.2551 87.7 61.2551Z" fill="#705241"/>
<path d="M118 59.7552C118.608 59.7552 119.1 59.2627 119.1 58.6552C119.1 58.0477 118.608 57.5552 118 57.5552C117.393 57.5552 116.9 58.0477 116.9 58.6552C116.9 59.2627 117.393 59.7552 118 59.7552Z" fill="#705241"/>
<path d="M103.268 70.0362C105.57 69.7472 107.313 68.5356 107.161 67.3301C107.01 66.1245 105.021 65.3815 102.72 65.6705C100.418 65.9595 98.6755 67.1711 98.8269 68.3767C98.9782 69.5822 100.967 70.3252 103.268 70.0362Z" fill="#DD9F4E"/>
<path d="M103.811 69.0485C105.729 68.8067 107.183 67.8111 107.059 66.8249C106.934 65.8386 105.279 65.2351 103.361 65.4769C101.443 65.7188 99.9895 66.7143 100.114 67.7006C100.238 68.6868 101.894 69.2903 103.811 69.0485Z" fill="#FFC673"/>
<path d="M77 58.3C78.9 57.4 87.8 56.5 89.8 55.4C91.7 54.3 89.3 52 89.3 52L77 58.3Z" fill="#49241B"/>
<path d="M121.271 54.2854C119.839 53.086 112.505 50.8551 111.023 49.5233C109.541 48.1916 111.882 46.1794 111.882 46.1794L121.271 54.2854Z" fill="#49241B"/>
<path d="M65.4002 69.155C62.9002 67.855 60.1002 66.755 59.0002 70.155C57.9002 73.655 62.9002 75.755 65.7002 74.755C68.6002 73.955 65.4002 69.155 65.4002 69.155Z" fill="#DD9F4E"/>
<path d="M66.8003 71.4551C65.7003 70.8551 64.4003 70.3551 64.0003 71.9551C63.5003 73.4551 65.7003 74.4551 67.0003 74.0551C68.2003 73.5551 66.8003 71.4551 66.8003 71.4551Z" fill="#FFC673"/>
<path d="M111.029 78.1149L95.819 82.3974C95.819 82.3974 97.5233 64.0305 111.029 78.1149Z" fill="#3F2B1A"/>
<path d="M109.206 77.8789L106.156 75.3832L98.2799 77.2864L96.3915 81.83L109.206 77.8789Z" fill="#FFECDE"/>
<path d="M110.455 77.4372C110.023 77.532 109.731 77.8713 109.802 78.1949C109.873 78.5186 110.281 78.7041 110.712 78.6092C111.144 78.5144 111.436 78.1751 111.365 77.8515C111.294 77.5278 110.886 77.3423 110.455 77.4372Z" fill="#3F2B1A"/>
<path d="M95.3384 81.6964C94.9069 81.7912 94.6147 82.1305 94.6859 82.4542C94.757 82.7778 95.1645 82.9633 95.5961 82.8684C96.0276 82.7736 96.3198 82.4343 96.2486 82.1106C96.1775 81.787 95.7699 81.6015 95.3384 81.6964Z" fill="#3F2B1A"/>
<path d="M83.2002 73.9551C85.4093 73.9551 87.2002 73.0596 87.2002 71.9551C87.2002 70.8505 85.4093 69.9551 83.2002 69.9551C80.9911 69.9551 79.2002 70.8505 79.2002 71.9551C79.2002 73.0596 80.9911 73.9551 83.2002 73.9551Z" fill="#EFAC5E"/>
<path d="M118.7 73.8551C120.909 73.8551 122.7 72.9597 122.7 71.8551C122.7 70.7505 120.909 69.8551 118.7 69.8551C116.491 69.8551 114.7 70.7505 114.7 71.8551C114.7 72.9597 116.491 73.8551 118.7 73.8551Z" fill="#EFAC5E"/>
<path d="M83 34.455C87.2 36.655 102.5 28.655 96.7 21.655L86.7 22.455C86.6 22.455 90.8 31.655 83 34.455Z" fill="#49241B"/>
</g>
<defs>
<linearGradient id="paint0_linear" x1="186.44" y1="62.7142" x2="188.44" y2="112.964" gradientUnits="userSpaceOnUse">
<stop/>
<stop offset="0.9892" stop-color="#B3B3B3"/>
</linearGradient>
<linearGradient id="paint1_linear" x1="186.44" y1="62.7142" x2="188.44" y2="112.964" gradientUnits="userSpaceOnUse">
<stop stop-color="#C04B00"/>
<stop offset="0.9892" stop-color="#B73400"/>
</linearGradient>
<linearGradient id="paint2_linear" x1="93.8577" y1="76.7149" x2="91.2543" y2="100.144" gradientUnits="userSpaceOnUse">
<stop/>
<stop offset="1" stop-color="white"/>
</linearGradient>
<linearGradient id="paint3_linear" x1="93.8577" y1="76.7149" x2="91.2543" y2="100.144" gradientUnits="userSpaceOnUse">
<stop stop-color="#E55C00"/>
<stop offset="1" stop-color="#B73400"/>
</linearGradient>
</defs>
</svg>
