<svg width="238" height="186" viewBox="0 0 238 186" fill="none" xmlns="http://www.w3.org/2000/svg">
<path d="M182.3 70.9836C179.2 74.8836 179.4 85.6836 179.4 85.6836L175.3 83.0836C175.3 83.0836 170.3 85.9836 169.9 86.6836C169.5 87.4836 168 81.5836 166.1 81.9836C164.3 82.4836 159.1 82.5836 159.1 82.5836C159.1 82.5836 156.1 69.9836 154 69.7836C152 69.7836 182.3 70.9836 182.3 70.9836Z" fill="#A06733"/>
<path d="M199.7 66.1835C198.8 71.0835 204 80.4835 204 80.4835L199.2 80.0835C199.2 80.0835 196.1 84.9835 196.1 85.7835C196.1 86.5835 192 82.1835 190.6 83.3835C189.2 84.5835 184.6 87.1835 184.6 87.1835C184.6 87.1835 177.3 80.8835 175.4 81.7835C173.6 82.7835 199.7 66.1835 199.7 66.1835Z" fill="#A06733"/>
<path d="M216.4 58.3835C216.4 63.3835 223.2 71.6835 223.2 71.6835L218.4 72.1835C218.4 72.1835 216.2 77.4835 216.4 78.3835C216.6 79.1835 211.7 75.5835 210.6 77.0835C209.4 78.5835 205.4 81.8835 205.4 81.8835C205.4 81.8835 197.1 77.0835 195.4 78.1835C193.7 79.2835 216.4 58.3835 216.4 58.3835Z" fill="#A06733"/>
<path d="M179.544 76.347L173.452 76.0439L172.786 89.4279L178.879 89.7309L179.544 76.347Z" fill="#FABE82"/>
<path d="M171.7 174.083C178 170.683 193.6 172.783 201.8 165.583C209.9 158.383 233.5 164.183 237.2 170.383C237.2 170.383 208.7 82.3835 175.2 85.3835C144.2 75.5835 171.7 174.083 171.7 174.083Z" fill="#5E4882"/>
<path d="M175.1 85.3836C171.2 84.1836 168.2 84.6836 166 86.3836C166.6 158.884 192.5 144.484 197.8 168.084C199.2 167.384 200.5 166.584 201.7 165.584C209.8 158.384 233.4 164.184 237.1 170.384C237.2 170.384 208.6 82.3836 175.1 85.3836Z" fill="#443366"/>
<path d="M171 133.784C166.8 122.884 159.1 87.6835 163.8 85.5835C178 82.9835 190 89.4835 192.6 94.6835C194.7 98.9835 195.6 115.784 196.3 123.684C196.4 125.284 195.3 126.784 193.6 127.184C187.6 128.884 174.2 132.684 171 133.784Z" fill="#529FCE"/>
<path d="M192.6 94.6835C191.4 92.1835 188 89.4835 183.3 87.4835C186.7 89.2835 189.1 91.4835 190.1 93.4835C192.2 97.7835 193.1 114.584 193.8 122.484C193.9 124.084 192.8 125.584 191.1 125.984C185.9 127.484 175.3 130.484 170.4 131.984C170.6 132.584 170.8 133.184 171 133.784C174.2 132.684 187.6 128.884 193.6 127.184C195.3 126.684 196.4 125.284 196.3 123.684C195.6 115.784 194.7 98.8835 192.6 94.6835Z" fill="#317D9B"/>
<path d="M170.2 130.883C172.1 137.783 169.4 145.083 185.1 170.283L187.6 169.883C187.6 169.883 173.2 140.683 185.6 137.983C198 135.283 206.5 164.283 206.5 164.283L209.2 163.283L197 125.183L170.2 130.883Z" fill="#529FCE"/>
<path d="M185.5 137.883C186 137.783 186.6 137.683 187.1 137.683C185.9 137.383 184.7 137.283 183.5 137.583C171.1 140.283 185.5 169.483 185.5 169.483L184.7 169.583C184.8 169.783 184.9 169.883 185 170.083L187.5 169.683C187.5 169.883 173.1 140.683 185.5 137.883Z" fill="#317D9B"/>
<path d="M197 124.984L195.2 125.384L207.1 162.884L206.1 163.284C206.3 163.884 206.4 164.184 206.4 164.184L209.1 163.184L197 124.984Z" fill="#317D9B"/>
<path d="M176.2 159.583L185.2 154.583L193.2 171.184C193.2 171.184 196.1 186.883 189.2 185.883C182.3 184.883 183.5 172.083 183.5 172.083L176.2 159.583Z" fill="#B6E7FF"/>
<path d="M193.2 171.084L185.2 154.484L181.6 156.484C183.6 158.584 185.6 161.484 187.3 164.784C191.6 173.184 192.4 181.484 189 183.184C188 183.684 186.7 183.584 185.3 182.884C186.2 184.284 187.4 185.284 189.2 185.584C196.1 186.784 193.2 171.084 193.2 171.084Z" fill="#9AD7EF"/>
<path d="M207.2 147.984L197.7 151.584L205.6 168.084C205.6 168.084 215.9 180.284 219.4 174.384C222.9 168.484 212.2 161.384 212.2 161.384L207.2 147.984Z" fill="#B6E7FF"/>
<path d="M212.2 161.384L207.2 147.984L202.6 149.684C204.4 152.284 206.2 155.784 207.7 159.784C209.7 164.984 210.8 169.884 211 173.284C214 175.684 217.6 177.284 219.3 174.284C222.9 168.584 212.2 161.384 212.2 161.384Z" fill="#9AD7EF"/>
<path d="M197.5 128.183L170.9 133.283V136.683L197.5 131.583V128.183Z" fill="#317D9B"/>
<path d="M166.5 123.983L170 135.883L199 128.184L196.5 117.083L166.5 123.983Z" fill="#FFF16C"/>
<path d="M191.8 121.184C192.6 124.284 192.7 127.284 192.2 129.984L198.9 128.184L196.4 116.984L190.8 118.284C191.2 119.284 191.6 120.184 191.8 121.184Z" fill="#EAD74E"/>
<path d="M169.7 126.684C169.4 125.584 169.2 124.484 169.1 123.384L166.4 123.984L169.9 135.884L173.6 134.884C171.9 132.684 170.5 129.884 169.7 126.684Z" fill="#EAD74E"/>
<path d="M184.5 88.3835C187.4 86.7835 217.6 110.583 221.7 113.583L220.7 115.283C220.7 115.283 187.1 96.2835 184.6 96.8835C184.5 96.8835 181.5 89.9835 184.5 88.3835Z" fill="#529FCE"/>
<path d="M190.3 91.3836C190.8 89.6836 187 86.0836 178.2 85.5836C170.9 85.1836 165 82.6836 164.5 84.3836C164 86.0836 169.4 89.0836 176.5 90.9836C183.7 92.9836 189.8 93.0836 190.3 91.3836Z" fill="#317D9B"/>
<path d="M220 112.284L219.5 113.184C219.5 113.184 202.6 103.584 191.9 98.2836L191.7 100.084C202.3 105.284 220.7 115.284 220.7 115.284L221.7 113.584C221.3 113.284 220.7 112.884 220 112.284Z" fill="#317D9B"/>
<path d="M208.3 99.2836L204.2 109.384L213.7 117.784C212.5 117.884 213.7 121.984 216.5 123.984C220.9 125.884 229.7 117.784 224.3 112.884C218.9 108.084 208.3 99.2836 208.3 99.2836Z" fill="#B6E7FF"/>
<path d="M218.3 120.184C217.2 119.784 216 119.884 215.7 120.584C215.4 121.184 216 122.084 217.2 122.484C218.3 122.884 219.5 122.784 219.8 122.084C220.1 121.484 219.4 120.584 218.3 120.184Z" fill="#9AD7EF"/>
<path d="M224.3 112.984C223.1 111.884 221.7 110.684 220.2 109.384C220.3 110.484 220.4 111.484 220.4 112.684C220.4 117.184 219.2 121.284 217.3 124.384C221.9 124.984 229.4 117.484 224.3 112.984Z" fill="#9AD7EF"/>
<path d="M181.6 130.284C183.754 130.284 185.5 128.537 185.5 126.384C185.5 124.23 183.754 122.484 181.6 122.484C179.446 122.484 177.7 124.23 177.7 126.384C177.7 128.537 179.446 130.284 181.6 130.284Z" fill="#317D9B"/>
<path d="M190 89.9835C190.5 88.2835 186.7 84.9835 177.9 84.8835C170.6 84.8835 164.8 82.5835 164.3 84.3835C163.8 86.0835 169.2 88.7835 176.3 90.2835C183.4 91.8835 189.5 91.6835 190 89.9835Z" fill="#5E4882"/>
<path d="M163.3 95.6836C163.3 95.6836 138.1 65.5836 135 61.7836L136.3 60.2836C136.3 60.2836 163.1 86.1836 165.6 86.0836L163.3 95.6836Z" fill="#529FCE"/>
<path d="M139.833 73.8607L145.833 63.4607L137.333 54.2607C137.333 54.2607 139.833 47.6607 135.333 45.0607C130.733 42.4607 118.833 51.0607 124.133 56.9607C129.333 62.9607 139.833 73.8607 139.833 73.8607Z" fill="#B6E7FF"/>
<path d="M181.6 129.083C183.091 129.083 184.3 127.875 184.3 126.383C184.3 124.892 183.091 123.683 181.6 123.683C180.109 123.683 178.9 124.892 178.9 126.383C178.9 127.875 180.109 129.083 181.6 129.083Z" fill="#FFF16C"/>
<path d="M182.789 124.524L179.574 125.27L179.914 126.731L183.128 125.985L182.789 124.524Z" fill="#317D9B"/>
<path d="M182.4 128.684L181.8 125.784L181.3 125.884L181.9 128.884L182.4 128.684Z" fill="#317D9B"/>
<path d="M179.4 96.5835C177.1 96.5835 175 97.3835 173.3 98.6835C174.6 98.0835 176.1 97.7835 177.6 97.7835C183 97.7835 187.4 101.583 187.4 106.283C187.4 110.983 183 114.783 177.6 114.783C176 114.783 174.6 114.483 173.3 113.883C175 115.183 177.1 115.983 179.4 115.983C184.8 115.983 189.2 111.583 189.2 106.183C189.1 100.883 184.8 96.5835 179.4 96.5835Z" fill="#B6E7FF"/>
<path d="M177.4 113.184C179 113.184 180.4 112.684 181.5 111.684C180.6 112.084 179.6 112.284 178.5 112.284C174.8 112.284 171.8 109.684 171.8 106.484C171.8 103.284 174.8 100.684 178.5 100.684C179.6 100.684 180.6 100.884 181.5 101.284C180.4 100.384 178.9 99.7836 177.4 99.7836C173.7 99.7836 170.7 102.784 170.7 106.484C170.7 110.184 173.7 113.184 177.4 113.184Z" fill="#B6E7FF"/>
<path d="M179.6 109.284C181.367 109.284 182.8 107.851 182.8 106.084C182.8 104.316 181.367 102.884 179.6 102.884C177.833 102.884 176.4 104.316 176.4 106.084C176.4 107.851 177.833 109.284 179.6 109.284Z" fill="#B6E7FF"/>
<path d="M212.4 102.784L208.8 98.7836L201.9 109.884L206.7 111.584L212.4 102.784Z" fill="#9AD7EF"/>
<path d="M218.1 121.884C216.9 121.684 215.8 122.084 215.6 122.784C215.4 123.484 216.2 124.184 217.4 124.384C218.6 124.584 219.7 124.184 219.9 123.484C220.1 122.784 219.3 122.084 218.1 121.884Z" fill="#B6E7FF"/>
<path d="M217.5 119.184C216.6 116.684 214.9 114.984 213.9 115.284C212.8 115.584 212.7 117.784 213.6 120.284C214.5 122.784 216.2 124.484 217.2 124.184C218.3 123.884 218.5 121.584 217.5 119.184Z" fill="#B6E7FF"/>
<path opacity="0.5" d="M179.8 93.1835C185.9 94.2835 191.6 94.7835 196.2 94.6835C194.1 92.7835 192 91.0835 189.9 89.6835C190 87.9835 186.5 85.1835 179 84.8835L179.3 78.5835C177.2 78.2835 175.2 77.9835 173.3 77.8835L173 84.4835C168.1 83.8835 164.6 82.9835 164.3 84.2835C164.2 84.5835 164.3 84.9835 164.6 85.3835C164.5 85.3835 164.4 85.3835 164.2 85.4835C162.6 84.3835 159.7 81.9835 156.4 79.0835C156.8 83.1835 161 89.7835 179.8 93.1835Z" fill="#66493D"/>
<path d="M175.2 9.28352C178.2 2.18352 188.2 -3.01648 193.8 1.98352C193.8 1.98352 194.4 13.0835 196.3 16.0835C198.2 18.9835 175.2 9.28352 175.2 9.28352Z" fill="#5E4882"/>
<path d="M170.8 80.3836C159.6 78.1836 127 63.7836 146 25.1836C152.4 12.0836 169.9 1.58357 195 9.78357C209.9 14.6836 225.7 29.6836 216.6 62.7836C211.5 81.5836 184.5 83.0836 170.8 80.3836Z" fill="#FABE82"/>
<path d="M139.9 40.0835C139.6 43.6835 139.8 47.3835 140.4 51.1835C144.7 39.4835 195.4 38.2835 216.6 65.2835C216.6 65.2835 218.3 62.2835 219.9 57.5835C198.1 32.9835 153.5 31.3835 139.9 40.0835Z" fill="#EFA16C"/>
<mask id="mask0" mask-type="alpha" maskUnits="userSpaceOnUse" x="140" y="6" width="80" height="76">
<path d="M170.8 80.3836C159.6 78.1836 127 63.7836 146 25.1836C152.4 12.0836 169.9 1.58357 195 9.78357C209.9 14.6836 225.7 29.6836 216.6 62.7836C211.5 81.5836 184.5 83.0836 170.8 80.3836Z" fill="url(#paint0_linear)"/>
</mask>
<g mask="url(#mask0)">
<path opacity="0.3" d="M170.8 80.3836C159.6 78.1836 127 63.7836 146 25.1836C152.4 12.0836 169.9 1.58357 195 9.78357C209.9 14.6836 225.7 29.6836 216.6 62.7836C211.5 81.5836 184.5 83.0836 170.8 80.3836Z" fill="url(#paint1_linear)"/>
<path d="M140.5 50.0835C144.8 38.3835 195.9 37.2835 217.2 64.2835C217.2 64.2835 237.7 29.2835 201.9 9.78351C167.7 -8.91649 134.6 15.6835 140.5 50.0835Z" fill="#5E4882"/>
<path opacity="0.5" d="M217.2 64.2835C217.2 64.2835 231 40.6835 216.2 21.4835C207.3 21.7835 198 31.8835 192 47.0835C201.7 50.5835 210.8 56.0835 217.2 64.2835Z" fill="#49386B"/>
<path d="M215.2 20.1835C212 16.4835 207.7 12.8835 202 9.7835C168.3 -8.61649 135.7 14.9835 140.3 48.5835C152.8 23.1835 182.6 9.48351 215.2 20.1835Z" fill="#6B5791"/>
<path d="M214.9 57.3836C222.2 54.8836 224.6 58.8836 223.6 63.2836C222.6 67.6836 212.5 74.8836 207.3 69.7836C201.7 64.4836 208.3 59.7836 214.9 57.3836Z" fill="#FABE82"/>
<path d="M158 47.2836L177.6 47.7836C177.6 47.7836 167.9 71.0836 158 47.2836Z" fill="#3F2B1A"/>
<path d="M159.1 47.7836L161.7 51.8836L172.9 53.2836L176 47.9836L159.1 47.7836Z" fill="#FFECDE"/>
<path d="M148.7 40.5836C146.9 39.8836 148.9 30.6836 151.5 29.0836C158.2 24.8836 164.6 28.5836 164.5 35.0836C164.4 36.6836 153.4 42.5836 148.7 40.5836Z" fill="#FFECDE"/>
<path d="M187.6 41.1835C189.5 40.4835 187.3 31.0835 184.3 29.5835C176.3 25.6835 170 29.6836 170.8 35.2836C171 36.9836 182.3 43.1835 187.6 41.1835Z" fill="#FFECDE"/>
<path d="M166.3 43.8265C168.286 44.3073 170.117 43.7833 170.39 42.6561C170.663 41.5289 169.274 40.2253 167.288 39.7445C165.302 39.2637 163.471 39.7877 163.198 40.9149C162.925 42.0421 164.314 43.3457 166.3 43.8265Z" fill="#EFA460"/>
<path d="M165.943 42.5591C167.392 42.9103 168.725 42.5423 168.92 41.7371C169.116 40.932 168.099 39.9946 166.65 39.6434C165.2 39.2923 163.867 39.6603 163.672 40.4654C163.477 41.2706 164.494 42.208 165.943 42.5591Z" fill="#FABE82"/>
<path d="M159.6 32.5835C159.8 30.4835 158.1 28.8835 155.8 28.8835C153.5 28.8835 151.4 30.5835 151.1 32.5835C150.9 34.6835 152.6 36.2835 154.9 36.2835C157.2 36.2835 159.3 34.5835 159.6 32.5835Z" fill="#8E615C"/>
<path d="M156.8 30.6836C156.9 29.8836 156.3 29.2836 155.4 29.2836C154.5 29.2836 153.8 29.8836 153.7 30.6836C153.6 31.4836 154.2 32.0836 155.1 32.0836C156 32.0836 156.7 31.3836 156.8 30.6836Z" fill="#C69B9B"/>
<path d="M181.6 34.2835C182.3 32.5835 181.3 30.7835 179.3 30.1835C177.3 29.5835 175.1 30.4835 174.3 32.1835C173.6 33.8835 174.6 35.6835 176.6 36.2835C178.6 36.7835 180.8 35.9835 181.6 34.2835Z" fill="#8E615C"/>
<path d="M178.9 31.7835C179 30.9835 178.4 30.3835 177.5 30.3835C176.6 30.3835 175.9 30.9835 175.8 31.7835C175.7 32.5835 176.3 33.1835 177.2 33.1835C178.1 33.1835 178.9 32.5835 178.9 31.7835Z" fill="#C69B9B"/>
<path d="M214.8 59.6836C219.4 58.0836 220.9 60.5836 220.3 63.4836C219.7 66.2836 213.2 70.8836 209.9 67.6836C206.4 64.2836 210.6 61.2836 214.8 59.6836Z" fill="#EFA16C"/>
<path d="M210.6 64.4835C212.9 63.6835 213.6 64.9835 213.3 66.3835C213 67.7835 209.8 70.0835 208.2 68.4835C206.4 66.7835 208.5 65.2835 210.6 64.4835Z" fill="#FABE82"/>
<path d="M189.135 54.0725C192.588 55.0554 195.73 54.6465 196.154 53.1592C196.577 51.6719 194.121 49.6693 190.669 48.6864C187.216 47.7035 184.074 48.1125 183.65 49.5998C183.227 51.0871 185.683 53.0896 189.135 54.0725Z" fill="#EFA16C"/>
<path d="M150.091 52.0165C153.452 50.754 155.735 48.557 155.191 47.1094C154.647 45.6618 151.482 45.5118 148.122 46.7744C144.761 48.0369 142.478 50.2339 143.022 51.6815C143.566 53.1291 146.731 53.2791 150.091 52.0165Z" fill="#EFA16C"/>
<path d="M177.6 48.7835C178.152 48.7835 178.6 48.3806 178.6 47.8835C178.6 47.3865 178.152 46.9835 177.6 46.9835C177.048 46.9835 176.6 47.3865 176.6 47.8835C176.6 48.3806 177.048 48.7835 177.6 48.7835Z" fill="#3F2B1A"/>
<path d="M158 48.2835C158.552 48.2835 159 47.8806 159 47.3835C159 46.8865 158.552 46.4835 158 46.4835C157.448 46.4835 157 46.8865 157 47.3835C157 47.8806 157.448 48.2835 158 48.2835Z" fill="#3F2B1A"/>
<path d="M171.1 14.8835C177.7 3.78354 184.8 -1.01646 193.8 1.68354C182.6 -5.11646 175.3 5.88354 171.1 14.8835Z" fill="#8776B2"/>
<path d="M189.9 29.9835C190.2 29.3835 188.9 27.0835 186.3 25.6835C183.7 24.2835 180.9 24.2835 180.6 24.8835C180.3 25.4835 182.6 26.3835 185.2 27.7835C187.8 29.0835 189.6 30.4835 189.9 29.9835Z" fill="#6B5791"/>
<path d="M158.1 24.1836C157.9 23.5836 155.2 23.0836 152.5 24.1836C149.8 25.2836 148 27.3836 148.2 28.0836C148.4 28.6836 150.6 27.4836 153.3 26.4836C156 25.2836 158.3 24.7836 158.1 24.1836Z" fill="#8776B2"/>
</g>
<path opacity="0.2" d="M126.556 87.0563C117.375 94.2708 104.955 96.6411 94.573 90.5001C91.4809 88.6433 88.4374 85.9072 86.7421 82.5401C82.3018 81.3143 78.0643 78.9041 74.7667 75.8012C70.0511 71.4045 66.2546 65.275 65.9731 58.6737C65.7866 54.6061 66.8007 50.4481 69.0819 47.1246C67.3483 47.6363 65.5452 47.9873 63.7009 48.0225C62.2874 48.0618 61.9646 46.1035 63.4116 45.8112C67.4194 44.9354 71.0298 43.8023 74.5618 41.6065C76.1042 40.6531 77.5701 42.4982 76.322 43.8012C74.5757 45.6058 74.8997 47.8974 75.9238 49.9337C76.6124 51.3047 74.5478 52.484 73.6129 51.3151C72.3489 49.7163 71.9859 47.7753 72.3243 45.9124C72.2841 45.9298 72.2439 45.9472 72.2038 45.9645C62.1364 57.5205 72.4987 74.6368 85.6515 79.5788C85.4766 78.8439 85.382 78.0743 85.3677 77.2699C85.333 72.2306 88.8406 67.995 93.1423 65.7046C97.4841 63.3968 103.487 62.945 106.863 67.1108C109.962 70.9672 107.975 76.0709 104.618 79.0016C100.642 82.4861 95.8536 83.6519 91.014 83.2665C92.3702 84.9684 94.0934 86.4162 95.8381 87.4732C104.948 93.2107 116.721 91.2161 125.436 85.6811C126.383 85.2238 127.415 86.3982 126.556 87.0563ZM95.7976 80.7676C99.9726 80.0578 105.095 77.46 106.436 73.0653C107.248 70.425 105.717 67.9882 103.346 66.9161C101.032 65.8668 98.3619 66.3071 96.1128 67.2802C92.4982 68.8442 88.936 72.2928 88.646 76.4713C88.5247 77.9542 88.8572 79.3838 89.4708 80.6918C91.5465 81.0811 93.7188 81.1425 95.7976 80.7676Z" fill="#222221"/>
<path d="M0.349609 4.14844C0.190104 4.02995 0.110352 3.88867 0.110352 3.72461C0.110352 3.66081 0.121745 3.59928 0.144531 3.54004C0.167318 3.47624 0.208333 3.41243 0.267578 3.34863L0.46582 3.12305C0.58431 2.97721 0.723307 2.9043 0.882812 2.9043C0.9375 2.9043 0.996745 2.91569 1.06055 2.93848C1.11979 2.95671 1.18132 2.99089 1.24512 3.04102C1.88314 3.51953 2.49609 4.01628 3.08398 4.53125C3.67643 5.04167 4.24837 5.59993 4.7998 6.20605C4.88639 6.28809 4.96159 6.3291 5.02539 6.3291C5.14844 6.3291 5.22363 6.24707 5.25098 6.08301L5.85254 3.68359C5.9209 3.41471 6.0599 3.28027 6.26953 3.28027C6.3151 3.28027 6.36296 3.28711 6.41309 3.30078C6.46777 3.31445 6.52246 3.33952 6.57715 3.37598L6.81641 3.50586C7.03971 3.62891 7.15137 3.79525 7.15137 4.00488C7.15137 4.07324 7.1377 4.14844 7.11035 4.23047C6.9554 4.80013 6.79818 5.40169 6.63867 6.03516C6.48372 6.66406 6.32422 7.3112 6.16016 7.97656C5.99609 8.63737 5.82747 9.30729 5.6543 9.98633C5.48112 10.6654 5.30339 11.3376 5.12109 12.0029C5.04818 12.2809 4.89095 12.4199 4.64941 12.4199C4.58105 12.4199 4.50586 12.4062 4.42383 12.3789L4.19824 12.3105C4.05697 12.2741 3.95443 12.2148 3.89062 12.1328C3.82682 12.0508 3.79492 11.9505 3.79492 11.832C3.79492 11.8047 3.79492 11.7728 3.79492 11.7363C3.79948 11.6999 3.80859 11.6634 3.82227 11.627C3.9681 11.0846 4.11165 10.5469 4.25293 10.0137C4.39421 9.48047 4.53092 8.94499 4.66309 8.40723C4.6722 8.37533 4.67904 8.34798 4.68359 8.3252C4.68815 8.30241 4.69043 8.27734 4.69043 8.25C4.69043 8.19531 4.67676 8.1429 4.64941 8.09277C4.62663 8.04264 4.59473 7.99251 4.55371 7.94238C3.91113 7.23145 3.23893 6.5638 2.53711 5.93945C1.83984 5.3151 1.11068 4.7181 0.349609 4.14844Z" fill="black"/>
<path d="M8.34082 7.73047C8.34082 7.65299 8.34993 7.56641 8.36816 7.4707C8.38639 7.375 8.39551 7.27018 8.39551 7.15625C8.39551 7.07878 8.36133 7.01953 8.29297 6.97852C8.22917 6.9375 8.15625 6.89193 8.07422 6.8418C7.99219 6.79167 7.91699 6.72786 7.84863 6.65039C7.78483 6.57292 7.75293 6.46126 7.75293 6.31543C7.75293 6.21061 7.78027 6.10579 7.83496 6.00098C7.89421 5.89616 7.97852 5.80046 8.08789 5.71387C8.35677 5.51335 8.63477 5.33333 8.92188 5.17383C9.21354 5.01432 9.50293 4.87988 9.79004 4.77051C10.0817 4.66113 10.3688 4.57682 10.6514 4.51758C10.9339 4.45833 11.2051 4.42871 11.4648 4.42871C11.9023 4.42871 12.3125 4.51074 12.6953 4.6748C13.0827 4.83431 13.4176 5.05534 13.7002 5.33789C13.9873 5.61589 14.2129 5.94401 14.377 6.32227C14.5456 6.69596 14.6299 7.09701 14.6299 7.52539C14.6299 7.94466 14.541 8.34342 14.3633 8.72168C14.1901 9.09538 13.9554 9.4235 13.6592 9.70605C13.363 9.98861 13.0143 10.2119 12.6133 10.376C12.2168 10.5446 11.7975 10.6289 11.3555 10.6289C10.9225 10.6289 10.5215 10.556 10.1523 10.4102C9.7832 10.2643 9.46419 10.0638 9.19531 9.80859C8.92643 9.54883 8.7168 9.24349 8.56641 8.89258C8.41602 8.53711 8.34082 8.14974 8.34082 7.73047ZM11.5059 9.39844C11.6973 9.39844 11.8955 9.3597 12.1006 9.28223C12.3057 9.20475 12.4925 9.0931 12.6611 8.94727C12.8343 8.79688 12.9756 8.61458 13.085 8.40039C13.1989 8.1862 13.2559 7.94466 13.2559 7.67578C13.2559 7.40234 13.2057 7.14714 13.1055 6.91016C13.0052 6.67318 12.8662 6.4681 12.6885 6.29492C12.5153 6.11719 12.3079 5.97819 12.0664 5.87793C11.8294 5.77767 11.5719 5.72754 11.2939 5.72754C10.7881 5.72754 10.4007 5.8597 10.1318 6.12402C9.86296 6.38379 9.72852 6.78483 9.72852 7.32715C9.72852 7.62337 9.77181 7.89909 9.8584 8.1543C9.94954 8.40495 10.0749 8.6237 10.2344 8.81055C10.3939 8.99284 10.5807 9.13639 10.7949 9.24121C11.0137 9.34603 11.2507 9.39844 11.5059 9.39844Z" fill="black"/>
<path d="M16.9609 7.58008C16.9609 8.19076 17.0544 8.66243 17.2412 8.99512C17.4281 9.3278 17.6992 9.49414 18.0547 9.49414C18.278 9.49414 18.4831 9.42806 18.6699 9.2959C18.8613 9.16374 19.0254 8.97917 19.1621 8.74219C19.2988 8.50521 19.4036 8.22493 19.4766 7.90137C19.554 7.57324 19.5928 7.21777 19.5928 6.83496C19.5928 6.60254 19.5837 6.40202 19.5654 6.2334C19.5472 6.06022 19.5267 5.90755 19.5039 5.77539C19.4857 5.63867 19.4674 5.5179 19.4492 5.41309C19.431 5.30827 19.4219 5.20801 19.4219 5.1123C19.4219 4.96647 19.4834 4.86165 19.6064 4.79785C19.7295 4.72949 19.9255 4.69531 20.1943 4.69531C20.5361 4.69531 20.8005 4.77279 20.9873 4.92773C21.1787 5.08268 21.2744 5.30827 21.2744 5.60449C21.2744 6.41113 21.1947 7.13574 21.0352 7.77832C20.8802 8.4209 20.6546 8.96777 20.3584 9.41895C20.0667 9.86556 19.7113 10.2096 19.292 10.4512C18.8727 10.6927 18.4033 10.8135 17.8838 10.8135C17.5146 10.8135 17.1729 10.736 16.8584 10.5811C16.5485 10.4307 16.2796 10.2188 16.0518 9.94531C15.8285 9.66732 15.653 9.33919 15.5254 8.96094C15.3978 8.57812 15.334 8.15885 15.334 7.70312C15.334 7.52995 15.3385 7.34538 15.3477 7.14941C15.3568 6.95345 15.3704 6.74382 15.3887 6.52051C15.4069 6.29264 15.4297 6.04655 15.457 5.78223C15.4889 5.5179 15.5231 5.23079 15.5596 4.9209C15.5732 4.78874 15.6348 4.68392 15.7441 4.60645C15.8581 4.52441 16.0016 4.4834 16.1748 4.4834C16.3298 4.4834 16.4756 4.49935 16.6123 4.53125C16.749 4.56315 16.8652 4.60645 16.9609 4.66113C17.0612 4.71582 17.1387 4.77962 17.1934 4.85254C17.2526 4.92546 17.2822 5.00293 17.2822 5.08496C17.2822 5.16699 17.264 5.29688 17.2275 5.47461C17.1956 5.64779 17.1592 5.84831 17.1182 6.07617C17.0817 6.29948 17.0452 6.54329 17.0088 6.80762C16.9769 7.06738 16.9609 7.32487 16.9609 7.58008Z" fill="black"/>
<path d="M26.791 7.19727C26.791 7.4707 26.8571 7.72591 26.9893 7.96289C27.126 8.19531 27.3037 8.40039 27.5225 8.57812C27.7412 8.7513 27.9919 8.88802 28.2744 8.98828C28.557 9.08398 28.8464 9.13184 29.1426 9.13184C29.2337 9.13184 29.3271 9.125 29.4229 9.11133C29.5186 9.0931 29.6051 9.06348 29.6826 9.02246C29.7601 8.98145 29.8239 8.92904 29.874 8.86523C29.9242 8.79688 29.9492 8.71257 29.9492 8.6123C29.9492 8.4209 29.8809 8.23177 29.7441 8.04492C29.612 7.85807 29.4365 7.6735 29.2178 7.49121C28.999 7.30436 28.7484 7.11979 28.4658 6.9375C28.1833 6.75065 27.8962 6.56608 27.6045 6.38379C27.3128 6.2015 27.0257 6.01921 26.7432 5.83691C26.4606 5.65007 26.21 5.46549 25.9912 5.2832C25.7725 5.09635 25.5947 4.90951 25.458 4.72266C25.3258 4.53125 25.2598 4.33984 25.2598 4.14844C25.2598 3.96615 25.3053 3.79753 25.3965 3.64258C25.4922 3.48307 25.6175 3.33952 25.7725 3.21191C25.9274 3.08431 26.1074 2.97038 26.3125 2.87012C26.5176 2.76986 26.7318 2.68555 26.9551 2.61719C27.1784 2.54883 27.4017 2.4987 27.625 2.4668C27.8529 2.43034 28.0693 2.41211 28.2744 2.41211C28.4248 2.41211 28.5889 2.41667 28.7666 2.42578C28.9489 2.43034 29.1175 2.45085 29.2725 2.4873C29.432 2.51921 29.5641 2.56934 29.6689 2.6377C29.7738 2.70605 29.8262 2.80404 29.8262 2.93164C29.8262 2.97266 29.8193 3.02507 29.8057 3.08887C29.792 3.14811 29.7533 3.24837 29.6895 3.38965C29.6257 3.52181 29.5505 3.62207 29.4639 3.69043C29.3818 3.75423 29.2747 3.78613 29.1426 3.78613C28.9557 3.78613 28.7575 3.76562 28.5479 3.72461C28.3428 3.67904 28.1354 3.65625 27.9258 3.65625C27.8118 3.65625 27.6956 3.66309 27.5771 3.67676C27.4632 3.68587 27.3584 3.70638 27.2627 3.73828C27.167 3.76562 27.0895 3.80892 27.0303 3.86816C26.971 3.92285 26.9414 3.99349 26.9414 4.08008C26.9414 4.16667 27.0029 4.26465 27.126 4.37402C27.2536 4.4834 27.4199 4.60417 27.625 4.73633C27.8346 4.86849 28.0716 5.01432 28.3359 5.17383C28.6003 5.32878 28.8691 5.4974 29.1426 5.67969C29.4206 5.85742 29.6917 6.04883 29.9561 6.25391C30.2204 6.45443 30.4551 6.66862 30.6602 6.89648C30.8698 7.11979 31.0361 7.35677 31.1592 7.60742C31.2868 7.85807 31.3506 8.11784 31.3506 8.38672C31.3506 8.71484 31.2754 9.00423 31.125 9.25488C30.9746 9.50553 30.7809 9.71517 30.5439 9.88379C30.307 10.0524 30.0449 10.1777 29.7578 10.2598C29.4707 10.3464 29.1904 10.3896 28.917 10.3896C28.639 10.3896 28.3564 10.3555 28.0693 10.2871C27.7868 10.2233 27.5133 10.1299 27.249 10.0068C26.9847 9.88835 26.7363 9.74479 26.5039 9.57617C26.276 9.40299 26.0778 9.21159 25.9092 9.00195C25.7406 8.78776 25.6061 8.55762 25.5059 8.31152C25.4102 8.06543 25.3623 7.80794 25.3623 7.53906C25.3623 7.42513 25.3691 7.3112 25.3828 7.19727C25.401 7.07878 25.4307 6.97624 25.4717 6.88965C25.5127 6.7985 25.5697 6.72559 25.6426 6.6709C25.7155 6.61165 25.8089 6.58203 25.9229 6.58203C25.9593 6.58203 26.0003 6.58659 26.0459 6.5957C26.0915 6.60026 26.1712 6.62077 26.2852 6.65723C26.4173 6.69824 26.5335 6.76432 26.6338 6.85547C26.7386 6.94206 26.791 7.05599 26.791 7.19727Z" fill="black"/>
<path d="M37.7354 8.50293C37.8675 8.389 37.9974 8.33203 38.125 8.33203C38.1979 8.33203 38.264 8.35026 38.3232 8.38672C38.3825 8.42318 38.4486 8.48014 38.5215 8.55762C38.5898 8.66243 38.6377 8.74902 38.665 8.81738C38.6969 8.88118 38.7129 8.94499 38.7129 9.00879C38.7129 9.14551 38.6445 9.27539 38.5078 9.39844C38.2891 9.58073 38.0521 9.74479 37.7969 9.89062C37.5417 10.0319 37.2751 10.1527 36.9971 10.2529C36.7191 10.3532 36.432 10.4284 36.1357 10.4785C35.8395 10.5332 35.5456 10.5605 35.2539 10.5605C34.8848 10.5605 34.5384 10.5127 34.2148 10.417C33.8913 10.3258 33.6019 10.1937 33.3467 10.0205C33.096 9.84733 32.8841 9.63997 32.7109 9.39844C32.5378 9.15234 32.4147 8.87663 32.3418 8.57129C32.3008 8.44368 32.262 8.36165 32.2256 8.3252C32.1937 8.28418 32.139 8.26367 32.0615 8.26367C31.8929 8.26367 31.763 8.22266 31.6719 8.14062C31.5807 8.05859 31.5352 7.9401 31.5352 7.78516C31.5352 7.72135 31.5397 7.68034 31.5488 7.66211L31.5625 7.52539C31.5853 7.36133 31.6286 7.24284 31.6924 7.16992C31.7607 7.09701 31.8656 7.06055 32.0068 7.06055H32.1094C32.3008 7.06055 32.4352 6.97168 32.5127 6.79395C32.654 6.47949 32.834 6.19238 33.0527 5.93262C33.2715 5.67285 33.5176 5.45182 33.791 5.26953C34.0645 5.08268 34.3561 4.93913 34.666 4.83887C34.9805 4.73405 35.2995 4.68164 35.623 4.68164C35.9603 4.68164 36.2747 4.73177 36.5664 4.83203C36.8626 4.92773 37.1201 5.06217 37.3389 5.23535C37.5576 5.40853 37.7285 5.61133 37.8516 5.84375C37.9792 6.07617 38.043 6.32682 38.043 6.5957C38.043 6.78255 38.0065 6.95345 37.9336 7.1084C37.8607 7.26335 37.7559 7.40007 37.6191 7.51855C37.4824 7.63249 37.3161 7.72591 37.1201 7.79883C36.9287 7.87174 36.71 7.9196 36.4639 7.94238L34.0918 8.18164C34.0007 8.18164 33.9255 8.20443 33.8662 8.25C33.8115 8.29557 33.7842 8.3571 33.7842 8.43457C33.7842 8.55306 33.8275 8.66699 33.9141 8.77637C34.0052 8.88574 34.1237 8.98372 34.2695 9.07031C34.4199 9.15234 34.5908 9.21842 34.7822 9.26855C34.9782 9.31868 35.1787 9.34375 35.3838 9.34375C35.5798 9.34375 35.7803 9.32552 35.9854 9.28906C36.195 9.24805 36.4001 9.19108 36.6006 9.11816C36.8057 9.04525 37.0039 8.95866 37.1953 8.8584C37.3867 8.75358 37.5667 8.63509 37.7354 8.50293ZM36.2109 6.73926C36.2793 6.72559 36.3385 6.69368 36.3887 6.64355C36.4388 6.58887 36.4639 6.52279 36.4639 6.44531C36.4639 6.37695 36.4388 6.31315 36.3887 6.25391C36.3385 6.19466 36.2702 6.14225 36.1836 6.09668C36.097 6.04655 35.9967 6.00781 35.8828 5.98047C35.7689 5.95312 35.6481 5.93945 35.5205 5.93945C35.3337 5.93945 35.1423 5.9668 34.9463 6.02148C34.7503 6.07617 34.5726 6.14909 34.4131 6.24023C34.2536 6.32682 34.1237 6.4248 34.0234 6.53418C33.9232 6.639 33.873 6.74382 33.873 6.84863C33.873 6.95345 33.9368 7.00586 34.0645 7.00586C34.1419 7.00586 34.2673 6.99674 34.4404 6.97852C34.6136 6.96029 34.805 6.93978 35.0146 6.91699C35.2243 6.88965 35.4362 6.86003 35.6504 6.82812C35.8646 6.79622 36.0514 6.7666 36.2109 6.73926Z" fill="black"/>
<path d="M38.7812 2.21387C38.7812 1.97689 38.8496 1.80827 38.9863 1.70801C39.123 1.60775 39.3486 1.55762 39.6631 1.55762C39.7725 1.55762 39.8682 1.56901 39.9502 1.5918C40.0322 1.61458 40.1006 1.65332 40.1553 1.70801C40.21 1.75814 40.2533 1.82878 40.2852 1.91992C40.3216 2.00651 40.3512 2.11816 40.374 2.25488C40.4333 2.66048 40.4925 3.08659 40.5518 3.5332C40.6156 3.97526 40.6748 4.41732 40.7295 4.85938C40.7887 5.29688 40.8434 5.72526 40.8936 6.14453C40.9437 6.55924 40.987 6.94661 41.0234 7.30664C41.0645 7.66211 41.0941 7.97884 41.1123 8.25684C41.1351 8.53027 41.1465 8.74674 41.1465 8.90625C41.1465 9.07031 41.1305 9.20931 41.0986 9.32324C41.0713 9.43717 41.0212 9.52832 40.9482 9.59668C40.8799 9.66504 40.7887 9.71517 40.6748 9.74707C40.5654 9.77441 40.4287 9.78809 40.2646 9.78809C40.1051 9.78809 39.9775 9.74707 39.8818 9.66504C39.7907 9.58301 39.7451 9.45768 39.7451 9.28906C39.7451 9.11589 39.7314 8.88574 39.7041 8.59863C39.6768 8.30697 39.6403 7.9834 39.5947 7.62793C39.5492 7.27246 39.4967 6.89421 39.4375 6.49316C39.3828 6.09212 39.3236 5.69564 39.2598 5.30371C39.2005 4.91178 39.1413 4.53581 39.082 4.17578C39.0273 3.8112 38.9772 3.48991 38.9316 3.21191C38.8861 2.92936 38.8496 2.69922 38.8223 2.52148C38.7949 2.33919 38.7812 2.23665 38.7812 2.21387Z" fill="black"/>
<path d="M48.0576 8.50293C48.1898 8.389 48.3197 8.33203 48.4473 8.33203C48.5202 8.33203 48.5863 8.35026 48.6455 8.38672C48.7048 8.42318 48.7708 8.48014 48.8438 8.55762C48.9121 8.66243 48.96 8.74902 48.9873 8.81738C49.0192 8.88118 49.0352 8.94499 49.0352 9.00879C49.0352 9.14551 48.9668 9.27539 48.8301 9.39844C48.6113 9.58073 48.3743 9.74479 48.1191 9.89062C47.8639 10.0319 47.5973 10.1527 47.3193 10.2529C47.0413 10.3532 46.7542 10.4284 46.458 10.4785C46.1618 10.5332 45.8678 10.5605 45.5762 10.5605C45.207 10.5605 44.8607 10.5127 44.5371 10.417C44.2135 10.3258 43.9242 10.1937 43.6689 10.0205C43.4183 9.84733 43.2064 9.63997 43.0332 9.39844C42.86 9.15234 42.737 8.87663 42.6641 8.57129C42.623 8.44368 42.5843 8.36165 42.5479 8.3252C42.516 8.28418 42.4613 8.26367 42.3838 8.26367C42.2152 8.26367 42.0853 8.22266 41.9941 8.14062C41.903 8.05859 41.8574 7.9401 41.8574 7.78516C41.8574 7.72135 41.862 7.68034 41.8711 7.66211L41.8848 7.52539C41.9076 7.36133 41.9508 7.24284 42.0146 7.16992C42.083 7.09701 42.1878 7.06055 42.3291 7.06055H42.4316C42.623 7.06055 42.7575 6.97168 42.835 6.79395C42.9762 6.47949 43.1562 6.19238 43.375 5.93262C43.5938 5.67285 43.8398 5.45182 44.1133 5.26953C44.3867 5.08268 44.6784 4.93913 44.9883 4.83887C45.3027 4.73405 45.6217 4.68164 45.9453 4.68164C46.2826 4.68164 46.597 4.73177 46.8887 4.83203C47.1849 4.92773 47.4424 5.06217 47.6611 5.23535C47.8799 5.40853 48.0508 5.61133 48.1738 5.84375C48.3014 6.07617 48.3652 6.32682 48.3652 6.5957C48.3652 6.78255 48.3288 6.95345 48.2559 7.1084C48.1829 7.26335 48.0781 7.40007 47.9414 7.51855C47.8047 7.63249 47.6383 7.72591 47.4424 7.79883C47.251 7.87174 47.0322 7.9196 46.7861 7.94238L44.4141 8.18164C44.3229 8.18164 44.2477 8.20443 44.1885 8.25C44.1338 8.29557 44.1064 8.3571 44.1064 8.43457C44.1064 8.55306 44.1497 8.66699 44.2363 8.77637C44.3275 8.88574 44.446 8.98372 44.5918 9.07031C44.7422 9.15234 44.9131 9.21842 45.1045 9.26855C45.3005 9.31868 45.501 9.34375 45.7061 9.34375C45.902 9.34375 46.1025 9.32552 46.3076 9.28906C46.5173 9.24805 46.7223 9.19108 46.9229 9.11816C47.1279 9.04525 47.3262 8.95866 47.5176 8.8584C47.709 8.75358 47.889 8.63509 48.0576 8.50293ZM46.5332 6.73926C46.6016 6.72559 46.6608 6.69368 46.7109 6.64355C46.7611 6.58887 46.7861 6.52279 46.7861 6.44531C46.7861 6.37695 46.7611 6.31315 46.7109 6.25391C46.6608 6.19466 46.5924 6.14225 46.5059 6.09668C46.4193 6.04655 46.319 6.00781 46.2051 5.98047C46.0911 5.95312 45.9704 5.93945 45.8428 5.93945C45.6559 5.93945 45.4645 5.9668 45.2686 6.02148C45.0726 6.07617 44.8949 6.14909 44.7354 6.24023C44.5758 6.32682 44.446 6.4248 44.3457 6.53418C44.2454 6.639 44.1953 6.74382 44.1953 6.84863C44.1953 6.95345 44.2591 7.00586 44.3867 7.00586C44.4642 7.00586 44.5895 6.99674 44.7627 6.97852C44.9359 6.96029 45.1273 6.93978 45.3369 6.91699C45.5465 6.88965 45.7585 6.86003 45.9727 6.82812C46.1868 6.79622 46.3737 6.7666 46.5332 6.73926Z" fill="black"/>
<path d="M51.8857 4.36035C52.1227 4.36035 52.3529 4.39453 52.5762 4.46289C52.7995 4.53125 52.9954 4.62467 53.1641 4.74316C53.3372 4.8571 53.4762 4.98926 53.5811 5.13965C53.6859 5.28548 53.7383 5.43587 53.7383 5.59082C53.7383 5.69108 53.7178 5.78906 53.6768 5.88477C53.6357 5.97591 53.5811 6.05794 53.5127 6.13086C53.4443 6.19922 53.3669 6.25618 53.2803 6.30176C53.1937 6.34277 53.1025 6.36328 53.0068 6.36328C52.902 6.36328 52.8063 6.32454 52.7197 6.24707C52.6331 6.16504 52.5397 6.07617 52.4395 5.98047C52.3438 5.88021 52.2344 5.79134 52.1113 5.71387C51.9928 5.63184 51.8493 5.59082 51.6807 5.59082C51.5166 5.59082 51.3685 5.62956 51.2363 5.70703C51.1042 5.78451 50.9925 5.89388 50.9014 6.03516C50.8148 6.17188 50.7464 6.33594 50.6963 6.52734C50.6507 6.71419 50.6279 6.91927 50.6279 7.14258C50.6279 7.7806 50.7487 8.26823 50.9902 8.60547C51.2318 8.93815 51.5781 9.10449 52.0293 9.10449C52.2435 9.10449 52.4258 9.07031 52.5762 9.00195C52.7311 8.93359 52.8656 8.8584 52.9795 8.77637C53.098 8.69434 53.2051 8.61914 53.3008 8.55078C53.3965 8.48242 53.4945 8.44824 53.5947 8.44824C53.6494 8.44824 53.7041 8.46647 53.7588 8.50293C53.8135 8.53483 53.8613 8.57812 53.9023 8.63281C53.9479 8.68294 53.9844 8.73991 54.0117 8.80371C54.0436 8.86751 54.0596 8.93132 54.0596 8.99512C54.0596 9.14551 53.9844 9.30046 53.834 9.45996C53.6882 9.61947 53.499 9.7653 53.2666 9.89746C53.0342 10.0251 52.7744 10.1299 52.4873 10.2119C52.2048 10.2939 51.929 10.335 51.6602 10.335C51.3001 10.335 50.9697 10.2643 50.6689 10.123C50.3682 9.98633 50.1084 9.79492 49.8896 9.54883C49.6709 9.29818 49.5 8.99967 49.377 8.65332C49.2585 8.30697 49.1992 7.92415 49.1992 7.50488C49.1992 7.04915 49.2653 6.62988 49.3975 6.24707C49.5342 5.86426 49.721 5.53385 49.958 5.25586C50.1995 4.97331 50.4844 4.75456 50.8125 4.59961C51.1406 4.4401 51.4984 4.36035 51.8857 4.36035Z" fill="black"/>
<path d="M54.8662 2.10449C54.8662 1.86296 54.9346 1.69434 55.0713 1.59863C55.208 1.49837 55.4336 1.44824 55.748 1.44824C55.862 1.44824 55.9577 1.45964 56.0352 1.48242C56.1172 1.50065 56.1855 1.53711 56.2402 1.5918C56.2995 1.64648 56.3451 1.7194 56.377 1.81055C56.4134 1.89714 56.443 2.00879 56.4658 2.14551C56.5205 2.56934 56.5798 3.00684 56.6436 3.45801C56.7119 3.90918 56.7826 4.36263 56.8555 4.81836C56.8828 5.02344 56.9899 5.12598 57.1768 5.12598C57.2269 5.12598 57.3089 5.12142 57.4229 5.1123C57.5413 5.09863 57.6803 5.08496 57.8398 5.07129C57.9993 5.05306 58.1702 5.03483 58.3525 5.0166C58.5394 4.99837 58.724 4.98242 58.9062 4.96875C59.0931 4.95052 59.2686 4.93685 59.4326 4.92773C59.6012 4.91406 59.7493 4.90723 59.877 4.90723C59.9772 4.90723 60.057 4.92773 60.1162 4.96875C60.1755 5.00521 60.221 5.05534 60.2529 5.11914C60.2894 5.17839 60.3122 5.24674 60.3213 5.32422C60.335 5.39714 60.3418 5.47233 60.3418 5.5498C60.3418 5.61816 60.3281 5.6888 60.3008 5.76172C60.278 5.83464 60.2438 5.90072 60.1982 5.95996C60.1572 6.01465 60.1048 6.06022 60.041 6.09668C59.9772 6.13314 59.9043 6.15137 59.8223 6.15137C59.4258 6.15137 59.0247 6.16504 58.6191 6.19238C58.2181 6.21517 57.8171 6.24707 57.416 6.28809C57.2109 6.31543 57.1084 6.41797 57.1084 6.5957C57.1084 6.60938 57.1107 6.6276 57.1152 6.65039C57.1198 6.66862 57.1221 6.68457 57.1221 6.69824C57.1768 7.09473 57.2269 7.46615 57.2725 7.8125C57.3226 8.15885 57.3636 8.46875 57.3955 8.74219C57.432 9.01107 57.4593 9.23665 57.4775 9.41895C57.5003 9.59668 57.5117 9.71517 57.5117 9.77441C57.5117 9.93848 57.4958 10.0752 57.4639 10.1846C57.432 10.2985 57.3796 10.3896 57.3066 10.458C57.2337 10.5309 57.1357 10.5811 57.0127 10.6084C56.8942 10.6403 56.7438 10.6562 56.5615 10.6562C56.3883 10.6562 56.2607 10.6152 56.1787 10.5332C56.0967 10.4512 56.0511 10.3258 56.042 10.1572C56.0146 9.61947 55.9714 9.07943 55.9121 8.53711C55.8529 7.99023 55.7845 7.44564 55.707 6.90332C55.666 6.70736 55.5635 6.60938 55.3994 6.60938C55.3857 6.60938 55.3698 6.61165 55.3516 6.61621C55.3333 6.62077 55.3174 6.62305 55.3037 6.62305C55.0212 6.68685 54.7546 6.75065 54.5039 6.81445C54.2533 6.87826 54.0186 6.94661 53.7998 7.01953C53.6768 7.06055 53.5674 7.09017 53.4717 7.1084C53.376 7.12207 53.2894 7.12891 53.2119 7.12891C53.1071 7.12891 53.0296 7.08333 52.9795 6.99219C52.9294 6.89648 52.9043 6.77799 52.9043 6.63672C52.9043 6.58659 52.9089 6.52962 52.918 6.46582C52.9271 6.39746 52.9453 6.33138 52.9727 6.26758C52.9954 6.19922 53.0319 6.1377 53.082 6.08301C53.1276 6.02376 53.1914 5.97591 53.2734 5.93945C53.4648 5.86198 53.7201 5.78223 54.0391 5.7002C54.3581 5.61361 54.7181 5.53385 55.1191 5.46094C55.2103 5.43815 55.2809 5.40169 55.3311 5.35156C55.3857 5.29688 55.4131 5.21712 55.4131 5.1123C55.4131 5.08952 55.4131 5.06673 55.4131 5.04395C55.4131 5.0166 55.4085 4.98926 55.3994 4.96191C55.3265 4.54264 55.2559 4.16211 55.1875 3.82031C55.1237 3.47396 55.0667 3.17773 55.0166 2.93164C54.971 2.68555 54.9346 2.49186 54.9072 2.35059C54.8799 2.20931 54.8662 2.12728 54.8662 2.10449Z" fill="black"/>
<path d="M62.7686 9.17285C62.7686 9.22298 62.7344 9.34147 62.666 9.52832C62.5977 9.71517 62.5065 9.93392 62.3926 10.1846C62.2832 10.4352 62.1556 10.6995 62.0098 10.9775C61.8639 11.2555 61.7158 11.5107 61.5654 11.7432C61.415 11.9756 61.2669 12.167 61.1211 12.3174C60.9798 12.4723 60.8522 12.5498 60.7383 12.5498C60.6836 12.5498 60.6152 12.5339 60.5332 12.502C60.4512 12.4701 60.3714 12.429 60.2939 12.3789C60.221 12.3333 60.1572 12.2809 60.1025 12.2217C60.0479 12.167 60.0205 12.1123 60.0205 12.0576C60.0205 12.012 60.0661 11.8981 60.1572 11.7158C60.2529 11.5381 60.3691 11.3057 60.5059 11.0186C60.6426 10.736 60.7884 10.4102 60.9434 10.041C61.0983 9.67188 61.235 9.27539 61.3535 8.85156C61.3809 8.76042 61.4196 8.68978 61.4697 8.63965C61.5199 8.58496 61.5882 8.55762 61.6748 8.55762C61.7568 8.55762 61.8594 8.57585 61.9824 8.6123C62.1055 8.64421 62.224 8.68978 62.3379 8.74902C62.4564 8.80371 62.5566 8.86751 62.6387 8.94043C62.7253 9.01335 62.7686 9.09082 62.7686 9.17285Z" fill="black"/>
<path d="M72.0176 7.07422C72.0176 6.35417 72.1042 5.80046 72.2773 5.41309C72.4505 5.02572 72.6989 4.83203 73.0225 4.83203C73.5374 4.83203 73.7949 5.27637 73.7949 6.16504C73.7949 6.47949 73.7767 6.77572 73.7402 7.05371C73.7083 7.33171 73.6605 7.60059 73.5967 7.86035C73.5876 7.89681 73.5807 7.93099 73.5762 7.96289C73.5716 7.99479 73.5693 8.02441 73.5693 8.05176C73.5693 8.14746 73.5876 8.23177 73.624 8.30469C73.8519 8.88346 74.2734 9.17285 74.8887 9.17285C75.1074 9.17285 75.3125 9.125 75.5039 9.0293C75.6953 8.93359 75.8617 8.80371 76.0029 8.63965C76.1442 8.47103 76.2536 8.27507 76.3311 8.05176C76.4131 7.82845 76.4541 7.58691 76.4541 7.32715C76.4541 7.03548 76.4199 6.79395 76.3516 6.60254C76.2832 6.40658 76.208 6.24023 76.126 6.10352C76.0439 5.96224 75.9688 5.83464 75.9004 5.7207C75.832 5.60221 75.7979 5.47005 75.7979 5.32422C75.7979 5.25586 75.8275 5.18522 75.8867 5.1123C75.9505 5.03483 76.028 4.96419 76.1191 4.90039C76.2148 4.83659 76.3174 4.78418 76.4268 4.74316C76.5407 4.70215 76.6478 4.68164 76.748 4.68164C76.8802 4.68164 77.0101 4.75456 77.1377 4.90039C77.2699 5.04622 77.3861 5.23763 77.4863 5.47461C77.5911 5.70703 77.6732 5.97363 77.7324 6.27441C77.7962 6.5752 77.8281 6.87826 77.8281 7.18359C77.8281 7.62565 77.7461 8.04264 77.582 8.43457C77.418 8.8265 77.1947 9.17057 76.9121 9.4668C76.6296 9.76302 76.2992 9.99772 75.9209 10.1709C75.5472 10.3441 75.1507 10.4307 74.7314 10.4307C74.376 10.4307 74.0592 10.3669 73.7812 10.2393C73.5078 10.1162 73.2549 9.89746 73.0225 9.58301C72.986 9.52376 72.9495 9.48275 72.9131 9.45996C72.8766 9.43717 72.8402 9.42578 72.8037 9.42578C72.7581 9.42578 72.7171 9.43717 72.6807 9.45996C72.6442 9.48275 72.6055 9.52376 72.5645 9.58301C72.2546 9.98861 71.9219 10.278 71.5664 10.4512C71.2155 10.6243 70.8281 10.7109 70.4043 10.7109C69.9349 10.7109 69.5111 10.5811 69.1328 10.3213C68.7591 10.0661 68.4401 9.7015 68.1758 9.22754C67.9115 8.75358 67.7087 8.17936 67.5674 7.50488C67.4261 6.82585 67.3555 6.06706 67.3555 5.22852C67.3555 4.88672 67.3691 4.60417 67.3965 4.38086C67.4238 4.15299 67.474 3.97526 67.5469 3.84766C67.6198 3.71549 67.7155 3.62435 67.834 3.57422C67.9525 3.51953 68.1051 3.49219 68.292 3.49219C68.488 3.49219 68.6292 3.53092 68.7158 3.6084C68.807 3.68132 68.8525 3.80892 68.8525 3.99121C68.8525 4.13249 68.8389 4.29199 68.8115 4.46973C68.7842 4.6429 68.7705 4.79329 68.7705 4.9209C68.7705 5.58171 68.8161 6.1901 68.9072 6.74609C69.0029 7.30208 69.1328 7.7806 69.2969 8.18164C69.4655 8.58268 69.6637 8.89486 69.8916 9.11816C70.124 9.34147 70.3792 9.45312 70.6572 9.45312C71.277 9.45312 71.735 9.13639 72.0312 8.50293C72.0586 8.4528 72.0768 8.40723 72.0859 8.36621C72.0951 8.32064 72.0996 8.27279 72.0996 8.22266C72.0996 8.19531 72.0996 8.16797 72.0996 8.14062C72.0996 8.10872 72.0951 8.07454 72.0859 8.03809C72.0632 7.86491 72.0449 7.70085 72.0312 7.5459C72.0221 7.38639 72.0176 7.22917 72.0176 7.07422Z" fill="black"/>
<path d="M84.3428 8.50293C84.4749 8.389 84.6048 8.33203 84.7324 8.33203C84.8053 8.33203 84.8714 8.35026 84.9307 8.38672C84.9899 8.42318 85.056 8.48014 85.1289 8.55762C85.1973 8.66243 85.2451 8.74902 85.2725 8.81738C85.3044 8.88118 85.3203 8.94499 85.3203 9.00879C85.3203 9.14551 85.252 9.27539 85.1152 9.39844C84.8965 9.58073 84.6595 9.74479 84.4043 9.89062C84.1491 10.0319 83.8825 10.1527 83.6045 10.2529C83.3265 10.3532 83.0394 10.4284 82.7432 10.4785C82.4469 10.5332 82.153 10.5605 81.8613 10.5605C81.4922 10.5605 81.1458 10.5127 80.8223 10.417C80.4987 10.3258 80.2093 10.1937 79.9541 10.0205C79.7035 9.84733 79.4915 9.63997 79.3184 9.39844C79.1452 9.15234 79.0221 8.87663 78.9492 8.57129C78.9082 8.44368 78.8695 8.36165 78.833 8.3252C78.8011 8.28418 78.7464 8.26367 78.6689 8.26367C78.5003 8.26367 78.3704 8.22266 78.2793 8.14062C78.1882 8.05859 78.1426 7.9401 78.1426 7.78516C78.1426 7.72135 78.1471 7.68034 78.1562 7.66211L78.1699 7.52539C78.1927 7.36133 78.236 7.24284 78.2998 7.16992C78.3682 7.09701 78.473 7.06055 78.6143 7.06055H78.7168C78.9082 7.06055 79.0426 6.97168 79.1201 6.79395C79.2614 6.47949 79.4414 6.19238 79.6602 5.93262C79.8789 5.67285 80.125 5.45182 80.3984 5.26953C80.6719 5.08268 80.9635 4.93913 81.2734 4.83887C81.5879 4.73405 81.9069 4.68164 82.2305 4.68164C82.5677 4.68164 82.8822 4.73177 83.1738 4.83203C83.4701 4.92773 83.7275 5.06217 83.9463 5.23535C84.165 5.40853 84.3359 5.61133 84.459 5.84375C84.5866 6.07617 84.6504 6.32682 84.6504 6.5957C84.6504 6.78255 84.6139 6.95345 84.541 7.1084C84.4681 7.26335 84.3633 7.40007 84.2266 7.51855C84.0898 7.63249 83.9235 7.72591 83.7275 7.79883C83.5361 7.87174 83.3174 7.9196 83.0713 7.94238L80.6992 8.18164C80.6081 8.18164 80.5329 8.20443 80.4736 8.25C80.4189 8.29557 80.3916 8.3571 80.3916 8.43457C80.3916 8.55306 80.4349 8.66699 80.5215 8.77637C80.6126 8.88574 80.7311 8.98372 80.877 9.07031C81.0273 9.15234 81.1982 9.21842 81.3896 9.26855C81.5856 9.31868 81.7861 9.34375 81.9912 9.34375C82.1872 9.34375 82.3877 9.32552 82.5928 9.28906C82.8024 9.24805 83.0075 9.19108 83.208 9.11816C83.4131 9.04525 83.6113 8.95866 83.8027 8.8584C83.9941 8.75358 84.1742 8.63509 84.3428 8.50293ZM82.8184 6.73926C82.8867 6.72559 82.946 6.69368 82.9961 6.64355C83.0462 6.58887 83.0713 6.52279 83.0713 6.44531C83.0713 6.37695 83.0462 6.31315 82.9961 6.25391C82.946 6.19466 82.8776 6.14225 82.791 6.09668C82.7044 6.04655 82.6042 6.00781 82.4902 5.98047C82.3763 5.95312 82.2555 5.93945 82.1279 5.93945C81.9411 5.93945 81.7497 5.9668 81.5537 6.02148C81.3577 6.07617 81.18 6.14909 81.0205 6.24023C80.861 6.32682 80.7311 6.4248 80.6309 6.53418C80.5306 6.639 80.4805 6.74382 80.4805 6.84863C80.4805 6.95345 80.5443 7.00586 80.6719 7.00586C80.7493 7.00586 80.8747 6.99674 81.0479 6.97852C81.221 6.96029 81.4124 6.93978 81.6221 6.91699C81.8317 6.88965 82.0436 6.86003 82.2578 6.82812C82.472 6.79622 82.6589 6.7666 82.8184 6.73926Z" fill="black"/>
<path d="M89.7158 2.10449C89.7158 1.86296 89.7842 1.69434 89.9209 1.59863C90.0576 1.49837 90.2832 1.44824 90.5977 1.44824C90.7116 1.44824 90.8073 1.45964 90.8848 1.48242C90.9668 1.50065 91.0352 1.53711 91.0898 1.5918C91.1491 1.64648 91.1947 1.7194 91.2266 1.81055C91.263 1.89714 91.2926 2.00879 91.3154 2.14551C91.3701 2.56934 91.4294 3.00684 91.4932 3.45801C91.5615 3.90918 91.6322 4.36263 91.7051 4.81836C91.7324 5.02344 91.8395 5.12598 92.0264 5.12598C92.0765 5.12598 92.1585 5.12142 92.2725 5.1123C92.391 5.09863 92.5299 5.08496 92.6895 5.07129C92.849 5.05306 93.0199 5.03483 93.2021 5.0166C93.389 4.99837 93.5736 4.98242 93.7559 4.96875C93.9427 4.95052 94.1182 4.93685 94.2822 4.92773C94.4508 4.91406 94.599 4.90723 94.7266 4.90723C94.8268 4.90723 94.9066 4.92773 94.9658 4.96875C95.0251 5.00521 95.0706 5.05534 95.1025 5.11914C95.139 5.17839 95.1618 5.24674 95.1709 5.32422C95.1846 5.39714 95.1914 5.47233 95.1914 5.5498C95.1914 5.61816 95.1777 5.6888 95.1504 5.76172C95.1276 5.83464 95.0934 5.90072 95.0479 5.95996C95.0068 6.01465 94.9544 6.06022 94.8906 6.09668C94.8268 6.13314 94.7539 6.15137 94.6719 6.15137C94.2754 6.15137 93.8743 6.16504 93.4688 6.19238C93.0677 6.21517 92.6667 6.24707 92.2656 6.28809C92.0605 6.31543 91.958 6.41797 91.958 6.5957C91.958 6.60938 91.9603 6.6276 91.9648 6.65039C91.9694 6.66862 91.9717 6.68457 91.9717 6.69824C92.0264 7.09473 92.0765 7.46615 92.1221 7.8125C92.1722 8.15885 92.2132 8.46875 92.2451 8.74219C92.2816 9.01107 92.3089 9.23665 92.3271 9.41895C92.3499 9.59668 92.3613 9.71517 92.3613 9.77441C92.3613 9.93848 92.3454 10.0752 92.3135 10.1846C92.2816 10.2985 92.2292 10.3896 92.1562 10.458C92.0833 10.5309 91.9854 10.5811 91.8623 10.6084C91.7438 10.6403 91.5934 10.6562 91.4111 10.6562C91.238 10.6562 91.1104 10.6152 91.0283 10.5332C90.9463 10.4512 90.9007 10.3258 90.8916 10.1572C90.8643 9.61947 90.821 9.07943 90.7617 8.53711C90.7025 7.99023 90.6341 7.44564 90.5566 6.90332C90.5156 6.70736 90.4131 6.60938 90.249 6.60938C90.2354 6.60938 90.2194 6.61165 90.2012 6.61621C90.1829 6.62077 90.167 6.62305 90.1533 6.62305C89.8708 6.68685 89.6042 6.75065 89.3535 6.81445C89.1029 6.87826 88.8682 6.94661 88.6494 7.01953C88.5264 7.06055 88.417 7.09017 88.3213 7.1084C88.2256 7.12207 88.139 7.12891 88.0615 7.12891C87.9567 7.12891 87.8792 7.08333 87.8291 6.99219C87.779 6.89648 87.7539 6.77799 87.7539 6.63672C87.7539 6.58659 87.7585 6.52962 87.7676 6.46582C87.7767 6.39746 87.7949 6.33138 87.8223 6.26758C87.8451 6.19922 87.8815 6.1377 87.9316 6.08301C87.9772 6.02376 88.041 5.97591 88.123 5.93945C88.3145 5.86198 88.5697 5.78223 88.8887 5.7002C89.2077 5.61361 89.5677 5.53385 89.9688 5.46094C90.0599 5.43815 90.1305 5.40169 90.1807 5.35156C90.2354 5.29688 90.2627 5.21712 90.2627 5.1123C90.2627 5.08952 90.2627 5.06673 90.2627 5.04395C90.2627 5.0166 90.2581 4.98926 90.249 4.96191C90.1761 4.54264 90.1055 4.16211 90.0371 3.82031C89.9733 3.47396 89.9163 3.17773 89.8662 2.93164C89.8206 2.68555 89.7842 2.49186 89.7568 2.35059C89.7295 2.20931 89.7158 2.12728 89.7158 2.10449Z" fill="black"/>
<path d="M99.0879 4.02539C99.3385 4.02539 99.5801 4.06413 99.8125 4.1416C100.045 4.21908 100.25 4.32617 100.428 4.46289C100.605 4.59961 100.747 4.76367 100.852 4.95508C100.961 5.14648 101.016 5.3584 101.016 5.59082C101.016 5.68652 100.993 5.77995 100.947 5.87109C100.906 5.95768 100.849 6.03516 100.776 6.10352C100.703 6.16732 100.619 6.21973 100.523 6.26074C100.432 6.2972 100.337 6.31543 100.236 6.31543C100.227 6.31543 100.218 6.31771 100.209 6.32227C100.204 6.32227 100.198 6.32227 100.188 6.32227C100.179 6.32682 100.17 6.3291 100.161 6.3291L100.188 6.87598C100.207 7.52767 100.298 8.00391 100.462 8.30469C100.631 8.60547 100.849 8.75586 101.118 8.75586C101.214 8.75586 101.298 8.74674 101.371 8.72852C101.449 8.71029 101.519 8.68978 101.583 8.66699C101.651 8.63965 101.715 8.61686 101.774 8.59863C101.834 8.5804 101.893 8.57129 101.952 8.57129C102.057 8.57129 102.148 8.61686 102.226 8.70801C102.308 8.79915 102.349 8.90853 102.349 9.03613C102.349 9.16374 102.299 9.29134 102.198 9.41895C102.103 9.54655 101.975 9.66276 101.815 9.76758C101.656 9.86784 101.476 9.94987 101.275 10.0137C101.075 10.0775 100.872 10.1094 100.667 10.1094C100.312 10.1094 99.9993 9.96354 99.7305 9.67188C99.4616 9.37565 99.2702 8.94271 99.1562 8.37305C99.1289 8.2819 99.0924 8.23633 99.0469 8.23633C98.9922 8.23633 98.9443 8.26367 98.9033 8.31836C98.4521 8.88802 97.9714 9.31641 97.4609 9.60352C96.9505 9.88607 96.4469 10.0273 95.9502 10.0273C95.7178 10.0273 95.5081 9.99316 95.3213 9.9248C95.1344 9.85645 94.9749 9.76074 94.8428 9.6377C94.7152 9.51009 94.6149 9.35742 94.542 9.17969C94.4736 8.9974 94.4395 8.7946 94.4395 8.57129C94.4395 8.25684 94.5078 7.92643 94.6445 7.58008C94.7858 7.23372 94.9749 6.89193 95.2119 6.55469C95.4489 6.21745 95.7223 5.89616 96.0322 5.59082C96.3467 5.28548 96.6748 5.0166 97.0166 4.78418C97.363 4.55176 97.7139 4.36719 98.0693 4.23047C98.4248 4.09375 98.7643 4.02539 99.0879 4.02539ZM98.8623 6.39062C98.9443 6.23568 99.0195 6.12402 99.0879 6.05566C99.1562 5.98275 99.2542 5.9349 99.3818 5.91211C99.4821 5.89844 99.5322 5.86654 99.5322 5.81641C99.5322 5.77995 99.5186 5.74121 99.4912 5.7002C99.4046 5.58171 99.3135 5.47917 99.2178 5.39258C99.1221 5.30143 98.9945 5.25586 98.835 5.25586C98.6618 5.25586 98.4681 5.30599 98.2539 5.40625C98.0397 5.50651 97.821 5.64095 97.5977 5.80957C97.3789 5.97363 97.1624 6.16276 96.9482 6.37695C96.7386 6.58659 96.5518 6.80306 96.3877 7.02637C96.2236 7.24967 96.0915 7.4707 95.9912 7.68945C95.891 7.9082 95.8408 8.10417 95.8408 8.27734C95.8408 8.43229 95.8818 8.55306 95.9639 8.63965C96.0505 8.72624 96.1667 8.76953 96.3125 8.76953C96.6862 8.76953 97.0941 8.57129 97.5361 8.1748C97.9782 7.77832 98.4202 7.18359 98.8623 6.39062Z" fill="black"/>
<path d="M102.984 9.86328C102.984 9.4668 102.973 9.03613 102.95 8.57129C102.927 8.10645 102.898 7.63704 102.861 7.16309C102.829 6.68457 102.793 6.21745 102.752 5.76172C102.715 5.30599 102.679 4.889 102.643 4.51074C102.611 4.13249 102.583 3.80664 102.561 3.5332C102.538 3.25977 102.526 3.06836 102.526 2.95898C102.526 2.77669 102.595 2.6377 102.731 2.54199C102.868 2.44629 103.066 2.39844 103.326 2.39844C103.44 2.39844 103.536 2.40983 103.613 2.43262C103.695 2.4554 103.761 2.49414 103.812 2.54883C103.862 2.60352 103.9 2.67643 103.928 2.76758C103.96 2.85417 103.982 2.96354 103.996 3.0957C104.014 3.27799 104.03 3.47396 104.044 3.68359C104.058 3.88867 104.071 4.12337 104.085 4.3877C104.103 4.65202 104.121 4.95052 104.14 5.2832C104.158 5.61589 104.181 5.9987 104.208 6.43164C104.208 6.49544 104.219 6.54102 104.242 6.56836C104.265 6.5957 104.29 6.60938 104.317 6.60938C104.368 6.60938 104.413 6.56836 104.454 6.48633C104.841 5.69792 105.247 5.09635 105.671 4.68164C106.095 4.26237 106.507 4.05273 106.908 4.05273C107.145 4.05273 107.332 4.12337 107.469 4.26465C107.605 4.40592 107.674 4.59505 107.674 4.83203C107.674 5.08724 107.617 5.32422 107.503 5.54297C107.394 5.75716 107.255 5.95996 107.086 6.15137C106.922 6.34277 106.742 6.52279 106.546 6.69141C106.354 6.86003 106.174 7.02409 106.006 7.18359C105.842 7.3431 105.703 7.50033 105.589 7.65527C105.479 7.80566 105.425 7.95833 105.425 8.11328C105.425 8.25456 105.507 8.40039 105.671 8.55078C105.84 8.69661 106.081 8.84245 106.396 8.98828C106.71 9.12956 107.095 9.26855 107.551 9.40527C108.007 9.53743 108.524 9.66504 109.103 9.78809C109.194 9.81087 109.257 9.84733 109.294 9.89746C109.335 9.94759 109.355 10.0137 109.355 10.0957C109.355 10.196 109.333 10.2985 109.287 10.4033C109.242 10.5127 109.185 10.6107 109.116 10.6973C109.048 10.7884 108.97 10.8613 108.884 10.916C108.802 10.9753 108.722 11.0049 108.645 11.0049C108.49 11.0049 108.305 10.9844 108.091 10.9434C107.877 10.9023 107.644 10.8454 107.394 10.7725C107.147 10.7041 106.892 10.6221 106.628 10.5264C106.364 10.4352 106.106 10.335 105.855 10.2256C105.609 10.1208 105.375 10.0114 105.151 9.89746C104.933 9.77897 104.743 9.66276 104.584 9.54883C104.534 9.52148 104.493 9.4987 104.461 9.48047C104.434 9.46224 104.409 9.45312 104.386 9.45312C104.358 9.45312 104.342 9.46452 104.338 9.4873C104.333 9.50553 104.331 9.54655 104.331 9.61035C104.331 9.76986 104.317 9.89974 104.29 10C104.267 10.1003 104.226 10.1777 104.167 10.2324C104.108 10.2917 104.026 10.3327 103.921 10.3555C103.816 10.3783 103.686 10.3896 103.531 10.3896C103.326 10.3896 103.183 10.3509 103.101 10.2734C103.023 10.196 102.984 10.0592 102.984 9.86328Z" fill="black"/>
<path d="M114.64 8.50293C114.772 8.389 114.902 8.33203 115.029 8.33203C115.102 8.33203 115.168 8.35026 115.228 8.38672C115.287 8.42318 115.353 8.48014 115.426 8.55762C115.494 8.66243 115.542 8.74902 115.569 8.81738C115.601 8.88118 115.617 8.94499 115.617 9.00879C115.617 9.14551 115.549 9.27539 115.412 9.39844C115.193 9.58073 114.956 9.74479 114.701 9.89062C114.446 10.0319 114.179 10.1527 113.901 10.2529C113.623 10.3532 113.336 10.4284 113.04 10.4785C112.744 10.5332 112.45 10.5605 112.158 10.5605C111.789 10.5605 111.443 10.5127 111.119 10.417C110.796 10.3258 110.506 10.1937 110.251 10.0205C110 9.84733 109.788 9.63997 109.615 9.39844C109.442 9.15234 109.319 8.87663 109.246 8.57129C109.205 8.44368 109.166 8.36165 109.13 8.3252C109.098 8.28418 109.043 8.26367 108.966 8.26367C108.797 8.26367 108.667 8.22266 108.576 8.14062C108.485 8.05859 108.439 7.9401 108.439 7.78516C108.439 7.72135 108.444 7.68034 108.453 7.66211L108.467 7.52539C108.49 7.36133 108.533 7.24284 108.597 7.16992C108.665 7.09701 108.77 7.06055 108.911 7.06055H109.014C109.205 7.06055 109.34 6.97168 109.417 6.79395C109.558 6.47949 109.738 6.19238 109.957 5.93262C110.176 5.67285 110.422 5.45182 110.695 5.26953C110.969 5.08268 111.26 4.93913 111.57 4.83887C111.885 4.73405 112.204 4.68164 112.527 4.68164C112.865 4.68164 113.179 4.73177 113.471 4.83203C113.767 4.92773 114.024 5.06217 114.243 5.23535C114.462 5.40853 114.633 5.61133 114.756 5.84375C114.883 6.07617 114.947 6.32682 114.947 6.5957C114.947 6.78255 114.911 6.95345 114.838 7.1084C114.765 7.26335 114.66 7.40007 114.523 7.51855C114.387 7.63249 114.22 7.72591 114.024 7.79883C113.833 7.87174 113.614 7.9196 113.368 7.94238L110.996 8.18164C110.905 8.18164 110.83 8.20443 110.771 8.25C110.716 8.29557 110.688 8.3571 110.688 8.43457C110.688 8.55306 110.732 8.66699 110.818 8.77637C110.91 8.88574 111.028 8.98372 111.174 9.07031C111.324 9.15234 111.495 9.21842 111.687 9.26855C111.882 9.31868 112.083 9.34375 112.288 9.34375C112.484 9.34375 112.685 9.32552 112.89 9.28906C113.099 9.24805 113.304 9.19108 113.505 9.11816C113.71 9.04525 113.908 8.95866 114.1 8.8584C114.291 8.75358 114.471 8.63509 114.64 8.50293ZM113.115 6.73926C113.184 6.72559 113.243 6.69368 113.293 6.64355C113.343 6.58887 113.368 6.52279 113.368 6.44531C113.368 6.37695 113.343 6.31315 113.293 6.25391C113.243 6.19466 113.174 6.14225 113.088 6.09668C113.001 6.04655 112.901 6.00781 112.787 5.98047C112.673 5.95312 112.552 5.93945 112.425 5.93945C112.238 5.93945 112.047 5.9668 111.851 6.02148C111.655 6.07617 111.477 6.14909 111.317 6.24023C111.158 6.32682 111.028 6.4248 110.928 6.53418C110.827 6.639 110.777 6.74382 110.777 6.84863C110.777 6.95345 110.841 7.00586 110.969 7.00586C111.046 7.00586 111.172 6.99674 111.345 6.97852C111.518 6.96029 111.709 6.93978 111.919 6.91699C112.129 6.88965 112.34 6.86003 112.555 6.82812C112.769 6.79622 112.956 6.7666 113.115 6.73926Z" fill="black"/>
<path d="M18.082 18.3604C18.319 18.3604 18.5492 18.3945 18.7725 18.4629C18.9958 18.5312 19.1917 18.6247 19.3604 18.7432C19.5335 18.8571 19.6725 18.9893 19.7773 19.1396C19.8822 19.2855 19.9346 19.4359 19.9346 19.5908C19.9346 19.6911 19.9141 19.7891 19.873 19.8848C19.832 19.9759 19.7773 20.0579 19.709 20.1309C19.6406 20.1992 19.5632 20.2562 19.4766 20.3018C19.39 20.3428 19.2988 20.3633 19.2031 20.3633C19.0983 20.3633 19.0026 20.3245 18.916 20.2471C18.8294 20.165 18.736 20.0762 18.6357 19.9805C18.54 19.8802 18.4307 19.7913 18.3076 19.7139C18.1891 19.6318 18.0456 19.5908 17.877 19.5908C17.7129 19.5908 17.5648 19.6296 17.4326 19.707C17.3005 19.7845 17.1888 19.8939 17.0977 20.0352C17.0111 20.1719 16.9427 20.3359 16.8926 20.5273C16.847 20.7142 16.8242 20.9193 16.8242 21.1426C16.8242 21.7806 16.945 22.2682 17.1865 22.6055C17.4281 22.9382 17.7744 23.1045 18.2256 23.1045C18.4398 23.1045 18.6221 23.0703 18.7725 23.002C18.9274 22.9336 19.0618 22.8584 19.1758 22.7764C19.2943 22.6943 19.4014 22.6191 19.4971 22.5508C19.5928 22.4824 19.6908 22.4482 19.791 22.4482C19.8457 22.4482 19.9004 22.4665 19.9551 22.5029C20.0098 22.5348 20.0576 22.5781 20.0986 22.6328C20.1442 22.6829 20.1807 22.7399 20.208 22.8037C20.2399 22.8675 20.2559 22.9313 20.2559 22.9951C20.2559 23.1455 20.1807 23.3005 20.0303 23.46C19.8844 23.6195 19.6953 23.7653 19.4629 23.8975C19.2305 24.0251 18.9707 24.1299 18.6836 24.2119C18.401 24.2939 18.1253 24.335 17.8564 24.335C17.4964 24.335 17.166 24.2643 16.8652 24.123C16.5645 23.9863 16.3047 23.7949 16.0859 23.5488C15.8672 23.2982 15.6963 22.9997 15.5732 22.6533C15.4548 22.307 15.3955 21.9242 15.3955 21.5049C15.3955 21.0492 15.4616 20.6299 15.5938 20.2471C15.7305 19.8643 15.9173 19.5339 16.1543 19.2559C16.3958 18.9733 16.6807 18.7546 17.0088 18.5996C17.3369 18.4401 17.6947 18.3604 18.082 18.3604Z" fill="black"/>
<path d="M24.7197 18.0254C24.9704 18.0254 25.2119 18.0641 25.4443 18.1416C25.6768 18.2191 25.8818 18.3262 26.0596 18.4629C26.2373 18.5996 26.3786 18.7637 26.4834 18.9551C26.5928 19.1465 26.6475 19.3584 26.6475 19.5908C26.6475 19.6865 26.6247 19.7799 26.5791 19.8711C26.5381 19.9577 26.4811 20.0352 26.4082 20.1035C26.3353 20.1673 26.251 20.2197 26.1553 20.2607C26.0641 20.2972 25.9684 20.3154 25.8682 20.3154C25.859 20.3154 25.8499 20.3177 25.8408 20.3223C25.8363 20.3223 25.8294 20.3223 25.8203 20.3223C25.8112 20.3268 25.8021 20.3291 25.793 20.3291L25.8203 20.876C25.8385 21.5277 25.9297 22.0039 26.0938 22.3047C26.2624 22.6055 26.4811 22.7559 26.75 22.7559C26.8457 22.7559 26.93 22.7467 27.0029 22.7285C27.0804 22.7103 27.151 22.6898 27.2148 22.667C27.2832 22.6396 27.347 22.6169 27.4062 22.5986C27.4655 22.5804 27.5247 22.5713 27.584 22.5713C27.6888 22.5713 27.7799 22.6169 27.8574 22.708C27.9395 22.7992 27.9805 22.9085 27.9805 23.0361C27.9805 23.1637 27.9303 23.2913 27.8301 23.4189C27.7344 23.5465 27.6068 23.6628 27.4473 23.7676C27.2878 23.8678 27.1077 23.9499 26.9072 24.0137C26.7067 24.0775 26.5039 24.1094 26.2988 24.1094C25.9434 24.1094 25.6312 23.9635 25.3623 23.6719C25.0934 23.3757 24.902 22.9427 24.7881 22.373C24.7607 22.2819 24.7243 22.2363 24.6787 22.2363C24.624 22.2363 24.5762 22.2637 24.5352 22.3184C24.084 22.888 23.6032 23.3164 23.0928 23.6035C22.5824 23.8861 22.0788 24.0273 21.582 24.0273C21.3496 24.0273 21.14 23.9932 20.9531 23.9248C20.7663 23.8564 20.6068 23.7607 20.4746 23.6377C20.347 23.5101 20.2467 23.3574 20.1738 23.1797C20.1055 22.9974 20.0713 22.7946 20.0713 22.5713C20.0713 22.2568 20.1396 21.9264 20.2764 21.5801C20.4176 21.2337 20.6068 20.8919 20.8438 20.5547C21.0807 20.2174 21.3542 19.8962 21.6641 19.5908C21.9785 19.2855 22.3066 19.0166 22.6484 18.7842C22.9948 18.5518 23.3457 18.3672 23.7012 18.2305C24.0566 18.0938 24.3962 18.0254 24.7197 18.0254ZM24.4941 20.3906C24.5762 20.2357 24.6514 20.124 24.7197 20.0557C24.7881 19.9827 24.8861 19.9349 25.0137 19.9121C25.1139 19.8984 25.1641 19.8665 25.1641 19.8164C25.1641 19.7799 25.1504 19.7412 25.123 19.7002C25.0365 19.5817 24.9453 19.4792 24.8496 19.3926C24.7539 19.3014 24.6263 19.2559 24.4668 19.2559C24.2936 19.2559 24.0999 19.306 23.8857 19.4062C23.6715 19.5065 23.4528 19.641 23.2295 19.8096C23.0107 19.9736 22.7943 20.1628 22.5801 20.377C22.3704 20.5866 22.1836 20.8031 22.0195 21.0264C21.8555 21.2497 21.7233 21.4707 21.623 21.6895C21.5228 21.9082 21.4727 22.1042 21.4727 22.2773C21.4727 22.4323 21.5137 22.5531 21.5957 22.6396C21.6823 22.7262 21.7985 22.7695 21.9443 22.7695C22.318 22.7695 22.7259 22.5713 23.168 22.1748C23.61 21.7783 24.0521 21.1836 24.4941 20.3906Z" fill="black"/>
<path d="M31.9111 18.8867C31.7425 18.8867 31.5944 18.9323 31.4668 19.0234C31.3392 19.11 31.2298 19.2331 31.1387 19.3926C31.0475 19.5475 30.9723 19.7321 30.9131 19.9463C30.8538 20.1559 30.806 20.3861 30.7695 20.6367C30.7331 20.8874 30.708 21.1494 30.6943 21.4229C30.6807 21.6963 30.6738 21.972 30.6738 22.25C30.6738 22.6146 30.6875 22.9746 30.7148 23.3301C30.7467 23.681 30.7627 24.0068 30.7627 24.3076C30.7627 24.5036 30.6898 24.6562 30.5439 24.7656C30.3981 24.8796 30.1908 24.9365 29.9219 24.9365C29.8717 24.9365 29.8148 24.932 29.751 24.9229C29.6872 24.9137 29.6257 24.8955 29.5664 24.8682C29.5117 24.8408 29.4616 24.8021 29.416 24.752C29.375 24.7064 29.3522 24.6426 29.3477 24.5605C29.3066 24.1595 29.2474 23.7493 29.1699 23.3301C29.0924 22.9108 28.9945 22.4938 28.876 22.0791C28.762 21.6598 28.623 21.2451 28.459 20.835C28.2995 20.4248 28.1149 20.0238 27.9053 19.6318C27.8688 19.5635 27.8369 19.4997 27.8096 19.4404C27.7868 19.3812 27.7754 19.3242 27.7754 19.2695C27.7754 19.2012 27.805 19.1283 27.8643 19.0508C27.9281 18.9688 28.0055 18.8936 28.0967 18.8252C28.1924 18.7568 28.2949 18.7021 28.4043 18.6611C28.5182 18.6156 28.6276 18.5928 28.7324 18.5928C28.9056 18.5928 29.0583 18.7135 29.1904 18.9551C29.3226 19.1921 29.4456 19.5726 29.5596 20.0967C29.5824 20.1878 29.6006 20.2516 29.6143 20.2881C29.6279 20.3245 29.6462 20.3428 29.6689 20.3428C29.7191 20.3428 29.751 20.2653 29.7646 20.1104C29.8193 19.6774 29.9128 19.306 30.0449 18.9961C30.1771 18.6816 30.3411 18.4242 30.5371 18.2236C30.7376 18.0186 30.9655 17.8682 31.2207 17.7725C31.4805 17.6768 31.7653 17.6289 32.0752 17.6289C32.2529 17.6289 32.4329 17.6449 32.6152 17.6768C32.7975 17.7087 32.9616 17.7565 33.1074 17.8203C33.2533 17.8841 33.3717 17.9616 33.4629 18.0527C33.554 18.1439 33.5996 18.2464 33.5996 18.3604C33.5996 18.4424 33.5814 18.5404 33.5449 18.6543C33.513 18.7637 33.4697 18.8708 33.415 18.9756C33.3604 19.0758 33.2965 19.1624 33.2236 19.2354C33.1553 19.3037 33.0846 19.3379 33.0117 19.3379C32.9297 19.3379 32.8499 19.3151 32.7725 19.2695C32.695 19.2194 32.6107 19.167 32.5195 19.1123C32.4329 19.0576 32.3395 19.0075 32.2393 18.9619C32.1436 18.9118 32.0342 18.8867 31.9111 18.8867Z" fill="black"/>
<path d="M38.9863 22.5029C39.1185 22.389 39.2484 22.332 39.376 22.332C39.4489 22.332 39.515 22.3503 39.5742 22.3867C39.6335 22.4232 39.6995 22.4801 39.7725 22.5576C39.8408 22.6624 39.8887 22.749 39.916 22.8174C39.9479 22.8812 39.9639 22.945 39.9639 23.0088C39.9639 23.1455 39.8955 23.2754 39.7588 23.3984C39.54 23.5807 39.3031 23.7448 39.0479 23.8906C38.7926 24.0319 38.526 24.1527 38.248 24.2529C37.9701 24.3532 37.6829 24.4284 37.3867 24.4785C37.0905 24.5332 36.7965 24.5605 36.5049 24.5605C36.1357 24.5605 35.7894 24.5127 35.4658 24.417C35.1423 24.3258 34.8529 24.1937 34.5977 24.0205C34.347 23.8473 34.1351 23.64 33.9619 23.3984C33.7887 23.1523 33.6657 22.8766 33.5928 22.5713C33.5518 22.4437 33.513 22.3617 33.4766 22.3252C33.4447 22.2842 33.39 22.2637 33.3125 22.2637C33.1439 22.2637 33.014 22.2227 32.9229 22.1406C32.8317 22.0586 32.7861 21.9401 32.7861 21.7852C32.7861 21.7214 32.7907 21.6803 32.7998 21.6621L32.8135 21.5254C32.8363 21.3613 32.8796 21.2428 32.9434 21.1699C33.0117 21.097 33.1165 21.0605 33.2578 21.0605H33.3604C33.5518 21.0605 33.6862 20.9717 33.7637 20.7939C33.9049 20.4795 34.085 20.1924 34.3037 19.9326C34.5225 19.6729 34.7686 19.4518 35.042 19.2695C35.3154 19.0827 35.6071 18.9391 35.917 18.8389C36.2314 18.734 36.5505 18.6816 36.874 18.6816C37.2113 18.6816 37.5257 18.7318 37.8174 18.832C38.1136 18.9277 38.3711 19.0622 38.5898 19.2354C38.8086 19.4085 38.9795 19.6113 39.1025 19.8438C39.2301 20.0762 39.2939 20.3268 39.2939 20.5957C39.2939 20.7826 39.2575 20.9535 39.1846 21.1084C39.1117 21.2633 39.0068 21.4001 38.8701 21.5186C38.7334 21.6325 38.5671 21.7259 38.3711 21.7988C38.1797 21.8717 37.9609 21.9196 37.7148 21.9424L35.3428 22.1816C35.2516 22.1816 35.1764 22.2044 35.1172 22.25C35.0625 22.2956 35.0352 22.3571 35.0352 22.4346C35.0352 22.5531 35.0785 22.667 35.165 22.7764C35.2562 22.8857 35.3747 22.9837 35.5205 23.0703C35.6709 23.1523 35.8418 23.2184 36.0332 23.2686C36.2292 23.3187 36.4297 23.3438 36.6348 23.3438C36.8307 23.3438 37.0312 23.3255 37.2363 23.2891C37.446 23.248 37.651 23.1911 37.8516 23.1182C38.0566 23.0452 38.2549 22.9587 38.4463 22.8584C38.6377 22.7536 38.8177 22.6351 38.9863 22.5029ZM37.4619 20.7393C37.5303 20.7256 37.5895 20.6937 37.6396 20.6436C37.6898 20.5889 37.7148 20.5228 37.7148 20.4453C37.7148 20.377 37.6898 20.3132 37.6396 20.2539C37.5895 20.1947 37.5212 20.1423 37.4346 20.0967C37.348 20.0465 37.2477 20.0078 37.1338 19.9805C37.0199 19.9531 36.8991 19.9395 36.7715 19.9395C36.5846 19.9395 36.3932 19.9668 36.1973 20.0215C36.0013 20.0762 35.8236 20.1491 35.6641 20.2402C35.5046 20.3268 35.3747 20.4248 35.2744 20.5342C35.1742 20.639 35.124 20.7438 35.124 20.8486C35.124 20.9535 35.1878 21.0059 35.3154 21.0059C35.3929 21.0059 35.5182 20.9967 35.6914 20.9785C35.8646 20.9603 36.056 20.9398 36.2656 20.917C36.4753 20.8896 36.6872 20.86 36.9014 20.8281C37.1156 20.7962 37.3024 20.7666 37.4619 20.7393Z" fill="black"/>
<path d="M43.8125 21.7305C43.8125 21.653 43.8216 21.5664 43.8398 21.4707C43.8581 21.375 43.8672 21.2702 43.8672 21.1562C43.8672 21.0788 43.833 21.0195 43.7646 20.9785C43.7008 20.9375 43.6279 20.8919 43.5459 20.8418C43.4639 20.7917 43.3887 20.7279 43.3203 20.6504C43.2565 20.5729 43.2246 20.4613 43.2246 20.3154C43.2246 20.2106 43.252 20.1058 43.3066 20.001C43.3659 19.8962 43.4502 19.8005 43.5596 19.7139C43.8285 19.5133 44.1064 19.3333 44.3936 19.1738C44.6852 19.0143 44.9746 18.8799 45.2617 18.7705C45.5534 18.6611 45.8405 18.5768 46.123 18.5176C46.4056 18.4583 46.6768 18.4287 46.9365 18.4287C47.374 18.4287 47.7842 18.5107 48.167 18.6748C48.5544 18.8343 48.8893 19.0553 49.1719 19.3379C49.459 19.6159 49.6846 19.944 49.8486 20.3223C50.0173 20.696 50.1016 21.097 50.1016 21.5254C50.1016 21.9447 50.0127 22.3434 49.835 22.7217C49.6618 23.0954 49.4271 23.4235 49.1309 23.7061C48.8346 23.9886 48.486 24.2119 48.085 24.376C47.6885 24.5446 47.2692 24.6289 46.8271 24.6289C46.3942 24.6289 45.9932 24.556 45.624 24.4102C45.2549 24.2643 44.9359 24.0638 44.667 23.8086C44.3981 23.5488 44.1885 23.2435 44.0381 22.8926C43.8877 22.5371 43.8125 22.1497 43.8125 21.7305ZM46.9775 23.3984C47.1689 23.3984 47.3672 23.3597 47.5723 23.2822C47.7773 23.2048 47.9642 23.0931 48.1328 22.9473C48.306 22.7969 48.4473 22.6146 48.5566 22.4004C48.6706 22.1862 48.7275 21.9447 48.7275 21.6758C48.7275 21.4023 48.6774 21.1471 48.5771 20.9102C48.4769 20.6732 48.3379 20.4681 48.1602 20.2949C47.987 20.1172 47.7796 19.9782 47.5381 19.8779C47.3011 19.7777 47.0436 19.7275 46.7656 19.7275C46.2598 19.7275 45.8724 19.8597 45.6035 20.124C45.3346 20.3838 45.2002 20.7848 45.2002 21.3271C45.2002 21.6234 45.2435 21.8991 45.3301 22.1543C45.4212 22.4049 45.5465 22.6237 45.7061 22.8105C45.8656 22.9928 46.0524 23.1364 46.2666 23.2412C46.4854 23.346 46.7223 23.3984 46.9775 23.3984Z" fill="black"/>
<path d="M50.416 20.2334C50.3112 20.2243 50.2269 20.1559 50.1631 20.0283C50.0993 19.9007 50.0674 19.7594 50.0674 19.6045C50.0674 19.5316 50.0742 19.4609 50.0879 19.3926C50.097 19.3197 50.1152 19.2559 50.1426 19.2012C50.1699 19.1465 50.2041 19.1032 50.2451 19.0713C50.2861 19.0348 50.334 19.0166 50.3887 19.0166C50.5573 19.0166 50.751 19.012 50.9697 19.0029C51.1885 18.9893 51.4232 18.9756 51.6738 18.9619C51.8014 18.9482 51.8721 18.873 51.8857 18.7363C51.9268 18.0755 51.9837 17.5059 52.0566 17.0273C52.1296 16.5488 52.2184 16.1455 52.3232 15.8174C52.4281 15.4847 52.5465 15.2158 52.6787 15.0107C52.8154 14.8057 52.9658 14.6484 53.1299 14.5391C53.18 14.5026 53.2393 14.4661 53.3076 14.4297C53.376 14.3887 53.4398 14.3682 53.499 14.3682C53.613 14.3682 53.7314 14.3978 53.8545 14.457C53.9821 14.5117 54.0983 14.5846 54.2031 14.6758C54.3125 14.7624 54.4014 14.8626 54.4697 14.9766C54.5381 15.0859 54.5723 15.1953 54.5723 15.3047C54.5723 15.3457 54.5632 15.3799 54.5449 15.4072C54.5267 15.43 54.5039 15.4528 54.4766 15.4756C54.2988 15.6077 54.1416 15.7559 54.0049 15.9199C53.8682 16.084 53.752 16.2845 53.6562 16.5215C53.5605 16.7585 53.4808 17.0433 53.417 17.376C53.3532 17.7087 53.3053 18.1097 53.2734 18.5791C53.2734 18.652 53.2848 18.7067 53.3076 18.7432C53.335 18.7751 53.3828 18.791 53.4512 18.791C53.6289 18.791 53.8066 18.7773 53.9844 18.75C54.1667 18.7227 54.3398 18.6953 54.5039 18.668C54.668 18.6361 54.8229 18.6064 54.9688 18.5791C55.1146 18.5518 55.2445 18.5381 55.3584 18.5381C55.4404 18.5381 55.4997 18.5882 55.5361 18.6885C55.5771 18.7842 55.5977 18.9027 55.5977 19.0439C55.5977 19.126 55.5908 19.2103 55.5771 19.2969C55.5635 19.3835 55.5407 19.4609 55.5088 19.5293C55.4814 19.5977 55.445 19.6569 55.3994 19.707C55.3538 19.7526 55.2969 19.7799 55.2285 19.7891L53.4102 19.9805C53.3145 19.9941 53.2552 20.0329 53.2324 20.0967C53.2142 20.1605 53.2051 20.2493 53.2051 20.3633C53.2051 21.3704 53.2301 22.2363 53.2803 22.9609C53.3304 23.6855 53.3851 24.2939 53.4443 24.7861C53.5081 25.2829 53.5651 25.6725 53.6152 25.9551C53.6654 26.2422 53.6904 26.4495 53.6904 26.5771C53.6904 26.6729 53.6517 26.7594 53.5742 26.8369C53.5013 26.9144 53.4056 26.9805 53.2871 27.0352C53.1732 27.0898 53.0479 27.1309 52.9111 27.1582C52.7744 27.1901 52.6468 27.2061 52.5283 27.2061C52.4144 27.2061 52.3118 27.1855 52.2207 27.1445C52.1341 27.1081 52.084 27.0443 52.0703 26.9531C52.0247 26.6341 51.986 26.2832 51.9541 25.9004C51.9222 25.5221 51.8949 25.1006 51.8721 24.6357C51.8538 24.1755 51.8402 23.6719 51.8311 23.125C51.8219 22.5736 51.8174 21.9697 51.8174 21.3135C51.8174 21.1449 51.8174 20.9808 51.8174 20.8213C51.8174 20.6618 51.8219 20.5023 51.8311 20.3428C51.8311 20.2061 51.7559 20.1377 51.6055 20.1377L50.416 20.2334Z" fill="black"/>
<path d="M59.248 16.1045C59.248 15.863 59.3164 15.6943 59.4531 15.5986C59.5898 15.4984 59.8154 15.4482 60.1299 15.4482C60.2438 15.4482 60.3395 15.4596 60.417 15.4824C60.499 15.5007 60.5674 15.5371 60.6221 15.5918C60.6813 15.6465 60.7269 15.7194 60.7588 15.8105C60.7952 15.8971 60.8249 16.0088 60.8477 16.1455C60.9023 16.5693 60.9616 17.0068 61.0254 17.458C61.0938 17.9092 61.1644 18.3626 61.2373 18.8184C61.2646 19.0234 61.3717 19.126 61.5586 19.126C61.6087 19.126 61.6908 19.1214 61.8047 19.1123C61.9232 19.0986 62.0622 19.085 62.2217 19.0713C62.3812 19.0531 62.5521 19.0348 62.7344 19.0166C62.9212 18.9984 63.1058 18.9824 63.2881 18.9688C63.4749 18.9505 63.6504 18.9368 63.8145 18.9277C63.9831 18.9141 64.1312 18.9072 64.2588 18.9072C64.359 18.9072 64.4388 18.9277 64.498 18.9688C64.5573 19.0052 64.6029 19.0553 64.6348 19.1191C64.6712 19.1784 64.694 19.2467 64.7031 19.3242C64.7168 19.3971 64.7236 19.4723 64.7236 19.5498C64.7236 19.6182 64.71 19.6888 64.6826 19.7617C64.6598 19.8346 64.6257 19.9007 64.5801 19.96C64.5391 20.0146 64.4867 20.0602 64.4229 20.0967C64.359 20.1331 64.2861 20.1514 64.2041 20.1514C63.8076 20.1514 63.4066 20.165 63.001 20.1924C62.5999 20.2152 62.1989 20.2471 61.7979 20.2881C61.5928 20.3154 61.4902 20.418 61.4902 20.5957C61.4902 20.6094 61.4925 20.6276 61.4971 20.6504C61.5016 20.6686 61.5039 20.6846 61.5039 20.6982C61.5586 21.0947 61.6087 21.4661 61.6543 21.8125C61.7044 22.1589 61.7454 22.4688 61.7773 22.7422C61.8138 23.0111 61.8411 23.2367 61.8594 23.4189C61.8822 23.5967 61.8936 23.7152 61.8936 23.7744C61.8936 23.9385 61.8776 24.0752 61.8457 24.1846C61.8138 24.2985 61.7614 24.3896 61.6885 24.458C61.6156 24.5309 61.5176 24.5811 61.3945 24.6084C61.276 24.6403 61.1257 24.6562 60.9434 24.6562C60.7702 24.6562 60.6426 24.6152 60.5605 24.5332C60.4785 24.4512 60.4329 24.3258 60.4238 24.1572C60.3965 23.6195 60.3532 23.0794 60.2939 22.5371C60.2347 21.9902 60.1663 21.4456 60.0889 20.9033C60.0479 20.7074 59.9453 20.6094 59.7812 20.6094C59.7676 20.6094 59.7516 20.6117 59.7334 20.6162C59.7152 20.6208 59.6992 20.623 59.6855 20.623C59.403 20.6868 59.1364 20.7507 58.8857 20.8145C58.6351 20.8783 58.4004 20.9466 58.1816 21.0195C58.0586 21.0605 57.9492 21.0902 57.8535 21.1084C57.7578 21.1221 57.6712 21.1289 57.5938 21.1289C57.4889 21.1289 57.4115 21.0833 57.3613 20.9922C57.3112 20.8965 57.2861 20.778 57.2861 20.6367C57.2861 20.5866 57.2907 20.5296 57.2998 20.4658C57.3089 20.3975 57.3271 20.3314 57.3545 20.2676C57.3773 20.1992 57.4137 20.1377 57.4639 20.083C57.5094 20.0238 57.5732 19.9759 57.6553 19.9395C57.8467 19.862 58.1019 19.7822 58.4209 19.7002C58.7399 19.6136 59.0999 19.5339 59.501 19.4609C59.5921 19.4382 59.6628 19.4017 59.7129 19.3516C59.7676 19.2969 59.7949 19.2171 59.7949 19.1123C59.7949 19.0895 59.7949 19.0667 59.7949 19.0439C59.7949 19.0166 59.7904 18.9893 59.7812 18.9619C59.7083 18.5426 59.6377 18.1621 59.5693 17.8203C59.5055 17.474 59.4486 17.1777 59.3984 16.9316C59.3529 16.6855 59.3164 16.4919 59.2891 16.3506C59.2617 16.2093 59.248 16.1273 59.248 16.1045Z" fill="black"/>
<path d="M64.1357 17.417C64.1357 16.9248 64.4548 16.6787 65.0928 16.6787C65.2021 16.6787 65.2979 16.7083 65.3799 16.7676C65.4619 16.8268 65.5098 16.9089 65.5234 17.0137C65.5645 17.2917 65.6009 17.5674 65.6328 17.8408C65.6647 18.1143 65.6943 18.4219 65.7217 18.7637C65.7536 19.1009 65.7832 19.4928 65.8105 19.9395C65.8424 20.3815 65.8766 20.9102 65.9131 21.5254C65.9131 21.5892 65.9222 21.6348 65.9404 21.6621C65.9632 21.6895 65.9883 21.7031 66.0156 21.7031C66.0566 21.7031 66.0977 21.6621 66.1387 21.5801C66.2936 21.2383 66.4668 20.9329 66.6582 20.6641C66.8496 20.3906 67.0547 20.1605 67.2734 19.9736C67.4922 19.7822 67.7223 19.6387 67.9639 19.543C68.21 19.4427 68.4606 19.3926 68.7158 19.3926C69.0531 19.3926 69.3584 19.4883 69.6318 19.6797C69.9053 19.8711 70.1377 20.1423 70.3291 20.4932C70.5205 20.8441 70.6686 21.2702 70.7734 21.7715C70.8783 22.2682 70.9307 22.8242 70.9307 23.4395C70.9307 23.6081 70.917 23.7471 70.8896 23.8564C70.8669 23.9613 70.8258 24.0456 70.7666 24.1094C70.7074 24.1732 70.6253 24.2165 70.5205 24.2393C70.4157 24.2666 70.2858 24.2803 70.1309 24.2803C69.9167 24.2803 69.7617 24.2393 69.666 24.1572C69.5749 24.0752 69.5293 23.9476 69.5293 23.7744C69.5293 23.346 69.4997 22.9427 69.4404 22.5645C69.3857 22.1816 69.3083 21.8467 69.208 21.5596C69.1077 21.2725 68.9893 21.0446 68.8525 20.876C68.7204 20.7074 68.5768 20.623 68.4219 20.623C68.071 20.623 67.7201 20.9079 67.3691 21.4775C67.0228 22.0472 66.6605 22.9062 66.2822 24.0547C66.2458 24.1595 66.2048 24.2461 66.1592 24.3145C66.1136 24.3828 66.0589 24.4375 65.9951 24.4785C65.9359 24.5195 65.863 24.5469 65.7764 24.5605C65.6898 24.5788 65.5872 24.5879 65.4688 24.5879C65.2272 24.5879 65.054 24.5423 64.9492 24.4512C64.849 24.36 64.7943 24.2096 64.7852 24C64.7578 23.207 64.7077 22.4505 64.6348 21.7305C64.5664 21.0059 64.4935 20.3519 64.416 19.7686C64.3431 19.1807 64.277 18.6839 64.2178 18.2783C64.1631 17.8682 64.1357 17.5811 64.1357 17.417Z" fill="black"/>
<path d="M77.6641 22.5029C77.7962 22.389 77.9261 22.332 78.0537 22.332C78.1266 22.332 78.1927 22.3503 78.252 22.3867C78.3112 22.4232 78.3773 22.4801 78.4502 22.5576C78.5186 22.6624 78.5664 22.749 78.5938 22.8174C78.6257 22.8812 78.6416 22.945 78.6416 23.0088C78.6416 23.1455 78.5732 23.2754 78.4365 23.3984C78.2178 23.5807 77.9808 23.7448 77.7256 23.8906C77.4704 24.0319 77.2038 24.1527 76.9258 24.2529C76.6478 24.3532 76.3607 24.4284 76.0645 24.4785C75.7682 24.5332 75.4743 24.5605 75.1826 24.5605C74.8135 24.5605 74.4671 24.5127 74.1436 24.417C73.82 24.3258 73.5306 24.1937 73.2754 24.0205C73.0247 23.8473 72.8128 23.64 72.6396 23.3984C72.4665 23.1523 72.3434 22.8766 72.2705 22.5713C72.2295 22.4437 72.1908 22.3617 72.1543 22.3252C72.1224 22.2842 72.0677 22.2637 71.9902 22.2637C71.8216 22.2637 71.6917 22.2227 71.6006 22.1406C71.5094 22.0586 71.4639 21.9401 71.4639 21.7852C71.4639 21.7214 71.4684 21.6803 71.4775 21.6621L71.4912 21.5254C71.514 21.3613 71.5573 21.2428 71.6211 21.1699C71.6895 21.097 71.7943 21.0605 71.9355 21.0605H72.0381C72.2295 21.0605 72.3639 20.9717 72.4414 20.7939C72.5827 20.4795 72.7627 20.1924 72.9814 19.9326C73.2002 19.6729 73.4463 19.4518 73.7197 19.2695C73.9932 19.0827 74.2848 18.9391 74.5947 18.8389C74.9092 18.734 75.2282 18.6816 75.5518 18.6816C75.889 18.6816 76.2035 18.7318 76.4951 18.832C76.7913 18.9277 77.0488 19.0622 77.2676 19.2354C77.4863 19.4085 77.6572 19.6113 77.7803 19.8438C77.9079 20.0762 77.9717 20.3268 77.9717 20.5957C77.9717 20.7826 77.9352 20.9535 77.8623 21.1084C77.7894 21.2633 77.6846 21.4001 77.5479 21.5186C77.4111 21.6325 77.2448 21.7259 77.0488 21.7988C76.8574 21.8717 76.6387 21.9196 76.3926 21.9424L74.0205 22.1816C73.9294 22.1816 73.8542 22.2044 73.7949 22.25C73.7402 22.2956 73.7129 22.3571 73.7129 22.4346C73.7129 22.5531 73.7562 22.667 73.8428 22.7764C73.9339 22.8857 74.0524 22.9837 74.1982 23.0703C74.3486 23.1523 74.5195 23.2184 74.7109 23.2686C74.9069 23.3187 75.1074 23.3438 75.3125 23.3438C75.5085 23.3438 75.709 23.3255 75.9141 23.2891C76.1237 23.248 76.3288 23.1911 76.5293 23.1182C76.7344 23.0452 76.9326 22.9587 77.124 22.8584C77.3154 22.7536 77.4954 22.6351 77.6641 22.5029ZM76.1396 20.7393C76.208 20.7256 76.2673 20.6937 76.3174 20.6436C76.3675 20.5889 76.3926 20.5228 76.3926 20.4453C76.3926 20.377 76.3675 20.3132 76.3174 20.2539C76.2673 20.1947 76.1989 20.1423 76.1123 20.0967C76.0257 20.0465 75.9255 20.0078 75.8115 19.9805C75.6976 19.9531 75.5768 19.9395 75.4492 19.9395C75.2624 19.9395 75.071 19.9668 74.875 20.0215C74.679 20.0762 74.5013 20.1491 74.3418 20.2402C74.1823 20.3268 74.0524 20.4248 73.9521 20.5342C73.8519 20.639 73.8018 20.7438 73.8018 20.8486C73.8018 20.9535 73.8656 21.0059 73.9932 21.0059C74.0706 21.0059 74.196 20.9967 74.3691 20.9785C74.5423 20.9603 74.7337 20.9398 74.9434 20.917C75.153 20.8896 75.3649 20.86 75.5791 20.8281C75.7933 20.7962 75.9801 20.7666 76.1396 20.7393Z" fill="black"/>
<path d="M86.1064 18.8867C85.9378 18.8867 85.7897 18.9323 85.6621 19.0234C85.5345 19.11 85.4251 19.2331 85.334 19.3926C85.2428 19.5475 85.1676 19.7321 85.1084 19.9463C85.0492 20.1559 85.0013 20.3861 84.9648 20.6367C84.9284 20.8874 84.9033 21.1494 84.8896 21.4229C84.876 21.6963 84.8691 21.972 84.8691 22.25C84.8691 22.6146 84.8828 22.9746 84.9102 23.3301C84.9421 23.681 84.958 24.0068 84.958 24.3076C84.958 24.5036 84.8851 24.6562 84.7393 24.7656C84.5934 24.8796 84.3861 24.9365 84.1172 24.9365C84.0671 24.9365 84.0101 24.932 83.9463 24.9229C83.8825 24.9137 83.821 24.8955 83.7617 24.8682C83.707 24.8408 83.6569 24.8021 83.6113 24.752C83.5703 24.7064 83.5475 24.6426 83.543 24.5605C83.502 24.1595 83.4427 23.7493 83.3652 23.3301C83.2878 22.9108 83.1898 22.4938 83.0713 22.0791C82.9574 21.6598 82.8184 21.2451 82.6543 20.835C82.4948 20.4248 82.3102 20.0238 82.1006 19.6318C82.0641 19.5635 82.0322 19.4997 82.0049 19.4404C81.9821 19.3812 81.9707 19.3242 81.9707 19.2695C81.9707 19.2012 82.0003 19.1283 82.0596 19.0508C82.1234 18.9688 82.2008 18.8936 82.292 18.8252C82.3877 18.7568 82.4902 18.7021 82.5996 18.6611C82.7135 18.6156 82.8229 18.5928 82.9277 18.5928C83.1009 18.5928 83.2536 18.7135 83.3857 18.9551C83.5179 19.1921 83.641 19.5726 83.7549 20.0967C83.7777 20.1878 83.7959 20.2516 83.8096 20.2881C83.8232 20.3245 83.8415 20.3428 83.8643 20.3428C83.9144 20.3428 83.9463 20.2653 83.96 20.1104C84.0146 19.6774 84.1081 19.306 84.2402 18.9961C84.3724 18.6816 84.5365 18.4242 84.7324 18.2236C84.9329 18.0186 85.1608 17.8682 85.416 17.7725C85.6758 17.6768 85.9606 17.6289 86.2705 17.6289C86.4482 17.6289 86.6283 17.6449 86.8105 17.6768C86.9928 17.7087 87.1569 17.7565 87.3027 17.8203C87.4486 17.8841 87.5671 17.9616 87.6582 18.0527C87.7493 18.1439 87.7949 18.2464 87.7949 18.3604C87.7949 18.4424 87.7767 18.5404 87.7402 18.6543C87.7083 18.7637 87.665 18.8708 87.6104 18.9756C87.5557 19.0758 87.4919 19.1624 87.4189 19.2354C87.3506 19.3037 87.2799 19.3379 87.207 19.3379C87.125 19.3379 87.0452 19.3151 86.9678 19.2695C86.8903 19.2194 86.806 19.167 86.7148 19.1123C86.6283 19.0576 86.5348 19.0075 86.4346 18.9619C86.3389 18.9118 86.2295 18.8867 86.1064 18.8867Z" fill="black"/>
<path d="M93.1816 22.5029C93.3138 22.389 93.4437 22.332 93.5713 22.332C93.6442 22.332 93.7103 22.3503 93.7695 22.3867C93.8288 22.4232 93.8949 22.4801 93.9678 22.5576C94.0361 22.6624 94.084 22.749 94.1113 22.8174C94.1432 22.8812 94.1592 22.945 94.1592 23.0088C94.1592 23.1455 94.0908 23.2754 93.9541 23.3984C93.7354 23.5807 93.4984 23.7448 93.2432 23.8906C92.988 24.0319 92.7214 24.1527 92.4434 24.2529C92.1654 24.3532 91.8783 24.4284 91.582 24.4785C91.2858 24.5332 90.9919 24.5605 90.7002 24.5605C90.3311 24.5605 89.9847 24.5127 89.6611 24.417C89.3376 24.3258 89.0482 24.1937 88.793 24.0205C88.5423 23.8473 88.3304 23.64 88.1572 23.3984C87.984 23.1523 87.861 22.8766 87.7881 22.5713C87.7471 22.4437 87.7083 22.3617 87.6719 22.3252C87.64 22.2842 87.5853 22.2637 87.5078 22.2637C87.3392 22.2637 87.2093 22.2227 87.1182 22.1406C87.027 22.0586 86.9814 21.9401 86.9814 21.7852C86.9814 21.7214 86.986 21.6803 86.9951 21.6621L87.0088 21.5254C87.0316 21.3613 87.0749 21.2428 87.1387 21.1699C87.207 21.097 87.3118 21.0605 87.4531 21.0605H87.5557C87.7471 21.0605 87.8815 20.9717 87.959 20.7939C88.1003 20.4795 88.2803 20.1924 88.499 19.9326C88.7178 19.6729 88.9639 19.4518 89.2373 19.2695C89.5107 19.0827 89.8024 18.9391 90.1123 18.8389C90.4268 18.734 90.7458 18.6816 91.0693 18.6816C91.4066 18.6816 91.721 18.7318 92.0127 18.832C92.3089 18.9277 92.5664 19.0622 92.7852 19.2354C93.0039 19.4085 93.1748 19.6113 93.2979 19.8438C93.4255 20.0762 93.4893 20.3268 93.4893 20.5957C93.4893 20.7826 93.4528 20.9535 93.3799 21.1084C93.307 21.2633 93.2021 21.4001 93.0654 21.5186C92.9287 21.6325 92.7624 21.7259 92.5664 21.7988C92.375 21.8717 92.1562 21.9196 91.9102 21.9424L89.5381 22.1816C89.4469 22.1816 89.3717 22.2044 89.3125 22.25C89.2578 22.2956 89.2305 22.3571 89.2305 22.4346C89.2305 22.5531 89.2738 22.667 89.3604 22.7764C89.4515 22.8857 89.57 22.9837 89.7158 23.0703C89.8662 23.1523 90.0371 23.2184 90.2285 23.2686C90.4245 23.3187 90.625 23.3438 90.8301 23.3438C91.026 23.3438 91.2266 23.3255 91.4316 23.2891C91.6413 23.248 91.8464 23.1911 92.0469 23.1182C92.252 23.0452 92.4502 22.9587 92.6416 22.8584C92.833 22.7536 93.013 22.6351 93.1816 22.5029ZM91.6572 20.7393C91.7256 20.7256 91.7848 20.6937 91.835 20.6436C91.8851 20.5889 91.9102 20.5228 91.9102 20.4453C91.9102 20.377 91.8851 20.3132 91.835 20.2539C91.7848 20.1947 91.7165 20.1423 91.6299 20.0967C91.5433 20.0465 91.443 20.0078 91.3291 19.9805C91.2152 19.9531 91.0944 19.9395 90.9668 19.9395C90.7799 19.9395 90.5885 19.9668 90.3926 20.0215C90.1966 20.0762 90.0189 20.1491 89.8594 20.2402C89.6999 20.3268 89.57 20.4248 89.4697 20.5342C89.3695 20.639 89.3193 20.7438 89.3193 20.8486C89.3193 20.9535 89.3831 21.0059 89.5107 21.0059C89.5882 21.0059 89.7135 20.9967 89.8867 20.9785C90.0599 20.9603 90.2513 20.9398 90.4609 20.917C90.6706 20.8896 90.8825 20.86 91.0967 20.8281C91.3109 20.7962 91.4977 20.7666 91.6572 20.7393Z" fill="black"/>
<path d="M96.2988 18.0664C96.6042 18.0664 96.9186 18.1074 97.2422 18.1895C97.5658 18.2669 97.862 18.3695 98.1309 18.4971C98.3997 18.6201 98.6208 18.7591 98.7939 18.9141C98.9671 19.069 99.0537 19.2194 99.0537 19.3652C99.0537 19.4382 99.0218 19.5202 98.958 19.6113C98.8942 19.6979 98.8167 19.7822 98.7256 19.8643C98.6344 19.9417 98.5342 20.0078 98.4248 20.0625C98.32 20.1126 98.2266 20.1377 98.1445 20.1377C98.0352 20.1377 97.9121 20.0921 97.7754 20.001C97.6432 19.9098 97.4951 19.8096 97.3311 19.7002C97.1715 19.5863 96.9961 19.4837 96.8047 19.3926C96.6133 19.3014 96.4059 19.2559 96.1826 19.2559C96.0368 19.2559 95.916 19.2923 95.8203 19.3652C95.7292 19.4336 95.6836 19.5316 95.6836 19.6592C95.6836 19.7731 95.7383 19.8893 95.8477 20.0078C95.957 20.1217 96.1006 20.2402 96.2783 20.3633C96.4606 20.4863 96.6657 20.6162 96.8936 20.7529C97.1214 20.8896 97.3538 21.0355 97.5908 21.1904C97.8324 21.3454 98.0671 21.514 98.2949 21.6963C98.5228 21.8786 98.7256 22.0768 98.9033 22.291C99.0856 22.5052 99.2314 22.7399 99.3408 22.9951C99.4502 23.2458 99.5049 23.5192 99.5049 23.8154C99.5049 24.0706 99.4593 24.3031 99.3682 24.5127C99.277 24.7223 99.1471 24.9023 98.9785 25.0527C98.8099 25.2031 98.6094 25.3193 98.377 25.4014C98.1445 25.4834 97.8893 25.5244 97.6113 25.5244C97.2604 25.5244 96.9368 25.4697 96.6406 25.3604C96.3444 25.2555 96.0892 25.1097 95.875 24.9229C95.6608 24.736 95.4922 24.5127 95.3691 24.2529C95.2507 23.9932 95.1914 23.7083 95.1914 23.3984C95.1914 22.9974 95.262 22.7057 95.4033 22.5234C95.5492 22.3411 95.777 22.25 96.0869 22.25C96.2783 22.25 96.431 22.2865 96.5449 22.3594C96.6589 22.4323 96.7158 22.5212 96.7158 22.626C96.7158 22.6807 96.7067 22.7376 96.6885 22.7969C96.6702 22.8516 96.6497 22.9108 96.627 22.9746C96.6087 23.0339 96.5905 23.0977 96.5723 23.166C96.5586 23.2344 96.5518 23.3027 96.5518 23.3711C96.5518 23.4896 96.5791 23.6035 96.6338 23.7129C96.6885 23.8223 96.7614 23.918 96.8525 24C96.9482 24.0866 97.0576 24.1549 97.1807 24.2051C97.3037 24.2552 97.4336 24.2803 97.5703 24.2803C97.9349 24.2803 98.1172 24.1299 98.1172 23.8291C98.1172 23.5921 98.0238 23.3688 97.8369 23.1592C97.6501 22.945 97.4154 22.7376 97.1328 22.5371C96.8503 22.332 96.5449 22.127 96.2168 21.9219C95.8932 21.7168 95.5902 21.5026 95.3076 21.2793C95.0251 21.056 94.7904 20.819 94.6035 20.5684C94.4167 20.3132 94.3232 20.0374 94.3232 19.7412C94.3232 19.4951 94.3734 19.2695 94.4736 19.0645C94.5785 18.8594 94.7197 18.6839 94.8975 18.5381C95.0752 18.3877 95.2826 18.2715 95.5195 18.1895C95.7611 18.1074 96.0208 18.0664 96.2988 18.0664Z" fill="black"/>
<path d="M100.387 16.1045C100.387 15.863 100.455 15.6943 100.592 15.5986C100.729 15.4984 100.954 15.4482 101.269 15.4482C101.382 15.4482 101.478 15.4596 101.556 15.4824C101.638 15.5007 101.706 15.5371 101.761 15.5918C101.82 15.6465 101.866 15.7194 101.897 15.8105C101.934 15.8971 101.964 16.0088 101.986 16.1455C102.041 16.5693 102.1 17.0068 102.164 17.458C102.232 17.9092 102.303 18.3626 102.376 18.8184C102.403 19.0234 102.51 19.126 102.697 19.126C102.747 19.126 102.829 19.1214 102.943 19.1123C103.062 19.0986 103.201 19.085 103.36 19.0713C103.52 19.0531 103.691 19.0348 103.873 19.0166C104.06 18.9984 104.244 18.9824 104.427 18.9688C104.614 18.9505 104.789 18.9368 104.953 18.9277C105.122 18.9141 105.27 18.9072 105.397 18.9072C105.498 18.9072 105.577 18.9277 105.637 18.9688C105.696 19.0052 105.742 19.0553 105.773 19.1191C105.81 19.1784 105.833 19.2467 105.842 19.3242C105.855 19.3971 105.862 19.4723 105.862 19.5498C105.862 19.6182 105.849 19.6888 105.821 19.7617C105.799 19.8346 105.764 19.9007 105.719 19.96C105.678 20.0146 105.625 20.0602 105.562 20.0967C105.498 20.1331 105.425 20.1514 105.343 20.1514C104.946 20.1514 104.545 20.165 104.14 20.1924C103.739 20.2152 103.338 20.2471 102.937 20.2881C102.731 20.3154 102.629 20.418 102.629 20.5957C102.629 20.6094 102.631 20.6276 102.636 20.6504C102.64 20.6686 102.643 20.6846 102.643 20.6982C102.697 21.0947 102.747 21.4661 102.793 21.8125C102.843 22.1589 102.884 22.4688 102.916 22.7422C102.952 23.0111 102.98 23.2367 102.998 23.4189C103.021 23.5967 103.032 23.7152 103.032 23.7744C103.032 23.9385 103.016 24.0752 102.984 24.1846C102.952 24.2985 102.9 24.3896 102.827 24.458C102.754 24.5309 102.656 24.5811 102.533 24.6084C102.415 24.6403 102.264 24.6562 102.082 24.6562C101.909 24.6562 101.781 24.6152 101.699 24.5332C101.617 24.4512 101.572 24.3258 101.562 24.1572C101.535 23.6195 101.492 23.0794 101.433 22.5371C101.373 21.9902 101.305 21.4456 101.228 20.9033C101.187 20.7074 101.084 20.6094 100.92 20.6094C100.906 20.6094 100.89 20.6117 100.872 20.6162C100.854 20.6208 100.838 20.623 100.824 20.623C100.542 20.6868 100.275 20.7507 100.024 20.8145C99.7738 20.8783 99.5391 20.9466 99.3203 21.0195C99.1973 21.0605 99.0879 21.0902 98.9922 21.1084C98.8965 21.1221 98.8099 21.1289 98.7324 21.1289C98.6276 21.1289 98.5501 21.0833 98.5 20.9922C98.4499 20.8965 98.4248 20.778 98.4248 20.6367C98.4248 20.5866 98.4294 20.5296 98.4385 20.4658C98.4476 20.3975 98.4658 20.3314 98.4932 20.2676C98.516 20.1992 98.5524 20.1377 98.6025 20.083C98.6481 20.0238 98.7119 19.9759 98.7939 19.9395C98.9854 19.862 99.2406 19.7822 99.5596 19.7002C99.8786 19.6136 100.239 19.5339 100.64 19.4609C100.731 19.4382 100.801 19.4017 100.852 19.3516C100.906 19.2969 100.934 19.2171 100.934 19.1123C100.934 19.0895 100.934 19.0667 100.934 19.0439C100.934 19.0166 100.929 18.9893 100.92 18.9619C100.847 18.5426 100.776 18.1621 100.708 17.8203C100.644 17.474 100.587 17.1777 100.537 16.9316C100.492 16.6855 100.455 16.4919 100.428 16.3506C100.4 16.2093 100.387 16.1273 100.387 16.1045Z" fill="black"/>
<defs>
<linearGradient id="paint0_linear" x1="176.626" y1="62.5454" x2="172.626" y2="82.5454" gradientUnits="userSpaceOnUse">
<stop/>
<stop offset="1" stop-color="white"/>
</linearGradient>
<linearGradient id="paint1_linear" x1="176.626" y1="62.5454" x2="172.626" y2="82.5454" gradientUnits="userSpaceOnUse">
<stop stop-color="#C04B00"/>
<stop offset="1" stop-color="#B73400"/>
</linearGradient>
</defs>
</svg>
