<svg width="207" height="40" viewBox="0 0 207 40" fill="none" xmlns="http://www.w3.org/2000/svg">
<path d="M18.2811 0L0 6.42659L2.95562 31.2465L18.2811 40L34.1538 31.2465L37 6.42659L18.2811 0Z" fill="white"/>
<path d="M18.3206 3.66677L3.33342 8.8719L5.7565 28.9745L18.3206 36.0642L31.3334 28.9745L33.6668 8.8719L18.3206 3.66677Z" fill="#5A72EC"/>
<path fill-rule="evenodd" clip-rule="evenodd" d="M17.9999 39.9375V0.0385099L18.1104 3.8147e-05L36.9998 6.42663L34.1277 31.2466L18.1104 40L17.9999 39.9375Z" fill="#9531D8" fill-opacity="0.5"/>
<path d="M14.2661 23L14.2547 18.2L11.9049 22.1543H11.0722L8.73383 18.3029V23H6.99998V15H8.5285L11.5171 19.9714L14.4601 15H15.9772L16 23H14.2661Z" fill="#25C2FE"/>
<path d="M24.4278 23C23.7623 23 23.1168 22.919 22.4914 22.7569C21.874 22.5875 21.3768 22.3702 21 22.105L21.6615 20.7569C22.0223 21 22.4513 21.1952 22.9484 21.3425C23.4456 21.4899 23.9427 21.5635 24.4398 21.5635C24.9931 21.5635 25.402 21.4899 25.6667 21.3425C25.9313 21.1878 26.0636 20.9853 26.0636 20.7348C26.0636 20.5506 25.9834 20.3996 25.823 20.2818C25.6707 20.1565 25.4702 20.0571 25.2216 19.9834C24.9811 19.9098 24.6523 19.8287 24.2354 19.7403C23.5939 19.6004 23.0687 19.4604 22.6598 19.3204C22.2508 19.1805 21.898 18.9558 21.6014 18.6464C21.3127 18.337 21.1684 17.9245 21.1684 17.4088C21.1684 16.9595 21.3007 16.5543 21.5653 16.1934C21.8299 15.825 22.2268 15.5341 22.756 15.3204C23.2932 15.1068 23.9467 15 24.7165 15C25.2537 15 25.7789 15.0589 26.2921 15.1768C26.8053 15.2947 27.2543 15.4641 27.6392 15.6851L27.0378 17.0442C26.26 16.639 25.4822 16.4365 24.7045 16.4365C24.1592 16.4365 23.7543 16.5175 23.4897 16.6796C23.2331 16.8416 23.1048 17.0552 23.1048 17.3204C23.1048 17.5856 23.2531 17.7845 23.5498 17.9171C23.8545 18.0424 24.3156 18.1676 24.933 18.2928C25.5744 18.4328 26.0996 18.5727 26.5086 18.7127C26.9175 18.8527 27.2663 19.0737 27.555 19.3757C27.8516 19.6777 28 20.0866 28 20.6022C28 21.0442 27.8637 21.4494 27.5911 21.8177C27.3264 22.1786 26.9255 22.4659 26.3883 22.6796C25.8511 22.8932 25.1976 23 24.4278 23Z" fill="#25C2FE"/>
<path d="M54.543 17.0156C54.4492 17.0156 54.3672 17.0898 54.2969 17.2383C54 17.8164 53.6836 18.3398 53.3477 18.8086C53.0195 19.2773 52.6875 19.6758 52.3516 20.0039C52.0156 20.332 51.6836 20.5859 51.3555 20.7656C51.0273 20.9375 50.7188 21.0234 50.4297 21.0234C50.1484 21.0234 49.8867 20.9648 49.6445 20.8477C49.4102 20.7227 49.1523 20.4922 48.8711 20.1562C48.5977 19.8203 48.2812 19.3555 47.9219 18.7617C47.5703 18.168 47.1367 17.3945 46.6211 16.4414C46.5352 16.2852 46.4453 16.1719 46.3516 16.1016C46.2656 16.0234 46.1875 15.9844 46.1172 15.9844C46.0156 15.9844 45.9219 16.0938 45.8359 16.3125C45.75 16.5234 45.6758 16.8242 45.6133 17.2148C45.5508 17.5977 45.5 18.0625 45.4609 18.6094C45.4297 19.1484 45.4141 19.7461 45.4141 20.4023C45.4141 20.793 45.4336 21.1836 45.4727 21.5742C45.5195 21.9648 45.543 22.3672 45.543 22.7812C45.543 22.9219 45.5039 23.0547 45.4258 23.1797C45.3477 23.2969 45.2422 23.3984 45.1094 23.4844C44.9844 23.5781 44.832 23.6523 44.6523 23.707C44.4805 23.7617 44.2969 23.7891 44.1016 23.7891C43.7109 23.7891 43.4297 23.5547 43.2578 23.0859C43.0859 22.6172 43 21.8672 43 20.8359C43 19.5312 43.0703 18.3477 43.2109 17.2852C43.3594 16.2148 43.5664 15.3008 43.832 14.543C44.1055 13.7773 44.4258 13.1875 44.793 12.7734C45.168 12.3516 45.5859 12.1406 46.0469 12.1406C46.4531 12.1406 46.8398 12.375 47.207 12.8438C47.582 13.3047 47.9844 14.0547 48.4141 15.0938C48.5859 15.5156 48.7695 15.9102 48.9648 16.2773C49.168 16.6445 49.3672 16.9648 49.5625 17.2383C49.7656 17.5039 49.9609 17.7148 50.1484 17.8711C50.3359 18.0195 50.5039 18.0938 50.6523 18.0938C50.8008 18.0938 50.9414 18.0625 51.0742 18C51.2148 17.9297 51.3711 17.7852 51.543 17.5664C51.7227 17.3398 51.9297 17.0117 52.1641 16.582C52.4062 16.1523 52.7031 15.5781 53.0547 14.8594C53.2422 14.4844 53.4102 14.1719 53.5586 13.9219C53.707 13.6719 53.8555 13.4727 54.0039 13.3242C54.1523 13.168 54.3086 13.0586 54.4727 12.9961C54.6367 12.9258 54.8203 12.8906 55.0234 12.8906C55.2656 12.8906 55.5039 13.0195 55.7383 13.2773C55.9727 13.5352 56.1992 13.8789 56.418 14.3086C56.6445 14.7383 56.8633 15.2383 57.0742 15.8086C57.2852 16.3789 57.4883 16.9766 57.6836 17.6016C57.8867 18.2266 58.082 18.8633 58.2695 19.5117C58.4648 20.1523 58.6523 20.7617 58.832 21.3398C58.8789 21.5117 58.9102 21.6328 58.9258 21.7031C58.9492 21.7656 58.9609 21.8438 58.9609 21.9375C58.9609 22.0703 58.918 22.2031 58.832 22.3359C58.7539 22.4609 58.6484 22.5742 58.5156 22.6758C58.3828 22.7773 58.2305 22.8594 58.0586 22.9219C57.8945 22.9844 57.7305 23.0156 57.5664 23.0156C57.3477 23.0156 57.1758 22.9922 57.0508 22.9453C56.9336 22.8906 56.8398 22.7969 56.7695 22.6641C56.7305 22.5938 56.6641 22.4062 56.5703 22.1016C56.4766 21.7969 56.3633 21.4375 56.2305 21.0234C56.1055 20.6016 55.9648 20.1562 55.8086 19.6875C55.6602 19.2188 55.5078 18.7891 55.3516 18.3984C55.2031 18 55.0586 17.6719 54.918 17.4141C54.7773 17.1484 54.6523 17.0156 54.543 17.0156Z" fill="white"/>
<path d="M67.1992 13.1602C67.6289 13.1602 68.043 13.2266 68.4414 13.3594C68.8398 13.4922 69.1914 13.6758 69.4961 13.9102C69.8008 14.1445 70.043 14.4258 70.2227 14.7539C70.4102 15.082 70.5039 15.4453 70.5039 15.8438C70.5039 16.0078 70.4648 16.168 70.3867 16.3242C70.3164 16.4727 70.2188 16.6055 70.0938 16.7227C69.9688 16.832 69.8242 16.9219 69.6602 16.9922C69.5039 17.0547 69.3398 17.0859 69.168 17.0859C69.1523 17.0859 69.1367 17.0898 69.1211 17.0977C69.1133 17.0977 69.1016 17.0977 69.0859 17.0977C69.0703 17.1055 69.0547 17.1094 69.0391 17.1094L69.0859 18.0469C69.1172 19.1641 69.2734 19.9805 69.5547 20.4961C69.8438 21.0117 70.2188 21.2695 70.6797 21.2695C70.8438 21.2695 70.9883 21.2539 71.1133 21.2227C71.2461 21.1914 71.3672 21.1562 71.4766 21.1172C71.5938 21.0703 71.7031 21.0312 71.8047 21C71.9062 20.9688 72.0078 20.9531 72.1094 20.9531C72.2891 20.9531 72.4453 21.0312 72.5781 21.1875C72.7188 21.3438 72.7891 21.5312 72.7891 21.75C72.7891 21.9688 72.7031 22.1875 72.5312 22.4062C72.3672 22.625 72.1484 22.8242 71.875 23.0039C71.6016 23.1758 71.293 23.3164 70.9492 23.4258C70.6055 23.5352 70.2578 23.5898 69.9062 23.5898C69.2969 23.5898 68.7617 23.3398 68.3008 22.8398C67.8398 22.332 67.5117 21.5898 67.3164 20.6133C67.2695 20.457 67.207 20.3789 67.1289 20.3789C67.0352 20.3789 66.9531 20.4258 66.8828 20.5195C66.1094 21.4961 65.2852 22.2305 64.4102 22.7227C63.5352 23.207 62.6719 23.4492 61.8203 23.4492C61.4219 23.4492 61.0625 23.3906 60.7422 23.2734C60.4219 23.1562 60.1484 22.9922 59.9219 22.7812C59.7031 22.5625 59.5312 22.3008 59.4062 21.9961C59.2891 21.6836 59.2305 21.3359 59.2305 20.9531C59.2305 20.4141 59.3477 19.8477 59.582 19.2539C59.8242 18.6602 60.1484 18.0742 60.5547 17.4961C60.9609 16.918 61.4297 16.3672 61.9609 15.8438C62.5 15.3203 63.0625 14.8594 63.6484 14.4609C64.2422 14.0625 64.8438 13.7461 65.4531 13.5117C66.0625 13.2773 66.6445 13.1602 67.1992 13.1602ZM66.8125 17.2148C66.9531 16.9492 67.082 16.7578 67.1992 16.6406C67.3164 16.5156 67.4844 16.4336 67.7031 16.3945C67.875 16.3711 67.9609 16.3164 67.9609 16.2305C67.9609 16.168 67.9375 16.1016 67.8906 16.0312C67.7422 15.8281 67.5859 15.6523 67.4219 15.5039C67.2578 15.3477 67.0391 15.2695 66.7656 15.2695C66.4688 15.2695 66.1367 15.3555 65.7695 15.5273C65.4023 15.6992 65.0273 15.9297 64.6445 16.2188C64.2695 16.5 63.8984 16.8242 63.5312 17.1914C63.1719 17.5508 62.8516 17.9219 62.5703 18.3047C62.2891 18.6875 62.0625 19.0664 61.8906 19.4414C61.7188 19.8164 61.6328 20.1523 61.6328 20.4492C61.6328 20.7148 61.7031 20.9219 61.8438 21.0703C61.9922 21.2188 62.1914 21.293 62.4414 21.293C63.082 21.293 63.7812 20.9531 64.5391 20.2734C65.2969 19.5938 66.0547 18.5742 66.8125 17.2148Z" fill="white"/>
<path d="M72.0391 15.2227C72.0391 14.918 72.1758 14.6875 72.4492 14.5312C72.7227 14.3672 73.1133 14.2852 73.6211 14.2852C73.7383 14.2852 73.8438 14.3008 73.9375 14.332C74.0312 14.3633 74.1133 14.4258 74.1836 14.5195C74.2617 14.6055 74.332 14.7266 74.3945 14.8828C74.457 15.0391 74.5195 15.2383 74.582 15.4805C74.6445 15.7539 74.707 15.8906 74.7695 15.8906C74.8242 15.8906 74.8906 15.7773 74.9688 15.5508C75.1094 15.1055 75.293 14.7188 75.5195 14.3906C75.7539 14.0547 76.0156 13.7773 76.3047 13.5586C76.5938 13.332 76.9062 13.1641 77.2422 13.0547C77.5859 12.9453 77.9453 12.8906 78.3203 12.8906C79.0781 12.8906 79.7852 13.0352 80.4414 13.3242C81.0977 13.6055 81.6641 14 82.1406 14.5078C82.6172 15.0078 82.9922 15.6016 83.2656 16.2891C83.5391 16.9688 83.6758 17.707 83.6758 18.5039C83.6758 19.3477 83.5273 20.1289 83.2305 20.8477C82.9414 21.5664 82.5352 22.1875 82.0117 22.7109C81.4883 23.2266 80.8633 23.6289 80.1367 23.918C79.418 24.2148 78.6289 24.3633 77.7695 24.3633L77.1719 24.3398C76.8203 24.3398 76.6445 24.5391 76.6445 24.9375L77.2422 30.3164C77.2344 30.4492 77.1875 30.5703 77.1016 30.6797C77.0234 30.7969 76.9141 30.8984 76.7734 30.9844C76.6406 31.0703 76.4805 31.1367 76.293 31.1836C76.1133 31.2305 75.9258 31.2539 75.7305 31.2539C75.168 31.2539 74.8633 31.0703 74.8164 30.7031C74.6523 29.2812 74.4688 27.9297 74.2656 26.6484C74.0703 25.3672 73.8672 24.1758 73.6562 23.0742C73.4531 21.9648 73.2539 20.957 73.0586 20.0508C72.8633 19.1445 72.6875 18.3555 72.5312 17.6836C72.3828 17.0117 72.2656 16.4648 72.1797 16.043C72.0859 15.6211 72.0391 15.3477 72.0391 15.2227ZM75.8477 18.3164C75.8477 18.8242 75.8672 19.3281 75.9062 19.8281C75.9453 20.3203 76.0078 20.8555 76.0938 21.4336C76.1406 21.7852 76.332 21.9844 76.668 22.0312C76.8711 22.0781 77.0977 22.125 77.3477 22.1719C77.6055 22.2109 77.8203 22.2305 77.9922 22.2305C78.4922 22.2305 78.9453 22.1562 79.3516 22.0078C79.7578 21.8594 80.1055 21.6484 80.3945 21.375C80.6836 21.0938 80.9062 20.7617 81.0625 20.3789C81.2188 19.9961 81.2969 19.5703 81.2969 19.1016C81.2969 18.5312 81.2188 18 81.0625 17.5078C80.9062 17.0078 80.6914 16.5742 80.418 16.207C80.1523 15.8398 79.8359 15.5508 79.4688 15.3398C79.1094 15.1289 78.7188 15.0234 78.2969 15.0234C77.9297 15.0234 77.5938 15.1055 77.2891 15.2695C76.9922 15.4258 76.7344 15.6484 76.5156 15.9375C76.3047 16.2188 76.1406 16.5625 76.0234 16.9688C75.9062 17.375 75.8477 17.8242 75.8477 18.3164Z" fill="white"/>
<path d="M83.8516 15.2227C83.8516 14.918 83.9883 14.6875 84.2617 14.5312C84.5352 14.3672 84.9258 14.2852 85.4336 14.2852C85.5508 14.2852 85.6562 14.3008 85.75 14.332C85.8438 14.3633 85.9258 14.4258 85.9961 14.5195C86.0742 14.6055 86.1445 14.7266 86.207 14.8828C86.2695 15.0391 86.332 15.2383 86.3945 15.4805C86.457 15.7539 86.5195 15.8906 86.582 15.8906C86.6367 15.8906 86.7031 15.7773 86.7812 15.5508C86.9219 15.1055 87.1055 14.7188 87.332 14.3906C87.5664 14.0547 87.8281 13.7773 88.1172 13.5586C88.4062 13.332 88.7188 13.1641 89.0547 13.0547C89.3984 12.9453 89.7578 12.8906 90.1328 12.8906C90.8906 12.8906 91.5977 13.0352 92.2539 13.3242C92.9102 13.6055 93.4766 14 93.9531 14.5078C94.4297 15.0078 94.8047 15.6016 95.0781 16.2891C95.3516 16.9688 95.4883 17.707 95.4883 18.5039C95.4883 19.3477 95.3398 20.1289 95.043 20.8477C94.7539 21.5664 94.3477 22.1875 93.8242 22.7109C93.3008 23.2266 92.6758 23.6289 91.9492 23.918C91.2305 24.2148 90.4414 24.3633 89.582 24.3633L88.9844 24.3398C88.6328 24.3398 88.457 24.5391 88.457 24.9375L89.0547 30.3164C89.0469 30.4492 89 30.5703 88.9141 30.6797C88.8359 30.7969 88.7266 30.8984 88.5859 30.9844C88.4531 31.0703 88.293 31.1367 88.1055 31.1836C87.9258 31.2305 87.7383 31.2539 87.543 31.2539C86.9805 31.2539 86.6758 31.0703 86.6289 30.7031C86.4648 29.2812 86.2812 27.9297 86.0781 26.6484C85.8828 25.3672 85.6797 24.1758 85.4688 23.0742C85.2656 21.9648 85.0664 20.957 84.8711 20.0508C84.6758 19.1445 84.5 18.3555 84.3438 17.6836C84.1953 17.0117 84.0781 16.4648 83.9922 16.043C83.8984 15.6211 83.8516 15.3477 83.8516 15.2227ZM87.6602 18.3164C87.6602 18.8242 87.6797 19.3281 87.7188 19.8281C87.7578 20.3203 87.8203 20.8555 87.9062 21.4336C87.9531 21.7852 88.1445 21.9844 88.4805 22.0312C88.6836 22.0781 88.9102 22.125 89.1602 22.1719C89.418 22.2109 89.6328 22.2305 89.8047 22.2305C90.3047 22.2305 90.7578 22.1562 91.1641 22.0078C91.5703 21.8594 91.918 21.6484 92.207 21.375C92.4961 21.0938 92.7188 20.7617 92.875 20.3789C93.0312 19.9961 93.1094 19.5703 93.1094 19.1016C93.1094 18.5312 93.0312 18 92.875 17.5078C92.7188 17.0078 92.5039 16.5742 92.2305 16.207C91.9648 15.8398 91.6484 15.5508 91.2812 15.3398C90.9219 15.1289 90.5312 15.0234 90.1094 15.0234C89.7422 15.0234 89.4062 15.1055 89.1016 15.2695C88.8047 15.4258 88.5469 15.6484 88.3281 15.9375C88.1172 16.2188 87.9531 16.5625 87.8359 16.9688C87.7188 17.375 87.6602 17.8242 87.6602 18.3164Z" fill="white"/>
<path d="M98.5586 11.4492C98.332 11.4492 98.1172 11.418 97.9141 11.3555C97.7188 11.2852 97.5469 11.1914 97.3984 11.0742C97.2578 10.9492 97.1445 10.8047 97.0586 10.6406C96.9727 10.4766 96.9297 10.2969 96.9297 10.1016C96.9297 9.77344 97.0586 9.50781 97.3164 9.30469C97.582 9.10156 97.9336 9 98.3711 9C98.5742 9 98.7695 9.03906 98.957 9.11719C99.1445 9.1875 99.3086 9.28516 99.4492 9.41016C99.5977 9.53516 99.7148 9.68359 99.8008 9.85547C99.8867 10.0195 99.9297 10.1914 99.9297 10.3711C99.9297 10.707 99.8047 10.9727 99.5547 11.168C99.3125 11.3555 98.9805 11.4492 98.5586 11.4492ZM96.9531 15.0234C96.9531 14.75 97.0703 14.5273 97.3047 14.3555C97.5469 14.1758 97.8633 14.0859 98.2539 14.0859C98.957 14.0859 99.332 14.3281 99.3789 14.8125C99.4102 15.1484 99.4414 15.5273 99.4727 15.9492C99.5117 16.3711 99.5469 16.8203 99.5781 17.2969C99.6172 17.7656 99.6484 18.2539 99.6719 18.7617C99.7031 19.2617 99.7305 19.7578 99.7539 20.25C99.7773 20.7344 99.7969 21.2031 99.8125 21.6562C99.8281 22.1094 99.8359 22.5234 99.8359 22.8984C99.8359 23.2891 99.6953 23.582 99.4141 23.7773C99.1406 23.9727 98.7383 24.0703 98.207 24.0703C97.9648 24.0703 97.7734 24.0117 97.6328 23.8945C97.5 23.7852 97.4336 23.6211 97.4336 23.4023C97.4336 22.3242 97.4062 21.3164 97.3516 20.3789C97.3047 19.4336 97.25 18.5938 97.1875 17.8594C97.1328 17.125 97.0781 16.5156 97.0234 16.0312C96.9766 15.5391 96.9531 15.2031 96.9531 15.0234Z" fill="white"/>
<path d="M102.203 13.9453C102.203 13.8281 102.254 13.7148 102.355 13.6055C102.457 13.4883 102.59 13.3867 102.754 13.3008C102.918 13.207 103.102 13.1328 103.305 13.0781C103.516 13.0156 103.727 12.9844 103.938 12.9844C104.055 12.9844 104.152 13.0156 104.23 13.0781C104.316 13.1406 104.391 13.2617 104.453 13.4414C104.516 13.6133 104.57 13.8594 104.617 14.1797C104.672 14.4922 104.723 14.9023 104.77 15.4102C104.801 15.5664 104.828 15.6875 104.852 15.7734C104.883 15.8516 104.922 15.8906 104.969 15.8906C105.039 15.8906 105.109 15.7695 105.18 15.5273C105.75 13.8789 106.574 13.0547 107.652 13.0547C108.152 13.0547 108.605 13.2109 109.012 13.5234C109.426 13.8359 109.809 14.3477 110.16 15.0586C110.52 15.7617 110.859 16.6914 111.18 17.8477C111.5 18.9961 111.82 20.4141 112.141 22.1016C112.156 22.1875 112.168 22.2656 112.176 22.3359C112.184 22.4062 112.188 22.4727 112.188 22.5352C112.188 22.7148 112.145 22.8711 112.059 23.0039C111.98 23.1289 111.875 23.2344 111.742 23.3203C111.609 23.3984 111.461 23.457 111.297 23.4961C111.133 23.543 110.969 23.5664 110.805 23.5664C110.477 23.5664 110.238 23.5312 110.09 23.4609C109.949 23.3906 109.859 23.2578 109.82 23.0625C109.594 21.875 109.371 20.8203 109.152 19.8984C108.941 18.9766 108.73 18.2031 108.52 17.5781C108.316 16.9453 108.113 16.4648 107.91 16.1367C107.707 15.8086 107.504 15.6445 107.301 15.6445C107.098 15.6445 106.906 15.7734 106.727 16.0312C106.555 16.2812 106.387 16.6758 106.223 17.2148C106.059 17.7539 105.898 18.4375 105.742 19.2656C105.594 20.0938 105.449 21.082 105.309 22.2305C105.27 22.543 105.113 22.793 104.84 22.9805C104.566 23.168 104.219 23.2617 103.797 23.2617C103.516 23.2617 103.301 23.2031 103.152 23.0859C103.004 22.9688 102.922 22.8086 102.906 22.6055C102.836 20.9805 102.758 19.6445 102.672 18.5977C102.594 17.543 102.52 16.6992 102.449 16.0664C102.379 15.4258 102.32 14.9492 102.273 14.6367C102.227 14.3242 102.203 14.0938 102.203 13.9453Z" fill="white"/>
<path d="M119.617 14.2617C119.992 14.2617 120.348 14.293 120.684 14.3555C121.02 14.4102 121.324 14.4727 121.598 14.543C121.871 14.6055 122.105 14.668 122.301 14.7305C122.496 14.7852 122.637 14.8125 122.723 14.8125C122.793 14.8125 122.859 14.7773 122.922 14.707C122.984 14.6289 123.062 14.5469 123.156 14.4609C123.25 14.375 123.375 14.2969 123.531 14.2266C123.688 14.1484 123.895 14.1094 124.152 14.1094C124.449 14.1094 124.684 14.1875 124.855 14.3438C125.027 14.4922 125.113 14.6797 125.113 14.9062C125.113 17.7656 125.016 20.1953 124.82 22.1953C124.625 24.1875 124.309 25.8086 123.871 27.0586C123.434 28.3086 122.867 29.2148 122.172 29.7773C121.477 30.3398 120.633 30.6211 119.641 30.6211C119.188 30.6211 118.715 30.5195 118.223 30.3164C117.738 30.1133 117.293 29.8516 116.887 29.5312C116.48 29.2188 116.145 28.8711 115.879 28.4883C115.621 28.1055 115.492 27.7383 115.492 27.3867C115.492 27.2695 115.555 27.1328 115.68 26.9766C115.805 26.8203 115.957 26.668 116.137 26.5195C116.316 26.3711 116.504 26.2461 116.699 26.1445C116.895 26.043 117.062 25.9922 117.203 25.9922C117.352 25.9922 117.477 26.0508 117.578 26.168C117.68 26.293 117.773 26.4453 117.859 26.625C117.953 26.8047 118.047 27 118.141 27.2109C118.234 27.4297 118.352 27.6289 118.492 27.8086C118.633 27.9883 118.805 28.1367 119.008 28.2539C119.211 28.3789 119.465 28.4414 119.77 28.4414C121.473 28.4414 122.473 25.8398 122.77 20.6367C122.77 20.4023 122.703 20.2852 122.57 20.2852C122.461 20.2852 122.375 20.3398 122.312 20.4492C121.578 21.4414 120.719 22.1875 119.734 22.6875C118.758 23.1797 117.672 23.4258 116.477 23.4258C115.922 23.4258 115.41 23.3438 114.941 23.1797C114.473 23.0078 114.066 22.7734 113.723 22.4766C113.387 22.1719 113.125 21.8125 112.938 21.3984C112.75 20.9766 112.656 20.5156 112.656 20.0156C112.656 19.5234 112.742 19.0391 112.914 18.5625C113.094 18.0781 113.34 17.625 113.652 17.2031C113.973 16.7734 114.352 16.3789 114.789 16.0195C115.227 15.6602 115.703 15.3516 116.219 15.0938C116.734 14.8281 117.277 14.625 117.848 14.4844C118.426 14.3359 119.016 14.2617 119.617 14.2617ZM116.84 21.2695C117.91 21.2695 118.891 20.9336 119.781 20.2617C120.672 19.582 121.434 18.5977 122.066 17.3086C122.082 17.2617 122.094 17.2266 122.102 17.2031C122.109 17.1719 122.113 17.1406 122.113 17.1094C122.113 17.0312 122.031 16.9492 121.867 16.8633C121.703 16.7773 121.488 16.7031 121.223 16.6406C120.957 16.5781 120.652 16.5273 120.309 16.4883C119.973 16.4414 119.633 16.418 119.289 16.418C118.734 16.418 118.199 16.5117 117.684 16.6992C117.168 16.8867 116.711 17.1367 116.312 17.4492C115.914 17.7617 115.594 18.1172 115.352 18.5156C115.109 18.9141 114.988 19.3281 114.988 19.7578C114.988 20.2188 115.156 20.5859 115.492 20.8594C115.836 21.1328 116.285 21.2695 116.84 21.2695Z" fill="white"/>
<path d="M130 13.2305C130.523 13.2305 131.062 13.3008 131.617 13.4414C132.172 13.5742 132.68 13.75 133.141 13.9688C133.602 14.1797 133.98 14.418 134.277 14.6836C134.574 14.9492 134.723 15.207 134.723 15.457C134.723 15.582 134.668 15.7227 134.559 15.8789C134.449 16.0273 134.316 16.1719 134.16 16.3125C134.004 16.4453 133.832 16.5586 133.645 16.6523C133.465 16.7383 133.305 16.7812 133.164 16.7812C132.977 16.7812 132.766 16.7031 132.531 16.5469C132.305 16.3906 132.051 16.2188 131.77 16.0312C131.496 15.8359 131.195 15.6602 130.867 15.5039C130.539 15.3477 130.184 15.2695 129.801 15.2695C129.551 15.2695 129.344 15.332 129.18 15.457C129.023 15.5742 128.945 15.7422 128.945 15.9609C128.945 16.1562 129.039 16.3555 129.227 16.5586C129.414 16.7539 129.66 16.957 129.965 17.168C130.277 17.3789 130.629 17.6016 131.02 17.8359C131.41 18.0703 131.809 18.3203 132.215 18.5859C132.629 18.8516 133.031 19.1406 133.422 19.4531C133.812 19.7656 134.16 20.1055 134.465 20.4727C134.777 20.8398 135.027 21.2422 135.215 21.6797C135.402 22.1094 135.496 22.5781 135.496 23.0859C135.496 23.5234 135.418 23.9219 135.262 24.2812C135.105 24.6406 134.883 24.9492 134.594 25.207C134.305 25.4648 133.961 25.6641 133.562 25.8047C133.164 25.9453 132.727 26.0156 132.25 26.0156C131.648 26.0156 131.094 25.9219 130.586 25.7344C130.078 25.5547 129.641 25.3047 129.273 24.9844C128.906 24.6641 128.617 24.2812 128.406 23.8359C128.203 23.3906 128.102 22.9023 128.102 22.3711C128.102 21.6836 128.223 21.1836 128.465 20.8711C128.715 20.5586 129.105 20.4023 129.637 20.4023C129.965 20.4023 130.227 20.4648 130.422 20.5898C130.617 20.7148 130.715 20.8672 130.715 21.0469C130.715 21.1406 130.699 21.2383 130.668 21.3398C130.637 21.4336 130.602 21.5352 130.562 21.6445C130.531 21.7461 130.5 21.8555 130.469 21.9727C130.445 22.0898 130.434 22.207 130.434 22.3242C130.434 22.5273 130.48 22.7227 130.574 22.9102C130.668 23.0977 130.793 23.2617 130.949 23.4023C131.113 23.5508 131.301 23.668 131.512 23.7539C131.723 23.8398 131.945 23.8828 132.18 23.8828C132.805 23.8828 133.117 23.625 133.117 23.1094C133.117 22.7031 132.957 22.3203 132.637 21.9609C132.316 21.5938 131.914 21.2383 131.43 20.8945C130.945 20.543 130.422 20.1914 129.859 19.8398C129.305 19.4883 128.785 19.1211 128.301 18.7383C127.816 18.3555 127.414 17.9492 127.094 17.5195C126.773 17.082 126.613 16.6094 126.613 16.1016C126.613 15.6797 126.699 15.293 126.871 14.9414C127.051 14.5898 127.293 14.2891 127.598 14.0391C127.902 13.7812 128.258 13.582 128.664 13.4414C129.078 13.3008 129.523 13.2305 130 13.2305Z" fill="white"/>
<path d="M143.957 18.5977C143.957 19.0664 144.07 19.5039 144.297 19.9102C144.531 20.3086 144.836 20.6602 145.211 20.9648C145.586 21.2617 146.016 21.4961 146.5 21.668C146.984 21.832 147.48 21.9141 147.988 21.9141C148.145 21.9141 148.305 21.9023 148.469 21.8789C148.633 21.8477 148.781 21.7969 148.914 21.7266C149.047 21.6562 149.156 21.5664 149.242 21.457C149.328 21.3398 149.371 21.1953 149.371 21.0234C149.371 20.6953 149.254 20.3711 149.02 20.0508C148.793 19.7305 148.492 19.4141 148.117 19.1016C147.742 18.7812 147.312 18.4648 146.828 18.1523C146.344 17.832 145.852 17.5156 145.352 17.2031C144.852 16.8906 144.359 16.5781 143.875 16.2656C143.391 15.9453 142.961 15.6289 142.586 15.3164C142.211 14.9961 141.906 14.6758 141.672 14.3555C141.445 14.0273 141.332 13.6992 141.332 13.3711C141.332 13.0586 141.41 12.7695 141.566 12.5039C141.73 12.2305 141.945 11.9844 142.211 11.7656C142.477 11.5469 142.785 11.3516 143.137 11.1797C143.488 11.0078 143.855 10.8633 144.238 10.7461C144.621 10.6289 145.004 10.543 145.387 10.4883C145.777 10.4258 146.148 10.3945 146.5 10.3945C146.758 10.3945 147.039 10.4023 147.344 10.418C147.656 10.4258 147.945 10.4609 148.211 10.5234C148.484 10.5781 148.711 10.6641 148.891 10.7812C149.07 10.8984 149.16 11.0664 149.16 11.2852C149.16 11.3555 149.148 11.4453 149.125 11.5547C149.102 11.6562 149.035 11.8281 148.926 12.0703C148.816 12.2969 148.688 12.4688 148.539 12.5859C148.398 12.6953 148.215 12.75 147.988 12.75C147.668 12.75 147.328 12.7148 146.969 12.6445C146.617 12.5664 146.262 12.5273 145.902 12.5273C145.707 12.5273 145.508 12.5391 145.305 12.5625C145.109 12.5781 144.93 12.6133 144.766 12.668C144.602 12.7148 144.469 12.7891 144.367 12.8906C144.266 12.9844 144.215 13.1055 144.215 13.2539C144.215 13.4023 144.32 13.5703 144.531 13.7578C144.75 13.9453 145.035 14.1523 145.387 14.3789C145.746 14.6055 146.152 14.8555 146.605 15.1289C147.059 15.3945 147.52 15.6836 147.988 15.9961C148.465 16.3008 148.93 16.6289 149.383 16.9805C149.836 17.3242 150.238 17.6914 150.59 18.082C150.949 18.4648 151.234 18.8711 151.445 19.3008C151.664 19.7305 151.773 20.1758 151.773 20.6367C151.773 21.1992 151.645 21.6953 151.387 22.125C151.129 22.5547 150.797 22.9141 150.391 23.2031C149.984 23.4922 149.535 23.707 149.043 23.8477C148.551 23.9961 148.07 24.0703 147.602 24.0703C147.125 24.0703 146.641 24.0117 146.148 23.8945C145.664 23.7852 145.195 23.625 144.742 23.4141C144.289 23.2109 143.863 22.9648 143.465 22.6758C143.074 22.3789 142.734 22.0508 142.445 21.6914C142.156 21.3242 141.926 20.9297 141.754 20.5078C141.59 20.0859 141.508 19.6445 141.508 19.1836C141.508 18.9883 141.52 18.793 141.543 18.5977C141.574 18.3945 141.625 18.2188 141.695 18.0703C141.766 17.9141 141.863 17.7891 141.988 17.6953C142.113 17.5938 142.273 17.543 142.469 17.543C142.531 17.543 142.602 17.5508 142.68 17.5664C142.758 17.5742 142.895 17.6094 143.09 17.6719C143.316 17.7422 143.516 17.8555 143.688 18.0117C143.867 18.1602 143.957 18.3555 143.957 18.5977Z" fill="white"/>
<path d="M162.766 25.3711C162.719 25.0508 162.574 24.8906 162.332 24.8906C162.246 24.8906 162.141 24.9141 162.016 24.9609C161.773 25.0703 161.492 25.1953 161.172 25.3359C160.852 25.4766 160.543 25.6094 160.246 25.7344C159.949 25.8672 159.688 25.9766 159.461 26.0625C159.242 26.1484 159.113 26.1914 159.074 26.1914C158.957 26.1914 158.848 26.1523 158.746 26.0742C158.645 26.0039 158.555 25.9102 158.477 25.793C158.406 25.6758 158.348 25.543 158.301 25.3945C158.254 25.2461 158.23 25.1016 158.23 24.9609C158.23 24.8047 158.262 24.6602 158.324 24.5273C158.387 24.3945 158.492 24.293 158.641 24.2227C159.172 23.957 159.707 23.707 160.246 23.4727C160.793 23.2383 161.344 23.0078 161.898 22.7812C162.188 22.6641 162.332 22.4453 162.332 22.125L162.168 20.4023C162.121 20.0977 162.008 19.9453 161.828 19.9453C161.703 19.9453 161.566 20.043 161.418 20.2383C160.691 21.1758 159.914 21.8633 159.086 22.3008C158.266 22.7305 157.371 22.9453 156.402 22.9453C155.824 22.9453 155.289 22.8633 154.797 22.6992C154.312 22.5352 153.895 22.3086 153.543 22.0195C153.191 21.7305 152.914 21.3867 152.711 20.9883C152.516 20.582 152.418 20.1406 152.418 19.6641C152.418 19.1328 152.527 18.625 152.746 18.1406C152.965 17.6562 153.262 17.207 153.637 16.793C154.012 16.3789 154.445 16.0039 154.938 15.668C155.438 15.3242 155.961 15.0312 156.508 14.7891C157.062 14.5469 157.625 14.3633 158.195 14.2383C158.773 14.1055 159.328 14.0391 159.859 14.0391C160.422 14.0391 160.895 14.0703 161.277 14.1328C161.668 14.1953 161.988 14.2617 162.238 14.332C162.348 14.1992 162.457 14.1016 162.566 14.0391C162.684 13.9766 162.797 13.9453 162.906 13.9453C163.055 13.9453 163.211 13.9727 163.375 14.0273C163.547 14.0742 163.703 14.1406 163.844 14.2266C163.992 14.3125 164.113 14.4102 164.207 14.5195C164.301 14.6289 164.348 14.7422 164.348 14.8594C164.348 14.9453 164.332 15.0273 164.301 15.1055C164.27 15.1836 164.234 15.2617 164.195 15.3398C164.164 15.4102 164.133 15.4883 164.102 15.5742C164.078 15.6602 164.066 15.75 164.066 15.8438C164.066 16.0312 164.082 16.3164 164.113 16.6992C164.152 17.082 164.199 17.5195 164.254 18.0117C164.316 18.4961 164.379 19.0078 164.441 19.5469C164.512 20.0859 164.578 20.6016 164.641 21.0938C164.688 21.4297 164.848 21.5977 165.121 21.5977C165.145 21.5977 165.176 21.5938 165.215 21.5859C165.254 21.5781 165.293 21.5664 165.332 21.5508C165.637 21.4648 165.953 21.3789 166.281 21.293C166.609 21.1992 166.914 21.1172 167.195 21.0469C167.484 20.9766 167.73 20.9219 167.934 20.8828C168.137 20.8359 168.27 20.8125 168.332 20.8125C168.582 20.8125 168.77 20.9023 168.895 21.082C169.02 21.2617 169.082 21.5078 169.082 21.8203C169.082 22.0625 169.039 22.2891 168.953 22.5C168.867 22.7109 168.742 22.8359 168.578 22.875C168.039 22.9922 167.516 23.1211 167.008 23.2617C166.5 23.3945 165.988 23.5391 165.473 23.6953C165.168 23.7891 165.016 23.9883 165.016 24.293L165.625 29.2383C165.625 29.4102 165.57 29.5703 165.461 29.7188C165.359 29.8672 165.227 29.9961 165.062 30.1055C164.898 30.2148 164.715 30.3008 164.512 30.3633C164.309 30.4258 164.109 30.457 163.914 30.457C163.734 30.457 163.586 30.4062 163.469 30.3047C163.352 30.2109 163.285 30.0859 163.27 29.9297C163.199 29.1719 163.117 28.418 163.023 27.668C162.938 26.918 162.852 26.1523 162.766 25.3711ZM156.906 20.7656C157.297 20.7656 157.676 20.7109 158.043 20.6016C158.418 20.4844 158.781 20.2852 159.133 20.0039C159.492 19.7227 159.844 19.3438 160.188 18.8672C160.531 18.3828 160.871 17.7734 161.207 17.0391C161.23 16.9766 161.25 16.918 161.266 16.8633C161.289 16.8086 161.301 16.7578 161.301 16.7109C161.301 16.4531 161.148 16.3008 160.844 16.2539C160.586 16.207 160.289 16.1836 159.953 16.1836C159.312 16.1836 158.684 16.2695 158.066 16.4414C157.449 16.6133 156.898 16.8398 156.414 17.1211C155.93 17.4023 155.539 17.7227 155.242 18.082C154.945 18.4414 154.797 18.8086 154.797 19.1836C154.797 19.6992 154.977 20.0938 155.336 20.3672C155.695 20.6328 156.219 20.7656 156.906 20.7656Z" fill="white"/>
<path d="M169.574 19.2539C169.574 20.3008 169.734 21.1094 170.055 21.6797C170.375 22.25 170.84 22.5352 171.449 22.5352C171.832 22.5352 172.184 22.4219 172.504 22.1953C172.832 21.9688 173.113 21.6523 173.348 21.2461C173.582 20.8398 173.762 20.3594 173.887 19.8047C174.02 19.2422 174.086 18.6328 174.086 17.9766C174.086 17.5781 174.07 17.2344 174.039 16.9453C174.008 16.6484 173.973 16.3867 173.934 16.1602C173.902 15.9258 173.871 15.7188 173.84 15.5391C173.809 15.3594 173.793 15.1875 173.793 15.0234C173.793 14.7734 173.898 14.5938 174.109 14.4844C174.32 14.3672 174.656 14.3086 175.117 14.3086C175.703 14.3086 176.156 14.4414 176.477 14.707C176.805 14.9727 176.969 15.3594 176.969 15.8672C176.969 17.25 176.832 18.4922 176.559 19.5938C176.293 20.6953 175.906 21.6328 175.398 22.4062C174.898 23.1719 174.289 23.7617 173.57 24.1758C172.852 24.5898 172.047 24.7969 171.156 24.7969C170.523 24.7969 169.938 24.6641 169.398 24.3984C168.867 24.1406 168.406 23.7773 168.016 23.3086C167.633 22.832 167.332 22.2695 167.113 21.6211C166.895 20.9648 166.785 20.2461 166.785 19.4648C166.785 19.168 166.793 18.8516 166.809 18.5156C166.824 18.1797 166.848 17.8203 166.879 17.4375C166.91 17.0469 166.949 16.625 166.996 16.1719C167.051 15.7188 167.109 15.2266 167.172 14.6953C167.195 14.4688 167.301 14.2891 167.488 14.1562C167.684 14.0156 167.93 13.9453 168.227 13.9453C168.492 13.9453 168.742 13.9727 168.977 14.0273C169.211 14.082 169.41 14.1562 169.574 14.25C169.746 14.3438 169.879 14.4531 169.973 14.5781C170.074 14.7031 170.125 14.8359 170.125 14.9766C170.125 15.1172 170.094 15.3398 170.031 15.6445C169.977 15.9414 169.914 16.2852 169.844 16.6758C169.781 17.0586 169.719 17.4766 169.656 17.9297C169.602 18.375 169.574 18.8164 169.574 19.2539Z" fill="white"/>
<path d="M185.746 13.1602C186.176 13.1602 186.59 13.2266 186.988 13.3594C187.387 13.4922 187.738 13.6758 188.043 13.9102C188.348 14.1445 188.59 14.4258 188.77 14.7539C188.957 15.082 189.051 15.4453 189.051 15.8438C189.051 16.0078 189.012 16.168 188.934 16.3242C188.863 16.4727 188.766 16.6055 188.641 16.7227C188.516 16.832 188.371 16.9219 188.207 16.9922C188.051 17.0547 187.887 17.0859 187.715 17.0859C187.699 17.0859 187.684 17.0898 187.668 17.0977C187.66 17.0977 187.648 17.0977 187.633 17.0977C187.617 17.1055 187.602 17.1094 187.586 17.1094L187.633 18.0469C187.664 19.1641 187.82 19.9805 188.102 20.4961C188.391 21.0117 188.766 21.2695 189.227 21.2695C189.391 21.2695 189.535 21.2539 189.66 21.2227C189.793 21.1914 189.914 21.1562 190.023 21.1172C190.141 21.0703 190.25 21.0312 190.352 21C190.453 20.9688 190.555 20.9531 190.656 20.9531C190.836 20.9531 190.992 21.0312 191.125 21.1875C191.266 21.3438 191.336 21.5312 191.336 21.75C191.336 21.9688 191.25 22.1875 191.078 22.4062C190.914 22.625 190.695 22.8242 190.422 23.0039C190.148 23.1758 189.84 23.3164 189.496 23.4258C189.152 23.5352 188.805 23.5898 188.453 23.5898C187.844 23.5898 187.309 23.3398 186.848 22.8398C186.387 22.332 186.059 21.5898 185.863 20.6133C185.816 20.457 185.754 20.3789 185.676 20.3789C185.582 20.3789 185.5 20.4258 185.43 20.5195C184.656 21.4961 183.832 22.2305 182.957 22.7227C182.082 23.207 181.219 23.4492 180.367 23.4492C179.969 23.4492 179.609 23.3906 179.289 23.2734C178.969 23.1562 178.695 22.9922 178.469 22.7812C178.25 22.5625 178.078 22.3008 177.953 21.9961C177.836 21.6836 177.777 21.3359 177.777 20.9531C177.777 20.4141 177.895 19.8477 178.129 19.2539C178.371 18.6602 178.695 18.0742 179.102 17.4961C179.508 16.918 179.977 16.3672 180.508 15.8438C181.047 15.3203 181.609 14.8594 182.195 14.4609C182.789 14.0625 183.391 13.7461 184 13.5117C184.609 13.2773 185.191 13.1602 185.746 13.1602ZM185.359 17.2148C185.5 16.9492 185.629 16.7578 185.746 16.6406C185.863 16.5156 186.031 16.4336 186.25 16.3945C186.422 16.3711 186.508 16.3164 186.508 16.2305C186.508 16.168 186.484 16.1016 186.438 16.0312C186.289 15.8281 186.133 15.6523 185.969 15.5039C185.805 15.3477 185.586 15.2695 185.312 15.2695C185.016 15.2695 184.684 15.3555 184.316 15.5273C183.949 15.6992 183.574 15.9297 183.191 16.2188C182.816 16.5 182.445 16.8242 182.078 17.1914C181.719 17.5508 181.398 17.9219 181.117 18.3047C180.836 18.6875 180.609 19.0664 180.438 19.4414C180.266 19.8164 180.18 20.1523 180.18 20.4492C180.18 20.7148 180.25 20.9219 180.391 21.0703C180.539 21.2188 180.738 21.293 180.988 21.293C181.629 21.293 182.328 20.9531 183.086 20.2734C183.844 19.5938 184.602 18.5742 185.359 17.2148Z" fill="white"/>
<path d="M199.562 14.8359C199.594 14.8516 199.641 14.8594 199.703 14.8594C199.875 14.8594 199.961 14.7461 199.961 14.5195V10.875C199.961 10.4141 200.062 10.0859 200.266 9.89062C200.477 9.69531 200.824 9.59766 201.309 9.59766C201.801 9.59766 202.148 9.69922 202.352 9.90234C202.555 10.1055 202.656 10.4531 202.656 10.9453C202.656 11.1328 202.645 11.4102 202.621 11.7773C202.598 12.1367 202.57 12.5469 202.539 13.0078C202.516 13.4688 202.492 13.9648 202.469 14.4961C202.445 15.0195 202.434 15.5391 202.434 16.0547C202.434 16.8516 202.488 17.5391 202.598 18.1172C202.707 18.6953 202.863 19.1758 203.066 19.5586C203.27 19.9336 203.512 20.2148 203.793 20.4023C204.074 20.582 204.391 20.6719 204.742 20.6719C204.938 20.6719 205.113 20.6484 205.27 20.6016C205.434 20.5469 205.625 20.5195 205.844 20.5195C206 20.5195 206.129 20.6016 206.23 20.7656C206.34 20.9219 206.395 21.1133 206.395 21.3398C206.395 21.543 206.332 21.7344 206.207 21.9141C206.09 22.0938 205.926 22.25 205.715 22.3828C205.512 22.5156 205.273 22.6211 205 22.6992C204.727 22.7695 204.441 22.8047 204.145 22.8047C203.504 22.8047 202.918 22.6094 202.387 22.2188C201.855 21.8203 201.457 21.2148 201.191 20.4023C201.168 20.2773 201.129 20.2148 201.074 20.2148C201.012 20.2148 200.961 20.2773 200.922 20.4023C200.711 20.9727 200.434 21.4883 200.09 21.9492C199.754 22.4023 199.359 22.793 198.906 23.1211C198.461 23.4414 197.969 23.6875 197.43 23.8594C196.898 24.0312 196.336 24.1172 195.742 24.1172C195.117 24.1172 194.543 24.0117 194.02 23.8008C193.504 23.5977 193.059 23.3125 192.684 22.9453C192.309 22.5703 192.016 22.1328 191.805 21.6328C191.594 21.125 191.488 20.5781 191.488 19.9922C191.488 19.2422 191.645 18.5352 191.957 17.8711C192.27 17.207 192.691 16.6289 193.223 16.1367C193.762 15.6367 194.387 15.2422 195.098 14.9531C195.809 14.6641 196.566 14.5195 197.371 14.5195C197.699 14.5195 198.047 14.5469 198.414 14.6016C198.781 14.6484 199.164 14.7266 199.562 14.8359ZM196.199 22.0078C196.645 22.0078 197.039 21.9102 197.383 21.7148C197.734 21.5195 198.043 21.2734 198.309 20.9766C198.582 20.6719 198.812 20.3398 199 19.9805C199.188 19.6133 199.34 19.2578 199.457 18.9141C199.574 18.5703 199.66 18.2617 199.715 17.9883C199.77 17.7148 199.797 17.5195 199.797 17.4023C199.797 17.3164 199.773 17.2422 199.727 17.1797C199.68 17.1094 199.609 17.0547 199.516 17.0156C199.305 16.9609 199.086 16.9141 198.859 16.875C198.633 16.8281 198.41 16.7891 198.191 16.7578C197.973 16.7266 197.762 16.7031 197.559 16.6875C197.363 16.6719 197.184 16.6641 197.02 16.6641C196.551 16.6641 196.125 16.7344 195.742 16.875C195.359 17.0156 195.031 17.2148 194.758 17.4727C194.492 17.7305 194.285 18.0391 194.137 18.3984C193.988 18.75 193.914 19.1367 193.914 19.5586C193.914 19.9336 193.969 20.2734 194.078 20.5781C194.195 20.875 194.352 21.1289 194.547 21.3398C194.75 21.5508 194.992 21.7148 195.273 21.832C195.555 21.9492 195.863 22.0078 196.199 22.0078Z" fill="white"/>
</svg>
