<svg width="241" height="241" viewBox="0 0 241 241" fill="none" xmlns="http://www.w3.org/2000/svg">
<path opacity="0.2" d="M138.648 84.0563C147.828 91.2708 160.249 93.6411 170.631 87.5001C173.723 85.6433 176.766 82.9072 178.462 79.5401C182.902 78.3143 187.139 75.9041 190.437 72.8012C195.153 68.4045 198.949 62.275 199.231 55.6737C199.417 51.6061 198.403 47.4481 196.122 44.1246C197.855 44.6363 199.658 44.9873 201.503 45.0225C202.916 45.0618 203.239 43.1035 201.792 42.8112C197.784 41.9354 194.174 40.8023 190.642 38.6065C189.099 37.6531 187.633 39.4982 188.882 40.8012C190.628 42.6058 190.304 44.8974 189.28 46.9337C188.591 48.3047 190.656 49.484 191.591 48.3151C192.855 46.7163 193.218 44.7753 192.879 42.9124C192.92 42.9298 192.96 42.9472 193 42.9645C203.067 54.5205 192.705 71.6368 179.552 76.5788C179.727 75.8439 179.822 75.0743 179.836 74.2699C179.871 69.2306 176.363 64.995 172.061 62.7046C167.719 60.3968 161.716 59.945 158.34 64.1108C155.241 67.9672 157.229 73.0709 160.586 76.0016C164.562 79.4861 169.35 80.6519 174.19 80.2665C172.833 81.9684 171.11 83.4162 169.365 84.4732C160.255 90.2107 148.482 88.2161 139.768 82.6811C138.821 82.2238 137.788 83.3982 138.648 84.0563ZM169.406 77.7676C165.231 77.0578 160.109 74.46 158.768 70.0653C157.955 67.425 159.487 64.9882 161.858 63.9161C164.171 62.8668 166.842 63.3071 169.091 64.2802C172.705 65.8442 176.268 69.2928 176.558 73.4713C176.679 74.9542 176.346 76.3838 175.733 77.6918C173.657 78.0811 171.485 78.1425 169.406 77.7676Z" fill="#222221"/>
<path d="M138.639 3.14844C138.479 3.02995 138.399 2.88867 138.399 2.72461C138.399 2.66081 138.411 2.59928 138.434 2.54004C138.456 2.47624 138.497 2.41243 138.557 2.34863L138.755 2.12305C138.873 1.97721 139.012 1.9043 139.172 1.9043C139.227 1.9043 139.286 1.91569 139.35 1.93848C139.409 1.95671 139.47 1.99089 139.534 2.04102C140.172 2.51953 140.785 3.01628 141.373 3.53125C141.965 4.04167 142.537 4.59993 143.089 5.20605C143.175 5.28809 143.251 5.3291 143.314 5.3291C143.438 5.3291 143.513 5.24707 143.54 5.08301L144.142 2.68359C144.21 2.41471 144.349 2.28027 144.559 2.28027C144.604 2.28027 144.652 2.28711 144.702 2.30078C144.757 2.31445 144.812 2.33952 144.866 2.37598L145.105 2.50586C145.329 2.62891 145.44 2.79525 145.44 3.00488C145.44 3.07324 145.427 3.14844 145.399 3.23047C145.244 3.80013 145.087 4.40169 144.928 5.03516C144.773 5.66406 144.613 6.3112 144.449 6.97656C144.285 7.63737 144.117 8.30729 143.943 8.98633C143.77 9.66536 143.592 10.3376 143.41 11.0029C143.337 11.2809 143.18 11.4199 142.938 11.4199C142.87 11.4199 142.795 11.4062 142.713 11.3789L142.487 11.3105C142.346 11.2741 142.243 11.2148 142.18 11.1328C142.116 11.0508 142.084 10.9505 142.084 10.832C142.084 10.8047 142.084 10.7728 142.084 10.7363C142.089 10.6999 142.098 10.6634 142.111 10.627C142.257 10.0846 142.401 9.54688 142.542 9.01367C142.683 8.48047 142.82 7.94499 142.952 7.40723C142.961 7.37533 142.968 7.34798 142.973 7.3252C142.977 7.30241 142.979 7.27734 142.979 7.25C142.979 7.19531 142.966 7.1429 142.938 7.09277C142.916 7.04264 142.884 6.99251 142.843 6.94238C142.2 6.23145 141.528 5.5638 140.826 4.93945C140.129 4.3151 139.4 3.7181 138.639 3.14844Z" fill="black"/>
<path d="M146.63 6.73047C146.63 6.65299 146.639 6.56641 146.657 6.4707C146.675 6.375 146.685 6.27018 146.685 6.15625C146.685 6.07878 146.65 6.01953 146.582 5.97852C146.518 5.9375 146.445 5.89193 146.363 5.8418C146.281 5.79167 146.206 5.72786 146.138 5.65039C146.074 5.57292 146.042 5.46126 146.042 5.31543C146.042 5.21061 146.069 5.10579 146.124 5.00098C146.183 4.89616 146.268 4.80046 146.377 4.71387C146.646 4.51335 146.924 4.33333 147.211 4.17383C147.503 4.01432 147.792 3.87988 148.079 3.77051C148.371 3.66113 148.658 3.57682 148.94 3.51758C149.223 3.45833 149.494 3.42871 149.754 3.42871C150.191 3.42871 150.602 3.51074 150.984 3.6748C151.372 3.83431 151.707 4.05534 151.989 4.33789C152.276 4.61589 152.502 4.94401 152.666 5.32227C152.835 5.69596 152.919 6.09701 152.919 6.52539C152.919 6.94466 152.83 7.34342 152.652 7.72168C152.479 8.09538 152.244 8.4235 151.948 8.70605C151.652 8.98861 151.303 9.21191 150.902 9.37598C150.506 9.5446 150.087 9.62891 149.645 9.62891C149.212 9.62891 148.811 9.55599 148.441 9.41016C148.072 9.26432 147.753 9.0638 147.484 8.80859C147.215 8.54883 147.006 8.24349 146.855 7.89258C146.705 7.53711 146.63 7.14974 146.63 6.73047ZM149.795 8.39844C149.986 8.39844 150.185 8.3597 150.39 8.28223C150.595 8.20475 150.782 8.0931 150.95 7.94727C151.123 7.79688 151.265 7.61458 151.374 7.40039C151.488 7.1862 151.545 6.94466 151.545 6.67578C151.545 6.40234 151.495 6.14714 151.395 5.91016C151.294 5.67318 151.155 5.4681 150.978 5.29492C150.804 5.11719 150.597 4.97819 150.355 4.87793C150.118 4.77767 149.861 4.72754 149.583 4.72754C149.077 4.72754 148.69 4.8597 148.421 5.12402C148.152 5.38379 148.018 5.78483 148.018 6.32715C148.018 6.62337 148.061 6.89909 148.147 7.1543C148.239 7.40495 148.364 7.6237 148.523 7.81055C148.683 7.99284 148.87 8.13639 149.084 8.24121C149.303 8.34603 149.54 8.39844 149.795 8.39844Z" fill="black"/>
<path d="M155.25 6.58008C155.25 7.19076 155.343 7.66243 155.53 7.99512C155.717 8.3278 155.988 8.49414 156.344 8.49414C156.567 8.49414 156.772 8.42806 156.959 8.2959C157.15 8.16374 157.314 7.97917 157.451 7.74219C157.588 7.50521 157.693 7.22493 157.766 6.90137C157.843 6.57324 157.882 6.21777 157.882 5.83496C157.882 5.60254 157.873 5.40202 157.854 5.2334C157.836 5.06022 157.816 4.90755 157.793 4.77539C157.775 4.63867 157.757 4.5179 157.738 4.41309C157.72 4.30827 157.711 4.20801 157.711 4.1123C157.711 3.96647 157.772 3.86165 157.896 3.79785C158.019 3.72949 158.215 3.69531 158.483 3.69531C158.825 3.69531 159.09 3.77279 159.276 3.92773C159.468 4.08268 159.563 4.30827 159.563 4.60449C159.563 5.41113 159.484 6.13574 159.324 6.77832C159.169 7.4209 158.944 7.96777 158.647 8.41895C158.356 8.86556 158 9.20964 157.581 9.45117C157.162 9.69271 156.692 9.81348 156.173 9.81348C155.804 9.81348 155.462 9.736 155.147 9.58105C154.838 9.43066 154.569 9.21875 154.341 8.94531C154.118 8.66732 153.942 8.33919 153.814 7.96094C153.687 7.57812 153.623 7.15885 153.623 6.70312C153.623 6.52995 153.628 6.34538 153.637 6.14941C153.646 5.95345 153.66 5.74382 153.678 5.52051C153.696 5.29264 153.719 5.04655 153.746 4.78223C153.778 4.5179 153.812 4.23079 153.849 3.9209C153.862 3.78874 153.924 3.68392 154.033 3.60645C154.147 3.52441 154.291 3.4834 154.464 3.4834C154.619 3.4834 154.765 3.49935 154.901 3.53125C155.038 3.56315 155.154 3.60645 155.25 3.66113C155.35 3.71582 155.428 3.77962 155.482 3.85254C155.542 3.92546 155.571 4.00293 155.571 4.08496C155.571 4.16699 155.553 4.29688 155.517 4.47461C155.485 4.64779 155.448 4.84831 155.407 5.07617C155.371 5.29948 155.334 5.54329 155.298 5.80762C155.266 6.06738 155.25 6.32487 155.25 6.58008Z" fill="black"/>
<path d="M166.126 3.36035C166.363 3.36035 166.593 3.39453 166.816 3.46289C167.04 3.53125 167.236 3.62467 167.404 3.74316C167.577 3.8571 167.716 3.98926 167.821 4.13965C167.926 4.28548 167.979 4.43587 167.979 4.59082C167.979 4.69108 167.958 4.78906 167.917 4.88477C167.876 4.97591 167.821 5.05794 167.753 5.13086C167.685 5.19922 167.607 5.25618 167.521 5.30176C167.434 5.34277 167.343 5.36328 167.247 5.36328C167.142 5.36328 167.047 5.32454 166.96 5.24707C166.873 5.16504 166.78 5.07617 166.68 4.98047C166.584 4.88021 166.475 4.79134 166.352 4.71387C166.233 4.63184 166.09 4.59082 165.921 4.59082C165.757 4.59082 165.609 4.62956 165.477 4.70703C165.344 4.78451 165.233 4.89388 165.142 5.03516C165.055 5.17188 164.987 5.33594 164.937 5.52734C164.891 5.71419 164.868 5.91927 164.868 6.14258C164.868 6.7806 164.989 7.26823 165.23 7.60547C165.472 7.93815 165.818 8.10449 166.27 8.10449C166.484 8.10449 166.666 8.07031 166.816 8.00195C166.971 7.93359 167.106 7.8584 167.22 7.77637C167.338 7.69434 167.445 7.61914 167.541 7.55078C167.637 7.48242 167.735 7.44824 167.835 7.44824C167.89 7.44824 167.944 7.46647 167.999 7.50293C168.054 7.53483 168.102 7.57812 168.143 7.63281C168.188 7.68294 168.225 7.73991 168.252 7.80371C168.284 7.86751 168.3 7.93132 168.3 7.99512C168.3 8.14551 168.225 8.30046 168.074 8.45996C167.928 8.61947 167.739 8.7653 167.507 8.89746C167.274 9.02507 167.015 9.12988 166.728 9.21191C166.445 9.29395 166.169 9.33496 165.9 9.33496C165.54 9.33496 165.21 9.26432 164.909 9.12305C164.608 8.98633 164.349 8.79492 164.13 8.54883C163.911 8.29818 163.74 7.99967 163.617 7.65332C163.499 7.30697 163.439 6.92415 163.439 6.50488C163.439 6.04915 163.506 5.62988 163.638 5.24707C163.774 4.86426 163.961 4.53385 164.198 4.25586C164.44 3.97331 164.725 3.75456 165.053 3.59961C165.381 3.4401 165.739 3.36035 166.126 3.36035Z" fill="black"/>
<path d="M172.764 3.02539C173.014 3.02539 173.256 3.06413 173.488 3.1416C173.721 3.21908 173.926 3.32617 174.104 3.46289C174.281 3.59961 174.423 3.76367 174.527 3.95508C174.637 4.14648 174.691 4.3584 174.691 4.59082C174.691 4.68652 174.669 4.77995 174.623 4.87109C174.582 4.95768 174.525 5.03516 174.452 5.10352C174.379 5.16732 174.295 5.21973 174.199 5.26074C174.108 5.2972 174.012 5.31543 173.912 5.31543C173.903 5.31543 173.894 5.31771 173.885 5.32227C173.88 5.32227 173.873 5.32227 173.864 5.32227C173.855 5.32682 173.846 5.3291 173.837 5.3291L173.864 5.87598C173.882 6.52767 173.974 7.00391 174.138 7.30469C174.306 7.60547 174.525 7.75586 174.794 7.75586C174.89 7.75586 174.974 7.74674 175.047 7.72852C175.124 7.71029 175.195 7.68978 175.259 7.66699C175.327 7.63965 175.391 7.61686 175.45 7.59863C175.509 7.5804 175.569 7.57129 175.628 7.57129C175.733 7.57129 175.824 7.61686 175.901 7.70801C175.983 7.79915 176.024 7.90853 176.024 8.03613C176.024 8.16374 175.974 8.29134 175.874 8.41895C175.778 8.54655 175.651 8.66276 175.491 8.76758C175.332 8.86784 175.152 8.94987 174.951 9.01367C174.751 9.07747 174.548 9.10938 174.343 9.10938C173.987 9.10938 173.675 8.96354 173.406 8.67188C173.137 8.37565 172.946 7.94271 172.832 7.37305C172.805 7.2819 172.768 7.23633 172.723 7.23633C172.668 7.23633 172.62 7.26367 172.579 7.31836C172.128 7.88802 171.647 8.31641 171.137 8.60352C170.626 8.88607 170.123 9.02734 169.626 9.02734C169.394 9.02734 169.184 8.99316 168.997 8.9248C168.81 8.85645 168.651 8.76074 168.519 8.6377C168.391 8.51009 168.291 8.35742 168.218 8.17969C168.149 7.9974 168.115 7.7946 168.115 7.57129C168.115 7.25684 168.184 6.92643 168.32 6.58008C168.462 6.23372 168.651 5.89193 168.888 5.55469C169.125 5.21745 169.398 4.89616 169.708 4.59082C170.022 4.28548 170.351 4.0166 170.692 3.78418C171.039 3.55176 171.39 3.36719 171.745 3.23047C172.101 3.09375 172.44 3.02539 172.764 3.02539ZM172.538 5.39062C172.62 5.23568 172.695 5.12402 172.764 5.05566C172.832 4.98275 172.93 4.9349 173.058 4.91211C173.158 4.89844 173.208 4.86654 173.208 4.81641C173.208 4.77995 173.194 4.74121 173.167 4.7002C173.08 4.58171 172.989 4.47917 172.894 4.39258C172.798 4.30143 172.67 4.25586 172.511 4.25586C172.338 4.25586 172.144 4.30599 171.93 4.40625C171.715 4.50651 171.497 4.64095 171.273 4.80957C171.055 4.97363 170.838 5.16276 170.624 5.37695C170.414 5.58659 170.228 5.80306 170.063 6.02637C169.899 6.24967 169.767 6.4707 169.667 6.68945C169.567 6.9082 169.517 7.10417 169.517 7.27734C169.517 7.43229 169.558 7.55306 169.64 7.63965C169.726 7.72624 169.842 7.76953 169.988 7.76953C170.362 7.76953 170.77 7.57129 171.212 7.1748C171.654 6.77832 172.096 6.18359 172.538 5.39062Z" fill="black"/>
<path d="M176.366 3.4834C176.366 3.41504 176.396 3.34896 176.455 3.28516C176.514 3.2168 176.592 3.15755 176.688 3.10742C176.783 3.05273 176.89 3.00944 177.009 2.97754C177.132 2.94108 177.255 2.92285 177.378 2.92285C177.446 2.92285 177.503 2.94108 177.549 2.97754C177.599 3.014 177.642 3.08464 177.679 3.18945C177.715 3.28971 177.747 3.43327 177.774 3.62012C177.806 3.80241 177.836 4.04167 177.863 4.33789C177.882 4.42904 177.897 4.49967 177.911 4.5498C177.929 4.59538 177.952 4.61816 177.979 4.61816C178.021 4.61816 178.062 4.54753 178.103 4.40625C178.435 3.44466 178.916 2.96387 179.545 2.96387C179.837 2.96387 180.101 3.05501 180.338 3.2373C180.579 3.4196 180.803 3.7181 181.008 4.13281C181.217 4.54297 181.416 5.08529 181.603 5.75977C181.789 6.42969 181.976 7.25684 182.163 8.24121C182.172 8.29134 182.179 8.33691 182.184 8.37793C182.188 8.41895 182.19 8.45768 182.19 8.49414C182.19 8.59896 182.165 8.6901 182.115 8.76758C182.07 8.84049 182.008 8.90202 181.931 8.95215C181.853 8.99772 181.767 9.0319 181.671 9.05469C181.575 9.08203 181.479 9.0957 181.384 9.0957C181.192 9.0957 181.053 9.0752 180.967 9.03418C180.885 8.99316 180.832 8.91569 180.81 8.80176C180.677 8.10905 180.548 7.49382 180.42 6.95605C180.297 6.41829 180.174 5.96712 180.051 5.60254C179.932 5.2334 179.814 4.95312 179.695 4.76172C179.577 4.57031 179.458 4.47461 179.34 4.47461C179.221 4.47461 179.11 4.5498 179.005 4.7002C178.905 4.84603 178.807 5.07617 178.711 5.39062C178.615 5.70508 178.522 6.10384 178.431 6.58691C178.344 7.06999 178.26 7.64648 178.178 8.31641C178.155 8.4987 178.064 8.64453 177.904 8.75391C177.745 8.86328 177.542 8.91797 177.296 8.91797C177.132 8.91797 177.007 8.88379 176.92 8.81543C176.833 8.74707 176.785 8.65365 176.776 8.53516C176.735 7.58724 176.69 6.80794 176.64 6.19727C176.594 5.58203 176.551 5.08984 176.51 4.7207C176.469 4.34701 176.435 4.06901 176.407 3.88672C176.38 3.70443 176.366 3.56999 176.366 3.4834Z" fill="black"/>
<path d="M190.523 3.02539C190.774 3.02539 191.016 3.06413 191.248 3.1416C191.48 3.21908 191.686 3.32617 191.863 3.46289C192.041 3.59961 192.182 3.76367 192.287 3.95508C192.396 4.14648 192.451 4.3584 192.451 4.59082C192.451 4.68652 192.428 4.77995 192.383 4.87109C192.342 4.95768 192.285 5.03516 192.212 5.10352C192.139 5.16732 192.055 5.21973 191.959 5.26074C191.868 5.2972 191.772 5.31543 191.672 5.31543C191.663 5.31543 191.654 5.31771 191.645 5.32227C191.64 5.32227 191.633 5.32227 191.624 5.32227C191.615 5.32682 191.606 5.3291 191.597 5.3291L191.624 5.87598C191.642 6.52767 191.733 7.00391 191.897 7.30469C192.066 7.60547 192.285 7.75586 192.554 7.75586C192.649 7.75586 192.734 7.74674 192.807 7.72852C192.884 7.71029 192.955 7.68978 193.019 7.66699C193.087 7.63965 193.151 7.61686 193.21 7.59863C193.269 7.5804 193.328 7.57129 193.388 7.57129C193.493 7.57129 193.584 7.61686 193.661 7.70801C193.743 7.79915 193.784 7.90853 193.784 8.03613C193.784 8.16374 193.734 8.29134 193.634 8.41895C193.538 8.54655 193.41 8.66276 193.251 8.76758C193.091 8.86784 192.911 8.94987 192.711 9.01367C192.51 9.07747 192.308 9.10938 192.103 9.10938C191.747 9.10938 191.435 8.96354 191.166 8.67188C190.897 8.37565 190.706 7.94271 190.592 7.37305C190.564 7.2819 190.528 7.23633 190.482 7.23633C190.428 7.23633 190.38 7.26367 190.339 7.31836C189.888 7.88802 189.407 8.31641 188.896 8.60352C188.386 8.88607 187.882 9.02734 187.386 9.02734C187.153 9.02734 186.944 8.99316 186.757 8.9248C186.57 8.85645 186.41 8.76074 186.278 8.6377C186.151 8.51009 186.05 8.35742 185.978 8.17969C185.909 7.9974 185.875 7.7946 185.875 7.57129C185.875 7.25684 185.943 6.92643 186.08 6.58008C186.221 6.23372 186.41 5.89193 186.647 5.55469C186.884 5.21745 187.158 4.89616 187.468 4.59082C187.782 4.28548 188.11 4.0166 188.452 3.78418C188.799 3.55176 189.149 3.36719 189.505 3.23047C189.86 3.09375 190.2 3.02539 190.523 3.02539ZM190.298 5.39062C190.38 5.23568 190.455 5.12402 190.523 5.05566C190.592 4.98275 190.69 4.9349 190.817 4.91211C190.918 4.89844 190.968 4.86654 190.968 4.81641C190.968 4.77995 190.954 4.74121 190.927 4.7002C190.84 4.58171 190.749 4.47917 190.653 4.39258C190.558 4.30143 190.43 4.25586 190.271 4.25586C190.097 4.25586 189.904 4.30599 189.689 4.40625C189.475 4.50651 189.257 4.64095 189.033 4.80957C188.814 4.97363 188.598 5.16276 188.384 5.37695C188.174 5.58659 187.987 5.80306 187.823 6.02637C187.659 6.24967 187.527 6.4707 187.427 6.68945C187.326 6.9082 187.276 7.10417 187.276 7.27734C187.276 7.43229 187.317 7.55306 187.399 7.63965C187.486 7.72624 187.602 7.76953 187.748 7.76953C188.122 7.76953 188.53 7.57129 188.972 7.1748C189.414 6.77832 189.856 6.18359 190.298 5.39062Z" fill="black"/>
<path d="M193.641 1.21387C193.641 0.976888 193.709 0.808268 193.846 0.708008C193.982 0.607747 194.208 0.557617 194.522 0.557617C194.632 0.557617 194.728 0.56901 194.81 0.591797C194.892 0.614583 194.96 0.65332 195.015 0.708008C195.069 0.758138 195.113 0.828776 195.145 0.919922C195.181 1.00651 195.211 1.11816 195.233 1.25488C195.293 1.66048 195.352 2.08659 195.411 2.5332C195.475 2.97526 195.534 3.41732 195.589 3.85938C195.648 4.29688 195.703 4.72526 195.753 5.14453C195.803 5.55924 195.846 5.94661 195.883 6.30664C195.924 6.66211 195.953 6.97884 195.972 7.25684C195.994 7.53027 196.006 7.74674 196.006 7.90625C196.006 8.07031 195.99 8.20931 195.958 8.32324C195.931 8.43717 195.881 8.52832 195.808 8.59668C195.739 8.66504 195.648 8.71517 195.534 8.74707C195.425 8.77441 195.288 8.78809 195.124 8.78809C194.965 8.78809 194.837 8.74707 194.741 8.66504C194.65 8.58301 194.604 8.45768 194.604 8.28906C194.604 8.11589 194.591 7.88574 194.563 7.59863C194.536 7.30697 194.5 6.9834 194.454 6.62793C194.409 6.27246 194.356 5.89421 194.297 5.49316C194.242 5.09212 194.183 4.69564 194.119 4.30371C194.06 3.91178 194.001 3.53581 193.941 3.17578C193.887 2.8112 193.837 2.48991 193.791 2.21191C193.745 1.92936 193.709 1.69922 193.682 1.52148C193.654 1.33919 193.641 1.23665 193.641 1.21387Z" fill="black"/>
<path d="M198.802 3.06641C199.107 3.06641 199.422 3.10742 199.745 3.18945C200.069 3.26693 200.365 3.36947 200.634 3.49707C200.903 3.62012 201.124 3.75911 201.297 3.91406C201.47 4.06901 201.557 4.2194 201.557 4.36523C201.557 4.43815 201.525 4.52018 201.461 4.61133C201.397 4.69792 201.32 4.78223 201.229 4.86426C201.137 4.94173 201.037 5.00781 200.928 5.0625C200.823 5.11263 200.729 5.1377 200.647 5.1377C200.538 5.1377 200.415 5.09212 200.278 5.00098C200.146 4.90983 199.998 4.80957 199.834 4.7002C199.674 4.58626 199.499 4.48372 199.308 4.39258C199.116 4.30143 198.909 4.25586 198.686 4.25586C198.54 4.25586 198.419 4.29232 198.323 4.36523C198.232 4.43359 198.187 4.53158 198.187 4.65918C198.187 4.77311 198.241 4.88932 198.351 5.00781C198.46 5.12174 198.604 5.24023 198.781 5.36328C198.964 5.48633 199.169 5.61621 199.396 5.75293C199.624 5.88965 199.857 6.03548 200.094 6.19043C200.335 6.34538 200.57 6.514 200.798 6.69629C201.026 6.87858 201.229 7.07682 201.406 7.29102C201.589 7.50521 201.734 7.73991 201.844 7.99512C201.953 8.24577 202.008 8.51921 202.008 8.81543C202.008 9.07064 201.962 9.30306 201.871 9.5127C201.78 9.72233 201.65 9.90234 201.481 10.0527C201.313 10.2031 201.112 10.3193 200.88 10.4014C200.647 10.4834 200.392 10.5244 200.114 10.5244C199.763 10.5244 199.44 10.4697 199.144 10.3604C198.847 10.2555 198.592 10.1097 198.378 9.92285C198.164 9.736 197.995 9.5127 197.872 9.25293C197.754 8.99316 197.694 8.70833 197.694 8.39844C197.694 7.9974 197.765 7.70573 197.906 7.52344C198.052 7.34115 198.28 7.25 198.59 7.25C198.781 7.25 198.934 7.28646 199.048 7.35938C199.162 7.43229 199.219 7.52116 199.219 7.62598C199.219 7.68066 199.21 7.73763 199.191 7.79688C199.173 7.85156 199.153 7.91081 199.13 7.97461C199.112 8.03385 199.093 8.09766 199.075 8.16602C199.062 8.23438 199.055 8.30273 199.055 8.37109C199.055 8.48958 199.082 8.60352 199.137 8.71289C199.191 8.82227 199.264 8.91797 199.355 9C199.451 9.08659 199.561 9.15495 199.684 9.20508C199.807 9.25521 199.937 9.28027 200.073 9.28027C200.438 9.28027 200.62 9.12988 200.62 8.8291C200.62 8.59212 200.527 8.36882 200.34 8.15918C200.153 7.94499 199.918 7.73763 199.636 7.53711C199.353 7.33203 199.048 7.12695 198.72 6.92188C198.396 6.7168 198.093 6.5026 197.811 6.2793C197.528 6.05599 197.293 5.81901 197.106 5.56836C196.92 5.31315 196.826 5.03743 196.826 4.74121C196.826 4.49512 196.876 4.26953 196.977 4.06445C197.081 3.85938 197.223 3.68392 197.4 3.53809C197.578 3.3877 197.785 3.27148 198.022 3.18945C198.264 3.10742 198.524 3.06641 198.802 3.06641Z" fill="black"/>
<path d="M202.343 6.73047C202.343 6.65299 202.352 6.56641 202.37 6.4707C202.388 6.375 202.397 6.27018 202.397 6.15625C202.397 6.07878 202.363 6.01953 202.295 5.97852C202.231 5.9375 202.158 5.89193 202.076 5.8418C201.994 5.79167 201.919 5.72786 201.851 5.65039C201.787 5.57292 201.755 5.46126 201.755 5.31543C201.755 5.21061 201.782 5.10579 201.837 5.00098C201.896 4.89616 201.98 4.80046 202.09 4.71387C202.359 4.51335 202.637 4.33333 202.924 4.17383C203.215 4.01432 203.505 3.87988 203.792 3.77051C204.084 3.66113 204.371 3.57682 204.653 3.51758C204.936 3.45833 205.207 3.42871 205.467 3.42871C205.904 3.42871 206.314 3.51074 206.697 3.6748C207.085 3.83431 207.42 4.05534 207.702 4.33789C207.989 4.61589 208.215 4.94401 208.379 5.32227C208.548 5.69596 208.632 6.09701 208.632 6.52539C208.632 6.94466 208.543 7.34342 208.365 7.72168C208.192 8.09538 207.957 8.4235 207.661 8.70605C207.365 8.98861 207.016 9.21191 206.615 9.37598C206.219 9.5446 205.799 9.62891 205.357 9.62891C204.924 9.62891 204.523 9.55599 204.154 9.41016C203.785 9.26432 203.466 9.0638 203.197 8.80859C202.928 8.54883 202.719 8.24349 202.568 7.89258C202.418 7.53711 202.343 7.14974 202.343 6.73047ZM205.508 8.39844C205.699 8.39844 205.897 8.3597 206.103 8.28223C206.308 8.20475 206.494 8.0931 206.663 7.94727C206.836 7.79688 206.978 7.61458 207.087 7.40039C207.201 7.1862 207.258 6.94466 207.258 6.67578C207.258 6.40234 207.208 6.14714 207.107 5.91016C207.007 5.67318 206.868 5.4681 206.69 5.29492C206.517 5.11719 206.31 4.97819 206.068 4.87793C205.831 4.77767 205.574 4.72754 205.296 4.72754C204.79 4.72754 204.403 4.8597 204.134 5.12402C203.865 5.38379 203.73 5.78483 203.73 6.32715C203.73 6.62337 203.774 6.89909 203.86 7.1543C203.951 7.40495 204.077 7.6237 204.236 7.81055C204.396 7.99284 204.583 8.13639 204.797 8.24121C205.016 8.34603 205.253 8.39844 205.508 8.39844Z" fill="black"/>
<path d="M217.423 4.00293C217.441 4.01204 217.468 4.0166 217.505 4.0166C217.605 4.0166 217.655 3.95052 217.655 3.81836V1.69238C217.655 1.4235 217.715 1.2321 217.833 1.11816C217.956 1.00423 218.159 0.947266 218.441 0.947266C218.729 0.947266 218.931 1.00651 219.05 1.125C219.168 1.24349 219.228 1.44629 219.228 1.7334C219.228 1.84277 219.221 2.00456 219.207 2.21875C219.193 2.42839 219.177 2.66764 219.159 2.93652C219.146 3.2054 219.132 3.49479 219.118 3.80469C219.104 4.11003 219.098 4.41309 219.098 4.71387C219.098 5.17871 219.13 5.57975 219.193 5.91699C219.257 6.25423 219.348 6.53451 219.467 6.75781C219.585 6.97656 219.727 7.14062 219.891 7.25C220.055 7.35482 220.239 7.40723 220.444 7.40723C220.558 7.40723 220.661 7.39355 220.752 7.36621C220.848 7.33431 220.959 7.31836 221.087 7.31836C221.178 7.31836 221.253 7.36621 221.312 7.46191C221.376 7.55306 221.408 7.66471 221.408 7.79688C221.408 7.91536 221.372 8.02702 221.299 8.13184C221.23 8.23665 221.135 8.3278 221.012 8.40527C220.893 8.48275 220.754 8.54427 220.595 8.58984C220.435 8.63086 220.269 8.65137 220.096 8.65137C219.722 8.65137 219.38 8.53743 219.07 8.30957C218.76 8.07715 218.528 7.72396 218.373 7.25C218.359 7.17708 218.337 7.14062 218.305 7.14062C218.268 7.14062 218.239 7.17708 218.216 7.25C218.093 7.58268 217.931 7.88346 217.73 8.15234C217.535 8.41667 217.304 8.64453 217.04 8.83594C216.78 9.02279 216.493 9.16634 216.179 9.2666C215.869 9.36686 215.541 9.41699 215.194 9.41699C214.83 9.41699 214.495 9.35547 214.189 9.23242C213.889 9.11393 213.629 8.94759 213.41 8.7334C213.191 8.51465 213.021 8.25944 212.897 7.96777C212.774 7.67155 212.713 7.35254 212.713 7.01074C212.713 6.57324 212.804 6.16081 212.986 5.77344C213.169 5.38607 213.415 5.04883 213.725 4.76172C214.039 4.47005 214.404 4.23991 214.818 4.07129C215.233 3.90267 215.675 3.81836 216.145 3.81836C216.336 3.81836 216.539 3.83431 216.753 3.86621C216.967 3.89355 217.19 3.93913 217.423 4.00293ZM215.461 8.18652C215.721 8.18652 215.951 8.12956 216.151 8.01562C216.356 7.90169 216.536 7.75814 216.691 7.58496C216.851 7.40723 216.985 7.21354 217.095 7.00391C217.204 6.78971 217.293 6.58236 217.361 6.38184C217.43 6.18132 217.48 6.0013 217.512 5.8418C217.544 5.68229 217.56 5.56836 217.56 5.5C217.56 5.44987 217.546 5.40658 217.519 5.37012C217.491 5.3291 217.45 5.2972 217.396 5.27441C217.272 5.24251 217.145 5.21517 217.013 5.19238C216.881 5.16504 216.751 5.14225 216.623 5.12402C216.495 5.10579 216.372 5.09212 216.254 5.08301C216.14 5.07389 216.035 5.06934 215.939 5.06934C215.666 5.06934 215.418 5.11035 215.194 5.19238C214.971 5.27441 214.78 5.39062 214.62 5.54102C214.465 5.69141 214.344 5.87142 214.258 6.08105C214.171 6.28613 214.128 6.51172 214.128 6.75781C214.128 6.97656 214.16 7.1748 214.224 7.35254C214.292 7.52572 214.383 7.67383 214.497 7.79688C214.616 7.91992 214.757 8.01562 214.921 8.08398C215.085 8.15234 215.265 8.18652 215.461 8.18652Z" fill="black"/>
<path d="M224.758 3.88672C224.589 3.88672 224.441 3.93229 224.313 4.02344C224.186 4.11003 224.076 4.23307 223.985 4.39258C223.894 4.54753 223.819 4.7321 223.76 4.94629C223.701 5.15592 223.653 5.38607 223.616 5.63672C223.58 5.88737 223.555 6.14941 223.541 6.42285C223.527 6.69629 223.521 6.97201 223.521 7.25C223.521 7.61458 223.534 7.97461 223.562 8.33008C223.593 8.68099 223.609 9.00684 223.609 9.30762C223.609 9.50358 223.536 9.65625 223.391 9.76562C223.245 9.87956 223.037 9.93652 222.769 9.93652C222.718 9.93652 222.661 9.93197 222.598 9.92285C222.534 9.91374 222.472 9.89551 222.413 9.86816C222.358 9.84082 222.308 9.80208 222.263 9.75195C222.222 9.70638 222.199 9.64258 222.194 9.56055C222.153 9.15951 222.094 8.74935 222.017 8.33008C221.939 7.91081 221.841 7.49382 221.723 7.0791C221.609 6.65983 221.47 6.24512 221.306 5.83496C221.146 5.4248 220.962 5.02376 220.752 4.63184C220.715 4.56348 220.684 4.49967 220.656 4.44043C220.633 4.38118 220.622 4.32422 220.622 4.26953C220.622 4.20117 220.652 4.12826 220.711 4.05078C220.775 3.96875 220.852 3.89355 220.943 3.8252C221.039 3.75684 221.142 3.70215 221.251 3.66113C221.365 3.61556 221.474 3.59277 221.579 3.59277C221.752 3.59277 221.905 3.71354 222.037 3.95508C222.169 4.19206 222.292 4.57259 222.406 5.09668C222.429 5.18783 222.447 5.25163 222.461 5.28809C222.475 5.32454 222.493 5.34277 222.516 5.34277C222.566 5.34277 222.598 5.2653 222.611 5.11035C222.666 4.67741 222.759 4.30599 222.892 3.99609C223.024 3.68164 223.188 3.42415 223.384 3.22363C223.584 3.01855 223.812 2.86816 224.067 2.77246C224.327 2.67676 224.612 2.62891 224.922 2.62891C225.1 2.62891 225.28 2.64486 225.462 2.67676C225.644 2.70866 225.808 2.75651 225.954 2.82031C226.1 2.88411 226.218 2.96159 226.31 3.05273C226.401 3.14388 226.446 3.24642 226.446 3.36035C226.446 3.44238 226.428 3.54036 226.392 3.6543C226.36 3.76367 226.316 3.87077 226.262 3.97559C226.207 4.07585 226.143 4.16243 226.07 4.23535C226.002 4.30371 225.931 4.33789 225.858 4.33789C225.776 4.33789 225.697 4.3151 225.619 4.26953C225.542 4.2194 225.457 4.16699 225.366 4.1123C225.28 4.05762 225.186 4.00749 225.086 3.96191C224.99 3.91178 224.881 3.88672 224.758 3.88672Z" fill="black"/>
<path d="M230.309 3.02539C230.559 3.02539 230.801 3.06413 231.033 3.1416C231.266 3.21908 231.471 3.32617 231.648 3.46289C231.826 3.59961 231.967 3.76367 232.072 3.95508C232.182 4.14648 232.236 4.3584 232.236 4.59082C232.236 4.68652 232.214 4.77995 232.168 4.87109C232.127 4.95768 232.07 5.03516 231.997 5.10352C231.924 5.16732 231.84 5.21973 231.744 5.26074C231.653 5.2972 231.557 5.31543 231.457 5.31543C231.448 5.31543 231.439 5.31771 231.43 5.32227C231.425 5.32227 231.418 5.32227 231.409 5.32227C231.4 5.32682 231.391 5.3291 231.382 5.3291L231.409 5.87598C231.427 6.52767 231.519 7.00391 231.683 7.30469C231.851 7.60547 232.07 7.75586 232.339 7.75586C232.435 7.75586 232.519 7.74674 232.592 7.72852C232.669 7.71029 232.74 7.68978 232.804 7.66699C232.872 7.63965 232.936 7.61686 232.995 7.59863C233.054 7.5804 233.114 7.57129 233.173 7.57129C233.278 7.57129 233.369 7.61686 233.446 7.70801C233.528 7.79915 233.569 7.90853 233.569 8.03613C233.569 8.16374 233.519 8.29134 233.419 8.41895C233.323 8.54655 233.196 8.66276 233.036 8.76758C232.877 8.86784 232.697 8.94987 232.496 9.01367C232.296 9.07747 232.093 9.10938 231.888 9.10938C231.532 9.10938 231.22 8.96354 230.951 8.67188C230.682 8.37565 230.491 7.94271 230.377 7.37305C230.35 7.2819 230.313 7.23633 230.268 7.23633C230.213 7.23633 230.165 7.26367 230.124 7.31836C229.673 7.88802 229.192 8.31641 228.682 8.60352C228.171 8.88607 227.668 9.02734 227.171 9.02734C226.938 9.02734 226.729 8.99316 226.542 8.9248C226.355 8.85645 226.196 8.76074 226.063 8.6377C225.936 8.51009 225.836 8.35742 225.763 8.17969C225.694 7.9974 225.66 7.7946 225.66 7.57129C225.66 7.25684 225.729 6.92643 225.865 6.58008C226.007 6.23372 226.196 5.89193 226.433 5.55469C226.67 5.21745 226.943 4.89616 227.253 4.59082C227.567 4.28548 227.896 4.0166 228.237 3.78418C228.584 3.55176 228.935 3.36719 229.29 3.23047C229.646 3.09375 229.985 3.02539 230.309 3.02539ZM230.083 5.39062C230.165 5.23568 230.24 5.12402 230.309 5.05566C230.377 4.98275 230.475 4.9349 230.603 4.91211C230.703 4.89844 230.753 4.86654 230.753 4.81641C230.753 4.77995 230.739 4.74121 230.712 4.7002C230.625 4.58171 230.534 4.47917 230.438 4.39258C230.343 4.30143 230.215 4.25586 230.056 4.25586C229.882 4.25586 229.689 4.30599 229.475 4.40625C229.26 4.50651 229.042 4.64095 228.818 4.80957C228.6 4.97363 228.383 5.16276 228.169 5.37695C227.959 5.58659 227.772 5.80306 227.608 6.02637C227.444 6.24967 227.312 6.4707 227.212 6.68945C227.112 6.9082 227.062 7.10417 227.062 7.27734C227.062 7.43229 227.103 7.55306 227.185 7.63965C227.271 7.72624 227.387 7.76953 227.533 7.76953C227.907 7.76953 228.315 7.57129 228.757 7.1748C229.199 6.77832 229.641 6.18359 230.083 5.39062Z" fill="black"/>
<path d="M237.411 3.66797C237.63 3.66797 237.837 3.6862 238.033 3.72266C238.229 3.75456 238.407 3.79102 238.566 3.83203C238.726 3.86849 238.863 3.90495 238.977 3.94141C239.09 3.97331 239.173 3.98926 239.223 3.98926C239.264 3.98926 239.302 3.96875 239.339 3.92773C239.375 3.88216 239.421 3.83431 239.476 3.78418C239.53 3.73405 239.603 3.68848 239.694 3.64746C239.785 3.60189 239.906 3.5791 240.057 3.5791C240.23 3.5791 240.367 3.62467 240.467 3.71582C240.567 3.80241 240.617 3.91178 240.617 4.04395C240.617 5.71191 240.56 7.12923 240.446 8.2959C240.332 9.45801 240.148 10.4036 239.893 11.1328C239.637 11.862 239.307 12.3906 238.901 12.7188C238.496 13.0469 238.004 13.2109 237.425 13.2109C237.16 13.2109 236.885 13.1517 236.598 13.0332C236.315 12.9147 236.055 12.762 235.818 12.5752C235.581 12.3929 235.385 12.1901 235.23 11.9668C235.08 11.7435 235.005 11.5293 235.005 11.3242C235.005 11.2559 235.041 11.1761 235.114 11.085C235.187 10.9938 235.276 10.9049 235.381 10.8184C235.486 10.7318 235.595 10.6589 235.709 10.5996C235.823 10.5404 235.921 10.5107 236.003 10.5107C236.09 10.5107 236.162 10.5449 236.222 10.6133C236.281 10.6862 236.336 10.7751 236.386 10.8799C236.44 10.9847 236.495 11.0986 236.55 11.2217C236.604 11.3493 236.673 11.4655 236.755 11.5703C236.837 11.6751 236.937 11.7617 237.056 11.8301C237.174 11.903 237.322 11.9395 237.5 11.9395C238.493 11.9395 239.077 10.4219 239.25 7.38672C239.25 7.25 239.211 7.18164 239.134 7.18164C239.07 7.18164 239.02 7.21354 238.983 7.27734C238.555 7.85612 238.054 8.29134 237.479 8.58301C236.91 8.87012 236.276 9.01367 235.579 9.01367C235.256 9.01367 234.957 8.96582 234.684 8.87012C234.41 8.76986 234.173 8.63314 233.973 8.45996C233.777 8.28223 233.624 8.07259 233.515 7.83105C233.405 7.58496 233.351 7.31608 233.351 7.02441C233.351 6.7373 233.401 6.45475 233.501 6.17676C233.606 5.89421 233.749 5.62988 233.932 5.38379C234.118 5.13314 234.34 4.90299 234.595 4.69336C234.85 4.48372 235.128 4.30371 235.429 4.15332C235.729 3.99837 236.046 3.87988 236.379 3.79785C236.716 3.71126 237.06 3.66797 237.411 3.66797ZM235.791 7.75586C236.415 7.75586 236.987 7.5599 237.507 7.16797C238.026 6.77148 238.471 6.19727 238.84 5.44531C238.849 5.41797 238.856 5.39746 238.86 5.38379C238.865 5.36556 238.867 5.34733 238.867 5.3291C238.867 5.28353 238.819 5.23568 238.724 5.18555C238.628 5.13542 238.503 5.09212 238.348 5.05566C238.193 5.01921 238.015 4.98958 237.814 4.9668C237.618 4.93945 237.42 4.92578 237.22 4.92578C236.896 4.92578 236.584 4.98047 236.283 5.08984C235.982 5.19922 235.716 5.34505 235.483 5.52734C235.251 5.70964 235.064 5.91699 234.923 6.14941C234.782 6.38184 234.711 6.62337 234.711 6.87402C234.711 7.1429 234.809 7.3571 235.005 7.5166C235.205 7.67611 235.467 7.75586 235.791 7.75586Z" fill="black"/>
<path d="M155.079 17.0254C155.33 17.0254 155.571 17.0641 155.804 17.1416C156.036 17.2191 156.241 17.3262 156.419 17.4629C156.597 17.5996 156.738 17.7637 156.843 17.9551C156.952 18.1465 157.007 18.3584 157.007 18.5908C157.007 18.6865 156.984 18.7799 156.938 18.8711C156.897 18.9577 156.84 19.0352 156.768 19.1035C156.695 19.1673 156.61 19.2197 156.515 19.2607C156.424 19.2972 156.328 19.3154 156.228 19.3154C156.218 19.3154 156.209 19.3177 156.2 19.3223C156.196 19.3223 156.189 19.3223 156.18 19.3223C156.171 19.3268 156.161 19.3291 156.152 19.3291L156.18 19.876C156.198 20.5277 156.289 21.0039 156.453 21.3047C156.622 21.6055 156.84 21.7559 157.109 21.7559C157.205 21.7559 157.289 21.7467 157.362 21.7285C157.44 21.7103 157.51 21.6898 157.574 21.667C157.643 21.6396 157.706 21.6169 157.766 21.5986C157.825 21.5804 157.884 21.5713 157.943 21.5713C158.048 21.5713 158.139 21.6169 158.217 21.708C158.299 21.7992 158.34 21.9085 158.34 22.0361C158.34 22.1637 158.29 22.2913 158.189 22.4189C158.094 22.5465 157.966 22.6628 157.807 22.7676C157.647 22.8678 157.467 22.9499 157.267 23.0137C157.066 23.0775 156.863 23.1094 156.658 23.1094C156.303 23.1094 155.991 22.9635 155.722 22.6719C155.453 22.3757 155.261 21.9427 155.147 21.373C155.12 21.2819 155.084 21.2363 155.038 21.2363C154.983 21.2363 154.936 21.2637 154.895 21.3184C154.443 21.888 153.963 22.3164 153.452 22.6035C152.942 22.8861 152.438 23.0273 151.941 23.0273C151.709 23.0273 151.499 22.9932 151.312 22.9248C151.126 22.8564 150.966 22.7607 150.834 22.6377C150.706 22.5101 150.606 22.3574 150.533 22.1797C150.465 21.9974 150.431 21.7946 150.431 21.5713C150.431 21.2568 150.499 20.9264 150.636 20.5801C150.777 20.2337 150.966 19.8919 151.203 19.5547C151.44 19.2174 151.714 18.8962 152.023 18.5908C152.338 18.2855 152.666 18.0166 153.008 17.7842C153.354 17.5518 153.705 17.3672 154.061 17.2305C154.416 17.0938 154.756 17.0254 155.079 17.0254ZM154.854 19.3906C154.936 19.2357 155.011 19.124 155.079 19.0557C155.147 18.9827 155.245 18.9349 155.373 18.9121C155.473 18.8984 155.523 18.8665 155.523 18.8164C155.523 18.7799 155.51 18.7412 155.482 18.7002C155.396 18.5817 155.305 18.4792 155.209 18.3926C155.113 18.3014 154.986 18.2559 154.826 18.2559C154.653 18.2559 154.459 18.306 154.245 18.4062C154.031 18.5065 153.812 18.641 153.589 18.8096C153.37 18.9736 153.154 19.1628 152.939 19.377C152.73 19.5866 152.543 19.8031 152.379 20.0264C152.215 20.2497 152.083 20.4707 151.982 20.6895C151.882 20.9082 151.832 21.1042 151.832 21.2773C151.832 21.4323 151.873 21.5531 151.955 21.6396C152.042 21.7262 152.158 21.7695 152.304 21.7695C152.677 21.7695 153.085 21.5713 153.527 21.1748C153.969 20.7783 154.411 20.1836 154.854 19.3906Z" fill="black"/>
<path d="M158.682 17.4834C158.682 17.415 158.711 17.349 158.771 17.2852C158.83 17.2168 158.907 17.1576 159.003 17.1074C159.099 17.0527 159.206 17.0094 159.324 16.9775C159.447 16.9411 159.57 16.9229 159.693 16.9229C159.762 16.9229 159.819 16.9411 159.864 16.9775C159.914 17.014 159.958 17.0846 159.994 17.1895C160.031 17.2897 160.062 17.4333 160.09 17.6201C160.122 17.8024 160.151 18.0417 160.179 18.3379C160.197 18.429 160.213 18.4997 160.227 18.5498C160.245 18.5954 160.268 18.6182 160.295 18.6182C160.336 18.6182 160.377 18.5475 160.418 18.4062C160.751 17.4447 161.231 16.9639 161.86 16.9639C162.152 16.9639 162.416 17.055 162.653 17.2373C162.895 17.4196 163.118 17.7181 163.323 18.1328C163.533 18.543 163.731 19.0853 163.918 19.7598C164.105 20.4297 164.292 21.2568 164.479 22.2412C164.488 22.2913 164.494 22.3369 164.499 22.3779C164.504 22.4189 164.506 22.4577 164.506 22.4941C164.506 22.599 164.481 22.6901 164.431 22.7676C164.385 22.8405 164.324 22.902 164.246 22.9521C164.169 22.9977 164.082 23.0319 163.986 23.0547C163.891 23.082 163.795 23.0957 163.699 23.0957C163.508 23.0957 163.369 23.0752 163.282 23.0342C163.2 22.9932 163.148 22.9157 163.125 22.8018C162.993 22.109 162.863 21.4938 162.735 20.9561C162.612 20.4183 162.489 19.9671 162.366 19.6025C162.248 19.2334 162.129 18.9531 162.011 18.7617C161.892 18.5703 161.774 18.4746 161.655 18.4746C161.537 18.4746 161.425 18.5498 161.32 18.7002C161.22 18.846 161.122 19.0762 161.026 19.3906C160.931 19.7051 160.837 20.1038 160.746 20.5869C160.66 21.07 160.575 21.6465 160.493 22.3164C160.47 22.4987 160.379 22.6445 160.22 22.7539C160.06 22.8633 159.857 22.918 159.611 22.918C159.447 22.918 159.322 22.8838 159.235 22.8154C159.149 22.7471 159.101 22.6536 159.092 22.5352C159.051 21.5872 159.005 20.8079 158.955 20.1973C158.91 19.582 158.866 19.0898 158.825 18.7207C158.784 18.347 158.75 18.069 158.723 17.8867C158.695 17.7044 158.682 17.57 158.682 17.4834Z" fill="black"/>
<path d="M169.797 18.0029C169.815 18.012 169.842 18.0166 169.879 18.0166C169.979 18.0166 170.029 17.9505 170.029 17.8184V15.6924C170.029 15.4235 170.089 15.2321 170.207 15.1182C170.33 15.0042 170.533 14.9473 170.815 14.9473C171.103 14.9473 171.305 15.0065 171.424 15.125C171.542 15.2435 171.602 15.4463 171.602 15.7334C171.602 15.8428 171.595 16.0046 171.581 16.2188C171.567 16.4284 171.551 16.6676 171.533 16.9365C171.52 17.2054 171.506 17.4948 171.492 17.8047C171.479 18.11 171.472 18.4131 171.472 18.7139C171.472 19.1787 171.504 19.5798 171.567 19.917C171.631 20.2542 171.722 20.5345 171.841 20.7578C171.959 20.9766 172.101 21.1406 172.265 21.25C172.429 21.3548 172.613 21.4072 172.818 21.4072C172.932 21.4072 173.035 21.3936 173.126 21.3662C173.222 21.3343 173.333 21.3184 173.461 21.3184C173.552 21.3184 173.627 21.3662 173.687 21.4619C173.75 21.5531 173.782 21.6647 173.782 21.7969C173.782 21.9154 173.746 22.027 173.673 22.1318C173.604 22.2367 173.509 22.3278 173.386 22.4053C173.267 22.4827 173.128 22.5443 172.969 22.5898C172.809 22.6309 172.643 22.6514 172.47 22.6514C172.096 22.6514 171.754 22.5374 171.444 22.3096C171.134 22.0771 170.902 21.724 170.747 21.25C170.733 21.1771 170.711 21.1406 170.679 21.1406C170.642 21.1406 170.613 21.1771 170.59 21.25C170.467 21.5827 170.305 21.8835 170.104 22.1523C169.909 22.4167 169.678 22.6445 169.414 22.8359C169.154 23.0228 168.867 23.1663 168.553 23.2666C168.243 23.3669 167.915 23.417 167.568 23.417C167.204 23.417 166.869 23.3555 166.563 23.2324C166.263 23.1139 166.003 22.9476 165.784 22.7334C165.565 22.5146 165.395 22.2594 165.271 21.9678C165.148 21.6715 165.087 21.3525 165.087 21.0107C165.087 20.5732 165.178 20.1608 165.36 19.7734C165.543 19.3861 165.789 19.0488 166.099 18.7617C166.413 18.4701 166.778 18.2399 167.192 18.0713C167.607 17.9027 168.049 17.8184 168.519 17.8184C168.71 17.8184 168.913 17.8343 169.127 17.8662C169.341 17.8936 169.564 17.9391 169.797 18.0029ZM167.835 22.1865C168.095 22.1865 168.325 22.1296 168.525 22.0156C168.73 21.9017 168.91 21.7581 169.065 21.585C169.225 21.4072 169.359 21.2135 169.469 21.0039C169.578 20.7897 169.667 20.5824 169.735 20.3818C169.804 20.1813 169.854 20.0013 169.886 19.8418C169.918 19.6823 169.934 19.5684 169.934 19.5C169.934 19.4499 169.92 19.4066 169.893 19.3701C169.865 19.3291 169.824 19.2972 169.77 19.2744C169.646 19.2425 169.519 19.2152 169.387 19.1924C169.255 19.165 169.125 19.1423 168.997 19.124C168.869 19.1058 168.746 19.0921 168.628 19.083C168.514 19.0739 168.409 19.0693 168.313 19.0693C168.04 19.0693 167.792 19.1104 167.568 19.1924C167.345 19.2744 167.154 19.3906 166.994 19.541C166.839 19.6914 166.718 19.8714 166.632 20.0811C166.545 20.2861 166.502 20.5117 166.502 20.7578C166.502 20.9766 166.534 21.1748 166.598 21.3525C166.666 21.5257 166.757 21.6738 166.871 21.7969C166.99 21.9199 167.131 22.0156 167.295 22.084C167.459 22.1523 167.639 22.1865 167.835 22.1865Z" fill="black"/>
<path d="M181.322 18.0029C181.34 18.012 181.368 18.0166 181.404 18.0166C181.505 18.0166 181.555 17.9505 181.555 17.8184V15.6924C181.555 15.4235 181.614 15.2321 181.732 15.1182C181.855 15.0042 182.058 14.9473 182.341 14.9473C182.628 14.9473 182.831 15.0065 182.949 15.125C183.068 15.2435 183.127 15.4463 183.127 15.7334C183.127 15.8428 183.12 16.0046 183.106 16.2188C183.093 16.4284 183.077 16.6676 183.059 16.9365C183.045 17.2054 183.031 17.4948 183.018 17.8047C183.004 18.11 182.997 18.4131 182.997 18.7139C182.997 19.1787 183.029 19.5798 183.093 19.917C183.157 20.2542 183.248 20.5345 183.366 20.7578C183.485 20.9766 183.626 21.1406 183.79 21.25C183.954 21.3548 184.139 21.4072 184.344 21.4072C184.458 21.4072 184.56 21.3936 184.651 21.3662C184.747 21.3343 184.859 21.3184 184.986 21.3184C185.077 21.3184 185.153 21.3662 185.212 21.4619C185.276 21.5531 185.308 21.6647 185.308 21.7969C185.308 21.9154 185.271 22.027 185.198 22.1318C185.13 22.2367 185.034 22.3278 184.911 22.4053C184.793 22.4827 184.654 22.5443 184.494 22.5898C184.335 22.6309 184.168 22.6514 183.995 22.6514C183.621 22.6514 183.28 22.5374 182.97 22.3096C182.66 22.0771 182.427 21.724 182.272 21.25C182.259 21.1771 182.236 21.1406 182.204 21.1406C182.168 21.1406 182.138 21.1771 182.115 21.25C181.992 21.5827 181.83 21.8835 181.63 22.1523C181.434 22.4167 181.204 22.6445 180.939 22.8359C180.68 23.0228 180.393 23.1663 180.078 23.2666C179.768 23.3669 179.44 23.417 179.094 23.417C178.729 23.417 178.394 23.3555 178.089 23.2324C177.788 23.1139 177.528 22.9476 177.31 22.7334C177.091 22.5146 176.92 22.2594 176.797 21.9678C176.674 21.6715 176.612 21.3525 176.612 21.0107C176.612 20.5732 176.703 20.1608 176.886 19.7734C177.068 19.3861 177.314 19.0488 177.624 18.7617C177.938 18.4701 178.303 18.2399 178.718 18.0713C179.132 17.9027 179.575 17.8184 180.044 17.8184C180.235 17.8184 180.438 17.8343 180.652 17.8662C180.867 17.8936 181.09 17.9391 181.322 18.0029ZM179.36 22.1865C179.62 22.1865 179.85 22.1296 180.051 22.0156C180.256 21.9017 180.436 21.7581 180.591 21.585C180.75 21.4072 180.885 21.2135 180.994 21.0039C181.104 20.7897 181.192 20.5824 181.261 20.3818C181.329 20.1813 181.379 20.0013 181.411 19.8418C181.443 19.6823 181.459 19.5684 181.459 19.5C181.459 19.4499 181.445 19.4066 181.418 19.3701C181.391 19.3291 181.35 19.2972 181.295 19.2744C181.172 19.2425 181.044 19.2152 180.912 19.1924C180.78 19.165 180.65 19.1423 180.522 19.124C180.395 19.1058 180.272 19.0921 180.153 19.083C180.039 19.0739 179.935 19.0693 179.839 19.0693C179.565 19.0693 179.317 19.1104 179.094 19.1924C178.87 19.2744 178.679 19.3906 178.52 19.541C178.365 19.6914 178.244 19.8714 178.157 20.0811C178.071 20.2861 178.027 20.5117 178.027 20.7578C178.027 20.9766 178.059 21.1748 178.123 21.3525C178.191 21.5257 178.283 21.6738 178.396 21.7969C178.515 21.9199 178.656 22.0156 178.82 22.084C178.984 22.1523 179.164 22.1865 179.36 22.1865Z" fill="black"/>
<path d="M188.657 17.8867C188.489 17.8867 188.34 17.9323 188.213 18.0234C188.085 18.11 187.976 18.2331 187.885 18.3926C187.794 18.5475 187.718 18.7321 187.659 18.9463C187.6 19.1559 187.552 19.3861 187.516 19.6367C187.479 19.8874 187.454 20.1494 187.44 20.4229C187.427 20.6963 187.42 20.972 187.42 21.25C187.42 21.6146 187.434 21.9746 187.461 22.3301C187.493 22.681 187.509 23.0068 187.509 23.3076C187.509 23.5036 187.436 23.6562 187.29 23.7656C187.144 23.8796 186.937 23.9365 186.668 23.9365C186.618 23.9365 186.561 23.932 186.497 23.9229C186.433 23.9137 186.372 23.8955 186.312 23.8682C186.258 23.8408 186.208 23.8021 186.162 23.752C186.121 23.7064 186.098 23.6426 186.094 23.5605C186.053 23.1595 185.993 22.7493 185.916 22.3301C185.839 21.9108 185.741 21.4938 185.622 21.0791C185.508 20.6598 185.369 20.2451 185.205 19.835C185.046 19.4248 184.861 19.0238 184.651 18.6318C184.615 18.5635 184.583 18.4997 184.556 18.4404C184.533 18.3812 184.521 18.3242 184.521 18.2695C184.521 18.2012 184.551 18.1283 184.61 18.0508C184.674 17.9688 184.752 17.8936 184.843 17.8252C184.938 17.7568 185.041 17.7021 185.15 17.6611C185.264 17.6156 185.374 17.5928 185.479 17.5928C185.652 17.5928 185.804 17.7135 185.937 17.9551C186.069 18.1921 186.192 18.5726 186.306 19.0967C186.328 19.1878 186.347 19.2516 186.36 19.2881C186.374 19.3245 186.392 19.3428 186.415 19.3428C186.465 19.3428 186.497 19.2653 186.511 19.1104C186.565 18.6774 186.659 18.306 186.791 17.9961C186.923 17.6816 187.087 17.4242 187.283 17.2236C187.484 17.0186 187.712 16.8682 187.967 16.7725C188.227 16.6768 188.511 16.6289 188.821 16.6289C188.999 16.6289 189.179 16.6449 189.361 16.6768C189.544 16.7087 189.708 16.7565 189.854 16.8203C189.999 16.8841 190.118 16.9616 190.209 17.0527C190.3 17.1439 190.346 17.2464 190.346 17.3604C190.346 17.4424 190.327 17.5404 190.291 17.6543C190.259 17.7637 190.216 17.8708 190.161 17.9756C190.106 18.0758 190.043 18.1624 189.97 18.2354C189.901 18.3037 189.831 18.3379 189.758 18.3379C189.676 18.3379 189.596 18.3151 189.519 18.2695C189.441 18.2194 189.357 18.167 189.266 18.1123C189.179 18.0576 189.086 18.0075 188.985 17.9619C188.89 17.9118 188.78 17.8867 188.657 17.8867Z" fill="black"/>
<path d="M190.004 20.7305C190.004 20.653 190.013 20.5664 190.031 20.4707C190.049 20.375 190.059 20.2702 190.059 20.1562C190.059 20.0788 190.024 20.0195 189.956 19.9785C189.892 19.9375 189.819 19.8919 189.737 19.8418C189.655 19.7917 189.58 19.7279 189.512 19.6504C189.448 19.5729 189.416 19.4613 189.416 19.3154C189.416 19.2106 189.443 19.1058 189.498 19.001C189.557 18.8962 189.642 18.8005 189.751 18.7139C190.02 18.5133 190.298 18.3333 190.585 18.1738C190.877 18.0143 191.166 17.8799 191.453 17.7705C191.745 17.6611 192.032 17.5768 192.314 17.5176C192.597 17.4583 192.868 17.4287 193.128 17.4287C193.565 17.4287 193.976 17.5107 194.358 17.6748C194.746 17.8343 195.081 18.0553 195.363 18.3379C195.65 18.6159 195.876 18.944 196.04 19.3223C196.209 19.696 196.293 20.097 196.293 20.5254C196.293 20.9447 196.204 21.3434 196.026 21.7217C195.853 22.0954 195.618 22.4235 195.322 22.7061C195.026 22.9886 194.677 23.2119 194.276 23.376C193.88 23.5446 193.461 23.6289 193.019 23.6289C192.586 23.6289 192.185 23.556 191.815 23.4102C191.446 23.2643 191.127 23.0638 190.858 22.8086C190.59 22.5488 190.38 22.2435 190.229 21.8926C190.079 21.5371 190.004 21.1497 190.004 20.7305ZM193.169 22.3984C193.36 22.3984 193.559 22.3597 193.764 22.2822C193.969 22.2048 194.156 22.0931 194.324 21.9473C194.497 21.7969 194.639 21.6146 194.748 21.4004C194.862 21.1862 194.919 20.9447 194.919 20.6758C194.919 20.4023 194.869 20.1471 194.769 19.9102C194.668 19.6732 194.529 19.4681 194.352 19.2949C194.178 19.1172 193.971 18.9782 193.729 18.8779C193.493 18.7777 193.235 18.7275 192.957 18.7275C192.451 18.7275 192.064 18.8597 191.795 19.124C191.526 19.3838 191.392 19.7848 191.392 20.3271C191.392 20.6234 191.435 20.8991 191.521 21.1543C191.613 21.4049 191.738 21.6237 191.897 21.8105C192.057 21.9928 192.244 22.1364 192.458 22.2412C192.677 22.346 192.914 22.3984 193.169 22.3984Z" fill="black"/>
<path d="M196.525 18.2285C196.525 18.0508 196.605 17.9163 196.765 17.8252C196.924 17.7295 197.152 17.6816 197.448 17.6816C197.517 17.6816 197.578 17.6908 197.633 17.709C197.688 17.7272 197.735 17.7637 197.776 17.8184C197.822 17.8685 197.863 17.9391 197.899 18.0303C197.936 18.1214 197.972 18.2376 198.009 18.3789C198.045 18.5384 198.082 18.6182 198.118 18.6182C198.15 18.6182 198.189 18.5521 198.234 18.4199C198.316 18.1602 198.424 17.9346 198.556 17.7432C198.692 17.5472 198.845 17.3854 199.014 17.2578C199.182 17.1257 199.365 17.0277 199.561 16.9639C199.761 16.9001 199.971 16.8682 200.189 16.8682C200.632 16.8682 201.044 16.9525 201.427 17.1211C201.81 17.2852 202.14 17.5153 202.418 17.8115C202.696 18.1032 202.915 18.4495 203.074 18.8506C203.234 19.2471 203.313 19.6777 203.313 20.1426C203.313 20.6348 203.227 21.0905 203.054 21.5098C202.885 21.929 202.648 22.2913 202.343 22.5967C202.037 22.8975 201.673 23.1322 201.249 23.3008C200.83 23.474 200.369 23.5605 199.868 23.5605L199.52 23.5469C199.314 23.5469 199.212 23.6631 199.212 23.8955L199.561 27.0332C199.556 27.1107 199.529 27.1813 199.479 27.2451C199.433 27.3135 199.369 27.3727 199.287 27.4229C199.21 27.473 199.116 27.5117 199.007 27.5391C198.902 27.5664 198.793 27.5801 198.679 27.5801C198.351 27.5801 198.173 27.473 198.146 27.2588C198.05 26.4294 197.943 25.641 197.824 24.8936C197.71 24.1462 197.592 23.4512 197.469 22.8086C197.35 22.1615 197.234 21.5736 197.12 21.0449C197.006 20.5163 196.904 20.056 196.812 19.6641C196.726 19.2721 196.658 18.9531 196.607 18.707C196.553 18.4609 196.525 18.3014 196.525 18.2285ZM198.747 20.0332C198.747 20.3294 198.758 20.6234 198.781 20.915C198.804 21.2021 198.84 21.5143 198.891 21.8516C198.918 22.0566 199.03 22.1729 199.226 22.2002C199.344 22.2275 199.476 22.2549 199.622 22.2822C199.772 22.305 199.898 22.3164 199.998 22.3164C200.29 22.3164 200.554 22.2731 200.791 22.1865C201.028 22.0999 201.231 21.9769 201.399 21.8174C201.568 21.6533 201.698 21.4596 201.789 21.2363C201.88 21.013 201.926 20.7646 201.926 20.4912C201.926 20.1585 201.88 19.8486 201.789 19.5615C201.698 19.2699 201.573 19.0169 201.413 18.8027C201.258 18.5885 201.074 18.4199 200.859 18.2969C200.65 18.1738 200.422 18.1123 200.176 18.1123C199.962 18.1123 199.766 18.1602 199.588 18.2559C199.415 18.347 199.264 18.4769 199.137 18.6455C199.014 18.8096 198.918 19.0101 198.85 19.2471C198.781 19.484 198.747 19.7461 198.747 20.0332Z" fill="black"/>
<path d="M207.21 16.417C207.21 15.9248 207.529 15.6787 208.167 15.6787C208.276 15.6787 208.372 15.7083 208.454 15.7676C208.536 15.8268 208.584 15.9089 208.598 16.0137C208.639 16.2917 208.675 16.5674 208.707 16.8408C208.739 17.1143 208.769 17.4219 208.796 17.7637C208.828 18.1009 208.857 18.4928 208.885 18.9395C208.917 19.3815 208.951 19.9102 208.987 20.5254C208.987 20.5892 208.996 20.6348 209.015 20.6621C209.037 20.6895 209.062 20.7031 209.09 20.7031C209.131 20.7031 209.172 20.6621 209.213 20.5801C209.368 20.2383 209.541 19.9329 209.732 19.6641C209.924 19.3906 210.129 19.1605 210.348 18.9736C210.566 18.7822 210.797 18.6387 211.038 18.543C211.284 18.4427 211.535 18.3926 211.79 18.3926C212.127 18.3926 212.433 18.4883 212.706 18.6797C212.979 18.8711 213.212 19.1423 213.403 19.4932C213.595 19.8441 213.743 20.2702 213.848 20.7715C213.952 21.2682 214.005 21.8242 214.005 22.4395C214.005 22.6081 213.991 22.7471 213.964 22.8564C213.941 22.9613 213.9 23.0456 213.841 23.1094C213.782 23.1732 213.7 23.2165 213.595 23.2393C213.49 23.2666 213.36 23.2803 213.205 23.2803C212.991 23.2803 212.836 23.2393 212.74 23.1572C212.649 23.0752 212.604 22.9476 212.604 22.7744C212.604 22.346 212.574 21.9427 212.515 21.5645C212.46 21.1816 212.382 20.8467 212.282 20.5596C212.182 20.2725 212.063 20.0446 211.927 19.876C211.795 19.7074 211.651 19.623 211.496 19.623C211.145 19.623 210.794 19.9079 210.443 20.4775C210.097 21.0472 209.735 21.9062 209.356 23.0547C209.32 23.1595 209.279 23.2461 209.233 23.3145C209.188 23.3828 209.133 23.4375 209.069 23.4785C209.01 23.5195 208.937 23.5469 208.851 23.5605C208.764 23.5788 208.661 23.5879 208.543 23.5879C208.301 23.5879 208.128 23.5423 208.023 23.4512C207.923 23.36 207.868 23.2096 207.859 23C207.832 22.207 207.782 21.4505 207.709 20.7305C207.641 20.0059 207.568 19.3519 207.49 18.7686C207.417 18.1807 207.351 17.6839 207.292 17.2783C207.237 16.8682 207.21 16.5811 207.21 16.417Z" fill="black"/>
<path d="M220.738 21.5029C220.87 21.389 221 21.332 221.128 21.332C221.201 21.332 221.267 21.3503 221.326 21.3867C221.385 21.4232 221.451 21.4801 221.524 21.5576C221.593 21.6624 221.641 21.749 221.668 21.8174C221.7 21.8812 221.716 21.945 221.716 22.0088C221.716 22.1455 221.647 22.2754 221.511 22.3984C221.292 22.5807 221.055 22.7448 220.8 22.8906C220.545 23.0319 220.278 23.1527 220 23.2529C219.722 23.3532 219.435 23.4284 219.139 23.4785C218.842 23.5332 218.549 23.5605 218.257 23.5605C217.888 23.5605 217.541 23.5127 217.218 23.417C216.894 23.3258 216.605 23.1937 216.35 23.0205C216.099 22.8473 215.887 22.64 215.714 22.3984C215.541 22.1523 215.418 21.8766 215.345 21.5713C215.304 21.4437 215.265 21.3617 215.229 21.3252C215.197 21.2842 215.142 21.2637 215.064 21.2637C214.896 21.2637 214.766 21.2227 214.675 21.1406C214.584 21.0586 214.538 20.9401 214.538 20.7852C214.538 20.7214 214.543 20.6803 214.552 20.6621L214.565 20.5254C214.588 20.3613 214.632 20.2428 214.695 20.1699C214.764 20.097 214.868 20.0605 215.01 20.0605H215.112C215.304 20.0605 215.438 19.9717 215.516 19.7939C215.657 19.4795 215.837 19.1924 216.056 18.9326C216.274 18.6729 216.521 18.4518 216.794 18.2695C217.067 18.0827 217.359 17.9391 217.669 17.8389C217.983 17.734 218.302 17.6816 218.626 17.6816C218.963 17.6816 219.278 17.7318 219.569 17.832C219.866 17.9277 220.123 18.0622 220.342 18.2354C220.561 18.4085 220.731 18.6113 220.854 18.8438C220.982 19.0762 221.046 19.3268 221.046 19.5957C221.046 19.7826 221.009 19.9535 220.937 20.1084C220.864 20.2633 220.759 20.4001 220.622 20.5186C220.485 20.6325 220.319 20.7259 220.123 20.7988C219.932 20.8717 219.713 20.9196 219.467 20.9424L217.095 21.1816C217.004 21.1816 216.928 21.2044 216.869 21.25C216.814 21.2956 216.787 21.3571 216.787 21.4346C216.787 21.5531 216.83 21.667 216.917 21.7764C217.008 21.8857 217.127 21.9837 217.272 22.0703C217.423 22.1523 217.594 22.2184 217.785 22.2686C217.981 22.3187 218.182 22.3438 218.387 22.3438C218.583 22.3438 218.783 22.3255 218.988 22.2891C219.198 22.248 219.403 22.1911 219.604 22.1182C219.809 22.0452 220.007 21.9587 220.198 21.8584C220.39 21.7536 220.57 21.6351 220.738 21.5029ZM219.214 19.7393C219.282 19.7256 219.341 19.6937 219.392 19.6436C219.442 19.5889 219.467 19.5228 219.467 19.4453C219.467 19.377 219.442 19.3132 219.392 19.2539C219.341 19.1947 219.273 19.1423 219.187 19.0967C219.1 19.0465 219 19.0078 218.886 18.9805C218.772 18.9531 218.651 18.9395 218.523 18.9395C218.337 18.9395 218.145 18.9668 217.949 19.0215C217.753 19.0762 217.576 19.1491 217.416 19.2402C217.257 19.3268 217.127 19.4248 217.026 19.5342C216.926 19.639 216.876 19.7438 216.876 19.8486C216.876 19.9535 216.94 20.0059 217.067 20.0059C217.145 20.0059 217.27 19.9967 217.443 19.9785C217.617 19.9603 217.808 19.9398 218.018 19.917C218.227 19.8896 218.439 19.86 218.653 19.8281C218.868 19.7962 219.054 19.7666 219.214 19.7393Z" fill="black"/>
<path d="M225.858 17.8867C225.69 17.8867 225.542 17.9323 225.414 18.0234C225.286 18.11 225.177 18.2331 225.086 18.3926C224.995 18.5475 224.92 18.7321 224.86 18.9463C224.801 19.1559 224.753 19.3861 224.717 19.6367C224.68 19.8874 224.655 20.1494 224.642 20.4229C224.628 20.6963 224.621 20.972 224.621 21.25C224.621 21.6146 224.635 21.9746 224.662 22.3301C224.694 22.681 224.71 23.0068 224.71 23.3076C224.71 23.5036 224.637 23.6562 224.491 23.7656C224.345 23.8796 224.138 23.9365 223.869 23.9365C223.819 23.9365 223.762 23.932 223.698 23.9229C223.634 23.9137 223.573 23.8955 223.514 23.8682C223.459 23.8408 223.409 23.8021 223.363 23.752C223.322 23.7064 223.299 23.6426 223.295 23.5605C223.254 23.1595 223.195 22.7493 223.117 22.3301C223.04 21.9108 222.942 21.4938 222.823 21.0791C222.709 20.6598 222.57 20.2451 222.406 19.835C222.247 19.4248 222.062 19.0238 221.853 18.6318C221.816 18.5635 221.784 18.4997 221.757 18.4404C221.734 18.3812 221.723 18.3242 221.723 18.2695C221.723 18.2012 221.752 18.1283 221.812 18.0508C221.875 17.9688 221.953 17.8936 222.044 17.8252C222.14 17.7568 222.242 17.7021 222.352 17.6611C222.465 17.6156 222.575 17.5928 222.68 17.5928C222.853 17.5928 223.006 17.7135 223.138 17.9551C223.27 18.1921 223.393 18.5726 223.507 19.0967C223.53 19.1878 223.548 19.2516 223.562 19.2881C223.575 19.3245 223.593 19.3428 223.616 19.3428C223.666 19.3428 223.698 19.2653 223.712 19.1104C223.767 18.6774 223.86 18.306 223.992 17.9961C224.124 17.6816 224.288 17.4242 224.484 17.2236C224.685 17.0186 224.913 16.8682 225.168 16.7725C225.428 16.6768 225.713 16.6289 226.022 16.6289C226.2 16.6289 226.38 16.6449 226.562 16.6768C226.745 16.7087 226.909 16.7565 227.055 16.8203C227.201 16.8841 227.319 16.9616 227.41 17.0527C227.501 17.1439 227.547 17.2464 227.547 17.3604C227.547 17.4424 227.529 17.5404 227.492 17.6543C227.46 17.7637 227.417 17.8708 227.362 17.9756C227.308 18.0758 227.244 18.1624 227.171 18.2354C227.103 18.3037 227.032 18.3379 226.959 18.3379C226.877 18.3379 226.797 18.3151 226.72 18.2695C226.642 18.2194 226.558 18.167 226.467 18.1123C226.38 18.0576 226.287 18.0075 226.187 17.9619C226.091 17.9118 225.981 17.8867 225.858 17.8867Z" fill="black"/>
<path d="M232.934 21.5029C233.066 21.389 233.196 21.332 233.323 21.332C233.396 21.332 233.462 21.3503 233.521 21.3867C233.581 21.4232 233.647 21.4801 233.72 21.5576C233.788 21.6624 233.836 21.749 233.863 21.8174C233.895 21.8812 233.911 21.945 233.911 22.0088C233.911 22.1455 233.843 22.2754 233.706 22.3984C233.487 22.5807 233.25 22.7448 232.995 22.8906C232.74 23.0319 232.473 23.1527 232.195 23.2529C231.917 23.3532 231.63 23.4284 231.334 23.4785C231.038 23.5332 230.744 23.5605 230.452 23.5605C230.083 23.5605 229.737 23.5127 229.413 23.417C229.09 23.3258 228.8 23.1937 228.545 23.0205C228.294 22.8473 228.082 22.64 227.909 22.3984C227.736 22.1523 227.613 21.8766 227.54 21.5713C227.499 21.4437 227.46 21.3617 227.424 21.3252C227.392 21.2842 227.337 21.2637 227.26 21.2637C227.091 21.2637 226.961 21.2227 226.87 21.1406C226.779 21.0586 226.733 20.9401 226.733 20.7852C226.733 20.7214 226.738 20.6803 226.747 20.6621L226.761 20.5254C226.784 20.3613 226.827 20.2428 226.891 20.1699C226.959 20.097 227.064 20.0605 227.205 20.0605H227.308C227.499 20.0605 227.633 19.9717 227.711 19.7939C227.852 19.4795 228.032 19.1924 228.251 18.9326C228.47 18.6729 228.716 18.4518 228.989 18.2695C229.263 18.0827 229.554 17.9391 229.864 17.8389C230.179 17.734 230.498 17.6816 230.821 17.6816C231.159 17.6816 231.473 17.7318 231.765 17.832C232.061 17.9277 232.318 18.0622 232.537 18.2354C232.756 18.4085 232.927 18.6113 233.05 18.8438C233.177 19.0762 233.241 19.3268 233.241 19.5957C233.241 19.7826 233.205 19.9535 233.132 20.1084C233.059 20.2633 232.954 20.4001 232.817 20.5186C232.681 20.6325 232.514 20.7259 232.318 20.7988C232.127 20.8717 231.908 20.9196 231.662 20.9424L229.29 21.1816C229.199 21.1816 229.124 21.2044 229.064 21.25C229.01 21.2956 228.982 21.3571 228.982 21.4346C228.982 21.5531 229.026 21.667 229.112 21.7764C229.203 21.8857 229.322 21.9837 229.468 22.0703C229.618 22.1523 229.789 22.2184 229.98 22.2686C230.176 22.3187 230.377 22.3438 230.582 22.3438C230.778 22.3438 230.979 22.3255 231.184 22.2891C231.393 22.248 231.598 22.1911 231.799 22.1182C232.004 22.0452 232.202 21.9587 232.394 21.8584C232.585 21.7536 232.765 21.6351 232.934 21.5029ZM231.409 19.7393C231.478 19.7256 231.537 19.6937 231.587 19.6436C231.637 19.5889 231.662 19.5228 231.662 19.4453C231.662 19.377 231.637 19.3132 231.587 19.2539C231.537 19.1947 231.468 19.1423 231.382 19.0967C231.295 19.0465 231.195 19.0078 231.081 18.9805C230.967 18.9531 230.846 18.9395 230.719 18.9395C230.532 18.9395 230.34 18.9668 230.145 19.0215C229.949 19.0762 229.771 19.1491 229.611 19.2402C229.452 19.3268 229.322 19.4248 229.222 19.5342C229.121 19.639 229.071 19.7438 229.071 19.8486C229.071 19.9535 229.135 20.0059 229.263 20.0059C229.34 20.0059 229.465 19.9967 229.639 19.9785C229.812 19.9603 230.003 19.9398 230.213 19.917C230.423 19.8896 230.634 19.86 230.849 19.8281C231.063 19.7962 231.25 19.7666 231.409 19.7393Z" fill="black"/>
<ellipse opacity="0.2" cx="85.5" cy="226" rx="85.5" ry="15" fill="#CECECE"/>
<path d="M97.2002 141.955C107.3 143.655 119.8 154.855 121 159.755C122.2 164.655 110.5 178.555 110.5 178.555L109.8 174.855C109.8 174.855 119.3 164.455 116.9 159.755C114.4 155.055 100.2 151.555 100.2 151.555L97.2002 141.955Z" fill="#C93C31"/>
<path d="M111.6 174.055C111.6 174.055 121.1 163.655 118.7 158.955C116.2 154.255 102 150.755 102 150.755L99.5002 142.655C98.7002 142.455 98.0002 142.255 97.2002 142.155L100.2 151.755C100.2 151.755 114.4 155.355 116.9 159.955C119.4 164.655 109.8 175.055 109.8 175.055L110.5 178.755C110.5 178.755 111.1 177.955 112.1 176.755L111.6 174.055Z" fill="#AF2D27"/>
<path d="M113 165.855C117.1 167.755 119.5 170.155 121.1 174.655L110.4 178.655C110.4 178.655 112.6 186.555 106.7 183.055C100.9 179.655 113 165.855 113 165.855Z" fill="#FCDE63"/>
<path d="M109.7 183.255C107.5 176.855 113.7 171.455 117.1 168.355C116 167.355 114.6 166.455 113 165.755C113 165.755 100.8 179.555 106.7 182.955C108.4 183.955 109.5 183.955 110.1 183.555C110 183.555 109.8 183.455 109.7 183.255Z" fill="#EAC23F"/>
<path d="M71.7998 138.955L93.1998 137.655L93.7998 141.455L80.6998 143.955L71.7998 138.955Z" fill="#EFBF48"/>
<path d="M89.0999 217.755C95.7999 216.755 99.6999 144.555 88.0999 142.055C76.4999 139.555 50.0999 185.455 44.3999 214.255C44.3999 214.255 56.8999 211.255 62.2999 211.255C67.7999 211.255 75.5999 219.655 89.0999 217.755Z" fill="#6D1715"/>
<path d="M89.1001 217.755C89.1001 217.755 92.7001 215.655 89.2001 210.955C89.2001 210.955 95.0001 194.555 95.2001 189.255C94.2001 205.055 92.6001 217.555 89.1001 217.755Z" fill="#821F1A"/>
<path d="M87.1031 133.285L81.0977 134.354L82.7971 143.904L88.8025 142.835L87.1031 133.285Z" fill="#FFC673"/>
<path d="M57 226.855H67.5C67.5 226.855 77 194.555 85.6 192.555C107 187.555 102.9 227.755 102.9 227.755H114.4L106.6 223.355C106.6 223.355 113.1 149.155 98.8 142.455C94.4 140.455 79.4 141.255 75.4 145.955C71.4 150.655 79.5 175.155 75.9 187.655C72.3 200.255 64.3 223.555 64.3 223.555L57 226.855Z" fill="#C93C31"/>
<path d="M107.2 184.355H76.6001V188.955L108 187.755L107.2 184.355Z" fill="#AF2D27"/>
<path d="M65.9999 223.955C65.9999 223.955 76.0999 199.255 79.6999 186.655C82.3999 177.255 77.2999 161.855 76.2999 152.855C75.9999 149.855 74.1999 149.455 74.2999 152.455C74.6999 161.855 78.6999 178.155 75.8999 187.655C72.2999 200.255 64.2999 223.555 64.2999 223.555L56.8999 226.755H59.3999L65.9999 223.955Z" fill="#AF2D27"/>
<path d="M104.6 227.655C104.9 224.055 107 194.555 92.3999 192.455C106 196.755 102.9 227.655 102.9 227.655H104.6Z" fill="#AF2D27"/>
<path d="M109.1 180.555L74.8999 180.855V187.355L109.1 187.055V180.555Z" fill="#FCDE63"/>
<path d="M82.7999 181.755C82.7999 181.455 82.7999 181.055 82.7999 180.755L74.8999 180.855V187.455L83.1999 187.355C82.8999 185.555 82.7999 183.655 82.7999 181.755Z" fill="#EAC23F"/>
<path d="M69.4998 170.055C67.8998 167.555 60.9998 164.555 58.4998 165.855C57.3998 167.455 64.5998 171.555 69.4998 170.055Z" fill="#D3A62A"/>
<path d="M58.1001 170.455C58.1001 170.455 69.1001 143.855 83.2001 142.255C83.2001 142.255 81.4001 147.655 78.7001 149.955C69.8001 157.655 61.9001 172.955 60.5001 172.955C59.2001 173.055 58.1001 170.455 58.1001 170.455Z" fill="#C93C31"/>
<path d="M59.2002 172.155C59.6002 172.655 60.1002 172.955 60.6002 172.955C61.9002 172.855 68.6002 160.055 76.5002 151.955C69.2002 158.455 62.6002 167.955 59.2002 172.155Z" fill="#AF2D27"/>
<path d="M58.6002 165.855C60.3002 168.955 63.3002 170.155 69.5002 170.055L58.4002 178.255C58.4002 178.255 62.6002 181.555 60.5002 184.955C58.8002 187.655 50.8002 187.955 52.2002 181.955C54.4002 173.055 58.6002 165.855 58.6002 165.855Z" fill="#FCDE63"/>
<path d="M54.6998 182.755C56.2998 176.155 59.0998 170.455 60.3998 167.955C59.6998 167.355 59.0998 166.655 58.5998 165.755C58.5998 165.755 54.3998 172.955 52.1998 181.855C51.3998 185.155 53.4998 186.555 55.7998 186.655C54.7998 185.955 54.1998 184.755 54.6998 182.755Z" fill="#EAC23F"/>
<path d="M80.1001 143.155L92.7001 143.655L93.5001 141.055C87.1001 141.355 84.1001 141.555 80.1001 143.155Z" fill="#FFC673"/>
<path d="M77.5998 144.255L71.7998 138.955L89.7998 143.555L77.5998 144.255Z" fill="#FCDE63"/>
<path d="M102.9 227.655L106.6 223.355L108 211.455L102.2 213.455L102.9 227.655Z" fill="#FCDE63"/>
<path d="M67.5001 226.655L64.1001 223.155L68.0001 209.055L72.9001 213.455L67.5001 226.655Z" fill="#FCDE63"/>
<path d="M93.2002 137.655L95.5002 141.555L92.7002 143.655L93.2002 137.655Z" fill="#FCDE63"/>
<path d="M86.7002 165.455L91.6002 152.255L98.4002 164.155L86.7002 165.455Z" fill="#FCDE63"/>
<path d="M59.4 184.255C59.7 183.955 59.2 183.755 58.6 183.155C58 182.555 57.7 181.855 57.4 182.155C57.1 182.455 57.4 183.155 57.9 183.755C58.5 184.355 59.1 184.555 59.4 184.255Z" fill="#EAC23F"/>
<path opacity="0.5" d="M107.6 146.355C105 144.755 102.2 143.355 99.5 142.555C99.1 142.455 98.8 142.355 98.4 142.255H98.3C98.2 142.255 98.2 142.255 98.1 142.255C97.4 142.055 96.4 141.855 95.4 141.655L95.5 141.555L93.3 137.655L87.9 137.955L87.1 133.255L81.1 134.355L81.8 138.355L71.8 138.955L77.6 144.255C75.2 145.555 73 147.555 71 149.755C74.8 150.355 79.1 150.755 83.7 150.755C93.8 150.655 102.7 148.855 107.6 146.355Z" fill="#66493D"/>
<path d="M105.8 84.3551C111.8 84.7551 119.9 83.7551 123 74.1551C123 74.1551 111.6 77.2551 112.7 65.5551L105.8 84.3551Z" fill="#49241B"/>
<path d="M36.9 100.655L24.2 92.8551L20 104.755L35.8 102.955L36.9 100.655Z" fill="#AD2D27"/>
<path d="M35.1998 106.455L21.7998 113.155L29.7998 123.055L36.5998 108.655L35.1998 106.455Z" fill="#AD2D27"/>
<path d="M72.2 133.055C60.9 133.755 44.9 130.355 44.4 123.955C44.4 123.955 35 125.355 33 118.255C31 111.155 35.4 108.255 35.4 108.255L33.4 97.9551C33.4 97.9551 29.6 97.4551 30.7 100.655C31.8 103.855 16.5 94.0551 31.3 88.1551C31.3 88.1551 28.1 79.4551 34 77.2551C34 77.2551 17.8 73.6551 22.3 64.7551C26.8 55.8551 36.6 58.7551 36.6 58.7551C36.6 58.7551 33.3 51.4551 43.7 49.3551C54.2 47.2551 54.8 53.7551 54.8 53.7551C54.8 53.7551 56 46.6551 67 47.5551C67 47.5551 65.4 41.3551 73 42.0551C80.6 42.7551 84 46.8551 84 46.8551C84 46.8551 96 50.4551 93.7 43.8551C93.7 43.8551 130.9 35.3551 111.2 81.2551L72.2 133.055Z" fill="#49241B"/>
<path d="M80.1 103.755C60.3 103.755 42.6999 97.5551 31.1999 87.7551C31.2999 88.0551 31.2999 88.1551 31.2999 88.1551C16.4999 94.0551 31.7999 103.855 30.6999 100.655C29.5999 97.4551 33.4 97.9551 33.4 97.9551L35.4 108.255C35.4 108.255 30.9999 111.055 32.9999 118.255C34.9999 125.355 44.4 123.955 44.4 123.955C44.9 130.355 60.8999 133.755 72.1999 133.055L95.1999 102.555C90.3999 103.355 85.3 103.755 80.1 103.755Z" fill="#381913"/>
<path d="M63.1002 131.655C80.1002 139.355 111.9 137.555 116.5 110.455C119.9 90.355 100.2 40.255 56.5002 81.155C42.6002 94.155 57.6002 129.255 63.1002 131.655Z" fill="#FFC673"/>
<path d="M116.7 106.855L52.7998 107.555V110.055L116.5 110.155L116.7 106.855Z" fill="#DD9F4E"/>
<mask id="mask0" mask-type="alpha" maskUnits="userSpaceOnUse" x="50" y="65" width="67" height="71">
<path d="M63.1002 131.655C80.1002 139.355 111.9 137.555 116.5 110.455C119.9 90.355 100.2 40.255 56.5002 81.155C42.6002 94.155 57.6002 129.255 63.1002 131.655Z" fill="url(#paint0_linear)"/>
</mask>
<g mask="url(#mask0)">
<path opacity="0.3" d="M63.1002 131.655C80.1002 139.355 111.9 137.555 116.5 110.455C119.9 90.355 100.2 40.255 56.5002 81.155C42.6002 94.155 57.6002 129.255 63.1002 131.655Z" fill="url(#paint1_linear)"/>
<path d="M32.8999 100.855L116 92.4551L118 108.555L34.8999 109.255L32.8999 100.855Z" fill="#C93C31"/>
<path d="M51.8998 98.9551L32.7998 100.855L34.8998 109.255L54.2998 109.155C52.9998 105.855 52.1998 102.455 51.8998 98.9551Z" fill="#AD2D27"/>
<path d="M54.9001 109.855C50.9001 107.855 46.4001 105.955 44.7001 111.555C43.0001 117.155 50.9001 120.455 55.4001 118.955C60.0001 117.355 54.9001 109.855 54.9001 109.855Z" fill="#FFC673"/>
<path d="M66.1001 106.455C67.3001 103.155 70.9001 93.5551 86.5001 104.955L66.1001 106.455Z" fill="#FFECDE"/>
<path d="M112.6 104.055C110.7 101.155 105.1 92.8551 94.7002 104.255L112.6 104.055Z" fill="#FFECDE"/>
<path d="M104.9 104.055C106.447 104.055 107.7 102.801 107.7 101.255C107.7 99.7087 106.447 98.4551 104.9 98.4551C103.354 98.4551 102.1 99.7087 102.1 101.255C102.1 102.801 103.354 104.055 104.9 104.055Z" fill="#3A291E"/>
<path d="M74.7002 105.755C76.357 105.755 77.7002 104.412 77.7002 102.755C77.7002 101.098 76.357 99.7551 74.7002 99.7551C73.0433 99.7551 71.7002 101.098 71.7002 102.755C71.7002 104.412 73.0433 105.755 74.7002 105.755Z" fill="#3A291E"/>
<path d="M75.7 103.255C76.3627 103.255 76.9 102.718 76.9 102.055C76.9 101.392 76.3627 100.855 75.7 100.855C75.0373 100.855 74.5 101.392 74.5 102.055C74.5 102.718 75.0373 103.255 75.7 103.255Z" fill="#705241"/>
<path d="M106 101.755C106.607 101.755 107.1 101.263 107.1 100.655C107.1 100.048 106.607 99.5551 106 99.5551C105.392 99.5551 104.9 100.048 104.9 100.655C104.9 101.263 105.392 101.755 106 101.755Z" fill="#705241"/>
<path d="M91.2682 112.036C93.5697 111.747 95.3127 110.536 95.1613 109.33C95.0099 108.125 93.0215 107.382 90.72 107.671C88.4185 107.96 86.6755 109.171 86.8269 110.377C86.9782 111.582 88.9667 112.325 91.2682 112.036Z" fill="#DD9F4E"/>
<path d="M91.8109 111.049C93.7286 110.807 95.1824 109.811 95.0581 108.825C94.9337 107.839 93.2783 107.235 91.3605 107.477C89.4428 107.719 87.989 108.714 88.1134 109.701C88.2377 110.687 89.8932 111.29 91.8109 111.049Z" fill="#FFC673"/>
<path d="M64.8999 96.5551C66.7999 95.6551 75.6999 94.7551 77.6999 93.6551C79.5999 92.5551 77.1999 90.2551 77.1999 90.2551L64.8999 96.5551Z" fill="#49241B"/>
<path d="M110.9 90.5551C109.1 90.0551 101.5 91.0551 99.5999 90.4551C97.6999 89.8551 98.9999 87.0551 98.9999 87.0551L110.9 90.5551Z" fill="#49241B"/>
<path d="M53.4002 111.155C50.9002 109.855 48.1002 108.755 47.0002 112.155C45.9002 115.655 50.9002 117.755 53.7002 116.755C56.6002 115.955 53.4002 111.155 53.4002 111.155Z" fill="#DD9F4E"/>
<path d="M54.7999 113.455C53.6999 112.855 52.3999 112.355 51.9999 113.955C51.4999 115.455 53.6999 116.455 54.9999 116.055C56.1999 115.555 54.7999 113.455 54.7999 113.455Z" fill="#FFC673"/>
<path d="M81.8999 115.455L97.6999 115.255C97.6999 115.255 91.2999 132.555 81.8999 115.455Z" fill="#3F2B1A"/>
<path d="M83.5996 116.155L85.8996 119.355L93.9996 119.555L96.9996 115.655L83.5996 116.155Z" fill="#FFECDE"/>
<path d="M82.2788 116.258C82.7202 116.278 83.0903 116.026 83.1053 115.695C83.1204 115.364 82.7748 115.08 82.3334 115.06C81.892 115.039 81.522 115.292 81.5069 115.623C81.4918 115.954 81.8375 116.238 82.2788 116.258Z" fill="#3F2B1A"/>
<path d="M97.9821 116.057C98.4234 116.077 98.7934 115.825 98.8085 115.494C98.8235 115.163 98.4779 114.878 98.0365 114.858C97.5951 114.838 97.2251 115.09 97.2101 115.421C97.195 115.752 97.5407 116.037 97.9821 116.057Z" fill="#3F2B1A"/>
<path d="M71.2002 115.955C73.4093 115.955 75.2002 115.06 75.2002 113.955C75.2002 112.851 73.4093 111.955 71.2002 111.955C68.9911 111.955 67.2002 112.851 67.2002 113.955C67.2002 115.06 68.9911 115.955 71.2002 115.955Z" fill="#EFAC5E"/>
<path d="M106.7 115.855C108.909 115.855 110.7 114.96 110.7 113.855C110.7 112.751 108.909 111.855 106.7 111.855C104.491 111.855 102.7 112.751 102.7 113.855C102.7 114.96 104.491 115.855 106.7 115.855Z" fill="#EFAC5E"/>
<path d="M71 76.4552C75.2 78.6552 90.5 70.6552 84.7 63.6552L74.7 64.4552C74.6 64.4552 78.8 73.6552 71 76.4552Z" fill="#49241B"/>
</g>
<defs>
<linearGradient id="paint0_linear" x1="81.8582" y1="118.715" x2="79.2548" y2="142.144" gradientUnits="userSpaceOnUse">
<stop/>
<stop offset="1" stop-color="white"/>
</linearGradient>
<linearGradient id="paint1_linear" x1="81.8582" y1="118.715" x2="79.2548" y2="142.144" gradientUnits="userSpaceOnUse">
<stop stop-color="#E55C00"/>
<stop offset="1" stop-color="#B73400"/>
</linearGradient>
</defs>
</svg>
