<svg width="290" height="193" viewBox="0 0 290 193" fill="none" xmlns="http://www.w3.org/2000/svg">
<ellipse opacity="0.2" cx="145" cy="179.5" rx="145" ry="13.5" fill="#121212"/>
<path d="M58.9676 76.4292C56.086 80.0789 56.272 90.186 56.272 90.186L52.4608 87.7528C52.4608 87.7528 47.813 90.4668 47.4412 91.1218C47.0694 91.8705 45.6751 86.3491 43.9089 86.7234C42.2357 87.1913 37.4021 87.2849 37.4021 87.2849C37.4021 87.2849 34.6134 75.4933 32.6614 75.3062C30.8023 75.3062 58.9676 76.4292 58.9676 76.4292Z" fill="#A06733"/>
<path d="M75.142 71.9371C74.3054 76.5227 79.1391 85.3196 79.1391 85.3196L74.6772 84.9453C74.6772 84.9453 71.7956 89.5309 71.7956 90.2796C71.7956 91.0283 67.9844 86.9106 66.6831 88.0336C65.3817 89.1566 61.1058 91.5898 61.1058 91.5898C61.1058 91.5898 54.3201 85.694 52.5539 86.5362C50.8807 87.4721 75.142 71.9371 75.142 71.9371Z" fill="#A06733"/>
<path d="M90.6651 64.6376C90.6651 69.3168 96.9861 77.0842 96.9861 77.0842L92.5242 77.5522C92.5242 77.5522 90.4792 82.5121 90.6651 83.3544C90.851 84.103 86.2962 80.734 85.2737 82.1378C84.1583 83.5415 80.4401 86.6298 80.4401 86.6298C80.4401 86.6298 72.7248 82.1378 71.1446 83.1672C69.5643 84.1966 90.6651 64.6376 90.6651 64.6376Z" fill="#A06733"/>
<path d="M56.4061 81.4485L50.7427 81.1649L50.1239 93.6901L55.7873 93.9737L56.4061 81.4485Z" fill="#FABE82"/>
<path d="M49.1144 172.914C54.9706 169.732 69.4716 171.698 77.0939 164.96C84.6232 158.222 106.561 163.649 110 169.452C110 169.452 83.5078 87.0978 52.3678 89.9053C23.5518 80.7341 49.1144 172.914 49.1144 172.914Z" fill="#5E4882"/>
<path d="M52.2748 89.9052C48.6496 88.7822 45.8609 89.2501 43.8159 90.8411C44.3736 158.689 68.449 145.213 73.3756 167.299C74.677 166.644 75.8854 165.895 77.0008 164.96C84.5302 158.222 106.468 163.649 109.907 169.452C110 169.452 83.4147 87.0977 52.2748 89.9052Z" fill="#443366"/>
<path d="M48.4638 135.2C44.5597 124.999 37.4021 92.0577 41.771 90.0924C54.9706 87.6592 66.1252 93.7422 68.5421 98.6085C70.4941 102.633 71.3307 118.355 71.9814 125.748C72.0744 127.245 71.0518 128.649 69.4716 129.023C63.8943 130.614 51.4384 134.17 48.4638 135.2Z" fill="#529FCE"/>
<path d="M68.5422 98.6085C67.4268 96.2689 64.2663 93.7422 59.8974 91.8705C63.0579 93.555 65.2888 95.6138 66.2184 97.4855C68.1704 101.51 69.007 117.232 69.6577 124.625C69.7507 126.122 68.7282 127.526 67.1479 127.9C62.3143 129.304 52.461 132.112 47.9062 133.515C48.0922 134.077 48.2781 134.638 48.464 135.2C51.4385 134.17 63.8945 130.614 69.4718 129.023C71.052 128.555 72.0745 127.245 71.9816 125.748C71.3309 118.355 70.4943 102.539 68.5422 98.6085Z" fill="#317D9B"/>
<path d="M47.7202 132.486C49.4864 138.943 46.9766 145.775 61.5705 169.358L63.8944 168.984C63.8944 168.984 50.5089 141.657 62.0353 139.13C73.5617 136.604 81.4629 163.743 81.4629 163.743L83.9727 162.807L72.6322 127.152L47.7202 132.486Z" fill="#529FCE"/>
<path d="M61.9421 139.037C62.4069 138.943 62.9646 138.85 63.4293 138.85C62.3139 138.569 61.1984 138.475 60.083 138.756C48.5566 141.283 61.9421 168.609 61.9421 168.609L61.1984 168.703C61.2914 168.89 61.3844 168.984 61.4773 169.171L63.8012 168.797C63.8012 168.984 50.4157 141.657 61.9421 139.037Z" fill="#317D9B"/>
<path d="M72.6317 126.964L70.9585 127.339L82.0201 162.433L81.0906 162.807C81.2765 163.369 81.3695 163.649 81.3695 163.649L83.8792 162.714L72.6317 126.964Z" fill="#317D9B"/>
<path d="M53.2974 159.344L61.6633 154.665L69.0997 170.2C69.0997 170.2 71.7954 184.893 65.3815 183.957C58.9676 183.021 60.0831 171.042 60.0831 171.042L53.2974 159.344Z" fill="#B6E7FF"/>
<path d="M69.0997 170.107L61.6633 154.572L58.3169 156.443C60.176 158.409 62.0351 161.123 63.6153 164.211C67.6124 172.072 68.3561 179.839 65.1956 181.43C64.266 181.898 63.0576 181.805 61.7562 181.15C62.5928 182.46 63.7083 183.396 65.3815 183.676C71.7954 184.799 69.0997 170.107 69.0997 170.107Z" fill="#9AD7EF"/>
<path d="M82.1134 148.489L73.2827 151.858L80.6262 167.299C80.6262 167.299 90.2005 178.716 93.454 173.195C96.7074 167.673 86.7612 161.029 86.7612 161.029L82.1134 148.489Z" fill="#B6E7FF"/>
<path d="M86.7611 161.029L82.1133 148.489L77.8374 150.08C79.5106 152.513 81.1838 155.788 82.5781 159.532C84.4372 164.398 85.4597 168.984 85.6456 172.166C88.4343 174.412 91.7807 175.909 93.3609 173.101C96.7073 167.767 86.7611 161.029 86.7611 161.029Z" fill="#9AD7EF"/>
<path d="M73.0966 129.959L48.3706 134.732V137.914L73.0966 133.141V129.959Z" fill="#317D9B"/>
<path d="M44.2808 126.029L47.5342 137.165L74.4911 129.959L72.1673 119.571L44.2808 126.029Z" fill="#FFF16C"/>
<path d="M67.7982 123.408C68.5418 126.309 68.6348 129.117 68.17 131.644L74.398 129.959L72.0741 119.478L66.8687 120.694C67.2405 121.63 67.6123 122.472 67.7982 123.408Z" fill="#EAD74E"/>
<path d="M47.2555 128.555C46.9766 127.526 46.7907 126.497 46.6978 125.467L44.188 126.029L47.4414 137.165L50.8807 136.229C49.3005 134.17 47.9991 131.55 47.2555 128.555Z" fill="#EAD74E"/>
<path d="M61.0128 92.7128C63.7085 91.2154 91.7809 113.488 95.5921 116.296L94.6625 117.887C94.6625 117.887 63.4297 100.106 61.1058 100.667C61.0128 100.667 58.2242 94.2101 61.0128 92.7128Z" fill="#529FCE"/>
<path d="M66.4043 95.5202C66.8691 93.9293 63.3368 90.5603 55.1568 90.0924C48.371 89.718 42.8867 87.3784 42.4219 88.9694C41.9572 90.5603 46.9767 93.3678 53.5765 95.1459C60.2693 97.0176 65.9395 97.1112 66.4043 95.5202Z" fill="#317D9B"/>
<path d="M94.0118 115.079L93.5471 115.922C93.5471 115.922 77.8377 106.937 67.8915 101.978L67.7056 103.662C77.5588 108.528 94.6625 117.887 94.6625 117.887L95.5921 116.296C95.2202 116.015 94.6625 115.641 94.0118 115.079Z" fill="#317D9B"/>
<path d="M83.1359 102.913L79.3247 112.365L88.1554 120.226C87.04 120.32 88.1554 124.157 90.7582 126.029C94.8482 127.807 103.028 120.226 98.0087 115.641C92.9891 111.149 83.1359 102.913 83.1359 102.913Z" fill="#B6E7FF"/>
<path d="M92.4313 122.472C91.4088 122.098 90.2933 122.192 90.0144 122.847C89.7356 123.408 90.2933 124.251 91.4088 124.625C92.4313 124.999 93.5467 124.906 93.8256 124.251C94.1045 123.689 93.4538 122.847 92.4313 122.472Z" fill="#9AD7EF"/>
<path d="M98.0088 115.734C96.8933 114.705 95.592 113.582 94.1976 112.365C94.2906 113.395 94.3836 114.331 94.3836 115.454C94.3836 119.665 93.2681 123.502 91.502 126.403C95.7779 126.964 102.75 119.946 98.0088 115.734Z" fill="#9AD7EF"/>
<path d="M58.3171 131.924C60.3193 131.924 61.9424 130.29 61.9424 128.275C61.9424 126.259 60.3193 124.625 58.3171 124.625C56.315 124.625 54.6919 126.259 54.6919 128.275C54.6919 130.29 56.315 131.924 58.3171 131.924Z" fill="#317D9B"/>
<path d="M66.1253 94.2102C66.5901 92.6192 63.0578 89.531 54.8778 89.4374C48.0921 89.4374 42.7007 87.285 42.2359 88.9695C41.7711 90.5604 46.7907 93.0872 53.3905 94.4909C59.9903 95.9883 65.6606 95.8011 66.1253 94.2102Z" fill="#5E4882"/>
<path d="M41.3063 99.5444C41.3063 99.5444 17.8816 71.3756 15 67.8194L16.2084 66.4156C16.2084 66.4156 41.1203 90.6539 43.4442 90.5603L41.3063 99.5444Z" fill="#529FCE"/>
<path d="M19.4932 79.1218L25.0705 69.389L17.1694 60.7793C17.1694 60.7793 19.4932 54.6028 15.3103 52.1696C11.0343 49.7364 -0.02729 57.7846 4.89932 63.3061C9.73298 68.9211 19.4932 79.1218 19.4932 79.1218Z" fill="#B6E7FF"/>
<path d="M58.3169 130.801C59.703 130.801 60.8267 129.67 60.8267 128.275C60.8267 126.879 59.703 125.748 58.3169 125.748C56.9308 125.748 55.8071 126.879 55.8071 128.275C55.8071 129.67 56.9308 130.801 58.3169 130.801Z" fill="#FFF16C"/>
<path d="M59.4222 126.534L56.4341 127.233L56.7495 128.6L59.7376 127.902L59.4222 126.534Z" fill="#317D9B"/>
<path d="M59.0606 130.427L58.5029 127.713L58.0381 127.807L58.5958 130.614L59.0606 130.427Z" fill="#317D9B"/>
<path d="M56.2718 100.387C54.1339 100.387 52.1818 101.135 50.6016 102.352C51.81 101.79 53.2043 101.51 54.5986 101.51C59.6182 101.51 63.7082 105.066 63.7082 109.464C63.7082 113.863 59.6182 117.419 54.5986 117.419C53.1113 117.419 51.81 117.138 50.6016 116.577C52.1818 117.793 54.1339 118.542 56.2718 118.542C61.2914 118.542 65.3814 114.424 65.3814 109.371C65.2884 104.411 61.2914 100.387 56.2718 100.387Z" fill="#B6E7FF"/>
<path d="M54.4131 115.922C55.9003 115.922 57.2017 115.454 58.2242 114.518C57.3876 114.892 56.4581 115.079 55.4356 115.079C51.9962 115.079 49.2076 112.646 49.2076 109.651C49.2076 106.657 51.9962 104.224 55.4356 104.224C56.4581 104.224 57.3876 104.411 58.2242 104.785C57.2017 103.943 55.8074 103.381 54.4131 103.381C50.9737 103.381 48.1851 106.189 48.1851 109.651C48.1851 113.114 50.9737 115.922 54.4131 115.922Z" fill="#B6E7FF"/>
<path d="M56.4579 112.272C58.1007 112.272 59.4325 110.931 59.4325 109.277C59.4325 107.623 58.1007 106.282 56.4579 106.282C54.8151 106.282 53.4834 107.623 53.4834 109.277C53.4834 110.931 54.8151 112.272 56.4579 112.272Z" fill="#B6E7FF"/>
<path d="M86.9473 106.189L83.6009 102.446L77.187 112.833L81.6488 114.424L86.9473 106.189Z" fill="#9AD7EF"/>
<path d="M92.2454 124.063C91.13 123.876 90.1074 124.251 89.9215 124.906C89.7356 125.561 90.4793 126.216 91.5947 126.403C92.7102 126.59 93.7327 126.216 93.9186 125.561C94.1045 124.906 93.3609 124.251 92.2454 124.063Z" fill="#B6E7FF"/>
<path d="M91.688 121.537C90.8514 119.197 89.2712 117.606 88.3416 117.887C87.3191 118.168 87.2261 120.226 88.0627 122.566C88.8993 124.906 90.4796 126.497 91.4091 126.216C92.4316 125.935 92.6176 123.783 91.688 121.537Z" fill="#B6E7FF"/>
<path opacity="0.5" d="M56.644 97.2048C62.3143 98.2342 67.6127 98.7022 71.8887 98.6086C69.9366 96.8305 67.9846 95.2396 66.0325 93.9294C66.1255 92.3385 62.872 89.7181 55.9004 89.4374L56.1793 83.5416C54.2272 83.2608 52.3681 82.9801 50.602 82.8865L50.3231 89.063C45.7683 88.5015 42.5149 87.6593 42.236 88.8758C42.1431 89.1566 42.236 89.5309 42.5149 89.9053C42.4219 89.9053 42.329 89.9053 42.1431 89.9989C40.6558 88.9694 37.9601 86.7234 34.8926 84.0095C35.2644 87.8464 39.1685 94.023 56.644 97.2048Z" fill="#66493D"/>
<path d="M52.3677 18.6879C55.1563 12.0434 64.4518 7.17706 69.6573 11.8563C69.6573 11.8563 70.215 22.2441 71.9812 25.0516C73.7473 27.7655 52.3677 18.6879 52.3677 18.6879Z" fill="#5E4882"/>
<path d="M48.2781 85.2261C37.8671 83.1673 7.5638 69.6912 25.2252 33.5678C31.1744 21.3083 47.4415 11.482 70.7732 19.1558C84.6235 23.7415 99.3104 37.7791 90.8514 68.7553C86.1107 86.3491 61.0129 87.7529 48.2781 85.2261Z" fill="#FABE82"/>
<path d="M19.5549 47.5118C19.276 50.8808 19.4619 54.3434 20.0197 57.8996C24.0167 46.9503 71.1449 45.8273 90.8513 71.0949C90.8513 71.0949 92.4316 68.2874 93.9189 63.889C73.6547 40.8673 32.1968 39.37 19.5549 47.5118Z" fill="#EFA16C"/>
<mask id="mask0" mask-type="alpha" maskUnits="userSpaceOnUse" x="19" y="16" width="75" height="71">
<path d="M48.2781 85.2261C37.8671 83.1673 7.5638 69.6912 25.2252 33.5678C31.1744 21.3083 47.4415 11.482 70.7732 19.1558C84.6235 23.7415 99.3104 37.7791 90.8514 68.7553C86.1107 86.3491 61.0129 87.7529 48.2781 85.2261Z" fill="url(#paint0_linear)"/>
</mask>
<g mask="url(#mask0)">
<path opacity="0.3" d="M48.2781 85.2261C37.8671 83.1673 7.5638 69.6912 25.2252 33.5678C31.1744 21.3083 47.4415 11.482 70.7732 19.1558C84.6235 23.7415 99.3104 37.7791 90.8514 68.7553C86.1107 86.3491 61.0129 87.7529 48.2781 85.2261Z" fill="url(#paint1_linear)"/>
<path d="M20.1125 56.8702C24.1096 45.9209 71.6096 44.8914 91.409 70.1591C91.409 70.1591 110.465 37.4047 77.1869 19.1559C45.3963 1.65566 14.6282 24.6773 20.1125 56.8702Z" fill="#5E4882"/>
<path opacity="0.5" d="M91.409 70.159C91.409 70.159 104.237 48.0732 90.4795 30.1051C82.2065 30.3859 73.5617 39.8378 67.9844 54.0626C77.001 57.338 85.4599 62.4851 91.409 70.159Z" fill="#49386B"/>
<path d="M89.5501 28.8885C86.5756 25.4259 82.5785 22.0569 77.2801 19.1558C45.9543 1.93635 15.6509 24.0222 19.9268 55.4664C31.5462 31.696 59.2468 18.875 89.5501 28.8885Z" fill="#6B5791"/>
<path d="M89.2709 63.7017C96.0566 61.3621 98.2875 65.1055 97.358 69.2232C96.4284 73.3409 87.04 80.0789 82.2063 75.3061C77.0009 70.3462 83.1359 65.9478 89.2709 63.7017Z" fill="#FABE82"/>
<path d="M36.3799 54.2498L54.599 54.7177C54.599 54.7177 45.5824 76.5227 36.3799 54.2498Z" fill="#3F2B1A"/>
<path d="M37.4023 54.7177L39.8192 58.5546L50.2302 59.8648L53.1118 54.9048L37.4023 54.7177Z" fill="#FFECDE"/>
<path d="M27.7347 47.9797C26.0615 47.3246 27.9206 38.7149 30.3374 37.2175C36.5654 33.287 42.5145 36.7496 42.4216 42.8326C42.3286 44.3299 32.1035 49.8514 27.7347 47.9797Z" fill="#FFECDE"/>
<path d="M63.8941 48.5412C65.6602 47.8861 63.6152 39.0892 60.8266 37.6855C53.3902 34.0357 47.534 37.7791 48.2776 43.0198C48.4635 44.6107 58.9675 50.4129 63.8941 48.5412Z" fill="#FFECDE"/>
<path d="M44.0955 51.0146C45.9416 51.4646 47.6438 50.9742 47.8975 49.9193C48.1511 48.8644 46.8602 47.6445 45.0141 47.1945C43.168 46.7445 41.4657 47.2349 41.2121 48.2898C40.9584 49.3447 42.2493 50.5646 44.0955 51.0146Z" fill="#EFA460"/>
<path d="M43.763 49.8286C45.1102 50.1572 46.3493 49.8128 46.5306 49.0593C46.712 48.3058 45.7669 47.4286 44.4197 47.0999C43.0726 46.7713 41.8335 47.1157 41.6521 47.8692C41.4708 48.6227 42.4158 49.4999 43.763 49.8286Z" fill="#FABE82"/>
<path d="M37.8667 40.4929C38.0526 38.5276 36.4724 37.0303 34.3344 37.0303C32.1965 37.0303 30.2444 38.6212 29.9655 40.4929C29.7796 42.4581 31.3599 43.9555 33.4978 43.9555C35.6358 43.9555 37.5879 42.3646 37.8667 40.4929Z" fill="#8E615C"/>
<path d="M35.2643 38.7148C35.3572 37.9662 34.7995 37.4047 33.9629 37.4047C33.1263 37.4047 32.4756 37.9662 32.3827 38.7148C32.2897 39.4635 32.8474 40.025 33.684 40.025C34.5206 40.025 35.1713 39.3699 35.2643 38.7148Z" fill="#C69B9B"/>
<path d="M58.3169 42.0839C58.9676 40.493 58.0381 38.8085 56.179 38.247C54.3199 37.6855 52.2749 38.5277 51.5312 40.1186C50.8806 41.7096 51.8101 43.3941 53.6692 43.9556C55.5283 44.4235 57.5733 43.6748 58.3169 42.0839Z" fill="#8E615C"/>
<path d="M55.8072 39.7443C55.9002 38.9956 55.3425 38.4341 54.5059 38.4341C53.6693 38.4341 53.0186 38.9956 52.9256 39.7443C52.8327 40.4929 53.3904 41.0544 54.227 41.0544C55.0636 41.0544 55.8072 40.4929 55.8072 39.7443Z" fill="#C69B9B"/>
<path d="M89.1779 65.8542C93.4538 64.3569 94.8481 66.6965 94.2904 69.4104C93.7327 72.0308 87.6906 76.3356 84.6231 73.3409C81.3697 70.1591 85.2738 67.3516 89.1779 65.8542Z" fill="#EFA16C"/>
<path d="M85.274 70.3462C87.412 69.5975 88.0627 70.8141 87.7838 72.1243C87.5049 73.4345 84.5304 75.5869 83.0431 74.0896C81.3699 72.4986 83.322 71.0949 85.274 70.3462Z" fill="#FABE82"/>
<path d="M65.3216 60.6031C68.531 61.5229 71.4519 61.1403 71.8454 59.7484C72.239 58.3565 69.9563 56.4824 66.7468 55.5626C63.5373 54.6428 60.6165 55.0254 60.2229 56.4173C59.8293 57.8092 62.1121 59.6833 65.3216 60.6031Z" fill="#EFA16C"/>
<path d="M29.0283 58.6792C32.152 57.4976 34.2744 55.4416 33.7689 54.0869C33.2633 52.7322 30.3212 52.5918 27.1975 53.7733C24.0738 54.9549 21.9513 57.0109 22.4569 58.3656C22.9624 59.7203 25.9045 59.8607 29.0283 58.6792Z" fill="#EFA16C"/>
<path d="M54.599 55.6535C55.1124 55.6535 55.5285 55.2764 55.5285 54.8112C55.5285 54.3461 55.1124 53.969 54.599 53.969C54.0856 53.969 53.6694 54.3461 53.6694 54.8112C53.6694 55.2764 54.0856 55.6535 54.599 55.6535Z" fill="#3F2B1A"/>
<path d="M36.3797 55.1856C36.8931 55.1856 37.3093 54.8085 37.3093 54.3434C37.3093 53.8782 36.8931 53.5011 36.3797 53.5011C35.8664 53.5011 35.4502 53.8782 35.4502 54.3434C35.4502 54.8085 35.8664 55.1856 36.3797 55.1856Z" fill="#3F2B1A"/>
<path d="M48.5566 23.9285C54.6917 13.5407 61.2915 9.04869 69.6574 11.5755C59.2465 5.21175 52.4607 15.506 48.5566 23.9285Z" fill="#8776B2"/>
<path d="M66.0322 38.0597C66.311 37.4982 65.1026 35.3458 62.6858 34.0356C60.269 32.7255 57.6662 32.7255 57.3874 33.287C57.1085 33.8485 59.2465 34.6907 61.6633 36.0009C64.0801 37.2175 65.7533 38.5277 66.0322 38.0597Z" fill="#6B5791"/>
<path d="M36.4725 32.6319C36.2866 32.0704 33.7768 31.6025 31.267 32.6319C28.7572 33.6614 27.084 35.6266 27.2699 36.2817C27.4558 36.8432 29.5009 35.7202 32.0106 34.7844C34.5204 33.6614 36.6584 33.1934 36.4725 32.6319Z" fill="#8776B2"/>
</g>
<path d="M178.559 99.8969C160.159 77.1969 140.459 16.5969 185.459 15.7969C196.959 -17.5031 287.659 -1.70306 231.559 97.3969L178.559 99.8969Z" fill="#F78B2B"/>
<path d="M238.759 30.6969C235.559 50.0969 220.359 64.8969 201.959 64.8969C187.059 64.8969 174.259 55.1969 168.159 41.1969C167.059 60.7969 175.759 86.7969 184.059 99.9969L225.359 97.4969C238.359 68.2969 241.259 46.2969 238.759 30.6969Z" fill="#E56C1A"/>
<path d="M200.459 91.3969L194.359 85.3969L213.659 83.6969L209.459 90.4969L200.459 91.3969Z" fill="#77C6E5"/>
<path d="M200.959 88.697V77.397C206.459 77.897 206.459 77.897 206.459 77.897L207.559 89.197L200.959 88.697Z" fill="#FFCB9C"/>
<path d="M241.559 120.897C237.859 115.197 221.059 87.5969 210.659 86.7969L211.059 93.0969C211.059 93.0969 224.159 98.5969 239.959 122.597L241.559 120.897Z" fill="#529FCE"/>
<path d="M240.059 118.497L238.759 119.897C225.459 99.697 214.159 92.197 210.859 90.397L210.959 93.097C210.959 93.097 224.059 98.597 239.859 122.597L241.459 120.797C241.159 120.297 240.659 119.497 240.059 118.497Z" fill="#418BAF"/>
<path d="M236.459 103.897L227.859 110.797C227.859 110.797 234.059 131.097 244.459 126.997C254.959 122.897 248.959 112.597 242.459 114.197L236.459 103.897Z" fill="#8AD8FF"/>
<path d="M173.259 125.897C176.459 119.797 190.559 90.0969 201.059 88.2969L201.159 95.0969C201.159 95.0969 188.459 101.997 175.059 127.497L173.259 125.897Z" fill="#529FCE"/>
<path d="M175.859 125.197L174.259 123.897C173.859 124.697 173.459 125.397 173.259 125.897L175.059 127.497C188.459 101.897 201.159 95.097 201.159 95.097L200.959 92.397C198.059 94.297 187.359 103.397 175.859 125.197Z" fill="#418BAF"/>
<path d="M196.259 127.697C195.459 120.497 192.259 90.4969 199.459 88.6969C206.559 86.7969 212.859 85.6969 214.259 88.6969C215.559 91.6969 221.859 120.497 219.759 126.597C217.559 132.597 196.259 127.697 196.259 127.697Z" fill="#529FCE"/>
<path d="M215.16 96.4969C216.86 105.697 218.86 119.797 218.86 127.797C219.26 127.497 219.56 127.097 219.66 126.597C221.36 122.097 218.16 104.297 215.96 95.1969C215.46 92.5969 214.56 93.0969 215.16 96.4969Z" fill="#418BAF"/>
<path d="M207.359 168.397C203.259 159.297 191.059 134.597 196.059 113.797C196.059 113.797 217.459 114.697 218.559 115.397C219.659 116.097 224.059 148.097 215.559 170.197L214.459 169.997C214.459 169.997 221.459 133.097 208.959 132.897C196.759 132.697 209.259 168.097 209.259 168.097L207.359 168.397Z" fill="#529FCE"/>
<path d="M219.86 124.697H195.06V126.297H219.86V124.697Z" fill="#418BAF"/>
<path d="M218.559 115.397C218.459 115.297 218.259 115.297 217.959 115.197C219.359 122.097 221.559 147.297 215.059 166.297C214.759 168.597 214.459 169.997 214.459 169.997L215.559 170.197C223.959 148.097 219.559 116.097 218.559 115.397Z" fill="#418BAF"/>
<path d="M208.96 132.897C210.76 132.897 212.26 133.797 213.26 135.197C212.16 132.597 210.36 130.997 207.76 130.897C195.56 130.697 208.06 166.097 208.06 166.097L206.36 166.297C206.66 166.997 207.06 167.697 207.26 168.297L209.16 168.097C209.26 168.097 196.66 132.697 208.96 132.897Z" fill="#418BAF"/>
<path d="M207.359 167.597C205.559 170.297 205.959 175.697 205.959 175.697C205.959 175.697 209.959 169.097 209.159 167.897C208.259 166.697 207.359 167.597 207.359 167.597Z" fill="#8AD8FF"/>
<path d="M216.659 168.897C218.859 171.597 218.359 176.997 218.359 176.997C218.359 176.997 213.359 170.397 214.459 169.197C215.559 167.897 216.659 168.897 216.659 168.897Z" fill="#8AD8FF"/>
<path d="M206.359 157.997L203.159 158.797L207.059 169.597L209.459 168.197L206.359 157.997Z" fill="#8AD8FF"/>
<path d="M215.959 159.397L218.459 160.197L217.359 170.197L214.459 169.597L215.959 159.397Z" fill="#8AD8FF"/>
<path d="M197.959 88.8969L205.659 94.8969L211.959 86.7969C211.959 86.7969 205.859 84.9969 197.959 88.8969Z" fill="#77C6E5"/>
<path d="M198.459 104.497L205.859 111.097L214.159 101.297L205.359 107.197L198.459 104.497Z" fill="#9FE8FF"/>
<path d="M201.659 111.097L206.659 116.497L210.159 110.097L206.359 113.897L201.659 111.097Z" fill="#9FE8FF"/>
<path opacity="0.5" d="M221.96 94.297C218.36 90.597 214.86 87.797 211.76 87.097L211.96 86.897C211.96 86.897 211.86 86.897 211.76 86.897L213.66 83.897L207.06 84.497L206.86 82.397C206.26 82.397 205.66 82.397 205.06 82.397C203.66 82.397 202.26 82.397 200.96 82.497V84.997L194.36 85.597L197.96 89.097L198.16 89.297L198.36 89.497C198.26 89.597 198.16 89.597 198.16 89.697C196.16 90.897 194.06 92.797 192.06 95.197C195.96 95.797 200.36 96.097 205.16 96.097C211.56 95.897 217.46 95.297 221.96 94.297Z" fill="#66493D"/>
<path d="M167.06 45.2969C167.16 56.9969 176.76 83.3969 201.86 83.9969C226.66 84.5969 237.56 56.7969 237.36 45.2969C237.16 38.5969 233.76 16.3969 203.06 17.2969C177.66 18.0969 167.06 33.5969 167.06 45.2969Z" fill="#FFCB9C"/>
<mask id="mask1" mask-type="alpha" maskUnits="userSpaceOnUse" x="167" y="17" width="71" height="68">
<path d="M167.06 45.2969C167.16 56.9969 176.76 83.3969 201.86 83.9969C226.66 84.5969 237.56 56.7969 237.36 45.2969C237.16 38.5969 233.76 16.3969 203.06 17.2969C177.66 18.0969 167.06 33.5969 167.06 45.2969Z" fill="url(#paint2_linear)"/>
</mask>
<g mask="url(#mask1)">
<path opacity="0.3" d="M167.06 45.2969C167.16 56.9969 176.76 83.3969 201.86 83.9969C226.66 84.5969 237.56 56.7969 237.36 45.2969C237.16 38.5969 233.76 16.3969 203.06 17.2969C177.66 18.0969 167.06 33.5969 167.06 45.2969Z" fill="url(#paint3_linear)"/>
<path d="M187.859 19.2969C196.159 22.2969 196.059 28.2969 205.059 27.2969C214.059 26.2969 217.259 25.4969 222.259 26.5969C222.259 26.5969 216.959 23.7969 207.759 25.5969C198.559 27.3969 192.959 16.0969 190.459 16.7969C187.959 17.4969 187.859 19.2969 187.859 19.2969Z" fill="#F78B2B"/>
<path d="M190.959 15.9969C199.559 18.0969 200.059 23.9969 208.859 22.0969C217.659 20.0969 220.759 18.8969 225.859 19.4969C225.859 19.4969 220.259 17.2969 211.359 20.0969C202.459 22.8969 195.559 12.2969 193.159 13.1969C190.759 14.1969 190.959 15.9969 190.959 15.9969Z" fill="#F78B2B"/>
<path opacity="0.5" d="M219.659 68.697C219.935 68.697 220.159 68.5179 220.159 68.297C220.159 68.0761 219.935 67.897 219.659 67.897C219.383 67.897 219.159 68.0761 219.159 68.297C219.159 68.5179 219.383 68.697 219.659 68.697Z" fill="#DD7F33"/>
<path opacity="0.5" d="M222.059 65.2969C222.335 65.2969 222.559 65.1179 222.559 64.8969C222.559 64.676 222.335 64.4969 222.059 64.4969C221.783 64.4969 221.559 64.676 221.559 64.8969C221.559 65.1179 221.783 65.2969 222.059 65.2969Z" fill="#DD7F33"/>
<path opacity="0.5" d="M219.959 63.7969C220.236 63.7969 220.459 63.6179 220.459 63.3969C220.459 63.176 220.236 62.9969 219.959 62.9969C219.683 62.9969 219.459 63.176 219.459 63.3969C219.459 63.6179 219.683 63.7969 219.959 63.7969Z" fill="#DD7F33"/>
<path opacity="0.5" d="M198.259 61.9969C198.535 61.9969 198.759 61.8178 198.759 61.5969C198.759 61.376 198.535 61.1969 198.259 61.1969C197.983 61.1969 197.759 61.376 197.759 61.5969C197.759 61.8178 197.983 61.9969 198.259 61.9969Z" fill="#DD7F33"/>
<path opacity="0.5" d="M192.659 69.9969C192.935 69.9969 193.159 69.8178 193.159 69.5969C193.159 69.376 192.935 69.1969 192.659 69.1969C192.383 69.1969 192.159 69.376 192.159 69.5969C192.159 69.8178 192.383 69.9969 192.659 69.9969Z" fill="#DD7F33"/>
<path opacity="0.5" d="M188.659 68.4969C188.935 68.4969 189.159 68.3178 189.159 68.0969C189.159 67.876 188.935 67.6969 188.659 67.6969C188.383 67.6969 188.159 67.876 188.159 68.0969C188.159 68.3178 188.383 68.4969 188.659 68.4969Z" fill="#DD7F33"/>
<path opacity="0.5" d="M191.859 67.4969C192.136 67.4969 192.359 67.3178 192.359 67.0969C192.359 66.876 192.136 66.6969 191.859 66.6969C191.583 66.6969 191.359 66.876 191.359 67.0969C191.359 67.3178 191.583 67.4969 191.859 67.4969Z" fill="#DD7F33"/>
<path opacity="0.5" d="M190.659 64.3969C190.935 64.3969 191.159 64.2178 191.159 63.9969C191.159 63.776 190.935 63.5969 190.659 63.5969C190.383 63.5969 190.159 63.776 190.159 63.9969C190.159 64.2178 190.383 64.3969 190.659 64.3969Z" fill="#DD7F33"/>
<path opacity="0.5" d="M193.859 65.0969C194.136 65.0969 194.359 64.9178 194.359 64.6969C194.359 64.476 194.136 64.2969 193.859 64.2969C193.583 64.2969 193.359 64.476 193.359 64.6969C193.359 64.9178 193.583 65.0969 193.859 65.0969Z" fill="#DD7F33"/>
<path opacity="0.5" d="M184.759 65.7969C185.035 65.7969 185.259 65.6179 185.259 65.3969C185.259 65.176 185.035 64.9969 184.759 64.9969C184.483 64.9969 184.259 65.176 184.259 65.3969C184.259 65.6179 184.483 65.7969 184.759 65.7969Z" fill="#DD7F33"/>
<path opacity="0.5" d="M216.359 64.7969C216.636 64.7969 216.859 64.6179 216.859 64.3969C216.859 64.176 216.636 63.9969 216.359 63.9969C216.083 63.9969 215.859 64.176 215.859 64.3969C215.859 64.6179 216.083 64.7969 216.359 64.7969Z" fill="#DD7F33"/>
<path opacity="0.5" d="M215.259 67.2969C215.535 67.2969 215.759 67.1179 215.759 66.8969C215.759 66.676 215.535 66.4969 215.259 66.4969C214.983 66.4969 214.759 66.676 214.759 66.8969C214.759 67.1179 214.983 67.2969 215.259 67.2969Z" fill="#DD7F33"/>
<path opacity="0.5" d="M212.659 62.697C212.935 62.697 213.159 62.5179 213.159 62.297C213.159 62.0761 212.935 61.897 212.659 61.897C212.383 61.897 212.159 62.0761 212.159 62.297C212.159 62.5179 212.383 62.697 212.659 62.697Z" fill="#DD7F33"/>
<path d="M238.059 33.0969C230.759 25.9969 217.659 24.6969 212.359 30.6969C206.659 36.7969 198.559 37.1969 192.359 30.6969C192.159 30.4969 192.059 30.3969 191.859 30.2969C185.959 24.9969 173.159 28.0969 166.959 36.1969C160.759 44.2969 171.159 63.1969 174.759 63.8969C181.259 65.0969 197.459 63.2969 199.959 57.9969C203.359 50.9969 206.359 54.1969 208.859 58.2969C211.959 63.2969 227.759 63.7969 234.159 61.5969C237.659 60.3969 245.459 40.1969 238.059 33.0969Z" fill="#4290B7"/>
<path d="M172.76 32.897C172.76 32.897 162.26 26.297 160.56 27.797C158.86 29.297 164.16 36.497 164.16 36.497C164.16 36.497 159.46 33.397 157.66 35.497C155.76 37.597 162.56 43.297 162.56 43.297C162.56 43.297 157.56 41.597 156.26 43.997C154.96 46.397 167.86 54.697 167.86 54.697L172.76 32.897Z" fill="#4290B7"/>
<path d="M229.259 29.3969C229.259 29.3969 238.959 19.3969 241.159 20.2969C243.359 21.1969 239.459 30.1969 239.459 30.1969C239.459 30.1969 243.759 25.4969 246.259 27.0969C248.859 28.5969 242.859 36.4969 242.859 36.4969C242.859 36.4969 247.859 33.0969 249.959 35.0969C252.059 37.0969 240.059 49.5969 240.059 49.5969L229.259 29.3969Z" fill="#4290B7"/>
<path d="M223.659 37.0969C214.159 37.0969 206.459 43.9969 206.459 52.3969C206.459 53.4969 206.559 54.5969 206.859 55.5969C207.559 56.3969 208.159 57.2969 208.759 58.2969C211.859 63.2969 227.659 63.7969 234.059 61.5969C235.859 60.9969 238.859 55.1969 240.259 48.7969C238.559 42.0969 231.759 37.0969 223.659 37.0969Z" fill="#5BB4D8"/>
<path d="M181.959 38.6969C191.559 37.4969 200.559 43.3969 201.859 51.6969C202.059 52.7969 202.059 53.897 201.959 54.897C201.359 55.697 200.859 56.697 200.459 57.797C198.159 63.097 182.059 65.5969 175.259 64.1969C173.259 63.7969 169.359 58.497 166.859 52.297C167.659 45.397 173.659 39.6969 181.959 38.6969Z" fill="#5BB4D8"/>
<path d="M171.965 70.7487C173.324 69.9016 173.36 67.505 172.046 65.3957C170.731 63.2864 168.564 62.2633 167.204 63.1104C165.845 63.9575 165.809 66.3541 167.123 68.4633C168.438 70.5726 170.605 71.5957 171.965 70.7487Z" fill="#FFCB9C"/>
<path d="M171.785 69.6278C172.77 69.0144 172.81 67.3012 171.875 65.8012C170.94 64.3013 169.385 63.5827 168.4 64.1961C167.416 64.8095 167.376 66.5227 168.311 68.0226C169.245 69.5225 170.801 70.2412 171.785 69.6278Z" fill="#EFA460"/>
<path d="M171.945 67.6822C172.46 67.3609 172.476 66.4544 171.979 65.6576C171.483 64.8608 170.662 64.4753 170.146 64.7966C169.631 65.1179 169.615 66.0244 170.112 66.8212C170.609 67.618 171.429 68.0035 171.945 67.6822Z" fill="#FFCB9C"/>
<path d="M238.559 67.0969C239.959 65.3969 240.159 63.0969 238.859 61.9969C237.559 60.8969 235.359 61.4969 233.959 63.1969C232.559 64.8969 232.359 67.1969 233.659 68.2969C234.959 69.3969 237.159 68.8969 238.559 67.0969Z" fill="#FFCB9C"/>
<path d="M237.66 66.4969C238.66 65.2969 238.76 63.6969 237.86 62.9969C236.96 62.2969 235.46 62.6969 234.46 63.8969C233.46 65.0969 233.36 66.6969 234.26 67.3969C235.06 68.0969 236.66 67.6969 237.66 66.4969Z" fill="#EFA460"/>
<path d="M233.511 65.8607C233.978 66.2489 234.786 66.0471 235.315 65.4098C235.845 64.7726 235.895 63.9413 235.428 63.5531C234.96 63.1649 234.152 63.3668 233.623 64.004C233.094 64.6412 233.043 65.4725 233.511 65.8607Z" fill="#FFCB9C"/>
<path d="M231.959 31.197C231.959 31.197 232.859 18.797 230.659 17.997C228.559 17.197 224.659 25.297 224.659 25.297C224.659 25.297 225.259 19.697 222.459 18.997C219.659 18.397 217.859 26.997 217.859 26.997C217.859 26.997 217.059 21.797 214.259 21.697C211.459 21.697 210.259 36.997 210.259 36.997L231.959 31.197Z" fill="#4290B7"/>
<path d="M169.859 34.3969C169.859 34.3969 165.559 21.0969 167.459 19.5969C169.359 18.0969 175.459 25.7969 175.459 25.7969C175.459 25.7969 173.359 19.7969 175.859 18.2969C178.459 16.7969 182.559 25.6969 182.559 25.6969C182.559 25.6969 181.959 19.6969 184.659 18.7969C187.359 17.8969 192.759 34.2969 192.759 34.2969L169.859 34.3969Z" fill="#4290B7"/>
<path d="M210.859 58.0969C212.659 60.5969 224.959 62.1969 228.559 59.6969C231.059 54.8969 230.359 44.0969 222.059 42.5969C217.359 41.7969 208.459 48.2969 210.859 58.0969Z" fill="#317793"/>
<path d="M211.16 58.2969C212.86 60.6969 224.56 62.1969 228.06 59.7969C230.36 55.1969 229.76 44.8969 221.96 43.5969C217.26 42.6969 208.86 48.7969 211.16 58.2969Z" fill="#FFECDE"/>
<path d="M180.96 61.3969C183.46 63.1969 195.66 60.6969 198.26 57.0969C199.06 51.6969 194.86 41.6969 186.66 43.0969C181.76 43.8969 175.46 52.8969 180.96 61.3969Z" fill="#317793"/>
<path d="M181.06 61.4969C183.46 63.1969 195.16 60.7969 197.66 57.3969C198.46 52.3969 194.46 42.9969 186.46 44.2969C181.96 45.0969 175.76 53.4969 181.06 61.4969Z" fill="#FFECDE"/>
<path d="M197.56 66.1969L210.26 65.9969C210.26 65.9969 203.76 83.1969 197.56 66.1969Z" fill="#4C311B"/>
<path d="M198.56 66.8969L200.36 70.1969L207.06 70.0969L209.06 66.5969L198.56 66.8969Z" fill="#FFEFE9"/>
<path d="M204.059 63.6969C206.048 63.6969 207.659 62.7568 207.659 61.597C207.659 60.4372 206.048 59.4969 204.059 59.4969C202.071 59.4969 200.459 60.4372 200.459 61.597C200.459 62.7568 202.071 63.6969 204.059 63.6969Z" fill="#EFA460"/>
<path d="M203.96 62.597C205.837 62.597 207.36 61.8806 207.36 60.997C207.36 60.1133 205.837 59.397 203.96 59.397C202.082 59.397 200.56 60.1133 200.56 60.997C200.56 61.8806 202.082 62.597 203.96 62.597Z" fill="#FFCB9C"/>
<path opacity="0.5" d="M204.859 58.397C205.136 58.397 205.359 58.1731 205.359 57.897C205.359 57.6208 205.136 57.397 204.859 57.397C204.583 57.397 204.359 57.6208 204.359 57.897C204.359 58.1731 204.583 58.397 204.859 58.397Z" fill="#DD7F33"/>
<path opacity="0.5" d="M202.56 57.897C202.836 57.897 203.06 57.6731 203.06 57.397C203.06 57.1208 202.836 56.897 202.56 56.897C202.283 56.897 202.06 57.1208 202.06 57.397C202.06 57.6731 202.283 57.897 202.56 57.897Z" fill="#DD7F33"/>
<path opacity="0.5" d="M204.659 55.2969C204.935 55.2969 205.159 55.073 205.159 54.7969C205.159 54.5207 204.935 54.2969 204.659 54.2969C204.383 54.2969 204.159 54.5207 204.159 54.7969C204.159 55.073 204.383 55.2969 204.659 55.2969Z" fill="#DD7F33"/>
<path d="M217.959 60.0969C220.334 60.0969 222.259 58.0822 222.259 55.5969C222.259 53.1116 220.334 51.0969 217.959 51.0969C215.584 51.0969 213.659 53.1116 213.659 55.5969C213.659 58.0822 215.584 60.0969 217.959 60.0969Z" fill="#535E27"/>
<path d="M189.959 60.0969C192.334 60.0969 194.259 58.0822 194.259 55.5969C194.259 53.1116 192.334 51.0969 189.959 51.0969C187.584 51.0969 185.659 53.1116 185.659 55.5969C185.659 58.0822 187.584 60.0969 189.959 60.0969Z" fill="#535E27"/>
<path d="M191.159 56.1969C191.932 56.1969 192.559 55.5253 192.559 54.6969C192.559 53.8685 191.932 53.1969 191.159 53.1969C190.386 53.1969 189.759 53.8685 189.759 54.6969C189.759 55.5253 190.386 56.1969 191.159 56.1969Z" fill="#869B2F"/>
<path d="M219.059 55.7969C219.777 55.7969 220.359 55.2149 220.359 54.4969C220.359 53.7789 219.777 53.1969 219.059 53.1969C218.341 53.1969 217.759 53.7789 217.759 54.4969C217.759 55.2149 218.341 55.7969 219.059 55.7969Z" fill="#869B2F"/>
<path d="M170.343 21.9097C169.962 21.237 169.186 20.9566 168.609 21.2834C168.033 21.6102 167.874 22.4205 168.255 23.0932C168.637 23.7658 169.413 24.0462 169.99 23.7194C170.566 23.3926 170.725 22.5824 170.343 21.9097Z" fill="#5BB4D8"/>
<path d="M178.311 20.6697C177.985 19.7895 177.132 19.294 176.407 19.563C175.683 19.832 175.36 20.7636 175.686 21.6438C176.013 22.524 176.865 23.0195 177.59 22.7505C178.315 22.4815 178.638 21.5499 178.311 20.6697Z" fill="#5BB4D8"/>
<path d="M223.666 22.7087C223.866 21.7912 223.415 20.9144 222.659 20.7502C221.904 20.5861 221.13 21.1968 220.93 22.1143C220.731 23.0318 221.182 23.9086 221.937 24.0727C222.693 24.2369 223.467 23.6262 223.666 22.7087Z" fill="#5BB4D8"/>
<path d="M230.852 21.4348C231.052 20.5173 230.601 19.6404 229.845 19.4762C229.09 19.312 228.315 19.9226 228.116 20.8401C227.917 21.7576 228.367 22.6345 229.123 22.7987C229.879 22.9629 230.653 22.3523 230.852 21.4348Z" fill="#5BB4D8"/>
<path d="M240.352 23.9348C240.552 23.0173 240.101 22.1404 239.345 21.9762C238.59 21.812 237.815 22.4226 237.616 23.3401C237.417 24.2576 237.867 25.1345 238.623 25.2987C239.379 25.4629 240.153 24.8523 240.352 23.9348Z" fill="#5BB4D8"/>
<path d="M184.859 20.2969C184.259 20.3969 183.859 21.0969 183.959 21.7969C184.059 22.4969 184.659 22.9969 185.259 22.8969C185.859 22.7969 186.259 22.0969 186.159 21.3969C186.059 20.6969 185.459 20.1969 184.859 20.2969Z" fill="#5BB4D8"/>
<path d="M214.659 23.597C214.059 23.697 213.659 24.397 213.759 25.097C213.859 25.797 214.459 26.2969 215.059 26.1969C215.659 26.0969 216.059 25.3969 215.959 24.6969C215.859 23.9969 215.259 23.497 214.659 23.597Z" fill="#5BB4D8"/>
<path d="M220.159 40.097C222.659 40.097 227.559 40.897 229.459 44.497L230.959 43.597C227.759 39.697 225.259 39.297 220.159 40.097Z" fill="#418BAF"/>
<path d="M187.159 41.197C184.659 41.197 179.759 41.997 177.859 45.597L176.359 44.697C179.659 40.797 182.159 40.397 187.159 41.197Z" fill="#418BAF"/>
<path opacity="0.5" d="M221.308 67.3749C223.8 67.8709 225.986 67.4385 226.191 66.4094C226.395 65.3802 224.541 64.1438 222.05 63.6479C219.558 63.152 217.372 63.5843 217.167 64.6135C216.962 65.6427 218.816 66.879 221.308 67.3749Z" fill="#DD7F33"/>
<path opacity="0.5" d="M185.796 68.7703C188.315 68.4446 190.249 67.337 190.114 66.2963C189.98 65.2557 187.828 64.6761 185.309 65.0018C182.789 65.3275 180.856 66.4351 180.991 67.4758C181.125 68.5164 183.277 69.096 185.796 68.7703Z" fill="#DD7F33"/>
</g>
<path d="M137.776 84.548H131.576V98.948H137.776V84.548Z" fill="#AA6F48"/>
<path d="M111.776 174.348C102.176 152.948 96.9762 134.348 132.476 138.348C144.676 139.648 148.176 138.748 154.776 143.148C161.376 147.548 189.276 179.848 189.276 179.848L187.076 180.048C187.076 180.048 159.176 149.748 145.176 147.948C131.176 146.248 112.876 142.748 110.276 152.348C108.176 159.948 114.376 174.448 114.376 174.448H111.776V174.348Z" fill="#6A9342"/>
<path d="M186.976 177.148L185.876 177.248C185.876 177.248 159.576 147.648 145.576 145.948C131.576 144.248 111.676 139.948 109.076 149.548C106.976 157.148 113.176 171.648 113.176 171.648H110.676C111.076 172.548 111.476 173.548 111.976 174.448H114.576C114.576 174.448 108.376 160.048 110.476 152.348C113.076 142.748 131.476 146.248 145.376 147.948C159.376 149.648 187.276 180.048 187.276 180.048L189.476 179.848C189.276 179.848 188.376 178.848 186.976 177.148Z" fill="#527230"/>
<path d="M115.476 140.448C129.276 132.948 115.076 97.2479 123.976 94.5479C130.576 92.5479 144.976 95.2479 148.876 99.4479C152.776 103.648 155.176 142.348 163.976 153.148C163.976 153.148 131.876 137.848 115.476 140.448Z" fill="#6A9342"/>
<path d="M147.776 98.9479C150.576 102.248 152.376 126.448 156.876 142.048C157.976 145.948 160.376 146.848 158.976 142.348C154.076 126.748 151.976 102.748 148.976 99.4479C148.176 98.6479 147.076 97.8479 145.676 97.1479C146.476 97.7479 147.176 98.3479 147.776 98.9479Z" fill="#527230"/>
<path d="M121.476 135.148C126.576 123.348 118.976 98.348 124.576 94.448C124.376 94.448 124.276 94.548 124.076 94.548C116.476 96.848 125.676 123.148 119.976 135.548C118.976 137.648 120.576 137.248 121.476 135.148Z" fill="#527230"/>
<path d="M123.576 108.348C118.476 105.048 91.5763 104.148 81.6763 84.648L83.9763 82.048C83.9763 82.048 92.4763 100.748 122.676 96.548L123.576 108.348Z" fill="#6A9342"/>
<path d="M112.476 97.3479L119.776 102.348C120.976 103.148 122.476 103.248 123.776 102.648C125.076 101.948 125.876 100.648 125.876 99.2479L126.076 94.2479L112.476 97.3479Z" fill="#527230"/>
<path d="M122.676 106.248C116.376 103.348 92.1759 101.648 82.1759 84.1479L81.7759 84.6479C91.1759 103.148 115.776 105.548 122.676 108.448V106.248Z" fill="#527230"/>
<path d="M145.976 98.248C155.776 103.548 172.176 111.448 190.876 92.048L191.776 94.548C191.776 94.548 175.076 118.548 146.576 105.848L145.976 98.248Z" fill="#6A9342"/>
<path d="M143.076 95.948L145.576 105.048C145.976 105.948 146.776 106.548 147.776 106.748C148.776 106.948 149.676 106.648 150.376 105.948L154.376 102.348L143.076 95.948Z" fill="#527230"/>
<path d="M191.276 93.348C188.676 96.648 173.476 113.748 149.776 105.448L150.276 107.948C176.476 117.048 191.676 94.448 191.676 94.448L191.276 93.348Z" fill="#527230"/>
<path d="M142.676 94.848L146.276 102.748C146.676 103.648 147.476 104.248 148.476 104.448C149.476 104.648 150.376 104.348 151.076 103.648L155.176 99.548L142.676 94.848Z" fill="#FFE150"/>
<path d="M111.576 95.8479L118.876 100.848C120.076 101.648 121.576 101.748 122.876 101.148C124.176 100.448 124.976 99.1479 124.976 97.7479L125.076 93.1479L111.576 95.8479Z" fill="#FFE150"/>
<path d="M170.776 166.548L173.776 155.848L192.176 180.248L200.476 181.548H186.276L170.776 166.548Z" fill="#FFE150"/>
<path d="M178.876 164.048C183.476 171.048 186.376 177.848 186.576 181.648H200.476L192.176 180.348L173.876 155.848L173.576 156.848C175.276 158.948 177.076 161.348 178.876 164.048Z" fill="#E5C028"/>
<path d="M112.876 160.148L99.376 155.148L111.576 180.248L105.076 181.548H116.776L112.876 160.148Z" fill="#FFE150"/>
<path d="M114.176 181.548H116.876L112.976 160.148L100.176 155.348C107.876 160.548 116.076 174.448 114.176 181.548Z" fill="#E5C028"/>
<path d="M82.076 84.648C78.376 84.948 72.976 83.448 75.776 77.748C78.576 72.048 83.976 79.148 84.576 83.948L82.076 84.648Z" fill="#87B755"/>
<path d="M118.476 138.048L160.676 147.248L158.176 140.648L119.676 135.948L118.476 138.048Z" fill="#527230"/>
<path d="M117.476 137.048C117.476 137.048 161.776 146.248 161.576 145.548C161.376 144.848 159.776 134.448 159.776 134.448L118.776 133.148L117.476 137.048Z" fill="#FFE150"/>
<path d="M121.176 135.948C121.176 135.048 121.176 134.048 121.276 133.148L118.876 133.048L117.576 136.948C117.576 136.948 118.976 137.248 121.276 137.748C121.176 137.248 121.176 136.648 121.176 135.948Z" fill="#E5C028"/>
<path d="M159.776 134.448L155.576 134.348C155.576 134.948 155.576 135.448 155.576 136.048C155.576 139.048 155.276 141.848 154.676 144.548C158.776 145.348 161.576 145.748 161.476 145.648C161.376 144.948 159.776 134.448 159.776 134.448Z" fill="#E5C028"/>
<path d="M81.4761 84.9479L82.8761 88.6479L87.5761 85.3479L84.2761 82.1479L81.4761 84.9479Z" fill="#FFE150"/>
<path d="M134.563 95.641C137.742 96.0388 140.374 95.9171 140.443 95.3691C140.511 94.821 137.99 94.0542 134.811 93.6564C131.633 93.2586 129.001 93.3803 128.932 93.9283C128.863 94.4764 131.385 95.2432 134.563 95.641Z" fill="#FFE150"/>
<path d="M150.276 101.448C150.176 100.648 149.476 99.948 148.676 99.948C147.876 99.948 147.376 100.648 147.576 101.448C147.676 102.248 148.376 102.948 149.176 102.948C149.976 102.948 150.376 102.248 150.276 101.448Z" fill="#ED5B48"/>
<path d="M122.976 98.9479C123.076 98.2479 122.476 97.6479 121.676 97.6479C120.876 97.6479 120.276 98.2479 120.176 98.9479C120.076 99.6479 120.676 100.248 121.476 100.248C122.276 100.248 122.876 99.6479 122.976 98.9479Z" fill="#ED5B48"/>
<path d="M139.676 139.548C141.057 139.548 142.176 138.518 142.176 137.248C142.176 135.978 141.057 134.948 139.676 134.948C138.296 134.948 137.176 135.978 137.176 137.248C137.176 138.518 138.296 139.548 139.676 139.548Z" fill="#ED5B48"/>
<path d="M83.6763 79.4479C83.0763 77.9479 82.0763 76.9479 81.4763 77.2479C80.8763 77.5479 80.7763 78.9479 81.3763 80.4479C81.9763 81.8479 82.9763 82.8479 83.5763 82.6479C84.2763 82.3479 84.2763 80.9479 83.6763 79.4479Z" fill="#AA6F48"/>
<path d="M81.9762 80.248C82.5762 78.748 82.4762 77.348 81.8762 77.148C81.2762 76.948 80.2762 77.948 79.6762 79.348C79.0762 80.848 79.3762 81.248 80.0762 81.548C80.5762 81.748 81.3762 81.648 81.9762 80.248Z" fill="#AA6F48"/>
<path d="M77.876 77.7479C79.176 78.4479 80.376 78.4479 80.576 77.7479C80.776 77.1479 79.976 76.0479 78.676 75.4479C77.376 74.7479 76.976 75.0479 76.776 75.6479C76.576 76.3479 76.576 77.1479 77.876 77.7479Z" fill="#AA6F48"/>
<path d="M76.6758 79.948C77.9758 80.648 79.1758 80.648 79.3758 79.948C79.5758 79.348 78.7758 78.248 77.4758 77.648C76.1758 76.948 75.7758 77.248 75.5758 77.848C75.3758 78.548 75.3758 79.248 76.6758 79.948Z" fill="#AA6F48"/>
<path d="M76.476 82.8479C77.776 83.3479 78.976 83.3479 79.176 82.6479C79.376 81.9479 78.476 81.0479 77.176 80.4479C75.876 79.8479 75.476 80.1479 75.276 80.8479C75.176 81.5479 75.176 82.2479 76.476 82.8479Z" fill="#AA6F48"/>
<path d="M191.776 95.448C195.476 94.748 200.276 92.048 196.176 87.148C192.076 82.248 188.476 90.448 189.176 95.348L191.776 95.448Z" fill="#87B755"/>
<path d="M188.976 90.848C189.176 89.248 189.876 88.048 190.576 88.148C191.276 88.248 191.676 89.648 191.476 91.148C191.276 92.748 190.576 93.948 189.876 93.848C189.176 93.748 188.776 92.448 188.976 90.848Z" fill="#AA6F48"/>
<path d="M190.876 91.148C189.976 89.848 189.676 88.448 190.276 88.048C190.876 87.648 192.076 88.348 192.976 89.648C193.876 90.948 193.676 91.448 193.176 91.848C192.476 92.348 191.776 92.448 190.876 91.148Z" fill="#AA6F48"/>
<path d="M194.276 87.748C193.176 88.648 192.076 88.948 191.676 88.448C191.276 87.848 191.876 86.648 192.876 85.748C193.976 84.848 194.376 84.948 194.776 85.548C195.076 86.048 195.276 86.848 194.276 87.748Z" fill="#AA6F48"/>
<path d="M195.876 89.548C194.776 90.448 193.676 90.748 193.276 90.248C192.876 89.648 193.476 88.448 194.476 87.548C195.576 86.648 195.976 86.748 196.376 87.348C196.776 87.948 196.976 88.648 195.876 89.548Z" fill="#AA6F48"/>
<path d="M196.776 92.348C195.676 93.148 194.476 93.448 194.076 92.848C193.676 92.248 194.376 91.148 195.476 90.248C196.576 89.448 197.076 89.548 197.376 90.148C197.776 90.748 197.876 91.548 196.776 92.348Z" fill="#AA6F48"/>
<path d="M188.976 93.448L185.576 95.548L189.076 99.048L191.776 95.348L188.976 93.448Z" fill="#FFE150"/>
<path d="M131.176 120.248L129.776 109.648L143.976 109.548L144.176 120.948L131.176 120.248Z" fill="#FFE150"/>
<path d="M132.776 118.948L131.776 111.148L142.076 111.048L142.176 119.348L132.776 118.948Z" fill="#6A9342"/>
<path d="M133.276 112.248L137.676 117.448L140.976 112.148L133.276 112.248Z" fill="#FFE150"/>
<path opacity="0.5" d="M135.076 102.948C142.176 102.948 148.576 102.248 153.676 101.148L155.276 99.5479L142.776 94.8479L143.276 96.0479L143.176 95.9479L143.276 96.2479C142.376 95.9479 141.476 95.6479 140.576 95.4479C140.576 95.0479 139.476 94.6479 137.876 94.2479V87.7479C136.976 87.7479 136.076 87.7479 135.176 87.7479C133.976 87.7479 132.776 87.7479 131.676 87.8479V93.5479C130.176 93.5479 129.176 93.7479 129.076 94.0479C127.676 94.0479 126.276 94.2479 125.076 94.4479V93.2479L111.676 95.9479L113.476 97.2479H113.276C110.976 97.2479 108.776 96.9479 106.776 96.6479C109.076 100.148 120.876 102.948 135.076 102.948Z" fill="#66493D"/>
<path d="M170.476 69.248L115.276 58.548L112.876 86.448C125.576 85.348 141.676 85.048 154.576 92.348L170.476 69.248Z" fill="#C99A50"/>
<path d="M101.076 62.948C103.476 70.848 129.576 112.348 162.776 73.748C167.476 68.248 163.976 50.048 163.976 50.048L101.076 62.948Z" fill="#7C4628"/>
<path d="M157.976 78.848L125.876 77.048L125.276 88.248C128.676 89.548 132.376 90.648 136.276 90.348C142.976 89.848 150.176 86.248 157.976 78.848Z" fill="#AA6F48"/>
<path d="M104.976 84.948L119.876 90.848L123.276 89.648L121.176 73.348L163.476 76.948L152.876 89.748L154.576 92.348C154.576 92.348 181.576 72.448 171.876 48.948C162.176 25.448 142.976 23.448 138.276 22.548C123.976 20.048 75.2759 23.748 104.976 84.948Z" fill="#F7D33C"/>
<path d="M107.376 30.948C100.676 30.948 95.2759 40.948 95.2759 53.348C95.2759 65.748 100.676 75.748 107.376 75.748C114.076 75.748 119.476 65.748 119.476 53.348C119.476 40.948 114.076 30.948 107.376 30.948ZM106.576 73.948C100.676 73.948 95.7759 64.648 95.7759 53.148C95.7759 41.648 100.576 32.348 106.576 32.348C112.476 32.348 117.276 41.648 117.276 53.148C117.276 64.648 112.476 73.948 106.576 73.948Z" fill="#D15D34"/>
<path d="M137.376 65.148L155.076 66.148C157.576 48.648 156.476 36.0479 152.976 27.1479C146.476 23.7479 140.676 23.0479 138.376 22.6479C136.676 22.3479 134.576 22.1479 132.176 22.1479C138.476 31.2479 141.676 44.748 137.376 65.148Z" fill="#FFF683"/>
<path d="M171.976 48.9479C167.276 37.6479 160.476 31.3479 154.076 27.6479C171.276 41.6479 169.176 68.0479 153.476 76.0479L163.376 76.8479L152.876 89.748L154.576 92.3479C154.576 92.3479 181.576 72.4479 171.976 48.9479Z" fill="#E5C028"/>
<path d="M166.076 38.448C174.776 54.048 174.576 65.648 167.176 78.948C176.376 69.148 176.476 48.148 166.076 38.448Z" fill="#D15D34"/>
<path d="M170.876 61.348L112.876 56.448C112.476 63.148 114.576 67.748 119.176 71.048L166.976 75.048C169.876 69.248 170.576 65.548 170.876 61.348Z" fill="#5E4D42"/>
<path d="M135.476 79.1479L145.276 79.9479C145.276 80.0479 136.076 95.3479 135.476 79.1479Z" fill="#4C2616"/>
<path d="M135.976 79.848L136.976 85.048L139.876 85.548L143.876 80.548L135.976 79.848Z" fill="#FFEFE9"/>
<path d="M169.476 62.4479L114.276 57.7479C113.876 63.2479 115.976 67.0479 120.476 69.7479L165.976 73.6479C168.576 68.8479 169.176 65.8479 169.476 62.4479Z" fill="#3D3029"/>
<path d="M163.576 61.948L141.076 60.048L127.676 70.348L150.176 72.248L163.576 61.948Z" fill="#30241E"/>
<path d="M156.676 69.048L152.676 72.048L155.276 72.148L159.176 69.148L156.676 69.048Z" fill="#7A665C"/>
<path d="M162.876 66.3479L167.076 63.1479H164.476L160.376 66.2479L162.876 66.3479Z" fill="#7A665C"/>
<path d="M141.976 78.9479C143.357 78.9479 144.476 78.4554 144.476 77.8479C144.476 77.2404 143.357 76.7479 141.976 76.7479C140.595 76.7479 139.476 77.2404 139.476 77.8479C139.476 78.4554 140.595 78.9479 141.976 78.9479Z" fill="#7C4628"/>
<path d="M142.576 78.3479C143.957 78.3479 145.076 77.8555 145.076 77.2479C145.076 76.6404 143.957 76.1479 142.576 76.1479C141.195 76.1479 140.076 76.6404 140.076 77.2479C140.076 77.8555 141.195 78.3479 142.576 78.3479Z" fill="#AA6F48"/>
<path d="M105.176 40.548C106.676 37.348 106.476 34.448 104.876 34.148C103.276 33.848 100.676 36.248 99.2759 39.548C97.7759 42.748 97.9759 45.648 99.5759 45.948C101.176 46.148 103.776 43.748 105.176 40.548Z" fill="#FFF683"/>
<path d="M98.6759 49.848C98.6759 48.648 98.2759 47.848 97.7759 47.948C97.2759 48.048 96.7759 49.148 96.7759 50.248C96.7759 51.448 97.1759 52.248 97.6759 52.148C98.1759 52.048 98.5759 50.948 98.6759 49.848Z" fill="#FFF683"/>
<path d="M119.876 90.848L117.776 72.448L121.176 73.348L123.276 89.648L119.876 90.848Z" fill="#E5C028"/>
<path d="M145.276 80.4479C145.497 80.4479 145.676 80.2689 145.676 80.0479C145.676 79.827 145.497 79.6479 145.276 79.6479C145.055 79.6479 144.876 79.827 144.876 80.0479C144.876 80.2689 145.055 80.4479 145.276 80.4479Z" fill="#4C2616"/>
<path d="M135.476 79.748C135.697 79.748 135.876 79.5689 135.876 79.348C135.876 79.1271 135.697 78.948 135.476 78.948C135.255 78.948 135.076 79.1271 135.076 79.348C135.076 79.5689 135.255 79.748 135.476 79.748Z" fill="#4C2616"/>
<defs>
<linearGradient id="paint0_linear" x1="53.6939" y1="68.5324" x2="49.9273" y2="87.2394" gradientUnits="userSpaceOnUse">
<stop/>
<stop offset="1" stop-color="white"/>
</linearGradient>
<linearGradient id="paint1_linear" x1="53.6939" y1="68.5324" x2="49.9273" y2="87.2394" gradientUnits="userSpaceOnUse">
<stop stop-color="#C04B00"/>
<stop offset="1" stop-color="#B73400"/>
</linearGradient>
<linearGradient id="paint2_linear" x1="202.44" y1="51.7142" x2="204.44" y2="101.964" gradientUnits="userSpaceOnUse">
<stop/>
<stop offset="0.9892" stop-color="#B3B3B3"/>
</linearGradient>
<linearGradient id="paint3_linear" x1="202.44" y1="51.7142" x2="204.44" y2="101.964" gradientUnits="userSpaceOnUse">
<stop stop-color="#C04B00"/>
<stop offset="0.9892" stop-color="#B73400"/>
</linearGradient>
</defs>
</svg>
