<svg width="239" height="182" viewBox="0 0 239 182" fill="none" xmlns="http://www.w3.org/2000/svg">
<path opacity="0.2" d="M126.99 103.056C136.171 110.271 148.591 112.641 158.973 106.5C162.065 104.643 165.109 101.907 166.804 98.5401C171.244 97.3143 175.482 94.9041 178.779 91.8012C183.495 87.4045 187.291 81.275 187.573 74.6737C187.759 70.6061 186.745 66.4481 184.464 63.1246C186.198 63.6363 188.001 63.9873 189.845 64.0225C191.258 64.0618 191.581 62.1035 190.134 61.8112C186.127 60.9354 182.516 59.8023 178.984 57.6065C177.442 56.6531 175.976 58.4982 177.224 59.8012C178.97 61.6058 178.646 63.8974 177.622 65.9337C176.934 67.3047 178.998 68.484 179.933 67.3151C181.197 65.7163 181.56 63.7753 181.222 61.9124C181.262 61.9298 181.302 61.9472 181.342 61.9645C191.41 73.5205 181.047 90.6368 167.894 95.5788C168.069 94.8439 168.164 94.0743 168.178 93.2699C168.213 88.2306 164.705 83.995 160.404 81.7046C156.062 79.3968 150.059 78.945 146.683 83.1108C143.584 86.9672 145.571 92.0709 148.928 95.0016C152.904 98.4861 157.692 99.6519 162.532 99.2665C161.176 100.968 159.453 102.416 157.708 103.473C148.597 109.211 136.825 107.216 128.11 101.681C127.163 101.224 126.131 102.398 126.99 103.056ZM157.748 96.7676C153.573 96.0578 148.451 93.46 147.11 89.0653C146.298 86.425 147.829 83.9882 150.2 82.9161C152.514 81.8668 155.184 82.3071 157.433 83.2802C161.048 84.8442 164.61 88.2928 164.9 92.4713C165.021 93.9542 164.689 95.3838 164.075 96.6918C161.999 97.0811 159.827 97.1425 157.748 96.7676Z" fill="#222221"/>
<path d="M125.32 22.3193C125.283 22.3193 125.213 22.3285 125.108 22.3467C125.008 22.3604 124.889 22.3786 124.752 22.4014C124.616 22.4242 124.472 22.4515 124.322 22.4834C124.171 22.5107 124.03 22.5358 123.898 22.5586C123.766 22.5814 123.652 22.6019 123.556 22.6201C123.456 22.6338 123.39 22.6406 123.358 22.6406C123.053 22.6406 122.9 22.4811 122.9 22.1621C122.9 22.0755 122.909 21.9912 122.927 21.9092C122.941 21.8226 122.968 21.7451 123.009 21.6768C123.05 21.6038 123.105 21.5423 123.173 21.4922C123.242 21.4421 123.328 21.4079 123.433 21.3896C123.966 21.3076 124.497 21.221 125.026 21.1299C125.555 21.0387 126.088 20.943 126.625 20.8428C126.744 20.82 126.851 20.7995 126.947 20.7812C127.042 20.7585 127.15 20.7288 127.268 20.6924C127.396 20.6559 127.535 20.6217 127.685 20.5898C127.835 20.5534 127.986 20.5215 128.136 20.4941C128.291 20.4668 128.439 20.444 128.581 20.4258C128.726 20.4076 128.859 20.3984 128.977 20.3984C129.123 20.3984 129.232 20.4463 129.305 20.542C129.383 20.6331 129.421 20.763 129.421 20.9316C129.421 21.0182 129.415 21.1025 129.401 21.1846C129.387 21.262 129.362 21.3327 129.326 21.3965C129.289 21.4603 129.239 21.5127 129.175 21.5537C129.111 21.5947 129.029 21.6198 128.929 21.6289C128.669 21.6654 128.391 21.7109 128.095 21.7656C127.799 21.8158 127.542 21.8727 127.323 21.9365C127.232 21.9639 127.163 22.0094 127.118 22.0732C127.072 22.1325 127.042 22.2077 127.029 22.2988C127.015 22.3854 127.006 22.4743 127.001 22.5654C127.001 22.652 127.001 22.7363 127.001 22.8184C127.001 23.0098 127.008 23.2012 127.022 23.3926C127.04 23.584 127.056 23.7754 127.07 23.9668C127.111 24.623 127.172 25.2725 127.254 25.915C127.341 26.5576 127.434 27.207 127.535 27.8633C127.544 27.8861 127.548 27.9089 127.548 27.9316C127.548 27.9544 127.548 27.9772 127.548 28C127.548 28.2507 127.407 28.4284 127.125 28.5332L126.817 28.6289C126.735 28.6562 126.655 28.6699 126.578 28.6699C126.459 28.6699 126.363 28.6312 126.291 28.5537C126.218 28.4808 126.17 28.3714 126.147 28.2256C126.019 27.4417 125.908 26.6624 125.812 25.8877C125.716 25.1084 125.655 24.3245 125.627 23.5361C125.618 23.4085 125.611 23.2695 125.607 23.1191C125.602 22.9688 125.6 22.8138 125.6 22.6543C125.6 22.431 125.507 22.3193 125.32 22.3193Z" fill="black"/>
<path d="M129.319 21.417C129.319 20.9248 129.638 20.6787 130.276 20.6787C130.385 20.6787 130.481 20.7083 130.563 20.7676C130.645 20.8268 130.693 20.9089 130.707 21.0137C130.748 21.2917 130.784 21.5674 130.816 21.8408C130.848 22.1143 130.877 22.4219 130.905 22.7637C130.937 23.1009 130.966 23.4928 130.994 23.9395C131.026 24.3815 131.06 24.9102 131.096 25.5254C131.096 25.5892 131.105 25.6348 131.124 25.6621C131.146 25.6895 131.171 25.7031 131.199 25.7031C131.24 25.7031 131.281 25.6621 131.322 25.5801C131.477 25.2383 131.65 24.9329 131.841 24.6641C132.033 24.3906 132.238 24.1605 132.457 23.9736C132.675 23.7822 132.905 23.6387 133.147 23.543C133.393 23.4427 133.644 23.3926 133.899 23.3926C134.236 23.3926 134.542 23.4883 134.815 23.6797C135.088 23.8711 135.321 24.1423 135.512 24.4932C135.704 24.8441 135.852 25.2702 135.957 25.7715C136.061 26.2682 136.114 26.8242 136.114 27.4395C136.114 27.6081 136.1 27.7471 136.073 27.8564C136.05 27.9613 136.009 28.0456 135.95 28.1094C135.89 28.1732 135.808 28.2165 135.704 28.2393C135.599 28.2666 135.469 28.2803 135.314 28.2803C135.1 28.2803 134.945 28.2393 134.849 28.1572C134.758 28.0752 134.712 27.9476 134.712 27.7744C134.712 27.346 134.683 26.9427 134.624 26.5645C134.569 26.1816 134.491 25.8467 134.391 25.5596C134.291 25.2725 134.172 25.0446 134.036 24.876C133.903 24.7074 133.76 24.623 133.605 24.623C133.254 24.623 132.903 24.9079 132.552 25.4775C132.206 26.0472 131.844 26.9062 131.465 28.0547C131.429 28.1595 131.388 28.2461 131.342 28.3145C131.297 28.3828 131.242 28.4375 131.178 28.4785C131.119 28.5195 131.046 28.5469 130.959 28.5605C130.873 28.5788 130.77 28.5879 130.652 28.5879C130.41 28.5879 130.237 28.5423 130.132 28.4512C130.032 28.36 129.977 28.2096 129.968 28C129.941 27.207 129.891 26.4505 129.818 25.7305C129.75 25.0059 129.677 24.3519 129.599 23.7686C129.526 23.1807 129.46 22.6839 129.401 22.2783C129.346 21.8682 129.319 21.5811 129.319 21.417Z" fill="black"/>
<path d="M138.055 21.0273C137.923 21.0273 137.798 21.0091 137.679 20.9727C137.565 20.9316 137.465 20.877 137.378 20.8086C137.296 20.7357 137.23 20.6514 137.18 20.5557C137.13 20.46 137.105 20.3551 137.105 20.2412C137.105 20.0498 137.18 19.8949 137.331 19.7764C137.486 19.6579 137.691 19.5986 137.946 19.5986C138.064 19.5986 138.178 19.6214 138.288 19.667C138.397 19.708 138.493 19.765 138.575 19.8379C138.661 19.9108 138.73 19.9974 138.78 20.0977C138.83 20.1934 138.855 20.2936 138.855 20.3984C138.855 20.5944 138.782 20.7493 138.636 20.8633C138.495 20.9727 138.301 21.0273 138.055 21.0273ZM137.119 23.1123C137.119 22.9528 137.187 22.8229 137.324 22.7227C137.465 22.6178 137.65 22.5654 137.877 22.5654C138.288 22.5654 138.506 22.7067 138.534 22.9893C138.552 23.1852 138.57 23.4062 138.588 23.6523C138.611 23.8984 138.632 24.1605 138.65 24.4385C138.673 24.7119 138.691 24.9967 138.705 25.293C138.723 25.5846 138.739 25.874 138.752 26.1611C138.766 26.4437 138.778 26.7171 138.787 26.9814C138.796 27.2458 138.8 27.4873 138.8 27.7061C138.8 27.9339 138.718 28.1048 138.554 28.2188C138.395 28.3327 138.16 28.3896 137.85 28.3896C137.709 28.3896 137.597 28.3555 137.515 28.2871C137.438 28.2233 137.399 28.1276 137.399 28C137.399 27.3711 137.383 26.7832 137.351 26.2363C137.324 25.6849 137.292 25.195 137.255 24.7666C137.223 24.3382 137.192 23.9827 137.16 23.7002C137.132 23.4131 137.119 23.2171 137.119 23.1123Z" fill="black"/>
<path d="M141.767 22.0664C142.072 22.0664 142.387 22.1074 142.71 22.1895C143.034 22.2669 143.33 22.3695 143.599 22.4971C143.868 22.6201 144.089 22.7591 144.262 22.9141C144.435 23.069 144.522 23.2194 144.522 23.3652C144.522 23.4382 144.49 23.5202 144.426 23.6113C144.362 23.6979 144.285 23.7822 144.194 23.8643C144.103 23.9417 144.002 24.0078 143.893 24.0625C143.788 24.1126 143.695 24.1377 143.613 24.1377C143.503 24.1377 143.38 24.0921 143.244 24.001C143.111 23.9098 142.963 23.8096 142.799 23.7002C142.64 23.5863 142.464 23.4837 142.273 23.3926C142.082 23.3014 141.874 23.2559 141.651 23.2559C141.505 23.2559 141.384 23.2923 141.289 23.3652C141.197 23.4336 141.152 23.5316 141.152 23.6592C141.152 23.7731 141.207 23.8893 141.316 24.0078C141.425 24.1217 141.569 24.2402 141.747 24.3633C141.929 24.4863 142.134 24.6162 142.362 24.7529C142.59 24.8896 142.822 25.0355 143.059 25.1904C143.301 25.3454 143.535 25.514 143.763 25.6963C143.991 25.8786 144.194 26.0768 144.372 26.291C144.554 26.5052 144.7 26.7399 144.809 26.9951C144.918 27.2458 144.973 27.5192 144.973 27.8154C144.973 28.0706 144.928 28.3031 144.836 28.5127C144.745 28.7223 144.615 28.9023 144.447 29.0527C144.278 29.2031 144.078 29.3193 143.845 29.4014C143.613 29.4834 143.358 29.5244 143.08 29.5244C142.729 29.5244 142.405 29.4697 142.109 29.3604C141.813 29.2555 141.557 29.1097 141.343 28.9229C141.129 28.736 140.96 28.5127 140.837 28.2529C140.719 27.9932 140.66 27.7083 140.66 27.3984C140.66 26.9974 140.73 26.7057 140.872 26.5234C141.017 26.3411 141.245 26.25 141.555 26.25C141.747 26.25 141.899 26.2865 142.013 26.3594C142.127 26.4323 142.184 26.5212 142.184 26.626C142.184 26.6807 142.175 26.7376 142.157 26.7969C142.139 26.8516 142.118 26.9108 142.095 26.9746C142.077 27.0339 142.059 27.0977 142.041 27.166C142.027 27.2344 142.02 27.3027 142.02 27.3711C142.02 27.4896 142.047 27.6035 142.102 27.7129C142.157 27.8223 142.23 27.918 142.321 28C142.417 28.0866 142.526 28.1549 142.649 28.2051C142.772 28.2552 142.902 28.2803 143.039 28.2803C143.403 28.2803 143.585 28.1299 143.585 27.8291C143.585 27.5921 143.492 27.3688 143.305 27.1592C143.118 26.945 142.884 26.7376 142.601 26.5371C142.319 26.332 142.013 26.127 141.685 25.9219C141.361 25.7168 141.058 25.5026 140.776 25.2793C140.493 25.056 140.259 24.819 140.072 24.5684C139.885 24.3132 139.792 24.0374 139.792 23.7412C139.792 23.4951 139.842 23.2695 139.942 23.0645C140.047 22.8594 140.188 22.6839 140.366 22.5381C140.543 22.3877 140.751 22.2715 140.988 22.1895C141.229 22.1074 141.489 22.0664 141.767 22.0664Z" fill="black"/>
<path d="M149.567 21.0273C149.435 21.0273 149.309 21.0091 149.191 20.9727C149.077 20.9316 148.977 20.877 148.89 20.8086C148.808 20.7357 148.742 20.6514 148.692 20.5557C148.642 20.46 148.617 20.3551 148.617 20.2412C148.617 20.0498 148.692 19.8949 148.842 19.7764C148.997 19.6579 149.202 19.5986 149.458 19.5986C149.576 19.5986 149.69 19.6214 149.799 19.667C149.909 19.708 150.004 19.765 150.086 19.8379C150.173 19.9108 150.241 19.9974 150.292 20.0977C150.342 20.1934 150.367 20.2936 150.367 20.3984C150.367 20.5944 150.294 20.7493 150.148 20.8633C150.007 20.9727 149.813 21.0273 149.567 21.0273ZM148.63 23.1123C148.63 22.9528 148.699 22.8229 148.835 22.7227C148.977 22.6178 149.161 22.5654 149.389 22.5654C149.799 22.5654 150.018 22.7067 150.045 22.9893C150.064 23.1852 150.082 23.4062 150.1 23.6523C150.123 23.8984 150.143 24.1605 150.162 24.4385C150.184 24.7119 150.203 24.9967 150.216 25.293C150.235 25.5846 150.25 25.874 150.264 26.1611C150.278 26.4437 150.289 26.7171 150.298 26.9814C150.307 27.2458 150.312 27.4873 150.312 27.7061C150.312 27.9339 150.23 28.1048 150.066 28.2188C149.906 28.3327 149.672 28.3896 149.362 28.3896C149.221 28.3896 149.109 28.3555 149.027 28.2871C148.949 28.2233 148.911 28.1276 148.911 28C148.911 27.3711 148.895 26.7832 148.863 26.2363C148.835 25.6849 148.804 25.195 148.767 24.7666C148.735 24.3382 148.703 23.9827 148.671 23.7002C148.644 23.4131 148.63 23.2171 148.63 23.1123Z" fill="black"/>
<path d="M153.279 22.0664C153.584 22.0664 153.899 22.1074 154.222 22.1895C154.546 22.2669 154.842 22.3695 155.111 22.4971C155.38 22.6201 155.601 22.7591 155.774 22.9141C155.947 23.069 156.034 23.2194 156.034 23.3652C156.034 23.4382 156.002 23.5202 155.938 23.6113C155.874 23.6979 155.797 23.7822 155.706 23.8643C155.614 23.9417 155.514 24.0078 155.405 24.0625C155.3 24.1126 155.207 24.1377 155.125 24.1377C155.015 24.1377 154.892 24.0921 154.755 24.001C154.623 23.9098 154.475 23.8096 154.311 23.7002C154.152 23.5863 153.976 23.4837 153.785 23.3926C153.593 23.3014 153.386 23.2559 153.163 23.2559C153.017 23.2559 152.896 23.2923 152.8 23.3652C152.709 23.4336 152.664 23.5316 152.664 23.6592C152.664 23.7731 152.718 23.8893 152.828 24.0078C152.937 24.1217 153.081 24.2402 153.258 24.3633C153.441 24.4863 153.646 24.6162 153.874 24.7529C154.101 24.8896 154.334 25.0355 154.571 25.1904C154.812 25.3454 155.047 25.514 155.275 25.6963C155.503 25.8786 155.706 26.0768 155.883 26.291C156.066 26.5052 156.211 26.7399 156.321 26.9951C156.43 27.2458 156.485 27.5192 156.485 27.8154C156.485 28.0706 156.439 28.3031 156.348 28.5127C156.257 28.7223 156.127 28.9023 155.958 29.0527C155.79 29.2031 155.589 29.3193 155.357 29.4014C155.125 29.4834 154.869 29.5244 154.591 29.5244C154.24 29.5244 153.917 29.4697 153.621 29.3604C153.324 29.2555 153.069 29.1097 152.855 28.9229C152.641 28.736 152.472 28.5127 152.349 28.2529C152.231 27.9932 152.171 27.7083 152.171 27.3984C152.171 26.9974 152.242 26.7057 152.383 26.5234C152.529 26.3411 152.757 26.25 153.067 26.25C153.258 26.25 153.411 26.2865 153.525 26.3594C153.639 26.4323 153.696 26.5212 153.696 26.626C153.696 26.6807 153.687 26.7376 153.668 26.7969C153.65 26.8516 153.63 26.9108 153.607 26.9746C153.589 27.0339 153.57 27.0977 153.552 27.166C153.539 27.2344 153.532 27.3027 153.532 27.3711C153.532 27.4896 153.559 27.6035 153.614 27.7129C153.668 27.8223 153.741 27.918 153.833 28C153.928 28.0866 154.038 28.1549 154.161 28.2051C154.284 28.2552 154.414 28.2803 154.55 28.2803C154.915 28.2803 155.097 28.1299 155.097 27.8291C155.097 27.5921 155.004 27.3688 154.817 27.1592C154.63 26.945 154.395 26.7376 154.113 26.5371C153.83 26.332 153.525 26.127 153.197 25.9219C152.873 25.7168 152.57 25.5026 152.288 25.2793C152.005 25.056 151.77 24.819 151.583 24.5684C151.397 24.3132 151.303 24.0374 151.303 23.7412C151.303 23.4951 151.353 23.2695 151.454 23.0645C151.558 22.8594 151.7 22.6839 151.877 22.5381C152.055 22.3877 152.263 22.2715 152.5 22.1895C152.741 22.1074 153.001 22.0664 153.279 22.0664Z" fill="black"/>
<path d="M162.904 28.1846C162.63 28.1846 162.357 28.1185 162.083 27.9863C161.81 27.8496 161.548 27.665 161.297 27.4326C161.047 27.2002 160.814 26.9268 160.6 26.6123C160.386 26.2933 160.199 25.9515 160.04 25.5869C159.88 25.2178 159.755 24.8327 159.664 24.4316C159.572 24.0306 159.527 23.6296 159.527 23.2285C159.527 22.9186 159.591 22.6976 159.718 22.5654C159.846 22.4287 160.053 22.3604 160.34 22.3604C160.7 22.3604 160.901 22.5085 160.942 22.8047C161.024 23.4336 161.138 24.001 161.284 24.5068C161.43 25.0127 161.6 25.4434 161.796 25.7988C161.997 26.1543 162.218 26.4277 162.459 26.6191C162.706 26.8105 162.965 26.9062 163.239 26.9062C163.435 26.9062 163.619 26.8584 163.792 26.7627C163.966 26.6624 164.116 26.5234 164.244 26.3457C164.289 26.2773 164.319 26.2113 164.333 26.1475C164.351 26.0837 164.364 26.0107 164.374 25.9287C164.396 25.6051 164.421 25.2884 164.449 24.9785C164.481 24.6641 164.51 24.3496 164.538 24.0352C164.547 23.8984 164.565 23.7868 164.592 23.7002C164.62 23.6136 164.661 23.5452 164.715 23.4951C164.77 23.445 164.841 23.4108 164.927 23.3926C165.018 23.3743 165.132 23.3652 165.269 23.3652C165.424 23.3652 165.556 23.388 165.666 23.4336C165.775 23.4746 165.864 23.5452 165.932 23.6455C166 23.7412 166.048 23.8688 166.076 24.0283C166.108 24.1833 166.124 24.377 166.124 24.6094C166.124 24.8099 166.108 24.9854 166.076 25.1357C166.048 25.2816 166.014 25.4206 165.973 25.5527C165.937 25.6803 165.9 25.8079 165.864 25.9355C165.832 26.0586 165.811 26.1953 165.802 26.3457C165.779 26.724 165.759 27.0521 165.741 27.3301C165.722 27.6035 165.707 27.8382 165.693 28.0342C165.684 28.2301 165.675 28.3988 165.666 28.54C165.661 28.6813 165.656 28.8066 165.652 28.916C165.647 29.0299 165.645 29.137 165.645 29.2373C165.645 29.3376 165.645 29.4469 165.645 29.5654C165.645 29.7796 165.654 30.012 165.672 30.2627C165.691 30.5179 165.709 30.7617 165.727 30.9941C165.75 31.2266 165.77 31.4316 165.789 31.6094C165.807 31.7871 165.816 31.9102 165.816 31.9785C165.816 32.0651 165.789 32.1471 165.734 32.2246C165.679 32.3021 165.606 32.3704 165.515 32.4297C165.424 32.4889 165.317 32.5345 165.194 32.5664C165.071 32.6029 164.941 32.6211 164.804 32.6211C164.686 32.6211 164.59 32.5801 164.517 32.498C164.449 32.4206 164.41 32.3158 164.401 32.1836C164.387 32.0104 164.376 31.7985 164.367 31.5479C164.358 31.3018 164.348 31.0374 164.339 30.7549C164.33 30.4769 164.323 30.1921 164.319 29.9004C164.319 29.6133 164.317 29.3444 164.312 29.0938C164.307 28.8477 164.305 28.6312 164.305 28.4443C164.305 28.2575 164.305 28.123 164.305 28.041C164.305 27.959 164.296 27.902 164.278 27.8701C164.26 27.8337 164.225 27.8154 164.175 27.8154C164.148 27.8154 164.111 27.8245 164.066 27.8428C164.02 27.8564 163.968 27.8815 163.909 27.918C163.749 28.0137 163.587 28.082 163.423 28.123C163.259 28.1641 163.086 28.1846 162.904 28.1846Z" fill="black"/>
<path d="M167.033 25.7305C167.033 25.653 167.042 25.5664 167.06 25.4707C167.078 25.375 167.087 25.2702 167.087 25.1562C167.087 25.0788 167.053 25.0195 166.985 24.9785C166.921 24.9375 166.848 24.8919 166.766 24.8418C166.684 24.7917 166.609 24.7279 166.541 24.6504C166.477 24.5729 166.445 24.4613 166.445 24.3154C166.445 24.2106 166.472 24.1058 166.527 24.001C166.586 23.8962 166.67 23.8005 166.78 23.7139C167.049 23.5133 167.327 23.3333 167.614 23.1738C167.905 23.0143 168.195 22.8799 168.482 22.7705C168.774 22.6611 169.061 22.5768 169.343 22.5176C169.626 22.4583 169.897 22.4287 170.157 22.4287C170.594 22.4287 171.004 22.5107 171.387 22.6748C171.775 22.8343 172.11 23.0553 172.392 23.3379C172.679 23.6159 172.905 23.944 173.069 24.3223C173.237 24.696 173.322 25.097 173.322 25.5254C173.322 25.9447 173.233 26.3434 173.055 26.7217C172.882 27.0954 172.647 27.4235 172.351 27.7061C172.055 27.9886 171.706 28.2119 171.305 28.376C170.909 28.5446 170.489 28.6289 170.047 28.6289C169.614 28.6289 169.213 28.556 168.844 28.4102C168.475 28.2643 168.156 28.0638 167.887 27.8086C167.618 27.5488 167.409 27.2435 167.258 26.8926C167.108 26.5371 167.033 26.1497 167.033 25.7305ZM170.198 27.3984C170.389 27.3984 170.587 27.3597 170.792 27.2822C170.998 27.2048 171.184 27.0931 171.353 26.9473C171.526 26.7969 171.667 26.6146 171.777 26.4004C171.891 26.1862 171.948 25.9447 171.948 25.6758C171.948 25.4023 171.898 25.1471 171.797 24.9102C171.697 24.6732 171.558 24.4681 171.38 24.2949C171.207 24.1172 171 23.9782 170.758 23.8779C170.521 23.7777 170.264 23.7275 169.986 23.7275C169.48 23.7275 169.093 23.8597 168.824 24.124C168.555 24.3838 168.42 24.7848 168.42 25.3271C168.42 25.6234 168.464 25.8991 168.55 26.1543C168.641 26.4049 168.767 26.6237 168.926 26.8105C169.086 26.9928 169.273 27.1364 169.487 27.2412C169.706 27.346 169.943 27.3984 170.198 27.3984Z" fill="black"/>
<path d="M175.653 25.5801C175.653 26.1908 175.746 26.6624 175.933 26.9951C176.12 27.3278 176.391 27.4941 176.747 27.4941C176.97 27.4941 177.175 27.4281 177.362 27.2959C177.553 27.1637 177.717 26.9792 177.854 26.7422C177.991 26.5052 178.096 26.2249 178.168 25.9014C178.246 25.5732 178.285 25.2178 178.285 24.835C178.285 24.6025 178.276 24.402 178.257 24.2334C178.239 24.0602 178.219 23.9076 178.196 23.7754C178.178 23.6387 178.159 23.5179 178.141 23.4131C178.123 23.3083 178.114 23.208 178.114 23.1123C178.114 22.9665 178.175 22.8617 178.298 22.7979C178.421 22.7295 178.617 22.6953 178.886 22.6953C179.228 22.6953 179.492 22.7728 179.679 22.9277C179.871 23.0827 179.966 23.3083 179.966 23.6045C179.966 24.4111 179.887 25.1357 179.727 25.7783C179.572 26.4209 179.347 26.9678 179.05 27.4189C178.759 27.8656 178.403 28.2096 177.984 28.4512C177.565 28.6927 177.095 28.8135 176.576 28.8135C176.207 28.8135 175.865 28.736 175.55 28.5811C175.24 28.4307 174.972 28.2188 174.744 27.9453C174.52 27.6673 174.345 27.3392 174.217 26.9609C174.09 26.5781 174.026 26.1589 174.026 25.7031C174.026 25.5299 174.03 25.3454 174.04 25.1494C174.049 24.9535 174.062 24.7438 174.081 24.5205C174.099 24.2926 174.122 24.0465 174.149 23.7822C174.181 23.5179 174.215 23.2308 174.251 22.9209C174.265 22.7887 174.327 22.6839 174.436 22.6064C174.55 22.5244 174.694 22.4834 174.867 22.4834C175.022 22.4834 175.167 22.4993 175.304 22.5312C175.441 22.5632 175.557 22.6064 175.653 22.6611C175.753 22.7158 175.831 22.7796 175.885 22.8525C175.944 22.9255 175.974 23.0029 175.974 23.085C175.974 23.167 175.956 23.2969 175.919 23.4746C175.888 23.6478 175.851 23.8483 175.81 24.0762C175.774 24.2995 175.737 24.5433 175.701 24.8076C175.669 25.0674 175.653 25.3249 175.653 25.5801Z" fill="black"/>
<path d="M184.499 22.8867C184.33 22.8867 184.182 22.9323 184.054 23.0234C183.927 23.11 183.817 23.2331 183.726 23.3926C183.635 23.5475 183.56 23.7321 183.5 23.9463C183.441 24.1559 183.393 24.3861 183.357 24.6367C183.32 24.8874 183.295 25.1494 183.282 25.4229C183.268 25.6963 183.261 25.972 183.261 26.25C183.261 26.6146 183.275 26.9746 183.302 27.3301C183.334 27.681 183.35 28.0068 183.35 28.3076C183.35 28.5036 183.277 28.6562 183.131 28.7656C182.986 28.8796 182.778 28.9365 182.509 28.9365C182.459 28.9365 182.402 28.932 182.338 28.9229C182.275 28.9137 182.213 28.8955 182.154 28.8682C182.099 28.8408 182.049 28.8021 182.003 28.752C181.962 28.7064 181.94 28.6426 181.935 28.5605C181.894 28.1595 181.835 27.7493 181.757 27.3301C181.68 26.9108 181.582 26.4938 181.463 26.0791C181.349 25.6598 181.21 25.2451 181.046 24.835C180.887 24.4248 180.702 24.0238 180.493 23.6318C180.456 23.5635 180.424 23.4997 180.397 23.4404C180.374 23.3812 180.363 23.3242 180.363 23.2695C180.363 23.2012 180.392 23.1283 180.452 23.0508C180.515 22.9688 180.593 22.8936 180.684 22.8252C180.78 22.7568 180.882 22.7021 180.992 22.6611C181.106 22.6156 181.215 22.5928 181.32 22.5928C181.493 22.5928 181.646 22.7135 181.778 22.9551C181.91 23.1921 182.033 23.5726 182.147 24.0967C182.17 24.1878 182.188 24.2516 182.202 24.2881C182.215 24.3245 182.234 24.3428 182.256 24.3428C182.306 24.3428 182.338 24.2653 182.352 24.1104C182.407 23.6774 182.5 23.306 182.632 22.9961C182.764 22.6816 182.929 22.4242 183.125 22.2236C183.325 22.0186 183.553 21.8682 183.808 21.7725C184.068 21.6768 184.353 21.6289 184.663 21.6289C184.84 21.6289 185.02 21.6449 185.203 21.6768C185.385 21.7087 185.549 21.7565 185.695 21.8203C185.841 21.8841 185.959 21.9616 186.05 22.0527C186.141 22.1439 186.187 22.2464 186.187 22.3604C186.187 22.4424 186.169 22.5404 186.132 22.6543C186.1 22.7637 186.057 22.8708 186.002 22.9756C185.948 23.0758 185.884 23.1624 185.811 23.2354C185.743 23.3037 185.672 23.3379 185.599 23.3379C185.517 23.3379 185.437 23.3151 185.36 23.2695C185.282 23.2194 185.198 23.167 185.107 23.1123C185.02 23.0576 184.927 23.0075 184.827 22.9619C184.731 22.9118 184.622 22.8867 184.499 22.8867Z" fill="black"/>
<path d="M190.781 22.0664C191.086 22.0664 191.401 22.1074 191.724 22.1895C192.048 22.2669 192.344 22.3695 192.613 22.4971C192.882 22.6201 193.103 22.7591 193.276 22.9141C193.449 23.069 193.536 23.2194 193.536 23.3652C193.536 23.4382 193.504 23.5202 193.44 23.6113C193.376 23.6979 193.299 23.7822 193.208 23.8643C193.116 23.9417 193.016 24.0078 192.907 24.0625C192.802 24.1126 192.708 24.1377 192.626 24.1377C192.517 24.1377 192.394 24.0921 192.257 24.001C192.125 23.9098 191.977 23.8096 191.813 23.7002C191.653 23.5863 191.478 23.4837 191.287 23.3926C191.095 23.3014 190.888 23.2559 190.665 23.2559C190.519 23.2559 190.398 23.2923 190.302 23.3652C190.211 23.4336 190.166 23.5316 190.166 23.6592C190.166 23.7731 190.22 23.8893 190.33 24.0078C190.439 24.1217 190.583 24.2402 190.76 24.3633C190.943 24.4863 191.148 24.6162 191.375 24.7529C191.603 24.8896 191.836 25.0355 192.073 25.1904C192.314 25.3454 192.549 25.514 192.777 25.6963C193.005 25.8786 193.208 26.0768 193.385 26.291C193.568 26.5052 193.713 26.7399 193.823 26.9951C193.932 27.2458 193.987 27.5192 193.987 27.8154C193.987 28.0706 193.941 28.3031 193.85 28.5127C193.759 28.7223 193.629 28.9023 193.46 29.0527C193.292 29.2031 193.091 29.3193 192.859 29.4014C192.626 29.4834 192.371 29.5244 192.093 29.5244C191.742 29.5244 191.419 29.4697 191.123 29.3604C190.826 29.2555 190.571 29.1097 190.357 28.9229C190.143 28.736 189.974 28.5127 189.851 28.2529C189.733 27.9932 189.673 27.7083 189.673 27.3984C189.673 26.9974 189.744 26.7057 189.885 26.5234C190.031 26.3411 190.259 26.25 190.569 26.25C190.76 26.25 190.913 26.2865 191.027 26.3594C191.141 26.4323 191.198 26.5212 191.198 26.626C191.198 26.6807 191.189 26.7376 191.17 26.7969C191.152 26.8516 191.132 26.9108 191.109 26.9746C191.091 27.0339 191.072 27.0977 191.054 27.166C191.041 27.2344 191.034 27.3027 191.034 27.3711C191.034 27.4896 191.061 27.6035 191.116 27.7129C191.17 27.8223 191.243 27.918 191.334 28C191.43 28.0866 191.54 28.1549 191.663 28.2051C191.786 28.2552 191.916 28.2803 192.052 28.2803C192.417 28.2803 192.599 28.1299 192.599 27.8291C192.599 27.5921 192.506 27.3688 192.319 27.1592C192.132 26.945 191.897 26.7376 191.615 26.5371C191.332 26.332 191.027 26.127 190.699 25.9219C190.375 25.7168 190.072 25.5026 189.79 25.2793C189.507 25.056 189.272 24.819 189.085 24.5684C188.899 24.3132 188.805 24.0374 188.805 23.7412C188.805 23.4951 188.855 23.2695 188.956 23.0645C189.06 22.8594 189.202 22.6839 189.379 22.5381C189.557 22.3877 189.764 22.2715 190.001 22.1895C190.243 22.1074 190.503 22.0664 190.781 22.0664Z" fill="black"/>
<path d="M200.05 26.5029C200.182 26.389 200.312 26.332 200.44 26.332C200.513 26.332 200.579 26.3503 200.638 26.3867C200.697 26.4232 200.764 26.4801 200.836 26.5576C200.905 26.6624 200.953 26.749 200.98 26.8174C201.012 26.8812 201.028 26.945 201.028 27.0088C201.028 27.1455 200.959 27.2754 200.823 27.3984C200.604 27.5807 200.367 27.7448 200.112 27.8906C199.857 28.0319 199.59 28.1527 199.312 28.2529C199.034 28.3532 198.747 28.4284 198.451 28.4785C198.154 28.5332 197.861 28.5605 197.569 28.5605C197.2 28.5605 196.853 28.5127 196.53 28.417C196.206 28.3258 195.917 28.1937 195.662 28.0205C195.411 27.8473 195.199 27.64 195.026 27.3984C194.853 27.1523 194.73 26.8766 194.657 26.5713C194.616 26.4437 194.577 26.3617 194.541 26.3252C194.509 26.2842 194.454 26.2637 194.376 26.2637C194.208 26.2637 194.078 26.2227 193.987 26.1406C193.896 26.0586 193.85 25.9401 193.85 25.7852C193.85 25.7214 193.855 25.6803 193.864 25.6621L193.877 25.5254C193.9 25.3613 193.944 25.2428 194.007 25.1699C194.076 25.097 194.181 25.0605 194.322 25.0605H194.424C194.616 25.0605 194.75 24.9717 194.828 24.7939C194.969 24.4795 195.149 24.1924 195.368 23.9326C195.586 23.6729 195.833 23.4518 196.106 23.2695C196.379 23.0827 196.671 22.9391 196.981 22.8389C197.295 22.734 197.614 22.6816 197.938 22.6816C198.275 22.6816 198.59 22.7318 198.881 22.832C199.178 22.9277 199.435 23.0622 199.654 23.2354C199.873 23.4085 200.043 23.6113 200.167 23.8438C200.294 24.0762 200.358 24.3268 200.358 24.5957C200.358 24.7826 200.321 24.9535 200.249 25.1084C200.176 25.2633 200.071 25.4001 199.934 25.5186C199.797 25.6325 199.631 25.7259 199.435 25.7988C199.244 25.8717 199.025 25.9196 198.779 25.9424L196.407 26.1816C196.316 26.1816 196.24 26.2044 196.181 26.25C196.126 26.2956 196.099 26.3571 196.099 26.4346C196.099 26.5531 196.142 26.667 196.229 26.7764C196.32 26.8857 196.439 26.9837 196.584 27.0703C196.735 27.1523 196.906 27.2184 197.097 27.2686C197.293 27.3187 197.494 27.3438 197.699 27.3438C197.895 27.3438 198.095 27.3255 198.3 27.2891C198.51 27.248 198.715 27.1911 198.916 27.1182C199.121 27.0452 199.319 26.9587 199.51 26.8584C199.702 26.7536 199.882 26.6351 200.05 26.5029ZM198.526 24.7393C198.594 24.7256 198.653 24.6937 198.704 24.6436C198.754 24.5889 198.779 24.5228 198.779 24.4453C198.779 24.377 198.754 24.3132 198.704 24.2539C198.653 24.1947 198.585 24.1423 198.499 24.0967C198.412 24.0465 198.312 24.0078 198.198 23.9805C198.084 23.9531 197.963 23.9395 197.835 23.9395C197.649 23.9395 197.457 23.9668 197.261 24.0215C197.065 24.0762 196.888 24.1491 196.728 24.2402C196.569 24.3268 196.439 24.4248 196.338 24.5342C196.238 24.639 196.188 24.7438 196.188 24.8486C196.188 24.9535 196.252 25.0059 196.379 25.0059C196.457 25.0059 196.582 24.9967 196.755 24.9785C196.929 24.9603 197.12 24.9398 197.33 24.917C197.539 24.8896 197.751 24.86 197.965 24.8281C198.18 24.7962 198.366 24.7666 198.526 24.7393Z" fill="black"/>
<path d="M201.096 20.2139C201.096 19.9769 201.165 19.8083 201.301 19.708C201.438 19.6077 201.664 19.5576 201.978 19.5576C202.087 19.5576 202.183 19.569 202.265 19.5918C202.347 19.6146 202.416 19.6533 202.47 19.708C202.525 19.7581 202.568 19.8288 202.6 19.9199C202.637 20.0065 202.666 20.1182 202.689 20.2549C202.748 20.6605 202.807 21.0866 202.867 21.5332C202.931 21.9753 202.99 22.4173 203.044 22.8594C203.104 23.2969 203.158 23.7253 203.208 24.1445C203.259 24.5592 203.302 24.9466 203.338 25.3066C203.379 25.6621 203.409 25.9788 203.427 26.2568C203.45 26.5303 203.461 26.7467 203.461 26.9062C203.461 27.0703 203.445 27.2093 203.414 27.3232C203.386 27.4372 203.336 27.5283 203.263 27.5967C203.195 27.665 203.104 27.7152 202.99 27.7471C202.88 27.7744 202.744 27.7881 202.58 27.7881C202.42 27.7881 202.292 27.7471 202.197 27.665C202.106 27.583 202.06 27.4577 202.06 27.2891C202.06 27.1159 202.046 26.8857 202.019 26.5986C201.992 26.307 201.955 25.9834 201.91 25.6279C201.864 25.2725 201.812 24.8942 201.752 24.4932C201.698 24.0921 201.639 23.6956 201.575 23.3037C201.515 22.9118 201.456 22.5358 201.397 22.1758C201.342 21.8112 201.292 21.4899 201.247 21.2119C201.201 20.9294 201.165 20.6992 201.137 20.5215C201.11 20.3392 201.096 20.2367 201.096 20.2139Z" fill="black"/>
<path d="M210.373 26.5029C210.505 26.389 210.635 26.332 210.762 26.332C210.835 26.332 210.901 26.3503 210.96 26.3867C211.02 26.4232 211.086 26.4801 211.159 26.5576C211.227 26.6624 211.275 26.749 211.302 26.8174C211.334 26.8812 211.35 26.945 211.35 27.0088C211.35 27.1455 211.282 27.2754 211.145 27.3984C210.926 27.5807 210.689 27.7448 210.434 27.8906C210.179 28.0319 209.912 28.1527 209.634 28.2529C209.356 28.3532 209.069 28.4284 208.773 28.4785C208.477 28.5332 208.183 28.5605 207.891 28.5605C207.522 28.5605 207.176 28.5127 206.852 28.417C206.528 28.3258 206.239 28.1937 205.984 28.0205C205.733 27.8473 205.521 27.64 205.348 27.3984C205.175 27.1523 205.052 26.8766 204.979 26.5713C204.938 26.4437 204.899 26.3617 204.863 26.3252C204.831 26.2842 204.776 26.2637 204.699 26.2637C204.53 26.2637 204.4 26.2227 204.309 26.1406C204.218 26.0586 204.172 25.9401 204.172 25.7852C204.172 25.7214 204.177 25.6803 204.186 25.6621L204.2 25.5254C204.222 25.3613 204.266 25.2428 204.33 25.1699C204.398 25.097 204.503 25.0605 204.644 25.0605H204.747C204.938 25.0605 205.072 24.9717 205.15 24.7939C205.291 24.4795 205.471 24.1924 205.69 23.9326C205.909 23.6729 206.155 23.4518 206.428 23.2695C206.702 23.0827 206.993 22.9391 207.303 22.8389C207.618 22.734 207.937 22.6816 208.26 22.6816C208.597 22.6816 208.912 22.7318 209.204 22.832C209.5 22.9277 209.757 23.0622 209.976 23.2354C210.195 23.4085 210.366 23.6113 210.489 23.8438C210.616 24.0762 210.68 24.3268 210.68 24.5957C210.68 24.7826 210.644 24.9535 210.571 25.1084C210.498 25.2633 210.393 25.4001 210.256 25.5186C210.12 25.6325 209.953 25.7259 209.757 25.7988C209.566 25.8717 209.347 25.9196 209.101 25.9424L206.729 26.1816C206.638 26.1816 206.563 26.2044 206.503 26.25C206.449 26.2956 206.421 26.3571 206.421 26.4346C206.421 26.5531 206.465 26.667 206.551 26.7764C206.642 26.8857 206.761 26.9837 206.907 27.0703C207.057 27.1523 207.228 27.2184 207.419 27.2686C207.615 27.3187 207.816 27.3438 208.021 27.3438C208.217 27.3438 208.417 27.3255 208.623 27.2891C208.832 27.248 209.037 27.1911 209.238 27.1182C209.443 27.0452 209.641 26.9587 209.833 26.8584C210.024 26.7536 210.204 26.6351 210.373 26.5029ZM208.848 24.7393C208.917 24.7256 208.976 24.6937 209.026 24.6436C209.076 24.5889 209.101 24.5228 209.101 24.4453C209.101 24.377 209.076 24.3132 209.026 24.2539C208.976 24.1947 208.907 24.1423 208.821 24.0967C208.734 24.0465 208.634 24.0078 208.52 23.9805C208.406 23.9531 208.285 23.9395 208.158 23.9395C207.971 23.9395 207.779 23.9668 207.583 24.0215C207.388 24.0762 207.21 24.1491 207.05 24.2402C206.891 24.3268 206.761 24.4248 206.661 24.5342C206.56 24.639 206.51 24.7438 206.51 24.8486C206.51 24.9535 206.574 25.0059 206.702 25.0059C206.779 25.0059 206.904 24.9967 207.078 24.9785C207.251 24.9603 207.442 24.9398 207.652 24.917C207.861 24.8896 208.073 24.86 208.288 24.8281C208.502 24.7962 208.689 24.7666 208.848 24.7393Z" fill="black"/>
<path d="M214.201 22.3604C214.438 22.3604 214.668 22.3945 214.891 22.4629C215.114 22.5312 215.31 22.6247 215.479 22.7432C215.652 22.8571 215.791 22.9893 215.896 23.1396C216.001 23.2855 216.053 23.4359 216.053 23.5908C216.053 23.6911 216.033 23.7891 215.992 23.8848C215.951 23.9759 215.896 24.0579 215.828 24.1309C215.759 24.1992 215.682 24.2562 215.595 24.3018C215.509 24.3428 215.417 24.3633 215.322 24.3633C215.217 24.3633 215.121 24.3245 215.035 24.2471C214.948 24.165 214.855 24.0762 214.754 23.9805C214.659 23.8802 214.549 23.7913 214.426 23.7139C214.308 23.6318 214.164 23.5908 213.996 23.5908C213.832 23.5908 213.683 23.6296 213.551 23.707C213.419 23.7845 213.307 23.8939 213.216 24.0352C213.13 24.1719 213.061 24.3359 213.011 24.5273C212.966 24.7142 212.943 24.9193 212.943 25.1426C212.943 25.7806 213.064 26.2682 213.305 26.6055C213.547 26.9382 213.893 27.1045 214.344 27.1045C214.558 27.1045 214.741 27.0703 214.891 27.002C215.046 26.9336 215.181 26.8584 215.294 26.7764C215.413 26.6943 215.52 26.6191 215.616 26.5508C215.711 26.4824 215.809 26.4482 215.91 26.4482C215.964 26.4482 216.019 26.4665 216.074 26.5029C216.128 26.5348 216.176 26.5781 216.217 26.6328C216.263 26.6829 216.299 26.7399 216.327 26.8037C216.359 26.8675 216.375 26.9313 216.375 26.9951C216.375 27.1455 216.299 27.3005 216.149 27.46C216.003 27.6195 215.814 27.7653 215.582 27.8975C215.349 28.0251 215.089 28.1299 214.802 28.2119C214.52 28.2939 214.244 28.335 213.975 28.335C213.615 28.335 213.285 28.2643 212.984 28.123C212.683 27.9863 212.423 27.7949 212.205 27.5488C211.986 27.2982 211.815 26.9997 211.692 26.6533C211.573 26.307 211.514 25.9242 211.514 25.5049C211.514 25.0492 211.58 24.6299 211.712 24.2471C211.849 23.8643 212.036 23.5339 212.273 23.2559C212.514 22.9733 212.799 22.7546 213.127 22.5996C213.456 22.4401 213.813 22.3604 214.201 22.3604Z" fill="black"/>
<path d="M217.181 20.1045C217.181 19.863 217.25 19.6943 217.386 19.5986C217.523 19.4984 217.749 19.4482 218.063 19.4482C218.177 19.4482 218.273 19.4596 218.35 19.4824C218.432 19.5007 218.5 19.5371 218.555 19.5918C218.614 19.6465 218.66 19.7194 218.692 19.8105C218.728 19.8971 218.758 20.0088 218.781 20.1455C218.835 20.5693 218.895 21.0068 218.958 21.458C219.027 21.9092 219.097 22.3626 219.17 22.8184C219.198 23.0234 219.305 23.126 219.492 23.126C219.542 23.126 219.624 23.1214 219.738 23.1123C219.856 23.0986 219.995 23.085 220.155 23.0713C220.314 23.0531 220.485 23.0348 220.667 23.0166C220.854 22.9984 221.039 22.9824 221.221 22.9688C221.408 22.9505 221.583 22.9368 221.748 22.9277C221.916 22.9141 222.064 22.9072 222.192 22.9072C222.292 22.9072 222.372 22.9277 222.431 22.9688C222.49 23.0052 222.536 23.0553 222.568 23.1191C222.604 23.1784 222.627 23.2467 222.636 23.3242C222.65 23.3971 222.657 23.4723 222.657 23.5498C222.657 23.6182 222.643 23.6888 222.616 23.7617C222.593 23.8346 222.559 23.9007 222.513 23.96C222.472 24.0146 222.42 24.0602 222.356 24.0967C222.292 24.1331 222.219 24.1514 222.137 24.1514C221.741 24.1514 221.34 24.165 220.934 24.1924C220.533 24.2152 220.132 24.2471 219.731 24.2881C219.526 24.3154 219.423 24.418 219.423 24.5957C219.423 24.6094 219.426 24.6276 219.43 24.6504C219.435 24.6686 219.437 24.6846 219.437 24.6982C219.492 25.0947 219.542 25.4661 219.587 25.8125C219.638 26.1589 219.679 26.4688 219.71 26.7422C219.747 27.0111 219.774 27.2367 219.792 27.4189C219.815 27.5967 219.827 27.7152 219.827 27.7744C219.827 27.9385 219.811 28.0752 219.779 28.1846C219.747 28.2985 219.694 28.3896 219.622 28.458C219.549 28.5309 219.451 28.5811 219.328 28.6084C219.209 28.6403 219.059 28.6562 218.876 28.6562C218.703 28.6562 218.576 28.6152 218.494 28.5332C218.412 28.4512 218.366 28.3258 218.357 28.1572C218.33 27.6195 218.286 27.0794 218.227 26.5371C218.168 25.9902 218.099 25.4456 218.022 24.9033C217.981 24.7074 217.878 24.6094 217.714 24.6094C217.701 24.6094 217.685 24.6117 217.667 24.6162C217.648 24.6208 217.632 24.623 217.619 24.623C217.336 24.6868 217.069 24.7507 216.819 24.8145C216.568 24.8783 216.333 24.9466 216.115 25.0195C215.992 25.0605 215.882 25.0902 215.787 25.1084C215.691 25.1221 215.604 25.1289 215.527 25.1289C215.422 25.1289 215.345 25.0833 215.294 24.9922C215.244 24.8965 215.219 24.778 215.219 24.6367C215.219 24.5866 215.224 24.5296 215.233 24.4658C215.242 24.3975 215.26 24.3314 215.288 24.2676C215.31 24.1992 215.347 24.1377 215.397 24.083C215.443 24.0238 215.506 23.9759 215.588 23.9395C215.78 23.862 216.035 23.7822 216.354 23.7002C216.673 23.6136 217.033 23.5339 217.434 23.4609C217.525 23.4382 217.596 23.4017 217.646 23.3516C217.701 23.2969 217.728 23.2171 217.728 23.1123C217.728 23.0895 217.728 23.0667 217.728 23.0439C217.728 23.0166 217.723 22.9893 217.714 22.9619C217.641 22.5426 217.571 22.1621 217.502 21.8203C217.439 21.474 217.382 21.1777 217.332 20.9316C217.286 20.6855 217.25 20.4919 217.222 20.3506C217.195 20.2093 217.181 20.1273 217.181 20.1045Z" fill="black"/>
<path d="M228.078 26.5029C228.21 26.389 228.34 26.332 228.467 26.332C228.54 26.332 228.606 26.3503 228.666 26.3867C228.725 26.4232 228.791 26.4801 228.864 26.5576C228.932 26.6624 228.98 26.749 229.007 26.8174C229.039 26.8812 229.055 26.945 229.055 27.0088C229.055 27.1455 228.987 27.2754 228.85 27.3984C228.631 27.5807 228.394 27.7448 228.139 27.8906C227.884 28.0319 227.617 28.1527 227.339 28.2529C227.061 28.3532 226.774 28.4284 226.478 28.4785C226.182 28.5332 225.888 28.5605 225.596 28.5605C225.227 28.5605 224.881 28.5127 224.557 28.417C224.234 28.3258 223.944 28.1937 223.689 28.0205C223.438 27.8473 223.226 27.64 223.053 27.3984C222.88 27.1523 222.757 26.8766 222.684 26.5713C222.643 26.4437 222.604 26.3617 222.568 26.3252C222.536 26.2842 222.481 26.2637 222.404 26.2637C222.235 26.2637 222.105 26.2227 222.014 26.1406C221.923 26.0586 221.877 25.9401 221.877 25.7852C221.877 25.7214 221.882 25.6803 221.891 25.6621L221.905 25.5254C221.928 25.3613 221.971 25.2428 222.035 25.1699C222.103 25.097 222.208 25.0605 222.349 25.0605H222.452C222.643 25.0605 222.778 24.9717 222.855 24.7939C222.996 24.4795 223.176 24.1924 223.395 23.9326C223.614 23.6729 223.86 23.4518 224.133 23.2695C224.407 23.0827 224.698 22.9391 225.008 22.8389C225.323 22.734 225.642 22.6816 225.965 22.6816C226.303 22.6816 226.617 22.7318 226.909 22.832C227.205 22.9277 227.462 23.0622 227.681 23.2354C227.9 23.4085 228.071 23.6113 228.194 23.8438C228.321 24.0762 228.385 24.3268 228.385 24.5957C228.385 24.7826 228.349 24.9535 228.276 25.1084C228.203 25.2633 228.098 25.4001 227.961 25.5186C227.825 25.6325 227.658 25.7259 227.462 25.7988C227.271 25.8717 227.052 25.9196 226.806 25.9424L224.434 26.1816C224.343 26.1816 224.268 26.2044 224.208 26.25C224.154 26.2956 224.126 26.3571 224.126 26.4346C224.126 26.5531 224.17 26.667 224.256 26.7764C224.347 26.8857 224.466 26.9837 224.612 27.0703C224.762 27.1523 224.933 27.2184 225.125 27.2686C225.32 27.3187 225.521 27.3438 225.726 27.3438C225.922 27.3438 226.123 27.3255 226.328 27.2891C226.537 27.248 226.742 27.1911 226.943 27.1182C227.148 27.0452 227.346 26.9587 227.538 26.8584C227.729 26.7536 227.909 26.6351 228.078 26.5029ZM226.553 24.7393C226.622 24.7256 226.681 24.6937 226.731 24.6436C226.781 24.5889 226.806 24.5228 226.806 24.4453C226.806 24.377 226.781 24.3132 226.731 24.2539C226.681 24.1947 226.612 24.1423 226.526 24.0967C226.439 24.0465 226.339 24.0078 226.225 23.9805C226.111 23.9531 225.99 23.9395 225.863 23.9395C225.676 23.9395 225.485 23.9668 225.289 24.0215C225.093 24.0762 224.915 24.1491 224.755 24.2402C224.596 24.3268 224.466 24.4248 224.366 24.5342C224.265 24.639 224.215 24.7438 224.215 24.8486C224.215 24.9535 224.279 25.0059 224.407 25.0059C224.484 25.0059 224.61 24.9967 224.783 24.9785C224.956 24.9603 225.147 24.9398 225.357 24.917C225.567 24.8896 225.778 24.86 225.993 24.8281C226.207 24.7962 226.394 24.7666 226.553 24.7393Z" fill="black"/>
<path d="M234.066 23.0029C234.084 23.012 234.111 23.0166 234.148 23.0166C234.248 23.0166 234.298 22.9505 234.298 22.8184V20.6924C234.298 20.4235 234.358 20.2321 234.476 20.1182C234.599 20.0042 234.802 19.9473 235.084 19.9473C235.372 19.9473 235.574 20.0065 235.693 20.125C235.811 20.2435 235.871 20.4463 235.871 20.7334C235.871 20.8428 235.864 21.0046 235.85 21.2188C235.836 21.4284 235.82 21.6676 235.802 21.9365C235.789 22.2054 235.775 22.4948 235.761 22.8047C235.748 23.11 235.741 23.4131 235.741 23.7139C235.741 24.1787 235.773 24.5798 235.836 24.917C235.9 25.2542 235.991 25.5345 236.11 25.7578C236.228 25.9766 236.37 26.1406 236.534 26.25C236.698 26.3548 236.882 26.4072 237.087 26.4072C237.201 26.4072 237.304 26.3936 237.395 26.3662C237.491 26.3343 237.602 26.3184 237.73 26.3184C237.821 26.3184 237.896 26.3662 237.956 26.4619C238.019 26.5531 238.051 26.6647 238.051 26.7969C238.051 26.9154 238.015 27.027 237.942 27.1318C237.874 27.2367 237.778 27.3278 237.655 27.4053C237.536 27.4827 237.397 27.5443 237.238 27.5898C237.078 27.6309 236.912 27.6514 236.739 27.6514C236.365 27.6514 236.023 27.5374 235.713 27.3096C235.403 27.0771 235.171 26.724 235.016 26.25C235.002 26.1771 234.98 26.1406 234.948 26.1406C234.911 26.1406 234.882 26.1771 234.859 26.25C234.736 26.5827 234.574 26.8835 234.374 27.1523C234.178 27.4167 233.947 27.6445 233.683 27.8359C233.423 28.0228 233.136 28.1663 232.822 28.2666C232.512 28.3669 232.184 28.417 231.837 28.417C231.473 28.417 231.138 28.3555 230.833 28.2324C230.532 28.1139 230.272 27.9476 230.053 27.7334C229.834 27.5146 229.664 27.2594 229.541 26.9678C229.417 26.6715 229.356 26.3525 229.356 26.0107C229.356 25.5732 229.447 25.1608 229.629 24.7734C229.812 24.3861 230.058 24.0488 230.368 23.7617C230.682 23.4701 231.047 23.2399 231.461 23.0713C231.876 22.9027 232.318 22.8184 232.788 22.8184C232.979 22.8184 233.182 22.8343 233.396 22.8662C233.61 22.8936 233.833 22.9391 234.066 23.0029ZM232.104 27.1865C232.364 27.1865 232.594 27.1296 232.794 27.0156C233 26.9017 233.18 26.7581 233.334 26.585C233.494 26.4072 233.628 26.2135 233.738 26.0039C233.847 25.7897 233.936 25.5824 234.004 25.3818C234.073 25.1813 234.123 25.0013 234.155 24.8418C234.187 24.6823 234.203 24.5684 234.203 24.5C234.203 24.4499 234.189 24.4066 234.162 24.3701C234.134 24.3291 234.093 24.2972 234.039 24.2744C233.916 24.2425 233.788 24.2152 233.656 24.1924C233.524 24.165 233.394 24.1423 233.266 24.124C233.139 24.1058 233.015 24.0921 232.897 24.083C232.783 24.0739 232.678 24.0693 232.583 24.0693C232.309 24.0693 232.061 24.1104 231.837 24.1924C231.614 24.2744 231.423 24.3906 231.263 24.541C231.108 24.6914 230.987 24.8714 230.901 25.0811C230.814 25.2861 230.771 25.5117 230.771 25.7578C230.771 25.9766 230.803 26.1748 230.867 26.3525C230.935 26.5257 231.026 26.6738 231.14 26.7969C231.259 26.9199 231.4 27.0156 231.564 27.084C231.728 27.1523 231.908 27.1865 232.104 27.1865Z" fill="black"/>
<path d="M163.458 36.8184C163.458 36.7682 163.446 36.693 163.423 36.5928C163.401 36.4925 163.373 36.3786 163.341 36.251C163.309 36.1188 163.273 35.9798 163.232 35.834C163.191 35.6836 163.154 35.5378 163.123 35.3965C163.091 35.2552 163.063 35.123 163.041 35C163.018 34.877 163.006 34.7744 163.006 34.6924C163.006 34.5876 163.036 34.5033 163.095 34.4395C163.154 34.3711 163.23 34.3187 163.321 34.2822C163.412 34.2458 163.51 34.2207 163.615 34.207C163.72 34.1934 163.82 34.1865 163.916 34.1865C164.034 34.1865 164.148 34.2207 164.257 34.2891C164.371 34.3529 164.449 34.4691 164.49 34.6377C164.54 34.8154 164.581 34.9954 164.613 35.1777C164.649 35.3555 164.681 35.5309 164.708 35.7041C164.736 35.8727 164.761 36.0368 164.784 36.1963C164.811 36.3558 164.838 36.5039 164.866 36.6406C164.893 36.75 164.927 36.8366 164.968 36.9004C165.014 36.9642 165.066 37.0143 165.125 37.0508C165.189 37.0827 165.255 37.1032 165.324 37.1123C165.397 37.1214 165.474 37.126 165.556 37.126C165.647 37.126 165.745 37.1169 165.85 37.0986C165.955 37.0804 166.057 37.0713 166.158 37.0713C166.222 37.0713 166.283 37.0827 166.342 37.1055C166.406 37.1237 166.463 37.1602 166.513 37.2148C166.563 37.265 166.602 37.3356 166.629 37.4268C166.661 37.5179 166.677 37.6341 166.677 37.7754C166.677 37.8939 166.654 37.9941 166.609 38.0762C166.563 38.1536 166.477 38.2061 166.349 38.2334L166.103 38.2881C166.026 38.3018 165.953 38.3132 165.884 38.3223C165.82 38.3268 165.738 38.3337 165.638 38.3428C165.424 38.3656 165.317 38.459 165.317 38.623C165.317 38.6367 165.326 38.6982 165.344 38.8076C165.362 38.917 165.385 39.0537 165.413 39.2178C165.444 39.3773 165.479 39.555 165.515 39.751C165.552 39.9424 165.586 40.127 165.618 40.3047C165.654 40.4824 165.686 40.6419 165.713 40.7832C165.741 40.9199 165.761 41.0179 165.775 41.0771C165.798 41.1774 165.816 41.2549 165.83 41.3096C165.843 41.3643 165.85 41.4395 165.85 41.5352C165.85 41.6081 165.83 41.681 165.789 41.7539C165.748 41.8223 165.686 41.8838 165.604 41.9385C165.527 41.9932 165.431 42.0365 165.317 42.0684C165.203 42.1048 165.073 42.123 164.927 42.123C164.768 42.123 164.652 42.0752 164.579 41.9795C164.51 41.8792 164.462 41.7653 164.435 41.6377C164.376 41.4007 164.319 41.1569 164.264 40.9062C164.214 40.6556 164.164 40.4072 164.114 40.1611C164.068 39.915 164.023 39.6758 163.977 39.4434C163.936 39.2064 163.897 38.9808 163.861 38.7666C163.838 38.6663 163.797 38.5934 163.738 38.5479C163.679 38.4977 163.603 38.4727 163.512 38.4727C163.202 38.4727 162.89 38.484 162.576 38.5068C162.266 38.5251 161.96 38.541 161.66 38.5547C161.555 38.5638 161.473 38.598 161.414 38.6572C161.354 38.7165 161.325 38.7939 161.325 38.8896C161.325 39.1038 161.327 39.3158 161.332 39.5254C161.336 39.735 161.338 39.9492 161.338 40.168C161.338 40.4186 161.334 40.6761 161.325 40.9404C161.32 41.2048 161.311 41.46 161.297 41.7061C161.288 41.7972 161.261 41.8724 161.215 41.9316C161.174 41.9909 161.12 42.0387 161.051 42.0752C160.987 42.1117 160.912 42.1367 160.826 42.1504C160.744 42.1641 160.659 42.1709 160.573 42.1709C160.359 42.1709 160.192 42.1344 160.074 42.0615C159.955 41.9932 159.896 41.8747 159.896 41.7061C159.896 41.4508 159.903 41.1842 159.917 40.9062C159.93 40.6283 159.937 40.348 159.937 40.0654C159.937 39.874 159.935 39.6895 159.93 39.5117C159.926 39.3294 159.923 39.1426 159.923 38.9512C159.923 38.8646 159.903 38.8008 159.862 38.7598C159.825 38.7142 159.78 38.6777 159.725 38.6504C159.67 38.623 159.609 38.598 159.541 38.5752C159.472 38.5479 159.411 38.5091 159.356 38.459C159.301 38.4089 159.253 38.3359 159.212 38.2402C159.176 38.1445 159.158 38.0124 159.158 37.8438C159.158 37.7526 159.174 37.682 159.206 37.6318C159.242 37.5771 159.285 37.5339 159.335 37.502C159.39 37.4701 159.447 37.445 159.506 37.4268C159.566 37.404 159.62 37.3766 159.67 37.3447C159.725 37.3128 159.768 37.2741 159.8 37.2285C159.837 37.1784 159.855 37.1077 159.855 37.0166C159.855 36.9619 159.853 36.8981 159.848 36.8252C159.844 36.7477 159.839 36.6748 159.834 36.6064C159.83 36.5381 159.825 36.4788 159.821 36.4287C159.816 36.374 159.814 36.3376 159.814 36.3193C159.814 36.1644 159.834 36.0413 159.875 35.9502C159.921 35.8545 159.976 35.7839 160.04 35.7383C160.103 35.6882 160.174 35.6562 160.251 35.6426C160.333 35.6243 160.411 35.6152 160.484 35.6152C160.757 35.6152 160.946 35.6676 161.051 35.7725C161.161 35.8727 161.22 36.0208 161.229 36.2168L161.256 36.9346C161.265 37.0439 161.295 37.1283 161.345 37.1875C161.395 37.2422 161.477 37.2695 161.591 37.2695L163.143 37.2148C163.275 37.2057 163.36 37.1693 163.396 37.1055C163.437 37.0417 163.458 36.946 163.458 36.8184Z" fill="black"/>
<path d="M173.021 40.5029C173.153 40.389 173.283 40.332 173.411 40.332C173.484 40.332 173.55 40.3503 173.609 40.3867C173.668 40.4232 173.734 40.4801 173.807 40.5576C173.875 40.6624 173.923 40.749 173.951 40.8174C173.983 40.8812 173.999 40.945 173.999 41.0088C173.999 41.1455 173.93 41.2754 173.793 41.3984C173.575 41.5807 173.338 41.7448 173.083 41.8906C172.827 42.0319 172.561 42.1527 172.283 42.2529C172.005 42.3532 171.718 42.4284 171.421 42.4785C171.125 42.5332 170.831 42.5605 170.54 42.5605C170.17 42.5605 169.824 42.5127 169.5 42.417C169.177 42.3258 168.888 42.1937 168.632 42.0205C168.382 41.8473 168.17 41.64 167.997 41.3984C167.823 41.1523 167.7 40.8766 167.627 40.5713C167.586 40.4437 167.548 40.3617 167.511 40.3252C167.479 40.2842 167.425 40.2637 167.347 40.2637C167.179 40.2637 167.049 40.2227 166.958 40.1406C166.866 40.0586 166.821 39.9401 166.821 39.7852C166.821 39.7214 166.825 39.6803 166.834 39.6621L166.848 39.5254C166.871 39.3613 166.914 39.2428 166.978 39.1699C167.046 39.097 167.151 39.0605 167.292 39.0605H167.395C167.586 39.0605 167.721 38.9717 167.798 38.7939C167.94 38.4795 168.12 38.1924 168.338 37.9326C168.557 37.6729 168.803 37.4518 169.077 37.2695C169.35 37.0827 169.642 36.9391 169.952 36.8389C170.266 36.734 170.585 36.6816 170.909 36.6816C171.246 36.6816 171.56 36.7318 171.852 36.832C172.148 36.9277 172.406 37.0622 172.625 37.2354C172.843 37.4085 173.014 37.6113 173.137 37.8438C173.265 38.0762 173.329 38.3268 173.329 38.5957C173.329 38.7826 173.292 38.9535 173.219 39.1084C173.146 39.2633 173.042 39.4001 172.905 39.5186C172.768 39.6325 172.602 39.7259 172.406 39.7988C172.214 39.8717 171.996 39.9196 171.75 39.9424L169.377 40.1816C169.286 40.1816 169.211 40.2044 169.152 40.25C169.097 40.2956 169.07 40.3571 169.07 40.4346C169.07 40.5531 169.113 40.667 169.2 40.7764C169.291 40.8857 169.409 40.9837 169.555 41.0703C169.706 41.1523 169.876 41.2184 170.068 41.2686C170.264 41.3187 170.464 41.3438 170.669 41.3438C170.865 41.3438 171.066 41.3255 171.271 41.2891C171.481 41.248 171.686 41.1911 171.886 41.1182C172.091 41.0452 172.29 40.9587 172.481 40.8584C172.672 40.7536 172.852 40.6351 173.021 40.5029ZM171.497 38.7393C171.565 38.7256 171.624 38.6937 171.674 38.6436C171.724 38.5889 171.75 38.5228 171.75 38.4453C171.75 38.377 171.724 38.3132 171.674 38.2539C171.624 38.1947 171.556 38.1423 171.469 38.0967C171.383 38.0465 171.282 38.0078 171.168 37.9805C171.055 37.9531 170.934 37.9395 170.806 37.9395C170.619 37.9395 170.428 37.9668 170.232 38.0215C170.036 38.0762 169.858 38.1491 169.699 38.2402C169.539 38.3268 169.409 38.4248 169.309 38.5342C169.209 38.639 169.159 38.7438 169.159 38.8486C169.159 38.9535 169.222 39.0059 169.35 39.0059C169.428 39.0059 169.553 38.9967 169.726 38.9785C169.899 38.9603 170.091 38.9398 170.3 38.917C170.51 38.8896 170.722 38.86 170.936 38.8281C171.15 38.7962 171.337 38.7666 171.497 38.7393Z" fill="black"/>
<path d="M178.729 36.0254C178.98 36.0254 179.221 36.0641 179.454 36.1416C179.686 36.2191 179.891 36.3262 180.069 36.4629C180.247 36.5996 180.388 36.7637 180.493 36.9551C180.602 37.1465 180.657 37.3584 180.657 37.5908C180.657 37.6865 180.634 37.7799 180.588 37.8711C180.547 37.9577 180.49 38.0352 180.417 38.1035C180.345 38.1673 180.26 38.2197 180.165 38.2607C180.073 38.2972 179.978 38.3154 179.877 38.3154C179.868 38.3154 179.859 38.3177 179.85 38.3223C179.846 38.3223 179.839 38.3223 179.83 38.3223C179.82 38.3268 179.811 38.3291 179.802 38.3291L179.83 38.876C179.848 39.5277 179.939 40.0039 180.103 40.3047C180.272 40.6055 180.49 40.7559 180.759 40.7559C180.855 40.7559 180.939 40.7467 181.012 40.7285C181.09 40.7103 181.16 40.6898 181.224 40.667C181.292 40.6396 181.356 40.6169 181.416 40.5986C181.475 40.5804 181.534 40.5713 181.593 40.5713C181.698 40.5713 181.789 40.6169 181.867 40.708C181.949 40.7992 181.99 40.9085 181.99 41.0361C181.99 41.1637 181.94 41.2913 181.839 41.4189C181.744 41.5465 181.616 41.6628 181.457 41.7676C181.297 41.8678 181.117 41.9499 180.917 42.0137C180.716 42.0775 180.513 42.1094 180.308 42.1094C179.953 42.1094 179.64 41.9635 179.372 41.6719C179.103 41.3757 178.911 40.9427 178.797 40.373C178.77 40.2819 178.734 40.2363 178.688 40.2363C178.633 40.2363 178.585 40.2637 178.544 40.3184C178.093 40.888 177.612 41.3164 177.102 41.6035C176.592 41.8861 176.088 42.0273 175.591 42.0273C175.359 42.0273 175.149 41.9932 174.962 41.9248C174.776 41.8564 174.616 41.7607 174.484 41.6377C174.356 41.5101 174.256 41.3574 174.183 41.1797C174.115 40.9974 174.081 40.7946 174.081 40.5713C174.081 40.2568 174.149 39.9264 174.286 39.5801C174.427 39.2337 174.616 38.8919 174.853 38.5547C175.09 38.2174 175.363 37.8962 175.673 37.5908C175.988 37.2855 176.316 37.0166 176.658 36.7842C177.004 36.5518 177.355 36.3672 177.71 36.2305C178.066 36.0938 178.405 36.0254 178.729 36.0254ZM178.503 38.3906C178.585 38.2357 178.661 38.124 178.729 38.0557C178.797 37.9827 178.895 37.9349 179.023 37.9121C179.123 37.8984 179.173 37.8665 179.173 37.8164C179.173 37.7799 179.16 37.7412 179.132 37.7002C179.046 37.5817 178.955 37.4792 178.859 37.3926C178.763 37.3014 178.636 37.2559 178.476 37.2559C178.303 37.2559 178.109 37.306 177.895 37.4062C177.681 37.5065 177.462 37.641 177.239 37.8096C177.02 37.9736 176.804 38.1628 176.589 38.377C176.38 38.5866 176.193 38.8031 176.029 39.0264C175.865 39.2497 175.733 39.4707 175.632 39.6895C175.532 39.9082 175.482 40.1042 175.482 40.2773C175.482 40.4323 175.523 40.5531 175.605 40.6396C175.692 40.7262 175.808 40.7695 175.954 40.7695C176.327 40.7695 176.735 40.5713 177.177 40.1748C177.619 39.7783 178.061 39.1836 178.503 38.3906Z" fill="black"/>
<path d="M186.789 37.0029C186.807 37.012 186.834 37.0166 186.871 37.0166C186.971 37.0166 187.021 36.9505 187.021 36.8184V34.6924C187.021 34.4235 187.08 34.2321 187.199 34.1182C187.322 34.0042 187.525 33.9473 187.807 33.9473C188.094 33.9473 188.297 34.0065 188.416 34.125C188.534 34.2435 188.593 34.4463 188.593 34.7334C188.593 34.8428 188.586 35.0046 188.573 35.2188C188.559 35.4284 188.543 35.6676 188.525 35.9365C188.511 36.2054 188.498 36.4948 188.484 36.8047C188.47 37.11 188.463 37.4131 188.463 37.7139C188.463 38.1787 188.495 38.5798 188.559 38.917C188.623 39.2542 188.714 39.5345 188.833 39.7578C188.951 39.9766 189.092 40.1406 189.256 40.25C189.42 40.3548 189.605 40.4072 189.81 40.4072C189.924 40.4072 190.027 40.3936 190.118 40.3662C190.213 40.3343 190.325 40.3184 190.453 40.3184C190.544 40.3184 190.619 40.3662 190.678 40.4619C190.742 40.5531 190.774 40.6647 190.774 40.7969C190.774 40.9154 190.737 41.027 190.665 41.1318C190.596 41.2367 190.5 41.3278 190.377 41.4053C190.259 41.4827 190.12 41.5443 189.96 41.5898C189.801 41.6309 189.635 41.6514 189.461 41.6514C189.088 41.6514 188.746 41.5374 188.436 41.3096C188.126 41.0771 187.894 40.724 187.739 40.25C187.725 40.1771 187.702 40.1406 187.67 40.1406C187.634 40.1406 187.604 40.1771 187.582 40.25C187.458 40.5827 187.297 40.8835 187.096 41.1523C186.9 41.4167 186.67 41.6445 186.406 41.8359C186.146 42.0228 185.859 42.1663 185.544 42.2666C185.235 42.3669 184.906 42.417 184.56 42.417C184.195 42.417 183.861 42.3555 183.555 42.2324C183.254 42.1139 182.995 41.9476 182.776 41.7334C182.557 41.5146 182.386 41.2594 182.263 40.9678C182.14 40.6715 182.079 40.3525 182.079 40.0107C182.079 39.5732 182.17 39.1608 182.352 38.7734C182.534 38.3861 182.78 38.0488 183.09 37.7617C183.405 37.4701 183.769 37.2399 184.184 37.0713C184.599 36.9027 185.041 36.8184 185.51 36.8184C185.702 36.8184 185.904 36.8343 186.119 36.8662C186.333 36.8936 186.556 36.9391 186.789 37.0029ZM184.827 41.1865C185.086 41.1865 185.317 41.1296 185.517 41.0156C185.722 40.9017 185.902 40.7581 186.057 40.585C186.217 40.4072 186.351 40.2135 186.46 40.0039C186.57 39.7897 186.659 39.5824 186.727 39.3818C186.795 39.1813 186.846 39.0013 186.877 38.8418C186.909 38.6823 186.925 38.5684 186.925 38.5C186.925 38.4499 186.912 38.4066 186.884 38.3701C186.857 38.3291 186.816 38.2972 186.761 38.2744C186.638 38.2425 186.511 38.2152 186.378 38.1924C186.246 38.165 186.116 38.1423 185.989 38.124C185.861 38.1058 185.738 38.0921 185.62 38.083C185.506 38.0739 185.401 38.0693 185.305 38.0693C185.032 38.0693 184.783 38.1104 184.56 38.1924C184.337 38.2744 184.145 38.3906 183.986 38.541C183.831 38.6914 183.71 38.8714 183.624 39.0811C183.537 39.2861 183.494 39.5117 183.494 39.7578C183.494 39.9766 183.526 40.1748 183.589 40.3525C183.658 40.5257 183.749 40.6738 183.863 40.7969C183.981 40.9199 184.123 41.0156 184.287 41.084C184.451 41.1523 184.631 41.1865 184.827 41.1865Z" fill="black"/>
<path d="M196.236 40.5029C196.368 40.389 196.498 40.332 196.625 40.332C196.698 40.332 196.764 40.3503 196.824 40.3867C196.883 40.4232 196.949 40.4801 197.022 40.5576C197.09 40.6624 197.138 40.749 197.166 40.8174C197.197 40.8812 197.213 40.945 197.213 41.0088C197.213 41.1455 197.145 41.2754 197.008 41.3984C196.79 41.5807 196.553 41.7448 196.297 41.8906C196.042 42.0319 195.776 42.1527 195.498 42.2529C195.22 42.3532 194.932 42.4284 194.636 42.4785C194.34 42.5332 194.046 42.5605 193.754 42.5605C193.385 42.5605 193.039 42.5127 192.715 42.417C192.392 42.3258 192.102 42.1937 191.847 42.0205C191.597 41.8473 191.385 41.64 191.211 41.3984C191.038 41.1523 190.915 40.8766 190.842 40.5713C190.801 40.4437 190.763 40.3617 190.726 40.3252C190.694 40.2842 190.639 40.2637 190.562 40.2637C190.393 40.2637 190.264 40.2227 190.172 40.1406C190.081 40.0586 190.036 39.9401 190.036 39.7852C190.036 39.7214 190.04 39.6803 190.049 39.6621L190.063 39.5254C190.086 39.3613 190.129 39.2428 190.193 39.1699C190.261 39.097 190.366 39.0605 190.507 39.0605H190.61C190.801 39.0605 190.936 38.9717 191.013 38.7939C191.154 38.4795 191.334 38.1924 191.553 37.9326C191.772 37.6729 192.018 37.4518 192.292 37.2695C192.565 37.0827 192.857 36.9391 193.167 36.8389C193.481 36.734 193.8 36.6816 194.124 36.6816C194.461 36.6816 194.775 36.7318 195.067 36.832C195.363 36.9277 195.621 37.0622 195.839 37.2354C196.058 37.4085 196.229 37.6113 196.352 37.8438C196.48 38.0762 196.543 38.3268 196.543 38.5957C196.543 38.7826 196.507 38.9535 196.434 39.1084C196.361 39.2633 196.256 39.4001 196.12 39.5186C195.983 39.6325 195.817 39.7259 195.621 39.7988C195.429 39.8717 195.21 39.9196 194.964 39.9424L192.592 40.1816C192.501 40.1816 192.426 40.2044 192.367 40.25C192.312 40.2956 192.285 40.3571 192.285 40.4346C192.285 40.5531 192.328 40.667 192.415 40.7764C192.506 40.8857 192.624 40.9837 192.77 41.0703C192.92 41.1523 193.091 41.2184 193.283 41.2686C193.479 41.3187 193.679 41.3438 193.884 41.3438C194.08 41.3438 194.281 41.3255 194.486 41.2891C194.695 41.248 194.901 41.1911 195.101 41.1182C195.306 41.0452 195.504 40.9587 195.696 40.8584C195.887 40.7536 196.067 40.6351 196.236 40.5029ZM194.711 38.7393C194.78 38.7256 194.839 38.6937 194.889 38.6436C194.939 38.5889 194.964 38.5228 194.964 38.4453C194.964 38.377 194.939 38.3132 194.889 38.2539C194.839 38.1947 194.771 38.1423 194.684 38.0967C194.597 38.0465 194.497 38.0078 194.383 37.9805C194.269 37.9531 194.149 37.9395 194.021 37.9395C193.834 37.9395 193.643 37.9668 193.447 38.0215C193.251 38.0762 193.073 38.1491 192.914 38.2402C192.754 38.3268 192.624 38.4248 192.524 38.5342C192.424 38.639 192.374 38.7438 192.374 38.8486C192.374 38.9535 192.437 39.0059 192.565 39.0059C192.642 39.0059 192.768 38.9967 192.941 38.9785C193.114 38.9603 193.306 38.9398 193.515 38.917C193.725 38.8896 193.937 38.86 194.151 38.8281C194.365 38.7962 194.552 38.7666 194.711 38.7393Z" fill="black"/>
<path d="M201.356 36.8867C201.187 36.8867 201.039 36.9323 200.912 37.0234C200.784 37.11 200.675 37.2331 200.583 37.3926C200.492 37.5475 200.417 37.7321 200.358 37.9463C200.299 38.1559 200.251 38.3861 200.214 38.6367C200.178 38.8874 200.153 39.1494 200.139 39.4229C200.125 39.6963 200.119 39.972 200.119 40.25C200.119 40.6146 200.132 40.9746 200.16 41.3301C200.192 41.681 200.208 42.0068 200.208 42.3076C200.208 42.5036 200.135 42.6562 199.989 42.7656C199.843 42.8796 199.636 42.9365 199.367 42.9365C199.317 42.9365 199.26 42.932 199.196 42.9229C199.132 42.9137 199.07 42.8955 199.011 42.8682C198.957 42.8408 198.906 42.8021 198.861 42.752C198.82 42.7064 198.797 42.6426 198.792 42.5605C198.751 42.1595 198.692 41.7493 198.615 41.3301C198.537 40.9108 198.439 40.4938 198.321 40.0791C198.207 39.6598 198.068 39.2451 197.904 38.835C197.744 38.4248 197.56 38.0238 197.35 37.6318C197.314 37.5635 197.282 37.4997 197.254 37.4404C197.232 37.3812 197.22 37.3242 197.22 37.2695C197.22 37.2012 197.25 37.1283 197.309 37.0508C197.373 36.9688 197.45 36.8936 197.542 36.8252C197.637 36.7568 197.74 36.7021 197.849 36.6611C197.963 36.6156 198.072 36.5928 198.177 36.5928C198.35 36.5928 198.503 36.7135 198.635 36.9551C198.767 37.1921 198.89 37.5726 199.004 38.0967C199.027 38.1878 199.045 38.2516 199.059 38.2881C199.073 38.3245 199.091 38.3428 199.114 38.3428C199.164 38.3428 199.196 38.2653 199.209 38.1104C199.264 37.6774 199.358 37.306 199.49 36.9961C199.622 36.6816 199.786 36.4242 199.982 36.2236C200.182 36.0186 200.41 35.8682 200.666 35.7725C200.925 35.6768 201.21 35.6289 201.52 35.6289C201.698 35.6289 201.878 35.6449 202.06 35.6768C202.242 35.7087 202.406 35.7565 202.552 35.8203C202.698 35.8841 202.817 35.9616 202.908 36.0527C202.999 36.1439 203.044 36.2464 203.044 36.3604C203.044 36.4424 203.026 36.5404 202.99 36.6543C202.958 36.7637 202.915 36.8708 202.86 36.9756C202.805 37.0758 202.741 37.1624 202.668 37.2354C202.6 37.3037 202.529 37.3379 202.457 37.3379C202.375 37.3379 202.295 37.3151 202.217 37.2695C202.14 37.2194 202.056 37.167 201.964 37.1123C201.878 37.0576 201.784 37.0075 201.684 36.9619C201.588 36.9118 201.479 36.8867 201.356 36.8867Z" fill="black"/>
<ellipse opacity="0.2" cx="85.5" cy="167" rx="85.5" ry="15" fill="#CECECE"/>
<path d="M113.234 119.067C108.545 119.845 85.8043 118.877 78.723 103.942L83.3029 103.245C83.9981 103.152 84.7332 103.453 85.1132 104.189C86.7823 107.446 93.0861 116.336 113.181 118.086L113.234 119.067Z" fill="#E2505E"/>
<path d="M113.181 118.086C110.484 117.889 108.005 117.529 105.744 117.007L105.605 117.959C102.008 117.923 87.5987 114.567 79.2524 104.991C86.7719 118.92 108.654 119.763 113.234 119.067L113.181 118.086Z" fill="#C93A4F"/>
<path d="M83.1686 89.4158L77.0659 88.5298L74.9779 102.912L81.0806 103.798L83.1686 89.4158Z" fill="#FABE82"/>
<path d="M85.076 134.624C85.076 134.624 89.2582 115.877 85.6964 105.538C84.1255 100.933 77.915 99.4481 75.0668 99.6181C65.813 100.317 64.8928 129.456 65.2059 136.018C65.3217 139.244 68.4664 147.092 58.2432 155.138L59.3016 157.237C59.3016 157.237 67.815 152.249 68.946 145.8C70.0909 139.256 75.1075 138.234 78.5417 138.051C81.9898 137.774 89.6372 142.774 93.4064 151.685L95.7655 150.861C95.7655 150.861 91.6192 139.853 85.076 134.624Z" fill="#E2505E"/>
<path d="M86.397 134.913L65.17 133.581L65.1934 135.433L86.2034 136.246L86.397 134.913Z" fill="#C93A4F"/>
<path d="M65.4734 125.456C65.6503 125.579 71.586 108.838 72.0109 101.217C67.8191 105.276 65.9828 116.583 65.4734 125.456Z" fill="#C93A4F"/>
<path d="M84.5623 132.798C84.8207 133.03 85.0791 133.263 85.3375 133.495C85.9984 130.284 87.5028 121.263 87.0157 113.218C86.9909 112.047 84.5623 132.798 84.5623 132.798Z" fill="#C93A4F"/>
<path d="M95.0609 149.008L92.9063 149.765C89.2325 140.868 81.9374 136.794 78.5032 136.976C75.0552 137.253 69.5908 137.335 68.446 143.88C67.3011 150.424 58.8016 155.317 58.8016 155.317L58.5708 154.894C58.4616 154.976 58.4478 155.071 58.3524 155.057L59.4108 157.156C59.4108 157.156 67.9242 152.168 69.0553 145.719C69.9527 140.208 74.5769 137.865 79.5215 138.68C84.48 139.4 89.9633 143.211 93.5156 151.604L95.8747 150.779C95.7655 150.861 95.4809 150.139 95.0609 149.008Z" fill="#C93A4F"/>
<path d="M61.1614 147.782C61.1614 147.782 66.7254 145.672 70.8242 146.948C74.923 148.224 53.2553 162 53.2553 162L55.7979 164.606L48.3325 163.717L61.1614 147.782Z" fill="#FFCD5C"/>
<path d="M70.8238 146.948C69.7072 146.591 68.4537 146.507 67.2818 146.531C64.1221 152.199 58.797 157.358 49.6671 163.91L55.8928 164.62L53.3502 162.014C53.2548 162 74.9226 148.224 70.8238 146.948Z" fill="#E8B246"/>
<path d="M89.1253 146.298C89.1253 146.298 90.0985 143.619 95.3802 146.137C100.213 148.394 100.034 168.403 100.034 168.403L106.377 171.658L97.1953 170.519L89.1253 146.298Z" fill="#FFCD5C"/>
<path d="M99.1978 170.81L106.472 171.671L100.13 168.416C100.13 168.416 100.308 148.408 95.4756 146.151C95.2988 146.028 95.2034 146.014 95.0127 145.986C97.2577 153.995 98.9248 164.643 99.1978 170.81Z" fill="#E8B246"/>
<path d="M48.4577 123.958C48.4788 120.46 54.4355 100.221 74.7671 99.6718L75.2876 104.805C75.2876 104.805 57.0691 104.883 49.3836 124.287L48.4577 123.958Z" fill="#E2505E"/>
<path d="M51.0865 117.921C49.7719 120.94 48.5003 122.992 48.5389 124.067L49.574 124.315C55.2594 109.969 66.6181 106.172 72.2207 105.137C66.6872 105.696 58.192 108.547 51.0865 117.921Z" fill="#C93A4F"/>
<path d="M86.6752 132.327L64.7378 131.865L64.9781 134.234L86.5049 135.512L86.6752 132.327Z" fill="#FFCD5C"/>
<path d="M49.7384 123.852C49.7384 123.852 53.041 127.93 51.84 128.826C50.639 129.721 45.8836 129.614 47.9114 124.365C48.1036 123.712 49.7384 123.852 49.7384 123.852Z" fill="#FFCD5C"/>
<path d="M49.2868 124.954C49.2868 124.954 53.2202 120.662 54.9767 121.306C54.9767 121.306 49.7284 115.876 45.7883 116.86L48.0748 124.583L49.2868 124.954Z" fill="#FFCD5C"/>
<path d="M74.2762 99.6978L77.4848 103.081L74.2552 103.196L80.6609 115.407L83.9217 107.031L82.222 105.325L83.7411 102.239C83.7273 102.334 79.7158 98.4452 74.2762 99.6978Z" fill="#FFCD5C"/>
<path d="M75.3587 109.678L79.777 108.082L84.3068 111.755L80.0109 119.884L75.3587 109.678Z" fill="#FFCD5C"/>
<path d="M81.6406 131.008L74.7061 130.819L74.5664 136.015L81.501 136.203L81.6406 131.008Z" fill="#FFCD5C"/>
<path d="M79.715 132.221L76.8257 132.14L76.7644 134.353L79.6538 134.434L79.715 132.221Z" fill="#E2505E"/>
<path opacity="0.5" d="M86.4716 106.234C85.8194 105.361 85.4394 104.625 85.1271 104.094C84.9779 103.78 84.801 103.657 84.5426 103.425C84.298 103.098 83.9581 102.757 83.6182 102.416L83.755 102.144C83.755 102.144 82.8983 101.339 81.4556 100.546L82.5756 92.8308C81.1592 92.5278 79.7427 92.2249 78.217 92.0034C77.6449 91.9204 77.0727 91.8373 76.5959 91.7681L75.5035 99.2925C75.2036 99.3462 74.8084 99.3861 74.5085 99.4398C70.2976 99.6064 66.7389 100.646 63.6971 102.149C67.1008 103.519 71.5133 104.646 76.281 105.338C79.863 106.15 83.4326 106.376 86.4716 106.234Z" fill="#66493D"/>
<path d="M69.6235 19.0802C76.328 12.4678 36.6352 -19.9423 28.6402 29.7603C41.2173 16.9011 57.4431 31.219 69.6235 19.0802Z" fill="#FFD683"/>
<path d="M69.6235 19.0802C70.866 17.899 68.7622 7.5765 51.3793 11.9577C39.4499 14.9912 30.6724 22.4696 28.9816 29.4208C41.5572 17.2422 57.5661 31.0423 69.6235 19.0802Z" fill="#F7C872"/>
<path d="M71.044 25.5024C73.5686 24.852 75.1622 22.5723 74.6034 20.4106C74.0445 18.2489 71.5449 17.0237 69.0204 17.6741C66.4958 18.3245 64.9022 20.6042 65.4611 22.766C66.0199 24.9277 68.5195 26.1529 71.044 25.5024Z" fill="#B72E42"/>
<path d="M52.3577 58.1979L59.8633 72.2223L53.5307 76.9435L49.8577 74.0762L54.3065 70.9292L52.3577 58.1979Z" fill="#B72E42"/>
<path d="M48.6587 54.8405L46.3283 74.2445L53.5309 76.9435L48.6587 54.8405Z" fill="#E2505E"/>
<path d="M49.3421 60.1914L43.5877 75.0137L35.8516 73.307L35.6433 68.7058L41.0094 69.9712L49.3421 60.1914Z" fill="#B72E42"/>
<path d="M49.4889 55.1555L33.1959 66.1137L35.8514 73.307L49.4889 55.1555Z" fill="#E2505E"/>
<path d="M53.1742 78.0587C44.3264 67.2434 38.1423 34.0575 67.6954 22.3014C97.2485 10.5452 146.167 49.1575 113.058 80.0424C80.0436 110.941 53.1742 78.0587 53.1742 78.0587Z" fill="#FFD683"/>
<path d="M73.8909 94.9737C86.9873 100.668 109.396 97.211 116.374 77.3147C123.352 57.4183 119.401 44.3962 97.4627 37.9045C75.5245 31.4128 57.5667 37.0721 52.8182 53.013C47.9882 68.8448 53.9194 86.3362 73.8909 94.9737Z" fill="#FABE82"/>
<mask id="mask0" mask-type="alpha" maskUnits="userSpaceOnUse" x="46" y="31" width="77" height="71">
<path d="M73.8909 94.9737C86.9873 100.668 109.396 97.211 116.374 77.3147C123.352 57.4183 119.401 44.3962 97.4627 37.9045C75.5245 31.4128 57.5667 37.0721 52.8182 53.013C47.9882 68.8448 53.9194 86.3362 73.8909 94.9737Z" fill="url(#paint0_linear)"/>
</mask>
<g mask="url(#mask0)">
<path opacity="0.3" d="M73.8909 94.9737C86.9873 100.668 109.396 97.211 116.374 77.3147C123.352 57.4183 119.401 44.3962 97.4627 37.9045C75.5245 31.4128 57.5667 37.0721 52.8182 53.013C47.9882 68.8448 53.9194 86.3362 73.8909 94.9737Z" fill="url(#paint1_linear)"/>
<path d="M118.548 67.7103L55.0669 52.9504L53.0808 70.6539L116.562 85.4138L118.548 67.7103Z" fill="#E2505E"/>
<path d="M112.102 74.5548C111.618 77.8884 110.494 80.9346 109.03 83.6397L116.562 85.4139L118.534 67.8057L112.038 66.2789C112.523 68.9752 112.503 71.7927 112.102 74.5548Z" fill="#CE4155"/>
<path d="M60.5068 64.4381C61.0047 61.0093 62.1561 57.7726 63.8244 54.9999L54.9717 52.9366L52.9994 70.5449L60.531 72.3191C60.223 69.7458 60.1197 67.105 60.5068 64.4381Z" fill="#CE4155"/>
<path d="M104.076 80.878C106.287 79.0595 108.139 66.9771 101.724 65.5595C93.6202 63.7022 89.2675 72.8928 89.9387 77.6584L104.076 80.878Z" fill="#A82A3D"/>
<path d="M80.7048 75.5399C82.5347 73.666 84.0434 62.6036 76.078 59.7939C68.3986 57.0256 65.3242 67.4716 66.7444 72.4432L80.7048 75.5399Z" fill="#A82A3D"/>
<path d="M57.2246 95.7633C54.5807 83.1256 49.8735 53.8497 74.8364 34.814L69.6034 28.608C56.4076 37.6818 39.0642 49.1683 57.2246 95.7633Z" fill="#FFD683"/>
<path d="M102.992 103.77C109.937 92.8159 124.899 66.882 107.404 40.515L114.703 36.5175C124.214 49.4715 136.974 66.2037 102.992 103.77Z" fill="#FFD683"/>
<path d="M66.8674 72.2665C65.7551 69.8682 68.9941 58.9598 74.9323 60.3082C80.8705 61.6567 83.2342 71.5306 80.7186 75.4445L66.8674 72.2665Z" fill="#FFECDE"/>
<path d="M103.218 80.7534C105.225 79.0025 107.047 67.7912 101.19 66.5519C95.3474 65.2173 89.1168 73.26 89.7203 77.8213L103.218 80.7534Z" fill="#FFECDE"/>
<path d="M76.8774 81.1111L91.7513 83.9513C91.7513 83.9513 80.0973 98.5006 76.8774 81.1111Z" fill="#4C311B"/>
<path d="M78.1431 81.7811L79.1032 85.2272L86.4303 87.0689L90.2932 83.9342L78.1431 81.7811Z" fill="#FFEBDC"/>
<path d="M92.5951 45.9506L61.7693 40.9889L64.0621 39.2795L93.4481 42.0871L92.5951 45.9506Z" fill="#A06950"/>
<path d="M96.2582 46.8715L119.94 53.4219L119.196 51.1742L97.1113 43.008L96.2582 46.8715Z" fill="#A06950"/>
<path d="M91.5088 44.0423L93.6847 52.5275L98.8898 46.1837L96.5203 39.032L91.5088 44.0423Z" fill="#E2505E"/>
<path d="M92.8313 43.6508L94.0623 47.9142L96.1811 44.7207L96.0406 40.3239L92.8313 43.6508Z" fill="#FF8F9F"/>
<path d="M96.3856 78.3667C97.8191 78.7732 99.4284 77.5274 99.98 75.5842C100.532 73.6411 99.8168 71.7363 98.3832 71.3298C96.9497 70.9233 95.3404 72.169 94.7888 74.1122C94.2371 76.0554 94.952 77.9602 96.3856 78.3667Z" fill="#542B1B"/>
<path d="M75.0281 73.4326C76.5108 73.5789 77.8735 72.0681 78.0717 70.0581C78.2699 68.0481 77.2285 66.3 75.7458 66.1537C74.263 66.0073 72.9004 67.5181 72.7022 69.5281C72.504 71.5381 73.5454 73.2862 75.0281 73.4326Z" fill="#542B1B"/>
<path d="M77.2708 69.0116C77.3814 68.2496 76.9876 67.609 76.4155 67.5259C75.8433 67.4428 75.3651 68.0542 75.2683 68.7209C75.1577 69.4828 75.5515 70.1236 76.1236 70.2066C76.6819 70.3849 77.1601 69.7736 77.2708 69.0116Z" fill="#B56C55"/>
<path d="M99.4983 74.1837C99.6089 73.4218 99.2151 72.7811 98.643 72.698C98.0709 72.6149 97.5927 73.2263 97.4959 73.893C97.3852 74.655 97.779 75.2957 98.3512 75.3787C98.9233 75.4618 99.3877 74.9457 99.4983 74.1837Z" fill="#B56C55"/>
<path d="M98.9424 59.9041C98.9424 59.9041 105.639 63.4049 106.634 63.2576L107.412 62.5926C107.412 62.5926 100.24 58.342 99.1665 57.019L98.9424 59.9041Z" fill="#FFD683"/>
<path d="M79.6973 55.6512C79.6973 55.6512 72.2444 55.3472 71.4415 54.8416L71.0892 53.9151C71.0892 53.9151 79.2926 53.7446 80.8473 53.0951L79.6973 55.6512Z" fill="#FFD683"/>
<path d="M84.3732 80.4488C85.9005 80.6705 87.2438 80.1253 87.3736 79.2311C87.5034 78.3368 86.3706 77.4322 84.8434 77.2104C83.3162 76.9887 81.9729 77.5339 81.843 78.4281C81.7132 79.3224 82.846 80.227 84.3732 80.4488Z" fill="#EA9C68"/>
<path d="M85.1237 79.9743C86.651 80.196 87.9943 79.6509 88.1241 78.7566C88.254 77.8624 87.1211 76.9577 85.5939 76.736C84.0667 76.5142 82.7234 77.0594 82.5935 77.9537C82.4637 78.8479 83.5965 79.7526 85.1237 79.9743Z" fill="#FABE82"/>
<path d="M76.9573 81.9008C77.3786 81.962 77.7572 81.7557 77.8031 81.4401C77.8489 81.1245 77.5445 80.819 77.1232 80.7578C76.7019 80.6967 76.3232 80.903 76.2774 81.2186C76.2316 81.5342 76.536 81.8396 76.9573 81.9008Z" fill="#4C311B"/>
<path d="M91.6267 84.8085C92.048 84.8697 92.4267 84.6634 92.4725 84.3478C92.5183 84.0321 92.2139 83.7267 91.7926 83.6656C91.3713 83.6044 90.9926 83.8106 90.9468 84.1263C90.901 84.4419 91.2054 84.7473 91.6267 84.8085Z" fill="#4C311B"/>
<path d="M48.6269 50.3623C50.5833 40.2402 56.8342 22.6696 77.2459 22.91C77.2459 22.91 61.6638 26.2884 48.6269 50.3623Z" fill="#FFECB0"/>
<path d="M53.4946 49.0266C55.0238 41.1765 59.931 27.4955 75.778 27.6567C75.778 27.6567 63.6994 30.3767 53.4946 49.0266Z" fill="#FFECB0"/>
<path opacity="0.5" d="M67.7019 79.19C70.1006 79.6779 72.2085 79.2711 72.4099 78.2814C72.6113 77.2918 70.83 76.094 68.4313 75.6062C66.0325 75.1183 63.9246 75.525 63.7232 76.5147C63.5218 77.5043 65.3031 78.7021 67.7019 79.19Z" fill="#DD7F33"/>
<path opacity="0.5" d="M98.3215 86.2614C100.72 86.7492 102.828 86.3425 103.03 85.3528C103.231 84.3632 101.45 83.1654 99.0509 82.6776C96.6521 82.1897 94.5442 82.5964 94.3428 83.5861C94.1414 84.5757 95.9227 85.7735 98.3215 86.2614Z" fill="#DD7F33"/>
</g>
<defs>
<linearGradient id="paint0_linear" x1="85.5618" y1="61.4883" x2="76.8569" y2="104.718" gradientUnits="userSpaceOnUse">
<stop/>
<stop offset="0.9892" stop-color="#B3B3B3"/>
</linearGradient>
<linearGradient id="paint1_linear" x1="85.5618" y1="61.4883" x2="76.8569" y2="104.718" gradientUnits="userSpaceOnUse">
<stop stop-color="#C04B00"/>
<stop offset="0.9892" stop-color="#B73400"/>
</linearGradient>
</defs>
</svg>
