<svg width="254" height="175" viewBox="0 0 254 175" fill="none" xmlns="http://www.w3.org/2000/svg">
<path d="M99.7998 148C99.7998 148 105.6 98.3 110.4 91.7C115.2 85 138.2 89 139.3 90.3C148.7 100.8 157.3 147.8 157.3 147.8C135.2 161.4 116.6 135 99.7998 148Z" fill="#71CCC7"/>
<path d="M100.8 148C100.8 148 109 98.9 113.7 92.2C118.4 85.5 136.3 90.2 137.3 91.4C146.4 101.9 156.3 148.5 156.3 148.5C134.8 162.3 117 135 100.8 148Z" fill="#41847D"/>
<path d="M138.5 91.7C138.5 91.7 157.4 102.6 172.5 90.9L174.9 93.5C174.9 93.5 163.4 108.4 138.6 100.4L138.5 91.7Z" fill="#4C3039"/>
<path d="M172.6 90.9C171.6 92.1 160.8 104.5 138.6 98.4V100.4C163.4 108.4 174.9 93.5 174.9 93.5L172.6 90.9Z" fill="#3A222B"/>
<path d="M163.5 90.4L170.1 105.4L181.1 88.2L179.3 86.2L163.5 90.4Z" fill="#6CADAB"/>
<path d="M166.7 97.5001C170 96.5001 173.2 94.4 175.9 91.3C177.2 89.7 178.3 88 179.1 86.3L163.6 90.4001L166.7 97.5001Z" fill="#71CCC7"/>
<path d="M178.4 87C177.4 85.2 178.1 80.7 180.3 80.2C182.5 79.7 184.2 81.8 184.5 83.4C184.8 85 180.7 91.4 178.4 87Z" fill="#4C3039"/>
<path d="M113.5 129.5C115.8 133.7 138.5 131.8 141.5 129C144.5 126.2 147.8 94.7 134.6 90.4C130.4 89 114.3 88.5 113.1 91.6C112 94.7 109.7 122.6 113.5 129.5Z" fill="#4C3039"/>
<path d="M100.1 167.8C97.4998 156.1 99.4998 145.2 101.5 140.9C103.5 136.6 112.9 127.2 112.7 120.9L140.7 120C140.7 124.9 152.4 130.6 158.4 140.3C164.4 150 163.6 166.3 163.6 166.3H161.3C161.3 166.3 155.3 143.7 150.7 140.8C146.1 137.9 139.2 136 129 137.4C118.4 138.8 101.8 138.8 102.4 167.4L100.1 167.8Z" fill="#4C3039"/>
<path d="M148.8 139.1C144.2 136.2 137.3 134.3 127.1 135.7C116.5 137.1 99.8998 137.1 100.5 165.7L99.7998 165.8C99.8998 166.4 99.9998 167.1 100.2 167.8L102.5 167.5C101.9 138.9 118.5 138.9 129.1 137.5C138.9 136.2 145.7 137.9 150.2 140.6C149.7 139.9 149.2 139.4 148.8 139.1Z" fill="#3A222B"/>
<path d="M158.5 140.3C154.3 133.5 147.3 128.6 143.5 124.7C141.9 123 141.2 122.7 142.8 124.2C146.8 127.9 152.8 132.5 156.6 138.6C162.6 148.3 161.8 164.6 161.8 164.6H161C161.3 165.7 161.5 166.4 161.5 166.4H163.8C163.7 166.3 164.5 150 158.5 140.3Z" fill="#3A222B"/>
<path d="M109.9 127.2L125.5 138.7L133 138.1L146.9 126.9L144.2 122.3L110.8 123.5L109.9 127.2Z" fill="#71CCC7"/>
<path d="M131.7 130.8C126.2 132.4 121 132.9 116.8 132.3L125.5 138.7L133.1 138.1L146.9 126.9L145.2 123.9C141.9 126.7 137.2 129.2 131.7 130.8Z" fill="#5BB5AF"/>
<path d="M116.2 90.7C116.2 90.7 96.5002 101.5 81.2002 89.7L78.7002 92.2999C78.7002 92.2999 90.1002 107.4 115.9 99.5L116.2 90.7Z" fill="#4C3039"/>
<path d="M90.1001 150.6C90.1001 150.6 99.8 160.9 99.3 168.9C99.2 170.6 92.1001 174.3 92.1001 174.3H104.4C104.4 174.3 102.1 155.1 109.8 151.7L90.1001 150.6Z" fill="#71CCC7"/>
<path d="M109.9 151.7L100.2 151.1C101.8 153.9 102.7 157.3 102.7 161C102.7 166.4 100.7 171.2 97.6001 174.3H104.4C104.4 174.3 102.1 155.2 109.9 151.7Z" fill="#6CADAB"/>
<path d="M170.7 152.3C170.7 152.3 162.9 161.9 164.3 169.3C164.6 170.9 171.4 174.3 171.4 174.3H160C160 174.3 160.1 156.5 152.7 153.3L170.7 152.3Z" fill="#71CCC7"/>
<path d="M171.4 174.3C171.4 174.3 164.6 170.9 164.3 169.3C162.9 161.9 170.7 152.3 170.7 152.3L162.7 152.8C163.1 155 163.4 157.4 163.4 159.9C163.4 165.7 162.1 170.8 160.1 174.3C160.1 174.4 160.1 174.4 160.1 174.4H171.4V174.3Z" fill="#6CADAB"/>
<path d="M88.3 88.9L79.4 103.3L70 85.1L72.1 83.2L88.3 88.9Z" fill="#6CADAB"/>
<path d="M72.1 83.2L70 85.1L70.4 85.9C73 87.8 76.4 89.5 80.4 90.7C82.5 91.3 84.5 91.7 86.5 91.9L88.4 88.9L72.1 83.2Z" fill="#71CCC7"/>
<path d="M141.3 90.5C141.3 88.4 134.8 86.9 126.8 87.1C118.8 87.3 112.3 89 112.3 91.1C112.3 93.2 118.8 94.7 126.8 94.5C134.8 94.4 141.3 92.6 141.3 90.5Z" fill="#71CCC7"/>
<path d="M129.9 79.9L121.8 80.3L122.3 89.9C124 91.5 129.1 91.6 130.4 89.5L129.9 79.9Z" fill="#FABE82"/>
<path d="M120 8.4L122.2 1.6C122.5 0.7 123.3 0 124.3 0C125.3 0 126.2 0.500001 126.6 1.4L129.8 8.9L120 8.4Z" fill="#563A44"/>
<path d="M133.3 9.30003L136.8 3.00003C137.3 2.20003 138.2 1.70003 139.2 1.80003C140.2 1.90003 140.9 2.70003 141.1 3.60003L142.8 11.5L133.3 9.30003Z" fill="#563A44"/>
<path d="M108.4 13.6L107.4 6.50004C107.3 5.50004 107.7 4.60004 108.6 4.10004C109.5 3.60004 110.5 3.80004 111.2 4.40004L117.4 9.70004L108.4 13.6Z" fill="#563A44"/>
<path d="M115.421 124.115L112.221 124.092L112.209 125.792L115.409 125.815L115.421 124.115Z" fill="#FFF27B"/>
<path d="M120.772 123.924L117.576 124.082L117.66 125.78L120.856 125.622L120.772 123.924Z" fill="#FFF27B"/>
<path d="M126.371 123.625L123.175 123.783L123.259 125.481L126.455 125.323L126.371 123.625Z" fill="#FFF27B"/>
<path d="M132.06 123.322L128.864 123.48L128.947 125.178L132.143 125.02L132.06 123.322Z" fill="#FFF27B"/>
<path d="M137.662 123.227L134.466 123.384L134.549 125.082L137.746 124.925L137.662 123.227Z" fill="#FFF27B"/>
<path d="M143.68 122.826L140.484 122.985L140.568 124.683L143.765 124.524L143.68 122.826Z" fill="#FFF27B"/>
<path d="M131.2 98L124.2 103.7L128.5 105.6L122.8 110.3L126.8 112.2L120.8 118L130.8 112.2L125.9 110.1L135.7 104.8L128.4 102.9L131.2 98Z" fill="#FFF27B"/>
<path opacity="0.5" d="M144.3 94.2001C143.2 93.8001 142.1 93.4001 141.3 93.0001C141 92.6001 140.8 92.1001 140.5 91.7001C141 91.3001 141.3 90.9001 141.3 90.5001C141.3 88.7001 136.6 87.4001 130.2 87.1001L130.1 84.4001C128.6 84.3001 127 84.3 125.3 84.3C124.2 84.3 123 84.3001 122 84.4001L122.2 87.4001C119.5 87.7001 117.2 88.2001 115.5 88.7001C113.3 89.3001 111.5 90.2001 110.4 91.6001C110.1 92.0001 109.8 92.6 109.5 93.3C108.5 93.6 107.4 93.9001 106.3 94.1001C117.8 103.3 138.4 102 144.3 94.2001Z" fill="#66493D"/>
<path d="M96.2 84.6C91.5 74.6 76.1 32 104 16.7H152.3C152.3 16.7 182.1 50.1 152.7 84.6H96.2Z" fill="#4C3039"/>
<path d="M98.8001 84.6C94.5001 74.6 80.4002 32 105.9 16.7H150.1C150.1 16.7 177.4 50.1 150.5 84.6H98.8001Z" fill="#3A232B"/>
<path d="M89.4999 49.1C90.7999 68.7 102.4 86.6 125.8 86.1C154 85.6 162.3 64.3 162.7 49.3C163.1 35.7 154.3 8.90001 125.8 9.20001C108 9.50001 87.7999 24.5 89.4999 49.1Z" fill="#FABE82"/>
<path d="M161.2 61.4H91.3999L94.3999 67.7H158L161.2 61.4Z" fill="#EFA26F"/>
<mask id="mask0" mask-type="alpha" maskUnits="userSpaceOnUse" x="89" y="9" width="74" height="78">
<path d="M89.4999 49.1C90.7999 68.7 102.4 86.6 125.8 86.1C154 85.6 162.3 64.3 162.7 49.3C163.1 35.7 154.3 8.90001 125.8 9.20001C108 9.50001 87.7999 24.5 89.4999 49.1Z" fill="url(#paint0_linear)"/>
</mask>
<g mask="url(#mask0)">
<path opacity="0.3" d="M89.4999 49.1C90.7999 68.7 102.4 86.6 125.8 86.1C154 85.6 162.3 64.3 162.7 49.3C163.1 35.7 154.3 8.90001 125.8 9.20001C108 9.50001 87.7999 24.5 89.4999 49.1Z" fill="url(#paint1_linear)"/>
<path d="M90.8001 66.2H161.6C163.6 60.9 165.7 55.4 165.8 50.6C166.2 35.8 156.7 6.60004 125.7 7.00004C106.5 7.20004 84.6001 23.7 86.3001 50.4C86.7001 55.8 88.9001 61.2 90.8001 66.2Z" fill="#4C3039"/>
<path d="M87.6002 57.1C97.3002 39 116.9 26.6 139.5 26.6C147.4 26.6 154.9 28.1 161.7 30.8C156.4 18.4 145.4 6.69999 125.7 6.89999C106.5 7.09999 84.6001 23.6 86.3001 50.3C86.5001 52.6 87.0002 54.9 87.6002 57.1Z" fill="#563A44"/>
<path d="M89.2 51.7C88.8 25.6 108.5 9.80002 126.8 8.30002H126.7C108.7 7.70002 87.4 22.1 87.8 47.2C87.8 49.4 88.2 51.5 88.7 53.6C88.9 53.3 89 53.1 89.2 52.8C89.2 52.5 89.2 52.1 89.2 51.7Z" fill="#684A56"/>
<path d="M88.1002 54.2C84.8002 51.8 80.9002 58.1 83.1002 60.8C85.3002 63.4 90.5002 65.4 90.5002 65.4L88.1002 54.2Z" fill="#FABE82"/>
<path d="M164 54.2C167.1 51.8 170.8 58.1 168.8 60.8C166.7 63.4 161.8 65.4 161.8 65.4L164 54.2Z" fill="#FABE82"/>
<path d="M164.4 55.6C166.7 53.8 169.5 58.5 168 60.5C166.5 62.5 162.7 63.9 162.7 63.9L164.4 55.6Z" fill="#EFA16C"/>
<path d="M163.7 57.5C165.1 56.4 166.7 59.2 165.8 60.4C164.9 61.6 162.7 62.4 162.7 62.4L163.7 57.5Z" fill="#FABE82"/>
<path d="M117 72.3H133.8C133.8 72.3 126.9 87.3 117 72.3Z" fill="#3F2B1A"/>
<path d="M118.9 72.8L121.4 76.6001H129.5L132.4 72.8H118.9Z" fill="#FFECDE"/>
<path d="M126.2 69.5C128.354 69.5 130.1 68.4254 130.1 67.1C130.1 65.7745 128.354 64.7 126.2 64.7C124.046 64.7 122.3 65.7745 122.3 67.1C122.3 68.4254 124.046 69.5 126.2 69.5Z" fill="#EFA460"/>
<path d="M126.4 68.3C128.112 68.3 129.5 67.4493 129.5 66.4C129.5 65.3507 128.112 64.5 126.4 64.5C124.688 64.5 123.3 65.3507 123.3 66.4C123.3 67.4493 124.688 68.3 126.4 68.3Z" fill="#FABE82"/>
<path d="M104.2 62.7C104.2 62.7 111.4 60 119.4 61.7C119.4 61.7 117.6 50.2 110.6 51C103.5 51.9 103.5 60.1 104.2 62.7Z" fill="#FFECDE"/>
<path d="M146.6 62.7C146.6 62.7 139.9 60 132.4 61.7C132.4 61.7 134.1 50.2 140.7 51C147.2 51.9 147.2 60.1 146.6 62.7Z" fill="#FFECDE"/>
<path d="M139.4 45.7C137.7 47.3 147.9 50.1 148.8 49.6C149.8 48.9 143.2 42.1 139.4 45.7Z" fill="#684A56"/>
<path d="M114.2 45.1C114.8 42.8 104.7 45.8 104.2 46.8C103.6 47.8 112.8 50.2 114.2 45.1Z" fill="#684A56"/>
<path d="M138.7 60.7C140.025 60.7 141.1 59.3568 141.1 57.7C141.1 56.0431 140.025 54.7 138.7 54.7C137.374 54.7 136.3 56.0431 136.3 57.7C136.3 59.3568 137.374 60.7 138.7 60.7Z" fill="#87ABC1"/>
<path d="M139 58C139.442 58 139.8 57.5523 139.8 57C139.8 56.4477 139.442 56 139 56C138.558 56 138.2 56.4477 138.2 57C138.2 57.5523 138.558 58 139 58Z" fill="#BFDFEF"/>
<path d="M112.4 60.7C113.726 60.7 114.8 59.3568 114.8 57.7C114.8 56.0431 113.726 54.7 112.4 54.7C111.075 54.7 110 56.0431 110 57.7C110 59.3568 111.075 60.7 112.4 60.7Z" fill="#87ABC1"/>
<path d="M113 58C113.442 58 113.8 57.5523 113.8 57C113.8 56.4477 113.442 56 113 56C112.558 56 112.2 56.4477 112.2 57C112.2 57.5523 112.558 58 113 58Z" fill="#BFDFEF"/>
<path d="M126.3 21.9L123.4 27.5L126.3 33.1L129.3 27.5L126.3 21.9Z" fill="#71CCC7"/>
</g>
<path d="M67.4464 83.8751C66.4464 82.0751 67.1464 77.5751 69.3464 77.0751C71.5464 76.5751 73.2464 78.6751 73.5464 80.2751C73.8464 81.8751 69.7464 88.2751 67.4464 83.8751Z" fill="#4C3039"/>
<rect x="191.639" y="18" width="88.2485" height="52.9808" rx="4" transform="rotate(45.2699 191.639 18)" fill="#F8F8F8"/>
<g opacity="0.2">
<rect x="182.407" y="27.1456" width="88.2485" height="0.999638" transform="rotate(45.2699 182.407 27.1456)" fill="#529FCE"/>
<rect x="177.436" y="32.0702" width="88.2485" height="0.999638" transform="rotate(45.2699 177.436 32.0702)" fill="#529FCE"/>
<rect x="173.175" y="36.2914" width="88.2485" height="0.999638" transform="rotate(45.2699 173.175 36.2914)" fill="#529FCE"/>
<rect x="168.914" y="40.5125" width="88.2485" height="0.999638" transform="rotate(45.2699 168.914 40.5125)" fill="#529FCE"/>
<rect x="164.653" y="44.7335" width="88.2485" height="0.999638" transform="rotate(45.2699 164.653 44.7335)" fill="#529FCE"/>
<rect x="160.392" y="48.9546" width="88.2485" height="0.999638" transform="rotate(45.2699 160.392 48.9546)" fill="#529FCE"/>
<rect x="197.96" y="25.8009" width="0.832533" height="51.9812" transform="rotate(45.2699 197.96 25.8009)" fill="#529FCE"/>
<rect x="208.506" y="36.4471" width="0.832533" height="51.9812" transform="rotate(45.2699 208.506 36.4471)" fill="#529FCE"/>
<rect x="219.053" y="47.0934" width="0.832533" height="51.9812" transform="rotate(45.2699 219.053 47.0934)" fill="#529FCE"/>
<rect x="229.599" y="57.7395" width="0.832533" height="51.9812" transform="rotate(45.2699 229.599 57.7395)" fill="#529FCE"/>
<rect x="240.146" y="68.3857" width="0.832533" height="51.9812" transform="rotate(45.2699 240.146 68.3857)" fill="#529FCE"/>
</g>
<g opacity="0.4">
<rect x="196.877" y="30.3894" width="11.6555" height="3.99855" rx="1.99928" transform="rotate(45.2699 196.877 30.3894)" fill="#25C2FE"/>
<rect opacity="0.3" x="189.775" y="37.4246" width="5.82773" height="3.99855" rx="1.99928" transform="rotate(45.2699 189.775 37.4246)" fill="#25C2FE"/>
<rect opacity="0.3" x="201.494" y="49.2537" width="5.82773" height="3.99855" rx="1.99928" transform="rotate(45.2699 201.494 49.2537)" fill="#25C2FE"/>
<rect opacity="0.3" x="212.04" y="59.8998" width="5.82773" height="3.99855" rx="1.99928" transform="rotate(45.2699 212.04 59.8998)" fill="#25C2FE"/>
<rect opacity="0.3" x="223.172" y="71.1375" width="5.82773" height="3.99855" rx="1.99928" transform="rotate(45.2699 223.172 71.1375)" fill="#25C2FE"/>
<rect opacity="0.3" x="234.89" y="82.9666" width="5.82773" height="3.99855" rx="1.99928" transform="rotate(45.2699 234.89 82.9666)" fill="#25C2FE"/>
<rect opacity="0.3" x="185.514" y="41.6456" width="5.82773" height="3.99855" rx="1.99928" transform="rotate(45.2699 185.514 41.6456)" fill="#25C2FE"/>
<rect opacity="0.3" x="197.232" y="53.4747" width="5.82773" height="3.99855" rx="1.99928" transform="rotate(45.2699 197.232 53.4747)" fill="#25C2FE"/>
<rect opacity="0.3" x="207.779" y="64.121" width="5.82773" height="3.99855" rx="1.99928" transform="rotate(45.2699 207.779 64.121)" fill="#25C2FE"/>
<rect opacity="0.3" x="218.911" y="75.3585" width="5.82773" height="3.99855" rx="1.99928" transform="rotate(45.2699 218.911 75.3585)" fill="#25C2FE"/>
<rect opacity="0.3" x="230.629" y="87.1876" width="5.82773" height="3.99855" rx="1.99928" transform="rotate(45.2699 230.629 87.1876)" fill="#25C2FE"/>
<rect x="217.384" y="51.0903" width="11.6555" height="3.99855" rx="1.99928" transform="rotate(45.2699 217.384 51.0903)" fill="#25C2FE"/>
<rect x="206.837" y="40.4441" width="11.6555" height="3.99855" rx="1.99928" transform="rotate(45.2699 206.837 40.4441)" fill="#25C2FE"/>
<rect x="228.516" y="62.328" width="11.6555" height="3.99855" rx="1.99928" transform="rotate(45.2699 228.516 62.328)" fill="#25C2FE"/>
<rect x="240.234" y="74.1571" width="11.6555" height="3.99855" rx="1.99928" transform="rotate(45.2699 240.234 74.1571)" fill="#25C2FE"/>
</g>
<rect y="76.9144" width="88.2485" height="52.9808" rx="4" transform="rotate(-45.4733 0 76.9144)" fill="#F8F8F8"/>
<g opacity="0.2">
<rect x="9.26465" y="86.0271" width="88.2485" height="0.999638" transform="rotate(-45.4733 9.26465 86.0271)" fill="#529FCE"/>
<rect x="14.2534" y="90.9341" width="88.2485" height="0.999638" transform="rotate(-45.4733 14.2534 90.9341)" fill="#529FCE"/>
<rect x="18.5293" y="95.14" width="88.2485" height="0.999638" transform="rotate(-45.4733 18.5293 95.14)" fill="#529FCE"/>
<rect x="22.8052" y="99.3459" width="88.2485" height="0.999638" transform="rotate(-45.4733 22.8052 99.3459)" fill="#529FCE"/>
<rect x="27.0815" y="103.552" width="88.2485" height="0.999638" transform="rotate(-45.4733 27.0815 103.552)" fill="#529FCE"/>
<rect x="31.3574" y="107.758" width="88.2485" height="0.999638" transform="rotate(-45.4733 31.3574 107.758)" fill="#529FCE"/>
<rect x="7.71826" y="70.4929" width="0.832533" height="51.9812" transform="rotate(-45.4733 7.71826 70.4929)" fill="#529FCE"/>
<rect x="18.2266" y="59.8093" width="0.832533" height="51.9812" transform="rotate(-45.4733 18.2266 59.8093)" fill="#529FCE"/>
<rect x="28.7354" y="49.1257" width="0.832533" height="51.9812" transform="rotate(-45.4733 28.7354 49.1257)" fill="#529FCE"/>
<rect x="39.2437" y="38.4421" width="0.832533" height="51.9812" transform="rotate(-45.4733 39.2437 38.4421)" fill="#529FCE"/>
<rect x="49.7524" y="27.7587" width="0.832533" height="51.9812" transform="rotate(-45.4733 49.7524 27.7587)" fill="#529FCE"/>
</g>
<g opacity="0.4">
<rect x="12.3203" y="71.5164" width="11.6555" height="3.99855" rx="1.99928" transform="rotate(-45.4733 12.3203 71.5164)" fill="#25C2FE"/>
<rect opacity="0.3" x="19.4468" y="78.5262" width="5.82773" height="3.99855" rx="1.99928" transform="rotate(-45.4733 19.4468 78.5262)" fill="#25C2FE"/>
<rect opacity="0.3" x="31.123" y="66.6555" width="5.82773" height="3.99855" rx="1.99928" transform="rotate(-45.4733 31.123 66.6555)" fill="#25C2FE"/>
<rect opacity="0.3" x="41.6313" y="55.972" width="5.82773" height="3.99855" rx="1.99928" transform="rotate(-45.4733 41.6313 55.972)" fill="#25C2FE"/>
<rect opacity="0.3" x="52.7241" y="44.6949" width="5.82773" height="3.99855" rx="1.99928" transform="rotate(-45.4733 52.7241 44.6949)" fill="#25C2FE"/>
<rect opacity="0.3" x="64.3999" y="32.8242" width="5.82773" height="3.99855" rx="1.99928" transform="rotate(-45.4733 64.3999 32.8242)" fill="#25C2FE"/>
<rect opacity="0.3" x="23.7231" y="82.7322" width="5.82773" height="3.99855" rx="1.99928" transform="rotate(-45.4733 23.7231 82.7322)" fill="#25C2FE"/>
<rect opacity="0.3" x="35.3989" y="70.8615" width="5.82773" height="3.99855" rx="1.99928" transform="rotate(-45.4733 35.3989 70.8615)" fill="#25C2FE"/>
<rect opacity="0.3" x="45.9077" y="60.178" width="5.82773" height="3.99855" rx="1.99928" transform="rotate(-45.4733 45.9077 60.178)" fill="#25C2FE"/>
<rect opacity="0.3" x="57" y="48.9008" width="5.82773" height="3.99855" rx="1.99928" transform="rotate(-45.4733 57 48.9008)" fill="#25C2FE"/>
<rect opacity="0.3" x="68.6758" y="37.0302" width="5.82773" height="3.99855" rx="1.99928" transform="rotate(-45.4733 68.6758 37.0302)" fill="#25C2FE"/>
<rect x="32.7534" y="50.7427" width="11.6555" height="3.99855" rx="1.99928" transform="rotate(-45.4733 32.7534 50.7427)" fill="#25C2FE"/>
<rect x="22.2451" y="61.4263" width="11.6555" height="3.99855" rx="1.99928" transform="rotate(-45.4733 22.2451 61.4263)" fill="#25C2FE"/>
<rect x="43.8457" y="39.4656" width="11.6555" height="3.99855" rx="1.99928" transform="rotate(-45.4733 43.8457 39.4656)" fill="#25C2FE"/>
<rect x="55.522" y="27.595" width="11.6555" height="3.99855" rx="1.99928" transform="rotate(-45.4733 55.522 27.595)" fill="#25C2FE"/>
</g>
<defs>
<linearGradient id="paint0_linear" x1="126.217" y1="65.8557" x2="126.467" y2="87.1056" gradientUnits="userSpaceOnUse">
<stop/>
<stop offset="1" stop-color="white"/>
</linearGradient>
<linearGradient id="paint1_linear" x1="126.217" y1="65.8557" x2="126.467" y2="87.1056" gradientUnits="userSpaceOnUse">
<stop stop-color="#C04B00"/>
<stop offset="1" stop-color="#B73400"/>
</linearGradient>
</defs>
</svg>
