<svg width="290" height="200" viewBox="0 0 290 200" fill="none" xmlns="http://www.w3.org/2000/svg">
<ellipse opacity="0.2" cx="145" cy="186.5" rx="145" ry="13.5" fill="#121212"/>
<path d="M58.9676 83.4292C56.086 87.0789 56.272 97.186 56.272 97.186L52.4608 94.7528C52.4608 94.7528 47.813 97.4668 47.4412 98.1218C47.0694 98.8705 45.6751 93.3491 43.9089 93.7234C42.2357 94.1913 37.4021 94.2849 37.4021 94.2849C37.4021 94.2849 34.6134 82.4933 32.6614 82.3062C30.8023 82.3062 58.9676 83.4292 58.9676 83.4292Z" fill="#A06733"/>
<path d="M75.142 78.9371C74.3054 83.5227 79.1391 92.3196 79.1391 92.3196L74.6772 91.9453C74.6772 91.9453 71.7956 96.5309 71.7956 97.2796C71.7956 98.0283 67.9844 93.9106 66.6831 95.0336C65.3817 96.1566 61.1058 98.5898 61.1058 98.5898C61.1058 98.5898 54.3201 92.694 52.5539 93.5362C50.8807 94.4721 75.142 78.9371 75.142 78.9371Z" fill="#A06733"/>
<path d="M90.6651 71.6376C90.6651 76.3168 96.9861 84.0842 96.9861 84.0842L92.5242 84.5522C92.5242 84.5522 90.4792 89.5121 90.6651 90.3544C90.851 91.103 86.2962 87.734 85.2737 89.1378C84.1583 90.5415 80.4401 93.6298 80.4401 93.6298C80.4401 93.6298 72.7248 89.1378 71.1446 90.1672C69.5643 91.1966 90.6651 71.6376 90.6651 71.6376Z" fill="#A06733"/>
<path d="M56.4061 88.4485L50.7427 88.1649L50.1239 100.69L55.7873 100.974L56.4061 88.4485Z" fill="#FABE82"/>
<path d="M49.1144 179.914C54.9706 176.732 69.4716 178.698 77.0939 171.96C84.6232 165.222 106.561 170.649 110 176.452C110 176.452 83.5078 94.0978 52.3678 96.9053C23.5518 87.7341 49.1144 179.914 49.1144 179.914Z" fill="#5E4882"/>
<path d="M52.2748 96.9052C48.6496 95.7822 45.8609 96.2501 43.8159 97.8411C44.3736 165.689 68.449 152.213 73.3756 174.299C74.677 173.644 75.8854 172.895 77.0008 171.96C84.5302 165.222 106.468 170.649 109.907 176.452C110 176.452 83.4147 94.0977 52.2748 96.9052Z" fill="#443366"/>
<path d="M48.4638 142.2C44.5597 131.999 37.4021 99.0577 41.771 97.0924C54.9706 94.6592 66.1252 100.742 68.5421 105.609C70.4941 109.633 71.3307 125.355 71.9814 132.748C72.0744 134.245 71.0518 135.649 69.4716 136.023C63.8943 137.614 51.4384 141.17 48.4638 142.2Z" fill="#529FCE"/>
<path d="M68.5422 105.609C67.4268 103.269 64.2663 100.742 59.8974 98.8705C63.0579 100.555 65.2888 102.614 66.2184 104.486C68.1704 108.51 69.007 124.232 69.6577 131.625C69.7507 133.122 68.7282 134.526 67.1479 134.9C62.3143 136.304 52.461 139.112 47.9062 140.515C48.0922 141.077 48.2781 141.638 48.464 142.2C51.4385 141.17 63.8945 137.614 69.4718 136.023C71.052 135.555 72.0745 134.245 71.9816 132.748C71.3309 125.355 70.4943 109.539 68.5422 105.609Z" fill="#317D9B"/>
<path d="M47.7202 139.486C49.4864 145.943 46.9766 152.775 61.5705 176.358L63.8944 175.984C63.8944 175.984 50.5089 148.657 62.0353 146.13C73.5617 143.604 81.4629 170.743 81.4629 170.743L83.9727 169.807L72.6322 134.152L47.7202 139.486Z" fill="#529FCE"/>
<path d="M61.9421 146.037C62.4069 145.943 62.9646 145.85 63.4293 145.85C62.3139 145.569 61.1984 145.475 60.083 145.756C48.5566 148.283 61.9421 175.609 61.9421 175.609L61.1984 175.703C61.2914 175.89 61.3844 175.984 61.4773 176.171L63.8012 175.797C63.8012 175.984 50.4157 148.657 61.9421 146.037Z" fill="#317D9B"/>
<path d="M72.6317 133.964L70.9585 134.339L82.0201 169.433L81.0906 169.807C81.2765 170.369 81.3695 170.649 81.3695 170.649L83.8792 169.714L72.6317 133.964Z" fill="#317D9B"/>
<path d="M53.2974 166.344L61.6633 161.665L69.0997 177.2C69.0997 177.2 71.7954 191.893 65.3815 190.957C58.9676 190.021 60.0831 178.042 60.0831 178.042L53.2974 166.344Z" fill="#B6E7FF"/>
<path d="M69.0997 177.107L61.6633 161.572L58.3169 163.443C60.176 165.409 62.0351 168.123 63.6153 171.211C67.6124 179.072 68.3561 186.839 65.1956 188.43C64.266 188.898 63.0576 188.805 61.7562 188.15C62.5928 189.46 63.7083 190.396 65.3815 190.676C71.7954 191.799 69.0997 177.107 69.0997 177.107Z" fill="#9AD7EF"/>
<path d="M82.1134 155.489L73.2827 158.858L80.6262 174.299C80.6262 174.299 90.2005 185.716 93.454 180.195C96.7074 174.673 86.7612 168.029 86.7612 168.029L82.1134 155.489Z" fill="#B6E7FF"/>
<path d="M86.7611 168.029L82.1133 155.489L77.8374 157.08C79.5106 159.513 81.1838 162.788 82.5781 166.532C84.4372 171.398 85.4597 175.984 85.6456 179.166C88.4343 181.412 91.7807 182.909 93.3609 180.101C96.7073 174.767 86.7611 168.029 86.7611 168.029Z" fill="#9AD7EF"/>
<path d="M73.0966 136.959L48.3706 141.732V144.914L73.0966 140.141V136.959Z" fill="#317D9B"/>
<path d="M44.2808 133.029L47.5342 144.165L74.4911 136.959L72.1673 126.571L44.2808 133.029Z" fill="#FFF16C"/>
<path d="M67.7982 130.408C68.5418 133.309 68.6348 136.117 68.17 138.644L74.398 136.959L72.0741 126.478L66.8687 127.694C67.2405 128.63 67.6123 129.472 67.7982 130.408Z" fill="#EAD74E"/>
<path d="M47.2555 135.555C46.9766 134.526 46.7907 133.497 46.6978 132.467L44.188 133.029L47.4414 144.165L50.8807 143.229C49.3005 141.17 47.9991 138.55 47.2555 135.555Z" fill="#EAD74E"/>
<path d="M61.0128 99.7128C63.7085 98.2154 91.7809 120.488 95.5921 123.296L94.6625 124.887C94.6625 124.887 63.4297 107.106 61.1058 107.667C61.0128 107.667 58.2242 101.21 61.0128 99.7128Z" fill="#529FCE"/>
<path d="M66.4043 102.52C66.8691 100.929 63.3368 97.5603 55.1568 97.0924C48.371 96.718 42.8867 94.3784 42.4219 95.9694C41.9572 97.5603 46.9767 100.368 53.5765 102.146C60.2693 104.018 65.9395 104.111 66.4043 102.52Z" fill="#317D9B"/>
<path d="M94.0118 122.079L93.5471 122.922C93.5471 122.922 77.8377 113.937 67.8915 108.978L67.7056 110.662C77.5588 115.528 94.6625 124.887 94.6625 124.887L95.5921 123.296C95.2202 123.015 94.6625 122.641 94.0118 122.079Z" fill="#317D9B"/>
<path d="M83.1359 109.913L79.3247 119.365L88.1554 127.226C87.04 127.32 88.1554 131.157 90.7582 133.029C94.8482 134.807 103.028 127.226 98.0087 122.641C92.9891 118.149 83.1359 109.913 83.1359 109.913Z" fill="#B6E7FF"/>
<path d="M92.4313 129.472C91.4088 129.098 90.2933 129.192 90.0144 129.847C89.7356 130.408 90.2933 131.251 91.4088 131.625C92.4313 131.999 93.5467 131.906 93.8256 131.251C94.1045 130.689 93.4538 129.847 92.4313 129.472Z" fill="#9AD7EF"/>
<path d="M98.0088 122.734C96.8933 121.705 95.592 120.582 94.1976 119.365C94.2906 120.395 94.3836 121.331 94.3836 122.454C94.3836 126.665 93.2681 130.502 91.502 133.403C95.7779 133.964 102.75 126.946 98.0088 122.734Z" fill="#9AD7EF"/>
<path d="M58.3171 138.924C60.3193 138.924 61.9424 137.29 61.9424 135.275C61.9424 133.259 60.3193 131.625 58.3171 131.625C56.315 131.625 54.6919 133.259 54.6919 135.275C54.6919 137.29 56.315 138.924 58.3171 138.924Z" fill="#317D9B"/>
<path d="M66.1253 101.21C66.5901 99.6192 63.0578 96.531 54.8778 96.4374C48.0921 96.4374 42.7007 94.285 42.2359 95.9695C41.7711 97.5604 46.7907 100.087 53.3905 101.491C59.9903 102.988 65.6606 102.801 66.1253 101.21Z" fill="#5E4882"/>
<path d="M41.3063 106.544C41.3063 106.544 17.8816 78.3756 15 74.8194L16.2084 73.4156C16.2084 73.4156 41.1203 97.6539 43.4442 97.5603L41.3063 106.544Z" fill="#529FCE"/>
<path d="M19.4932 86.1218L25.0705 76.389L17.1694 67.7793C17.1694 67.7793 19.4932 61.6028 15.3103 59.1696C11.0343 56.7364 -0.02729 64.7846 4.89932 70.3061C9.73298 75.9211 19.4932 86.1218 19.4932 86.1218Z" fill="#B6E7FF"/>
<path d="M58.3169 137.801C59.703 137.801 60.8267 136.67 60.8267 135.275C60.8267 133.879 59.703 132.748 58.3169 132.748C56.9308 132.748 55.8071 133.879 55.8071 135.275C55.8071 136.67 56.9308 137.801 58.3169 137.801Z" fill="#FFF16C"/>
<path d="M59.4222 133.534L56.4341 134.233L56.7495 135.6L59.7376 134.902L59.4222 133.534Z" fill="#317D9B"/>
<path d="M59.0606 137.427L58.5029 134.713L58.0381 134.807L58.5958 137.614L59.0606 137.427Z" fill="#317D9B"/>
<path d="M56.2718 107.387C54.1339 107.387 52.1818 108.135 50.6016 109.352C51.81 108.79 53.2043 108.51 54.5986 108.51C59.6182 108.51 63.7082 112.066 63.7082 116.464C63.7082 120.863 59.6182 124.419 54.5986 124.419C53.1113 124.419 51.81 124.138 50.6016 123.577C52.1818 124.793 54.1339 125.542 56.2718 125.542C61.2914 125.542 65.3814 121.424 65.3814 116.371C65.2884 111.411 61.2914 107.387 56.2718 107.387Z" fill="#B6E7FF"/>
<path d="M54.4131 122.922C55.9003 122.922 57.2017 122.454 58.2242 121.518C57.3876 121.892 56.4581 122.079 55.4356 122.079C51.9962 122.079 49.2076 119.646 49.2076 116.651C49.2076 113.657 51.9962 111.224 55.4356 111.224C56.4581 111.224 57.3876 111.411 58.2242 111.785C57.2017 110.943 55.8074 110.381 54.4131 110.381C50.9737 110.381 48.1851 113.189 48.1851 116.651C48.1851 120.114 50.9737 122.922 54.4131 122.922Z" fill="#B6E7FF"/>
<path d="M56.4579 119.272C58.1007 119.272 59.4325 117.931 59.4325 116.277C59.4325 114.623 58.1007 113.282 56.4579 113.282C54.8151 113.282 53.4834 114.623 53.4834 116.277C53.4834 117.931 54.8151 119.272 56.4579 119.272Z" fill="#B6E7FF"/>
<path d="M86.9473 113.189L83.6009 109.446L77.187 119.833L81.6488 121.424L86.9473 113.189Z" fill="#9AD7EF"/>
<path d="M92.2454 131.063C91.13 130.876 90.1074 131.251 89.9215 131.906C89.7356 132.561 90.4793 133.216 91.5947 133.403C92.7102 133.59 93.7327 133.216 93.9186 132.561C94.1045 131.906 93.3609 131.251 92.2454 131.063Z" fill="#B6E7FF"/>
<path d="M91.688 128.537C90.8514 126.197 89.2712 124.606 88.3416 124.887C87.3191 125.168 87.2261 127.226 88.0627 129.566C88.8993 131.906 90.4796 133.497 91.4091 133.216C92.4316 132.935 92.6176 130.783 91.688 128.537Z" fill="#B6E7FF"/>
<path opacity="0.5" d="M56.644 104.205C62.3143 105.234 67.6127 105.702 71.8887 105.609C69.9366 103.83 67.9846 102.24 66.0325 100.929C66.1255 99.3385 62.872 96.7181 55.9004 96.4374L56.1793 90.5416C54.2272 90.2608 52.3681 89.9801 50.602 89.8865L50.3231 96.063C45.7683 95.5015 42.5149 94.6593 42.236 95.8758C42.1431 96.1566 42.236 96.5309 42.5149 96.9053C42.4219 96.9053 42.329 96.9053 42.1431 96.9989C40.6558 95.9694 37.9601 93.7234 34.8926 91.0095C35.2644 94.8464 39.1685 101.023 56.644 104.205Z" fill="#66493D"/>
<path d="M52.3677 25.6879C55.1563 19.0434 64.4518 14.1771 69.6573 18.8563C69.6573 18.8563 70.215 29.2441 71.9812 32.0516C73.7473 34.7655 52.3677 25.6879 52.3677 25.6879Z" fill="#5E4882"/>
<path d="M48.2781 92.2261C37.8671 90.1673 7.5638 76.6912 25.2252 40.5678C31.1744 28.3083 47.4415 18.482 70.7732 26.1558C84.6235 30.7415 99.3104 44.7791 90.8514 75.7553C86.1107 93.3491 61.0129 94.7529 48.2781 92.2261Z" fill="#FABE82"/>
<path d="M19.5549 54.5118C19.276 57.8808 19.4619 61.3434 20.0197 64.8996C24.0167 53.9503 71.1449 52.8273 90.8513 78.0949C90.8513 78.0949 92.4316 75.2874 93.9189 70.889C73.6547 47.8673 32.1968 46.37 19.5549 54.5118Z" fill="#EFA16C"/>
<mask id="mask0" mask-type="alpha" maskUnits="userSpaceOnUse" x="19" y="23" width="75" height="71">
<path d="M48.2781 92.2261C37.8671 90.1673 7.5638 76.6912 25.2252 40.5678C31.1744 28.3083 47.4415 18.482 70.7732 26.1558C84.6235 30.7415 99.3104 44.7791 90.8514 75.7553C86.1107 93.3491 61.0129 94.7529 48.2781 92.2261Z" fill="url(#paint0_linear)"/>
</mask>
<g mask="url(#mask0)">
<path opacity="0.3" d="M48.2781 92.2261C37.8671 90.1673 7.5638 76.6912 25.2252 40.5678C31.1744 28.3083 47.4415 18.482 70.7732 26.1558C84.6235 30.7415 99.3104 44.7791 90.8514 75.7553C86.1107 93.3491 61.0129 94.7529 48.2781 92.2261Z" fill="url(#paint1_linear)"/>
<path d="M20.1125 63.8702C24.1096 52.9209 71.6096 51.8914 91.409 77.1591C91.409 77.1591 110.465 44.4047 77.1869 26.1559C45.3963 8.65566 14.6282 31.6773 20.1125 63.8702Z" fill="#5E4882"/>
<path opacity="0.5" d="M91.409 77.159C91.409 77.159 104.237 55.0732 90.4795 37.1051C82.2065 37.3859 73.5617 46.8378 67.9844 61.0626C77.001 64.338 85.4599 69.4851 91.409 77.159Z" fill="#49386B"/>
<path d="M89.5501 35.8885C86.5756 32.4259 82.5785 29.0569 77.2801 26.1558C45.9543 8.93635 15.6509 31.0222 19.9268 62.4664C31.5462 38.696 59.2468 25.875 89.5501 35.8885Z" fill="#6B5791"/>
<path d="M89.2709 70.7017C96.0566 68.3621 98.2875 72.1055 97.358 76.2232C96.4284 80.3409 87.04 87.0789 82.2063 82.3061C77.0009 77.3462 83.1359 72.9478 89.2709 70.7017Z" fill="#FABE82"/>
<path d="M36.3799 61.2498L54.599 61.7177C54.599 61.7177 45.5824 83.5227 36.3799 61.2498Z" fill="#3F2B1A"/>
<path d="M37.4023 61.7177L39.8192 65.5546L50.2302 66.8648L53.1118 61.9048L37.4023 61.7177Z" fill="#FFECDE"/>
<path d="M27.7347 54.9797C26.0615 54.3246 27.9206 45.7149 30.3374 44.2175C36.5654 40.287 42.5145 43.7496 42.4216 49.8326C42.3286 51.3299 32.1035 56.8514 27.7347 54.9797Z" fill="#FFECDE"/>
<path d="M63.8941 55.5412C65.6602 54.8861 63.6152 46.0892 60.8266 44.6855C53.3902 41.0357 47.534 44.7791 48.2776 50.0198C48.4635 51.6107 58.9675 57.4129 63.8941 55.5412Z" fill="#FFECDE"/>
<path d="M44.0955 58.0146C45.9416 58.4646 47.6438 57.9742 47.8975 56.9193C48.1511 55.8644 46.8602 54.6445 45.0141 54.1945C43.168 53.7445 41.4657 54.2349 41.2121 55.2898C40.9584 56.3447 42.2493 57.5646 44.0955 58.0146Z" fill="#EFA460"/>
<path d="M43.763 56.8286C45.1102 57.1572 46.3493 56.8128 46.5306 56.0593C46.712 55.3058 45.7669 54.4286 44.4197 54.0999C43.0726 53.7713 41.8335 54.1157 41.6521 54.8692C41.4708 55.6227 42.4158 56.4999 43.763 56.8286Z" fill="#FABE82"/>
<path d="M37.8667 47.4929C38.0526 45.5276 36.4724 44.0303 34.3344 44.0303C32.1965 44.0303 30.2444 45.6212 29.9655 47.4929C29.7796 49.4581 31.3599 50.9555 33.4978 50.9555C35.6358 50.9555 37.5879 49.3646 37.8667 47.4929Z" fill="#8E615C"/>
<path d="M35.2643 45.7148C35.3572 44.9662 34.7995 44.4047 33.9629 44.4047C33.1263 44.4047 32.4756 44.9662 32.3827 45.7148C32.2897 46.4635 32.8474 47.025 33.684 47.025C34.5206 47.025 35.1713 46.3699 35.2643 45.7148Z" fill="#C69B9B"/>
<path d="M58.3169 49.0839C58.9676 47.493 58.0381 45.8085 56.179 45.247C54.3199 44.6855 52.2749 45.5277 51.5312 47.1186C50.8806 48.7096 51.8101 50.3941 53.6692 50.9556C55.5283 51.4235 57.5733 50.6748 58.3169 49.0839Z" fill="#8E615C"/>
<path d="M55.8072 46.7443C55.9002 45.9956 55.3425 45.4341 54.5059 45.4341C53.6693 45.4341 53.0186 45.9956 52.9256 46.7443C52.8327 47.4929 53.3904 48.0544 54.227 48.0544C55.0636 48.0544 55.8072 47.4929 55.8072 46.7443Z" fill="#C69B9B"/>
<path d="M89.1779 72.8542C93.4538 71.3569 94.8481 73.6965 94.2904 76.4104C93.7327 79.0308 87.6906 83.3356 84.6231 80.3409C81.3697 77.1591 85.2738 74.3516 89.1779 72.8542Z" fill="#EFA16C"/>
<path d="M85.274 77.3462C87.412 76.5975 88.0627 77.8141 87.7838 79.1243C87.5049 80.4345 84.5304 82.5869 83.0431 81.0896C81.3699 79.4986 83.322 78.0949 85.274 77.3462Z" fill="#FABE82"/>
<path d="M65.3216 67.6031C68.531 68.5229 71.4519 68.1403 71.8454 66.7484C72.239 65.3565 69.9563 63.4824 66.7468 62.5626C63.5373 61.6428 60.6165 62.0254 60.2229 63.4173C59.8293 64.8092 62.1121 66.6833 65.3216 67.6031Z" fill="#EFA16C"/>
<path d="M29.0283 65.6792C32.152 64.4976 34.2744 62.4416 33.7689 61.0869C33.2633 59.7322 30.3212 59.5918 27.1975 60.7733C24.0738 61.9549 21.9513 64.0109 22.4569 65.3656C22.9624 66.7203 25.9045 66.8607 29.0283 65.6792Z" fill="#EFA16C"/>
<path d="M54.599 62.6535C55.1124 62.6535 55.5285 62.2764 55.5285 61.8112C55.5285 61.3461 55.1124 60.969 54.599 60.969C54.0856 60.969 53.6694 61.3461 53.6694 61.8112C53.6694 62.2764 54.0856 62.6535 54.599 62.6535Z" fill="#3F2B1A"/>
<path d="M36.3797 62.1856C36.8931 62.1856 37.3093 61.8085 37.3093 61.3434C37.3093 60.8782 36.8931 60.5011 36.3797 60.5011C35.8664 60.5011 35.4502 60.8782 35.4502 61.3434C35.4502 61.8085 35.8664 62.1856 36.3797 62.1856Z" fill="#3F2B1A"/>
<path d="M48.5566 30.9285C54.6917 20.5407 61.2915 16.0487 69.6574 18.5755C59.2465 12.2118 52.4607 22.506 48.5566 30.9285Z" fill="#8776B2"/>
<path d="M66.0322 45.0597C66.311 44.4982 65.1026 42.3458 62.6858 41.0356C60.269 39.7255 57.6662 39.7255 57.3874 40.287C57.1085 40.8485 59.2465 41.6907 61.6633 43.0009C64.0801 44.2175 65.7533 45.5277 66.0322 45.0597Z" fill="#6B5791"/>
<path d="M36.4725 39.6319C36.2866 39.0704 33.7768 38.6025 31.267 39.6319C28.7572 40.6614 27.084 42.6266 27.2699 43.2817C27.4558 43.8432 29.5009 42.7202 32.0106 41.7844C34.5204 40.6614 36.6584 40.1934 36.4725 39.6319Z" fill="#8776B2"/>
</g>
<path d="M255.985 132.62C250.762 133.486 225.433 132.408 217.546 115.773L222.647 114.997C223.421 114.893 224.24 115.229 224.664 116.048C226.523 119.676 233.544 129.578 255.926 131.528L255.985 132.62Z" fill="#E2505E"/>
<path d="M255.926 131.528C252.922 131.308 250.16 130.907 247.642 130.325L247.488 131.386C243.481 131.346 227.432 127.607 218.135 116.942C226.511 132.457 250.883 133.395 255.985 132.619L255.926 131.528Z" fill="#C93A4F"/>
<path d="M222.498 99.5937L215.7 98.6068L213.374 114.626L220.172 115.613L222.498 99.5937Z" fill="#FABE82"/>
<path d="M224.622 149.947C224.622 149.947 229.28 129.067 225.313 117.551C223.563 112.422 216.646 110.768 213.473 110.957C203.166 111.736 202.141 144.192 202.49 151.5C202.619 155.094 206.121 163.835 194.735 172.797L195.914 175.135C195.914 175.135 205.396 169.579 206.656 162.396C207.931 155.107 213.519 153.968 217.344 153.765C221.184 153.456 229.702 159.026 233.9 168.951L236.528 168.033C236.528 168.033 231.91 155.772 224.622 149.947Z" fill="#E2505E"/>
<path d="M226.093 150.269L202.45 148.787L202.476 150.848L225.878 151.755L226.093 150.269Z" fill="#C93A4F"/>
<path d="M202.788 139.736C202.985 139.873 209.596 121.227 210.07 112.738C205.401 117.26 203.355 129.853 202.788 139.736Z" fill="#C93A4F"/>
<path d="M224.049 147.914C224.337 148.173 224.625 148.431 224.913 148.69C225.649 145.114 227.325 135.066 226.782 126.105C226.754 124.801 224.049 147.914 224.049 147.914Z" fill="#C93A4F"/>
<path d="M235.743 165.969L233.343 166.812C229.251 156.902 221.126 152.365 217.301 152.567C213.46 152.876 207.374 152.968 206.099 160.257C204.823 167.546 195.356 172.996 195.356 172.996L195.099 172.525C194.978 172.616 194.962 172.722 194.856 172.707L196.035 175.044C196.035 175.044 205.517 169.488 206.777 162.305C207.777 156.168 212.927 153.557 218.435 154.465C223.958 155.267 230.065 159.512 234.022 168.861L236.649 167.942C236.528 168.033 236.211 167.229 235.743 165.969Z" fill="#C93A4F"/>
<path d="M197.985 164.603C197.985 164.603 204.182 162.253 208.747 163.675C213.313 165.096 189.179 180.44 189.179 180.44L192.011 183.343L183.696 182.352L197.985 164.603Z" fill="#FFCD5C"/>
<path d="M208.748 163.675C207.504 163.277 206.108 163.183 204.803 163.21C201.283 169.523 195.352 175.27 185.183 182.568L192.117 183.358L189.285 180.455C189.179 180.44 213.313 165.096 208.748 163.675Z" fill="#E8B246"/>
<path d="M229.132 162.951C229.132 162.951 230.216 159.967 236.099 162.771C241.482 165.286 241.283 187.571 241.283 187.571L248.348 191.197L238.121 189.929L229.132 162.951Z" fill="#FFCD5C"/>
<path d="M240.351 190.253L248.454 191.212L241.389 187.587C241.389 187.587 241.588 165.301 236.205 162.786C236.008 162.65 235.902 162.634 235.689 162.603C238.19 171.524 240.047 183.384 240.351 190.253Z" fill="#E8B246"/>
<path d="M183.835 138.068C183.859 134.172 190.493 111.629 213.139 111.017L213.719 116.734C213.719 116.734 193.427 116.821 184.866 138.434L183.835 138.068Z" fill="#E2505E"/>
<path d="M186.763 131.344C185.299 134.706 183.883 136.992 183.926 138.19L185.079 138.465C191.411 122.486 204.063 118.257 210.303 117.105C204.14 117.726 194.678 120.902 186.763 131.344Z" fill="#C93A4F"/>
<path d="M226.403 147.39L201.969 146.875L202.236 149.514L226.213 150.937L226.403 147.39Z" fill="#FFCD5C"/>
<path d="M185.262 137.95C185.262 137.95 188.941 142.492 187.603 143.49C186.265 144.487 180.969 144.368 183.227 138.521C183.441 137.794 185.262 137.95 185.262 137.95Z" fill="#FFCD5C"/>
<path d="M184.758 139.177C184.758 139.177 189.14 134.397 191.096 135.114C191.096 135.114 185.25 129.066 180.862 130.162L183.409 138.764L184.758 139.177Z" fill="#FFCD5C"/>
<path d="M212.593 111.046L216.167 114.815L212.57 114.942L219.704 128.544L223.336 119.214L221.443 117.314L223.135 113.877C223.12 113.983 218.652 109.651 212.593 111.046Z" fill="#FFCD5C"/>
<path d="M213.799 122.162L218.72 120.385L223.765 124.475L218.98 133.53L213.799 122.162Z" fill="#FFCD5C"/>
<path d="M220.795 145.92L213.071 145.71L212.916 151.497L220.64 151.706L220.795 145.92Z" fill="#FFCD5C"/>
<path d="M218.651 147.271L215.433 147.181L215.364 149.646L218.583 149.736L218.651 147.271Z" fill="#E2505E"/>
<path opacity="0.5" d="M226.176 118.326C225.45 117.354 225.026 116.534 224.679 115.942C224.512 115.593 224.315 115.456 224.028 115.198C223.755 114.833 223.377 114.453 222.998 114.073L223.15 113.77C223.15 113.77 222.196 112.874 220.589 111.99L221.837 103.397C220.259 103.06 218.681 102.723 216.982 102.476C216.345 102.383 215.707 102.291 215.176 102.214L213.96 110.595C213.626 110.654 213.185 110.699 212.851 110.759C208.161 110.944 204.197 112.102 200.809 113.777C204.6 115.302 209.515 116.557 214.826 117.328C218.815 118.232 222.791 118.485 226.176 118.326Z" fill="#66493D"/>
<path d="M207.41 21.252C214.878 13.887 170.667 -22.2123 161.762 33.1479C175.771 18.8249 193.844 34.7725 207.41 21.252Z" fill="#FFD683"/>
<path d="M207.411 21.252C208.794 19.9364 206.451 8.43892 187.09 13.3189C173.802 16.6976 164.026 25.0272 162.143 32.7697C176.15 19.2048 193.981 34.5758 207.411 21.252Z" fill="#F7C872"/>
<path d="M208.993 28.4053C211.805 27.6809 213.58 25.1417 212.957 22.7339C212.335 20.3261 209.551 18.9615 206.739 19.6859C203.927 20.4104 202.152 22.9496 202.774 25.3574C203.397 27.7652 206.181 29.1298 208.993 28.4053Z" fill="#B72E42"/>
<path d="M188.179 64.8223L196.539 80.4431L189.486 85.7018L185.395 82.5081L190.35 79.0029L188.179 64.8223Z" fill="#B72E42"/>
<path d="M184.059 61.0828L181.463 82.6955L189.486 85.7018L184.059 61.0828Z" fill="#E2505E"/>
<path d="M184.82 67.0427L178.411 83.5522L169.794 81.6512L169.562 76.5264L175.539 77.9358L184.82 67.0427Z" fill="#B72E42"/>
<path d="M184.984 61.4336L166.837 73.6391L169.794 81.6512L184.984 61.4336Z" fill="#E2505E"/>
<path d="M189.089 86.944C179.234 74.8975 172.346 37.9342 205.263 24.8399C238.18 11.7457 292.667 54.753 255.789 89.1535C219.017 123.569 189.089 86.944 189.089 86.944Z" fill="#FFD683"/>
<path d="M212.164 105.784C226.751 112.127 251.711 108.276 259.483 86.1151C267.255 63.9541 262.854 49.4497 238.419 42.2191C213.983 34.9885 193.982 41.292 188.693 59.0473C183.313 76.6812 189.919 96.1636 212.164 105.784Z" fill="#FABE82"/>
<mask id="mask1" mask-type="alpha" maskUnits="userSpaceOnUse" x="186" y="39" width="77" height="70">
<path d="M212.164 105.784C226.751 112.127 251.711 108.276 259.483 86.1151C267.255 63.9541 262.854 49.4497 238.419 42.2191C213.983 34.9885 193.982 41.292 188.693 59.0473C183.313 76.6812 189.919 96.1636 212.164 105.784Z" fill="url(#paint2_linear)"/>
</mask>
<g mask="url(#mask1)">
<path opacity="0.3" d="M212.164 105.784C226.751 112.127 251.711 108.276 259.483 86.1151C267.255 63.9541 262.854 49.4497 238.419 42.2191C213.983 34.9885 193.982 41.292 188.693 59.0473C183.313 76.6812 189.919 96.1636 212.164 105.784Z" fill="url(#paint3_linear)"/>
<path d="M261.903 75.4176L191.197 58.9777L188.985 78.6963L259.691 95.1362L261.903 75.4176Z" fill="#E2505E"/>
<path d="M254.724 83.0412C254.185 86.7542 252.933 90.1472 251.302 93.1602L259.691 95.1363L261.888 75.5238L254.652 73.8233C255.192 76.8264 255.17 79.9646 254.724 83.0412Z" fill="#CE4155"/>
<path d="M197.256 71.7729C197.811 67.9538 199.093 64.3487 200.951 61.2604L191.091 58.9623L188.894 78.5748L197.283 80.551C196.94 77.6848 196.825 74.7434 197.256 71.7729Z" fill="#CE4155"/>
<path d="M245.785 90.0841C248.248 88.0585 250.31 74.6009 243.165 73.0219C234.139 70.9532 229.291 81.19 230.038 86.498L245.785 90.0841Z" fill="#A82A3D"/>
<path d="M219.753 84.1382C221.791 82.051 223.471 69.7295 214.599 66.5999C206.046 63.5166 202.622 75.1516 204.203 80.6891L219.753 84.1382Z" fill="#A82A3D"/>
<path d="M193.6 106.664C190.655 92.5875 185.412 59.9793 213.217 38.7767L207.388 31.8644C192.69 41.971 173.373 54.7649 193.6 106.664Z" fill="#FFD683"/>
<path d="M244.577 115.581C252.313 103.381 268.978 74.4949 249.492 45.1266L257.621 40.6741C268.215 55.1026 282.427 73.7394 244.577 115.581Z" fill="#FFD683"/>
<path d="M204.34 80.4924C203.102 77.8211 206.709 65.6711 213.323 67.173C219.937 68.6749 222.57 79.6727 219.768 84.0322L204.34 80.4924Z" fill="#FFECDE"/>
<path d="M244.828 89.9453C247.064 87.995 249.094 75.5076 242.57 74.1272C236.062 72.6408 229.122 81.5989 229.795 86.6794L244.828 89.9453Z" fill="#FFECDE"/>
<path d="M215.49 90.3438L232.057 93.5073C232.057 93.5073 219.077 109.713 215.49 90.3438Z" fill="#4C311B"/>
<path d="M216.9 91.09L217.969 94.9282L226.13 96.9797L230.433 93.4881L216.9 91.09Z" fill="#FFEBDC"/>
<path d="M232.997 51.1809L198.662 45.6544L201.216 43.7505L233.947 46.8776L232.997 51.1809Z" fill="#A06950"/>
<path d="M237.077 52.2068L263.455 59.5028L262.625 56.9992L238.027 47.9034L237.077 52.2068Z" fill="#A06950"/>
<path d="M231.787 49.0555L234.211 58.5065L240.008 51.4406L237.369 43.4749L231.787 49.0555Z" fill="#E2505E"/>
<path d="M233.26 48.6194L234.631 53.3681L236.991 49.8111L236.835 44.9138L233.26 48.6194Z" fill="#FF8F9F"/>
<path d="M237.219 87.287C238.815 87.7397 240.608 86.3522 241.222 84.1878C241.837 82.0234 241.041 79.9018 239.444 79.4491C237.847 78.9963 236.055 80.3838 235.44 82.5482C234.826 84.7126 235.622 86.8342 237.219 87.287Z" fill="#542B1B"/>
<path d="M213.43 81.7912C215.082 81.9542 216.6 80.2714 216.82 78.0326C217.041 75.7937 215.881 73.8467 214.23 73.6837C212.578 73.5207 211.06 75.2035 210.84 77.4423C210.619 79.6811 211.779 81.6281 213.43 81.7912Z" fill="#542B1B"/>
<path d="M215.928 76.8669C216.052 76.0182 215.613 75.3046 214.976 75.2121C214.338 75.1195 213.806 75.8005 213.698 76.5431C213.575 77.3918 214.013 78.1054 214.651 78.1979C215.272 78.3965 215.805 77.7156 215.928 76.8669Z" fill="#B56C55"/>
<path d="M240.686 82.6278C240.809 81.7791 240.37 81.0654 239.733 80.9729C239.096 80.8804 238.563 81.5613 238.455 82.3039C238.332 83.1526 238.771 83.8663 239.408 83.9588C240.045 84.0513 240.562 83.4765 240.686 82.6278Z" fill="#B56C55"/>
<path d="M240.067 66.7227C240.067 66.7227 247.526 70.6221 248.634 70.458L249.501 69.7172C249.501 69.7172 241.512 64.9828 240.316 63.5093L240.067 66.7227Z" fill="#FFD683"/>
<path d="M218.631 61.9859C218.631 61.9859 210.33 61.6472 209.436 61.0841L209.043 60.0522C209.043 60.0522 218.18 59.8622 219.912 59.1388L218.631 61.9859Z" fill="#FFD683"/>
<path d="M223.839 89.606C225.54 89.853 227.036 89.2457 227.181 88.2497C227.326 87.2537 226.064 86.246 224.363 85.9991C222.662 85.7521 221.165 86.3593 221.021 87.3553C220.876 88.3514 222.138 89.359 223.839 89.606Z" fill="#EA9C68"/>
<path d="M224.675 89.0774C226.376 89.3244 227.872 88.7172 228.017 87.7212C228.162 86.7251 226.9 85.7175 225.199 85.4705C223.498 85.2235 222.001 85.8308 221.857 86.8268C221.712 87.8228 222.974 88.8305 224.675 89.0774Z" fill="#FABE82"/>
<path d="M215.579 91.2232C216.049 91.2913 216.47 91.0616 216.521 90.71C216.573 90.3585 216.233 90.0183 215.764 89.9501C215.295 89.882 214.873 90.1118 214.822 90.4633C214.771 90.8149 215.11 91.1551 215.579 91.2232Z" fill="#4C311B"/>
<path d="M231.918 94.4621C232.388 94.5302 232.809 94.3004 232.86 93.9489C232.911 93.5973 232.572 93.2572 232.103 93.189C231.634 93.1209 231.212 93.3506 231.161 93.7022C231.11 94.0537 231.449 94.3939 231.918 94.4621Z" fill="#4C311B"/>
<path d="M184.024 56.0947C186.203 44.8205 193.166 25.25 215.901 25.5177C215.901 25.5177 198.545 29.2807 184.024 56.0947Z" fill="#FFECB0"/>
<path d="M189.446 54.6071C191.149 45.8635 196.615 30.6253 214.265 30.8048C214.265 30.8048 200.812 33.8344 189.446 54.6071Z" fill="#FFECB0"/>
<path opacity="0.5" d="M205.27 88.2038C207.942 88.7472 210.29 88.2942 210.514 87.1919C210.739 86.0896 208.755 84.7555 206.083 84.2121C203.411 83.6687 201.063 84.1217 200.839 85.224C200.615 86.3263 202.599 87.6604 205.27 88.2038Z" fill="#DD7F33"/>
<path opacity="0.5" d="M239.375 96.0802C242.047 96.6236 244.395 96.1705 244.619 95.0682C244.843 93.9659 242.859 92.6318 240.187 92.0884C237.516 91.545 235.168 91.9981 234.943 93.1004C234.719 94.2027 236.703 95.5368 239.375 96.0802Z" fill="#DD7F33"/>
</g>
<path d="M154.2 99.9551C164.3 101.655 176.8 112.855 178 117.755C179.2 122.655 167.5 136.555 167.5 136.555L166.8 132.855C166.8 132.855 176.3 122.455 173.9 117.755C171.4 113.055 157.2 109.555 157.2 109.555L154.2 99.9551Z" fill="#C93C31"/>
<path d="M168.6 132.055C168.6 132.055 178.1 121.655 175.7 116.955C173.2 112.255 159 108.755 159 108.755L156.5 100.655C155.7 100.455 155 100.255 154.2 100.155L157.2 109.755C157.2 109.755 171.4 113.355 173.9 117.955C176.4 122.655 166.8 133.055 166.8 133.055L167.5 136.755C167.5 136.755 168.1 135.955 169.1 134.755L168.6 132.055Z" fill="#AF2D27"/>
<path d="M170 123.855C174.1 125.755 176.5 128.155 178.1 132.655L167.4 136.655C167.4 136.655 169.6 144.555 163.7 141.055C157.9 137.655 170 123.855 170 123.855Z" fill="#FCDE63"/>
<path d="M166.7 141.255C164.5 134.855 170.7 129.455 174.1 126.355C173 125.355 171.6 124.455 170 123.755C170 123.755 157.8 137.555 163.7 140.955C165.4 141.955 166.5 141.955 167.1 141.555C167 141.555 166.8 141.455 166.7 141.255Z" fill="#EAC23F"/>
<path d="M128.8 96.9552L150.2 95.6552L150.8 99.4552L137.7 101.955L128.8 96.9552Z" fill="#EFBF48"/>
<path d="M146.1 175.755C152.8 174.755 156.7 102.555 145.1 100.055C133.5 97.5552 107.1 143.455 101.4 172.255C101.4 172.255 113.9 169.255 119.3 169.255C124.8 169.255 132.6 177.655 146.1 175.755Z" fill="#6D1715"/>
<path d="M146.1 175.755C146.1 175.755 149.7 173.655 146.2 168.955C146.2 168.955 152 152.555 152.2 147.255C151.2 163.055 149.6 175.555 146.1 175.755Z" fill="#821F1A"/>
<path d="M144.103 91.2854L138.098 92.3541L139.797 101.904L145.803 100.835L144.103 91.2854Z" fill="#FFC673"/>
<path d="M114 184.855H124.5C124.5 184.855 134 152.555 142.6 150.555C164 145.555 159.9 185.755 159.9 185.755H171.4L163.6 181.355C163.6 181.355 170.1 107.155 155.8 100.455C151.4 98.4552 136.4 99.2552 132.4 103.955C128.4 108.655 136.5 133.155 132.9 145.655C129.3 158.255 121.3 181.555 121.3 181.555L114 184.855Z" fill="#C93C31"/>
<path d="M164.2 142.355H133.6V146.955L165 145.755L164.2 142.355Z" fill="#AF2D27"/>
<path d="M123 181.955C123 181.955 133.1 157.255 136.7 144.655C139.4 135.255 134.3 119.855 133.3 110.855C133 107.855 131.2 107.455 131.3 110.455C131.7 119.855 135.7 136.155 132.9 145.655C129.3 158.255 121.3 181.555 121.3 181.555L113.9 184.755H116.4L123 181.955Z" fill="#AF2D27"/>
<path d="M161.6 185.655C161.9 182.055 164 152.555 149.4 150.455C163 154.755 159.9 185.655 159.9 185.655H161.6Z" fill="#AF2D27"/>
<path d="M166.1 138.555L131.9 138.855V145.355L166.1 145.055V138.555Z" fill="#FCDE63"/>
<path d="M139.8 139.755C139.8 139.455 139.8 139.055 139.8 138.755L131.9 138.855V145.455L140.2 145.355C139.9 143.555 139.8 141.655 139.8 139.755Z" fill="#EAC23F"/>
<path d="M126.5 128.055C124.9 125.555 118 122.555 115.5 123.855C114.4 125.455 121.6 129.555 126.5 128.055Z" fill="#D3A62A"/>
<path d="M115.1 128.455C115.1 128.455 126.1 101.855 140.2 100.255C140.2 100.255 138.4 105.655 135.7 107.955C126.8 115.655 118.9 130.955 117.5 130.955C116.2 131.055 115.1 128.455 115.1 128.455Z" fill="#C93C31"/>
<path d="M116.2 130.155C116.6 130.655 117.1 130.955 117.6 130.955C118.9 130.855 125.6 118.055 133.5 109.955C126.2 116.455 119.6 125.955 116.2 130.155Z" fill="#AF2D27"/>
<path d="M115.6 123.855C117.3 126.955 120.3 128.155 126.5 128.055L115.4 136.255C115.4 136.255 119.6 139.555 117.5 142.955C115.8 145.655 107.8 145.955 109.2 139.955C111.4 131.055 115.6 123.855 115.6 123.855Z" fill="#FCDE63"/>
<path d="M111.7 140.755C113.3 134.155 116.1 128.455 117.4 125.955C116.7 125.355 116.1 124.655 115.6 123.755C115.6 123.755 111.4 130.955 109.2 139.855C108.4 143.155 110.5 144.555 112.8 144.655C111.8 143.955 111.2 142.755 111.7 140.755Z" fill="#EAC23F"/>
<path d="M137.1 101.155L149.7 101.655L150.5 99.0551C144.1 99.3551 141.1 99.5551 137.1 101.155Z" fill="#FFC673"/>
<path d="M134.6 102.255L128.8 96.9551L146.8 101.555L134.6 102.255Z" fill="#FCDE63"/>
<path d="M159.9 185.655L163.6 181.355L165 169.455L159.2 171.455L159.9 185.655Z" fill="#FCDE63"/>
<path d="M124.5 184.655L121.1 181.155L125 167.055L129.9 171.455L124.5 184.655Z" fill="#FCDE63"/>
<path d="M150.2 95.6552L152.5 99.5552L149.7 101.655L150.2 95.6552Z" fill="#FCDE63"/>
<path d="M143.7 123.455L148.6 110.255L155.4 122.155L143.7 123.455Z" fill="#FCDE63"/>
<path d="M116.4 142.255C116.7 141.955 116.2 141.755 115.6 141.155C115 140.555 114.7 139.855 114.4 140.155C114.1 140.455 114.4 141.155 114.9 141.755C115.5 142.355 116.1 142.555 116.4 142.255Z" fill="#EAC23F"/>
<path opacity="0.5" d="M164.6 104.355C162 102.755 159.2 101.355 156.5 100.555C156.1 100.455 155.8 100.355 155.4 100.255H155.3C155.2 100.255 155.2 100.255 155.1 100.255C154.4 100.055 153.4 99.8551 152.4 99.6551L152.5 99.5551L150.3 95.6551L144.9 95.9551L144.1 91.2551L138.1 92.3551L138.8 96.3551L128.8 96.9551L134.6 102.255C132.2 103.555 130 105.555 128 107.755C131.8 108.355 136.1 108.755 140.7 108.755C150.8 108.655 159.7 106.855 164.6 104.355Z" fill="#66493D"/>
<path d="M162.8 42.3551C168.8 42.7551 176.9 41.7551 180 32.1551C180 32.1551 168.6 35.2551 169.7 23.5551L162.8 42.3551Z" fill="#49241B"/>
<path d="M93.9 58.6551L81.2 50.8551L77 62.7551L92.8 60.9551L93.9 58.6551Z" fill="#AD2D27"/>
<path d="M92.1998 64.4551L78.7998 71.1551L86.7998 81.0551L93.5998 66.6551L92.1998 64.4551Z" fill="#AD2D27"/>
<path d="M129.2 91.0551C117.9 91.7551 101.9 88.3551 101.4 81.9551C101.4 81.9551 92 83.3551 90 76.2551C88 69.1551 92.4 66.2551 92.4 66.2551L90.4 55.9551C90.4 55.9551 86.6 55.4551 87.7 58.6551C88.8 61.8551 73.5 52.0551 88.3 46.1551C88.3 46.1551 85.1 37.4551 91 35.2551C91 35.2551 74.8 31.6551 79.3 22.7551C83.8 13.8551 93.6 16.7551 93.6 16.7551C93.6 16.7551 90.3 9.45511 100.7 7.35511C111.2 5.25511 111.8 11.7551 111.8 11.7551C111.8 11.7551 113 4.65511 124 5.55511C124 5.55511 122.4 -0.644892 130 0.0551075C137.6 0.755107 141 4.85511 141 4.85511C141 4.85511 153 8.45511 150.7 1.85511C150.7 1.85511 187.9 -6.64489 168.2 39.2551L129.2 91.0551Z" fill="#49241B"/>
<path d="M137.1 61.7551C117.3 61.7551 99.6999 55.5551 88.1999 45.7551C88.2999 46.0551 88.2999 46.1551 88.2999 46.1551C73.4999 52.0551 88.7999 61.8551 87.6999 58.6551C86.5999 55.4551 90.4 55.9551 90.4 55.9551L92.4 66.2551C92.4 66.2551 87.9999 69.0551 89.9999 76.2551C91.9999 83.3551 101.4 81.9551 101.4 81.9551C101.9 88.3551 117.9 91.7551 129.2 91.0551L152.2 60.5551C147.4 61.3551 142.3 61.7551 137.1 61.7551Z" fill="#381913"/>
<path d="M120.1 89.655C137.1 97.355 168.9 95.555 173.5 68.455C176.9 48.355 157.2 -1.74496 113.5 39.155C99.6002 52.155 114.6 87.255 120.1 89.655Z" fill="#FFC673"/>
<path d="M173.7 64.8551L109.8 65.5551V68.0551L173.5 68.1551L173.7 64.8551Z" fill="#DD9F4E"/>
<mask id="mask2" mask-type="alpha" maskUnits="userSpaceOnUse" x="107" y="23" width="67" height="71">
<path d="M120.1 89.655C137.1 97.355 168.9 95.555 173.5 68.455C176.9 48.355 157.2 -1.74496 113.5 39.155C99.6002 52.155 114.6 87.255 120.1 89.655Z" fill="url(#paint4_linear)"/>
</mask>
<g mask="url(#mask2)">
<path opacity="0.3" d="M120.1 89.655C137.1 97.355 168.9 95.555 173.5 68.455C176.9 48.355 157.2 -1.74496 113.5 39.155C99.6002 52.155 114.6 87.255 120.1 89.655Z" fill="url(#paint5_linear)"/>
<path d="M89.8999 58.8551L173 50.4551L175 66.5551L91.8999 67.2551L89.8999 58.8551Z" fill="#C93C31"/>
<path d="M108.9 56.9551L89.7998 58.8551L91.8998 67.2551L111.3 67.1551C110 63.8551 109.2 60.4551 108.9 56.9551Z" fill="#AD2D27"/>
<path d="M111.9 67.8551C107.9 65.8551 103.4 63.9551 101.7 69.5551C100 75.1551 107.9 78.4551 112.4 76.9551C117 75.3551 111.9 67.8551 111.9 67.8551Z" fill="#FFC673"/>
<path d="M123.1 64.4551C124.3 61.1551 127.9 51.5551 143.5 62.9551L123.1 64.4551Z" fill="#FFECDE"/>
<path d="M169.6 62.0551C167.7 59.1551 162.1 50.8551 151.7 62.2551L169.6 62.0551Z" fill="#FFECDE"/>
<path d="M161.9 62.0551C163.447 62.0551 164.7 60.8015 164.7 59.2551C164.7 57.7087 163.447 56.4551 161.9 56.4551C160.354 56.4551 159.1 57.7087 159.1 59.2551C159.1 60.8015 160.354 62.0551 161.9 62.0551Z" fill="#3A291E"/>
<path d="M131.7 63.7551C133.357 63.7551 134.7 62.412 134.7 60.7551C134.7 59.0983 133.357 57.7551 131.7 57.7551C130.043 57.7551 128.7 59.0983 128.7 60.7551C128.7 62.412 130.043 63.7551 131.7 63.7551Z" fill="#3A291E"/>
<path d="M132.7 61.2551C133.363 61.2551 133.9 60.7178 133.9 60.0551C133.9 59.3924 133.363 58.8551 132.7 58.8551C132.037 58.8551 131.5 59.3924 131.5 60.0551C131.5 60.7178 132.037 61.2551 132.7 61.2551Z" fill="#705241"/>
<path d="M163 59.7551C163.607 59.7551 164.1 59.2626 164.1 58.6551C164.1 58.0475 163.607 57.5551 163 57.5551C162.392 57.5551 161.9 58.0475 161.9 58.6551C161.9 59.2626 162.392 59.7551 163 59.7551Z" fill="#705241"/>
<path d="M148.268 70.0362C150.57 69.7472 152.313 68.5356 152.161 67.3301C152.01 66.1245 150.021 65.3815 147.72 65.6705C145.418 65.9595 143.675 67.1711 143.827 68.3767C143.978 69.5822 145.967 70.3252 148.268 70.0362Z" fill="#DD9F4E"/>
<path d="M148.811 69.0485C150.729 68.8067 152.182 67.8111 152.058 66.8249C151.934 65.8386 150.278 65.2351 148.361 65.4769C146.443 65.7188 144.989 66.7143 145.113 67.7006C145.238 68.6868 146.893 69.2903 148.811 69.0485Z" fill="#FFC673"/>
<path d="M121.9 54.5551C123.8 53.6551 132.7 52.7551 134.7 51.6551C136.6 50.5551 134.2 48.2551 134.2 48.2551L121.9 54.5551Z" fill="#49241B"/>
<path d="M167.9 48.5551C166.1 48.0551 158.5 49.0551 156.6 48.4551C154.7 47.8551 156 45.0551 156 45.0551L167.9 48.5551Z" fill="#49241B"/>
<path d="M110.4 69.1552C107.9 67.8552 105.1 66.7552 104 70.1552C102.9 73.6552 107.9 75.7552 110.7 74.7552C113.6 73.9552 110.4 69.1552 110.4 69.1552Z" fill="#DD9F4E"/>
<path d="M111.8 71.4551C110.7 70.8551 109.4 70.3551 109 71.9551C108.5 73.4551 110.7 74.4551 112 74.0551C113.2 73.5551 111.8 71.4551 111.8 71.4551Z" fill="#FFC673"/>
<path d="M138.9 73.4551L154.7 73.2551C154.7 73.2551 148.3 90.5551 138.9 73.4551Z" fill="#3F2B1A"/>
<path d="M140.6 74.155L142.9 77.355L151 77.555L154 73.655L140.6 74.155Z" fill="#FFECDE"/>
<path d="M139.279 74.2584C139.72 74.2784 140.09 74.0264 140.105 73.6953C140.12 73.3643 139.775 73.0796 139.333 73.0596C138.892 73.0395 138.522 73.2916 138.507 73.6226C138.492 73.9536 138.837 74.2383 139.279 74.2584Z" fill="#3F2B1A"/>
<path d="M154.982 74.0566C155.423 74.0767 155.793 73.8246 155.808 73.4936C155.824 73.1625 155.478 72.8779 155.037 72.8578C154.595 72.8378 154.225 73.0899 154.21 73.4209C154.195 73.752 154.541 74.0366 154.982 74.0566Z" fill="#3F2B1A"/>
<path d="M128.2 73.9551C130.409 73.9551 132.2 73.0596 132.2 71.9551C132.2 70.8505 130.409 69.9551 128.2 69.9551C125.991 69.9551 124.2 70.8505 124.2 71.9551C124.2 73.0596 125.991 73.9551 128.2 73.9551Z" fill="#EFAC5E"/>
<path d="M163.7 73.8551C165.909 73.8551 167.7 72.9597 167.7 71.8551C167.7 70.7505 165.909 69.8551 163.7 69.8551C161.491 69.8551 159.7 70.7505 159.7 71.8551C159.7 72.9597 161.491 73.8551 163.7 73.8551Z" fill="#EFAC5E"/>
<path d="M128 34.4552C132.2 36.6552 147.5 28.6552 141.7 21.6552L131.7 22.4552C131.6 22.4552 135.8 31.6552 128 34.4552Z" fill="#49241B"/>
</g>
<defs>
<linearGradient id="paint0_linear" x1="53.6939" y1="75.5324" x2="49.9273" y2="94.2394" gradientUnits="userSpaceOnUse">
<stop/>
<stop offset="1" stop-color="white"/>
</linearGradient>
<linearGradient id="paint1_linear" x1="53.6939" y1="75.5324" x2="49.9273" y2="94.2394" gradientUnits="userSpaceOnUse">
<stop stop-color="#C04B00"/>
<stop offset="1" stop-color="#B73400"/>
</linearGradient>
<linearGradient id="paint2_linear" x1="225.163" y1="68.4873" x2="215.468" y2="116.637" gradientUnits="userSpaceOnUse">
<stop/>
<stop offset="0.9892" stop-color="#B3B3B3"/>
</linearGradient>
<linearGradient id="paint3_linear" x1="225.163" y1="68.4873" x2="215.468" y2="116.637" gradientUnits="userSpaceOnUse">
<stop stop-color="#C04B00"/>
<stop offset="0.9892" stop-color="#B73400"/>
</linearGradient>
<linearGradient id="paint4_linear" x1="138.858" y1="76.7149" x2="136.255" y2="100.144" gradientUnits="userSpaceOnUse">
<stop/>
<stop offset="1" stop-color="white"/>
</linearGradient>
<linearGradient id="paint5_linear" x1="138.858" y1="76.7149" x2="136.255" y2="100.144" gradientUnits="userSpaceOnUse">
<stop stop-color="#E55C00"/>
<stop offset="1" stop-color="#B73400"/>
</linearGradient>
</defs>
</svg>
